<?xml version="1.0" encoding="utf-8"?>
<!-- Generator: Adobe Illustrator 21.1.0, SVG Export Plug-In . SVG Version: 6.00 Build 0)  -->
<svg version="1.1" id="Слой_1" xmlns="http://www.w3.org/2000/svg" xmlns:xlink="http://www.w3.org/1999/xlink" x="0px" y="0px"
	 viewBox="0 0 325 325" style="enable-background:new 0 0 325 325;" xml:space="preserve">
<style type="text/css">
	.st0{fill:#9AC6E5;}
	.st1{fill:#333333;}
</style>
<rect x="10" y="8" class="st0" width="305" height="15"/>
<path class="st1" d="M309.3,0H15.7C7.1,0,0,7.1,0,15.7c0,8.7,7.1,15.7,15.7,15.7h293.5c8.7,0,15.7-7.1,15.7-15.7
	C325,7.1,317.9,0,309.3,0z M309.3,21H15.7c-2.9,0-5.2-2.4-5.2-5.2s2.3-5.2,5.2-5.2h293.5c2.9,0,5.2,2.4,5.2,5.2S312.2,21,309.3,21z"
	/>
<path class="st1" d="M162.5,167.7c-37.6,0-68.1,30.6-68.1,68.1c0,37.6,30.6,68.1,68.1,68.1c37.6,0,68.1-30.6,68.1-68.1
	C230.6,198.3,200.1,167.7,162.5,167.7z M219.9,241.1c-1.1,12-5.8,22.9-13.1,31.6l-10.9-10.9l-7.4,7.4l10.9,10.9
	c-10,8.3-22.9,13.4-36.9,13.4c-14,0-26.9-5-36.9-13.4l10.9-10.9l-7.4-7.4l-10.9,10.9c-7.3-8.7-12-19.7-13.1-31.6h15.5v-10.5h-15.5
	c1.1-12,5.8-22.9,13.1-31.6l10.9,10.9l7.4-7.4l-10.9-10.9c8.7-7.3,19.7-12,31.6-13.1V194h10.5v-15.5c12,1.1,22.9,5.8,31.6,13.1
	l-10.9,10.9l7.4,7.4l10.9-10.9c7.3,8.7,12,19.7,13.1,31.6h-15.5v10.5H219.9z"/>
<path class="st1" d="M174.2,213.3c-1.5-5.2-6.3-8.8-11.7-8.8c-5.4,0-10.2,3.6-11.7,8.8l-8.5,29.8c-0.5,1.7-0.7,3.5-0.7,5.2
	c0,10.5,8.5,19,19,19h3.9c10.5,0,19-8.5,19-19c0-1.8-0.2-3.5-0.7-5.2L174.2,213.3z M164.4,256.9h-3.9c-4.7,0-8.6-3.8-8.6-8.6
	c0-0.8,0.1-1.6,0.3-2.3l8.5-29.8c0.2-0.7,0.9-1.2,1.6-1.2c0.8,0,1.4,0.5,1.6,1.2l8.5,29.8c0.2,0.8,0.3,1.6,0.3,2.3
	C173,253,169.1,256.9,164.4,256.9z"/>
<path class="st1" d="M291.5,236.5c-3.8-38.4-30-71.5-66.5-84.2l-0.8-0.3H100.8l-0.8,0.3C63.4,165,37.3,198,33.5,236.5l-7.2,71.8
	c-0.1,0.5-0.1,1-0.1,1.6c0,8.4,6.8,15.2,15.2,15.2h242.1c8.4,0,15.2-6.8,15.2-15.2c0-0.5,0-1-0.1-1.5L291.5,236.5z M283.6,314.5
	H41.4c-2.6,0-4.7-2.1-4.7-5.2l7.2-71.8c3.4-34.1,26.4-63.5,58.7-75h119.8c32.3,11.5,55.3,40.9,58.7,75l7.2,71.8l0,0.5
	C288.3,312.4,286.2,314.5,283.6,314.5z"/>
<path class="st1" d="M304,47.2c0,37.6-30.6,68.1-68.1,68.1h-26.2h-10.5h-73.4h-10.5H89.1C51.5,115.3,21,84.8,21,47.2v-5.2H10.5v5.2
	c0,43.4,35.3,78.6,78.6,78.6h26.2v15.7h10.5v-15.7h10.5v15.7h10.5v-15.7h31.5v15.7h10.5v-15.7h10.5v15.7h10.5v-15.7h26.2
	c43.4,0,78.6-35.3,78.6-78.6v-5.2H304V47.2z"/>
<path class="st1" d="M41.9,41.9H31.5v10.5h10.5V41.9z"/>
<path class="st1" d="M146.8,41.9H52.4v10.5h94.4V41.9z"/>
</svg>
