<?xml version="1.0" encoding="utf-8"?>
<!-- Generator: Adobe Illustrator 21.1.0, SVG Export Plug-In . SVG Version: 6.00 Build 0)  -->
<svg version="1.1" xmlns="http://www.w3.org/2000/svg" xmlns:xlink="http://www.w3.org/1999/xlink" x="0px" y="0px"
	 viewBox="0 0 325 196.9" style="enable-background:new 0 0 325 196.9;" xml:space="preserve">
<style type="text/css">
	.st0{display:none;}
	.st1{display:inline;fill:#9AC6E5;}
	.st2{display:inline;fill:#333333;}
	.st3{fill:#9AC6E5;}
	.st4{fill:#333333;}
</style>
<g id="Слой_1" class="st0">
	<rect x="10" y="-120.1" class="st1" width="305" height="15"/>
	<path class="st2" d="M309.3-128.1H15.7C7.1-128.1,0-121,0-112.4c0,8.7,7.1,15.7,15.7,15.7h293.5c8.7,0,15.7-7.1,15.7-15.7
		C325-121,317.9-128.1,309.3-128.1z M309.3-107.1H15.7c-2.9,0-5.2-2.4-5.2-5.2c0-2.8,2.3-5.2,5.2-5.2h293.5c2.9,0,5.2,2.4,5.2,5.2
		C314.4-109.5,312.2-107.1,309.3-107.1z"/>
	<path class="st2" d="M162.5,39.6c-37.6,0-68.1,30.6-68.1,68.1c0,37.6,30.6,68.1,68.1,68.1c37.6,0,68.1-30.6,68.1-68.1
		S200.1,39.6,162.5,39.6z M219.9,113c-1.1,12-5.8,22.9-13.1,31.6l-10.9-10.9l-7.4,7.4l10.9,10.9c-10,8.3-22.9,13.4-36.9,13.4
		s-26.9-5-36.9-13.4l10.9-10.9l-7.4-7.4l-10.9,10.9c-7.3-8.7-12-19.7-13.1-31.6h15.5v-10.5h-15.5c1.1-12,5.8-22.9,13.1-31.6
		l10.9,10.9l7.4-7.4l-10.9-10.9c8.7-7.3,19.7-12,31.6-13.1v15.5h10.5V50.4c12,1.1,22.9,5.8,31.6,13.1l-10.9,10.9l7.4,7.4l10.9-10.9
		c7.3,8.7,12,19.7,13.1,31.6h-15.5V113H219.9z"/>
	<path class="st2" d="M174.2,85.2c-1.5-5.2-6.3-8.8-11.7-8.8s-10.2,3.6-11.7,8.8l-8.5,29.8c-0.5,1.7-0.7,3.5-0.7,5.2
		c0,10.5,8.5,19,19,19h3.9c10.5,0,19-8.5,19-19c0-1.8-0.2-3.5-0.7-5.2L174.2,85.2z M164.4,128.8h-3.9c-4.7,0-8.6-3.8-8.6-8.6
		c0-0.8,0.1-1.6,0.3-2.3l8.5-29.8c0.2-0.7,0.9-1.2,1.6-1.2c0.8,0,1.4,0.5,1.6,1.2l8.5,29.8c0.2,0.8,0.3,1.6,0.3,2.3
		C173,124.9,169.1,128.8,164.4,128.8z"/>
	<path class="st2" d="M291.5,108.4c-3.8-38.4-30-71.5-66.5-84.2l-0.8-0.3H100.8l-0.8,0.3c-36.6,12.7-62.7,45.7-66.5,84.2l-7.2,71.8
		c-0.1,0.5-0.1,1-0.1,1.6c0,8.4,6.8,15.2,15.2,15.2h242.1c8.4,0,15.2-6.8,15.2-15.2c0-0.5,0-1-0.1-1.5L291.5,108.4z M283.6,186.4
		H41.4c-2.6,0-4.7-2.1-4.7-5.2l7.2-71.8c3.4-34.1,26.4-63.5,58.7-75h119.8c32.3,11.5,55.3,40.9,58.7,75l7.2,71.8v0.5
		C288.3,184.3,286.2,186.4,283.6,186.4z"/>
	<path class="st2" d="M304-80.9c0,37.6-30.6,68.1-68.1,68.1h-26.2h-10.5h-73.4h-10.5H89.1C51.5-12.8,21-43.3,21-80.9v-5.2H10.5v5.2
		c0,43.4,35.3,78.6,78.6,78.6h26.2v15.7h10.5V-2.3h10.5v15.7h10.5V-2.3h31.5v15.7h10.5V-2.3h10.5v15.7h10.5V-2.3H236
		c43.4,0,78.6-35.3,78.6-78.6v-5.2H304V-80.9z"/>
	<path class="st2" d="M41.9-86.2H31.5v10.5H42L41.9-86.2L41.9-86.2z"/>
	<path class="st2" d="M146.8-86.2H52.4v10.5h94.4V-86.2z"/>
</g>
<g id="Слой_2">
	<rect x="30.9" y="132.5" class="st3" width="262.2" height="36.4"/>
	<path class="st4" d="M323.1,20.5C316.3,8.2,294.2,0,268.1,0c-12.8,0-25.2,2.1-35.2,5.9C223.1,2.1,210.6,0,197.8,0
		s-25.2,2.1-35.2,5.9C152.7,2.1,140.3,0,127.4,0s-25.2,2.1-35.2,5.9C82.5,2.1,70.1,0,57.3,0C31.2,0,9.2,8.2,2.4,20.5
		c-1.5,2.5-2.2,5.4-2.2,8.2v90c0,9.2,7.7,16.8,17.1,16.8h7.6v25.3c0,9.2,7.7,16.8,17.1,16.8h14.4v11.5c0,4.3,3.5,7.7,7.8,7.7h30.8
		c4.3,0,7.8-3.5,7.8-7.7v-11.5h119.9v11.5c0,4.3,3.5,7.7,7.8,7.7h30.8c4.3,0,7.8-3.5,7.8-7.7v-11.5h14.4c9.4,0,17.1-7.6,17.1-16.8
		v-25.3h7.6c9.4,0,17.1-7.6,17.1-16.8v-90C325.3,25.9,324.6,23,323.1,20.5z M93.3,187.4H65.7v-9.7h27.4L93.3,187.4L93.3,187.4z
		 M259.7,187.4h-27.4v-9.7h27.4V187.4z M291.2,160.9c0,4-3.4,7.3-7.6,7.3H42c-4.2,0-7.6-3.3-7.6-7.3v-25.3h256.8V160.9z
		 M315.8,118.9c0,4-3.4,7.3-7.6,7.3h-291c-4.2,0-7.6-3.3-7.6-7.3V51.6h81.5c2.6,0,4.8-2.1,4.8-4.8c0-2.6-2.1-4.8-4.8-4.8H9.7V28.7
		c0-1.2,0.3-2.4,0.9-3.5c0,0,0-0.1,0.1-0.1c4.2-7.6,21.9-15.7,46.7-15.7c12.4,0,24.3,2.1,33.3,5.9c1.2,0.5,2.5,0.5,3.6,0
		c9.1-3.7,20.9-5.9,33.3-5.9s24.3,2.1,33.3,5.9c1.2,0.5,2.5,0.5,3.6,0c9.1-3.7,20.9-5.9,33.3-5.9s24.3,2.1,33.3,5.9
		c1.2,0.5,2.5,0.5,3.6,0c9.1-3.7,20.9-5.9,33.3-5.9c24.7,0,42.5,8,46.7,15.7c0,0,0,0.1,0.1,0.1c0.7,1.1,0.9,2.2,0.9,3.5V42H110.2
		c-2.6,0-4.8,2.1-4.8,4.8s2.1,4.8,4.8,4.8h205.6V118.9z"/>
	<path class="st4" d="M80.7,79.5c-1.9-1.9-4.9-2-6.7-0.1l-3.3,3.2l-3.3-3.2c-1.9-1.9-4.9-1.8-6.7,0.1c-1.9,1.9-1.8,4.9,0.1,6.7
		l3.1,3l-3.1,3c-1.9,1.9-2,4.9-0.1,6.7c0.9,0.9,2.1,1.4,3.5,1.4c1.2,0,2.4-0.5,3.4-1.3l3.3-3.2L74,99c0.9,0.9,2.1,1.3,3.4,1.3
		c1.2,0,2.5-0.5,3.5-1.4c1.9-1.9,1.8-4.9-0.1-6.7l-3.1-3l3.1-3C82.4,84.4,82.5,81.4,80.7,79.5z"/>
	<path class="st4" d="M244.8,99c0.9,0.9,2.1,1.4,3.5,1.4c1.2,0,2.4-0.5,3.4-1.3l3.3-3.2l3.3,3.2c0.9,0.9,2.1,1.3,3.4,1.3
		c1.2,0,2.5-0.5,3.5-1.4c1.9-1.9,1.8-4.9-0.1-6.7l-3.1-3l3.1-3c1.9-1.9,2-4.9,0.1-6.7c-1.9-1.9-4.9-2-6.7-0.1l-3.3,3.2l-3.3-3.2
		c-1.9-1.9-4.9-1.8-6.7,0.1c-1.9,1.9-1.8,4.9,0.1,6.7l3.1,3l-3.1,3C243,94,242.9,97,244.8,99z"/>
	<path class="st4" d="M152.7,99c0.9,0.9,2.1,1.4,3.5,1.4c1.2,0,2.4-0.5,3.4-1.3l3.3-3.2l3.3,3.2c0.9,0.9,2.1,1.3,3.4,1.3
		s2.5-0.5,3.5-1.4c1.9-1.9,1.8-4.9-0.1-6.7l-3.1-3l3.1-3c1.9-1.9,2-4.9,0.1-6.7c-1.9-1.9-4.9-2-6.7-0.1l-3.3,3.2l-3.3-3.2
		c-1.9-1.9-4.9-1.8-6.7,0.1c-1.9,1.9-1.8,4.9,0.1,6.7l3.1,3l-3.1,3C150.9,94,150.9,97,152.7,99z"/>
</g>
</svg>
