<svg id="Слой_1" data-name="Слой 1" xmlns="http://www.w3.org/2000/svg" viewBox="0 0 500 500"><defs><style>.cls-1{fill:#8cc3e5;}.cls-1,.cls-2,.cls-3,.cls-4{stroke:#000;stroke-linejoin:round;stroke-width:16px;}.cls-2{fill:#fff;}.cls-3,.cls-4{fill:none;}.cls-4{stroke-linecap:round;}</style></defs><rect class="cls-1" x="64.98" y="162.39" width="125.95" height="25.11"/><rect class="cls-2" x="64.98" y="187.5" width="125.95" height="25.11"/><path class="cls-2" d="M110,404.67h36a25.11,25.11,0,0,1,25.11,25.11v0a0,0,0,0,1,0,0H84.85a0,0,0,0,1,0,0v0A25.11,25.11,0,0,1,110,404.67Z"/><rect class="cls-3" x="115.92" y="212.6" width="24.07" height="192.07"/><line class="cls-4" x1="90.28" y1="324.8" x2="165.64" y2="324.8"/><line class="cls-4" x1="291.04" y1="324.8" x2="393.87" y2="324.8"/><line class="cls-4" x1="296.05" y1="84.23" x2="296.05" y2="159.6"/><line class="cls-4" x1="388.87" y1="84.23" x2="388.87" y2="159.6"/><line class="cls-4" x1="296.05" y1="200.05" x2="286.04" y2="429.77"/><line class="cls-4" x1="388.87" y1="200.05" x2="398.88" y2="429.77"/><rect class="cls-1" x="279.48" y="162.39" width="125.95" height="25.11"/><rect class="cls-1" x="279.48" y="60.9" width="125.95" height="53.86"/><rect class="cls-2" x="279.48" y="187.5" width="125.95" height="25.11"/></svg>