<?xml version="1.0" encoding="utf-8"?>
<!-- Generator: Adobe Illustrator 21.1.0, SVG Export Plug-In . SVG Version: 6.00 Build 0)  -->
<svg version="1.1" xmlns="http://www.w3.org/2000/svg" xmlns:xlink="http://www.w3.org/1999/xlink" x="0px" y="0px"
	 viewBox="0 0 213.8 325" style="enable-background:new 0 0 213.8 325;" xml:space="preserve">
<style type="text/css">
	.st0{display:none;}
	.st1{display:inline;fill:#9AC6E5;}
	.st2{display:inline;fill:#333333;}
	.st3{display:inline;}
	.st4{fill:#9AC6E5;}
	.st5{display:inline;fill:#FFFFFF;stroke:#000000;stroke-width:5;stroke-miterlimit:10;}
	.st6{display:inline;fill:none;stroke:#000000;stroke-width:5;stroke-miterlimit:10;}
	.st7{display:inline;fill:#FFFFFF;}
	.st8{fill:#68B9DD;}
	.st9{fill:none;stroke:#353333;stroke-width:5;stroke-miterlimit:10;}
	.st10{fill:none;stroke:#9AC6E5;stroke-width:5;stroke-miterlimit:10;}
	.st11{fill:#333333;}
	.st12{fill:#FFFFFF;stroke:#000000;stroke-width:10;stroke-miterlimit:10;}
	.st13{stroke:#000000;stroke-width:10;stroke-miterlimit:10;}
	.st14{fill:#8BBAF2;stroke:#000000;stroke-width:10;stroke-miterlimit:10;}
	.st15{display:inline;fill:none;stroke:#000000;stroke-width:10;stroke-miterlimit:10;}
	.st16{fill:none;stroke:#9AC6E5;stroke-width:10;stroke-miterlimit:10;}
	.st17{fill:none;stroke:#000000;stroke-width:15;stroke-miterlimit:10;}
	.st18{fill:#9AC6E5;stroke:#000000;stroke-width:15;stroke-miterlimit:10;}
	.st19{display:inline;fill:none;stroke:#000000;stroke-width:15;stroke-miterlimit:10;}
</style>
<g id="Слой_1" class="st0">
	<rect x="-49" y="8" class="st1" width="305" height="15"/>
	<path class="st2" d="M250.3,0H-43.3C-51.9,0-59,7.1-59,15.7c0,8.7,7.1,15.7,15.7,15.7h293.5c8.7,0,15.7-7.1,15.7-15.7
		C266,7.1,258.9,0,250.3,0z M250.3,21H-43.3c-2.9,0-5.2-2.4-5.2-5.2s2.3-5.2,5.2-5.2h293.5c2.9,0,5.2,2.4,5.2,5.2S253.2,21,250.3,21
		z"/>
	<path class="st2" d="M103.5,167.7c-37.6,0-68.1,30.6-68.1,68.1c0,37.6,30.6,68.1,68.1,68.1c37.6,0,68.1-30.6,68.1-68.1
		S141.1,167.7,103.5,167.7z M160.9,241.1c-1.1,12-5.8,22.9-13.1,31.6l-10.9-10.9l-7.4,7.4l10.9,10.9c-10,8.3-22.9,13.4-36.9,13.4
		s-26.9-5-36.9-13.4l10.9-10.9l-7.4-7.4l-10.9,10.9c-7.3-8.7-12-19.7-13.1-31.6h15.5v-10.5H46.1c1.1-12,5.8-22.9,13.1-31.6
		l10.9,10.9l7.4-7.4l-10.9-10.9c8.7-7.3,19.7-12,31.6-13.1V194h10.5v-15.5c12,1.1,22.9,5.8,31.6,13.1l-10.9,10.9l7.4,7.4l10.9-10.9
		c7.3,8.7,12,19.7,13.1,31.6h-15.5v10.5H160.9z"/>
	<path class="st2" d="M115.2,213.3c-1.5-5.2-6.3-8.8-11.7-8.8s-10.2,3.6-11.7,8.8l-8.5,29.8c-0.5,1.7-0.7,3.5-0.7,5.2
		c0,10.5,8.5,19,19,19h3.9c10.5,0,19-8.5,19-19c0-1.8-0.2-3.5-0.7-5.2L115.2,213.3z M105.4,256.9h-3.9c-4.7,0-8.6-3.8-8.6-8.6
		c0-0.8,0.1-1.6,0.3-2.3l8.5-29.8c0.2-0.7,0.9-1.2,1.6-1.2c0.8,0,1.4,0.5,1.6,1.2l8.5,29.8c0.2,0.8,0.3,1.6,0.3,2.3
		C114,253,110.1,256.9,105.4,256.9z"/>
	<path class="st2" d="M232.5,236.5c-3.8-38.4-30-71.5-66.5-84.2l-0.8-0.3H41.8l-0.8,0.3C4.4,165-21.7,198-25.5,236.5l-7.2,71.8
		c-0.1,0.5-0.1,1-0.1,1.6c0,8.4,6.8,15.2,15.2,15.2h242.1c8.4,0,15.2-6.8,15.2-15.2c0-0.5,0-1-0.1-1.5L232.5,236.5z M224.6,314.5
		H-17.6c-2.6,0-4.7-2.1-4.7-5.2l7.2-71.8c3.4-34.1,26.4-63.5,58.7-75h119.8c32.3,11.5,55.3,40.9,58.7,75l7.2,71.8v0.5
		C229.3,312.4,227.2,314.5,224.6,314.5z"/>
	<path class="st2" d="M245,47.2c0,37.6-30.6,68.1-68.1,68.1h-26.2h-10.5H66.8H56.3H30.1C-7.5,115.3-38,84.8-38,47.2V42h-10.5v5.2
		c0,43.4,35.3,78.6,78.6,78.6h26.2v15.7h10.5v-15.7h10.5v15.7h10.5v-15.7h31.5v15.7h10.5v-15.7h10.5v15.7h10.5v-15.7H177
		c43.4,0,78.6-35.3,78.6-78.6V42H245V47.2z"/>
	<path class="st2" d="M-17.1,41.9h-10.4v10.5H-17L-17.1,41.9L-17.1,41.9z"/>
	<path class="st2" d="M87.8,41.9H-6.6v10.5h94.4V41.9z"/>
</g>
<g id="Слой_2" class="st0">
	<rect x="-23.8" y="192.3" class="st1" width="253.3" height="34.2"/>
	<path class="st2" d="M258.4,87c-6.6-11.6-27.9-19.3-53.1-19.3c-12.3,0-24.3,1.9-34,5.5c-9.6-3.5-21.5-5.5-34-5.5s-24.3,1.9-34,5.5
		c-9.6-3.5-21.5-5.5-34-5.5s-24.3,1.9-34,5.5c-9.4-3.6-21.4-5.5-33.7-5.5c-25.2,0-46.5,7.7-53.1,19.3c-1.4,2.4-2.2,5.1-2.2,7.7v84.6
		c0,8.7,7.4,15.8,16.5,15.8h7.3v23.8c0,8.7,7.4,15.8,16.5,15.8H0.6v10.8c0,4,3.4,7.3,7.6,7.3h29.7c4.1,0,7.6-3.2,7.6-7.3v-10.8
		h115.8v10.8c0,4,3.4,7.3,7.6,7.3h29.7c4.1,0,7.6-3.2,7.6-7.3v-10.8h13.9c9.1,0,16.5-7.1,16.5-15.8v-23.8h7.3
		c9.1,0,16.5-7.1,16.5-15.8V94.8C260.6,92.1,259.9,89.4,258.4,87z M36.4,243.8H9.8v-9.1h26.5L36.4,243.8L36.4,243.8z M197.2,243.8
		h-26.5v-9.1h26.5V243.8z M227.6,218.9c0,3.8-3.2,6.8-7.3,6.8H-13.2c-4.1,0-7.3-3.1-7.3-6.8v-23.8h248.1V218.9z M251.4,179.5
		c0,3.8-3.2,6.8-7.3,6.8H-37.1c-4.1,0-7.3-3.1-7.3-6.8v-63.2h78.8c2.5,0,4.6-2,4.6-4.5c0-2.5-2.1-4.5-4.6-4.5h-78.8V94.8
		c0-1.1,0.3-2.3,0.9-3.3c0,0,0-0.1,0.1-0.1c4.1-7.1,21.2-14.7,45.1-14.7c12,0,23.4,1.9,32.2,5.5c1.2,0.4,2.4,0.4,3.5,0
		c8.7-3.5,20.2-5.5,32.2-5.5s23.4,1.9,32.2,5.5c1.2,0.4,2.4,0.4,3.5,0c8.7-3.5,20.2-5.5,32.2-5.5s23.4,1.9,32.2,5.5
		c1.2,0.4,2.4,0.4,3.5,0c8.7-3.5,20.2-5.5,32.2-5.5c23.9,0,41,7.5,45.1,14.7c0,0,0,0.1,0.1,0.1c0.6,1.1,0.9,2.1,0.9,3.3v12.5H52.7
		c-2.5,0-4.6,2-4.6,4.5c0,2.5,2.1,4.5,4.6,4.5h198.7V179.5z"/>
	<path class="st2" d="M24.2,142.5c-1.8-1.8-4.7-1.8-6.5-0.1l-3.2,3l-3.2-3c-1.8-1.8-4.8-1.7-6.5,0.1c-1.8,1.8-1.7,4.6,0.1,6.3l3,2.8
		l-3,2.8c-1.8,1.8-1.9,4.6-0.1,6.3c0.9,0.9,2.1,1.3,3.3,1.3c1.2,0,2.3-0.4,3.2-1.2l3.2-3l3.2,3c0.9,0.9,2.1,1.2,3.2,1.2
		c1.2,0,2.4-0.4,3.3-1.3c1.8-1.8,1.7-4.6-0.1-6.3l-3-2.8l3-2.8C26,147.1,26,144.2,24.2,142.5z"/>
	<path class="st2" d="M182.8,160.8c0.9,0.9,2.1,1.3,3.3,1.3c1.2,0,2.3-0.4,3.2-1.2l3.2-3l3.2,3c0.9,0.9,2.1,1.2,3.2,1.2
		c1.2,0,2.4-0.4,3.3-1.3c1.8-1.8,1.7-4.6-0.1-6.3l-3-2.8l3-2.8c1.8-1.8,1.9-4.6,0.1-6.3s-4.7-1.8-6.5-0.1l-3.2,3l-3.2-3
		c-1.8-1.8-4.8-1.7-6.5,0.1c-1.8,1.8-1.7,4.6,0.1,6.3l3,2.8l-3,2.8C181.1,156.1,181,158.9,182.8,160.8z"/>
	<path class="st2" d="M93.8,160.8c0.9,0.9,2.1,1.3,3.3,1.3c1.2,0,2.3-0.4,3.2-1.2l3.2-3l3.2,3c0.9,0.9,2.1,1.2,3.2,1.2
		c1.2,0,2.4-0.4,3.3-1.3c1.8-1.8,1.7-4.6-0.1-6.3l-3-2.8l3-2.8c1.8-1.8,1.9-4.6,0.1-6.3s-4.7-1.8-6.5-0.1l-3.2,3l-3.2-3
		c-1.8-1.8-4.8-1.7-6.5,0.1c-1.8,1.8-1.7,4.6,0.1,6.3l3,2.8l-3,2.8C92.1,156.1,92.1,158.9,93.8,160.8z"/>
</g>
<g id="Слой_3" class="st0">
	<g class="st3">
		<g>
			<path d="M167,262.3l-8.3-18.7c-4-9-6-18.6-6-28.4c0-2.9-2.4-5.3-5.3-5.3H51.6c-2.9,0-5.3,2.4-5.3,5.3v3.5
				c0,10.8-2.6,21.7-7.5,31.3l-5.3,10.7c-5.6,11.2-8.5,23.6-8.5,36.1v19.4c0,2.9,2.4,5.3,5.3,5.3h138.3c2.9,0,5.3-2.4,5.3-5.3v-21.2
				C173.9,283.7,171.5,272.7,167,262.3z M163.2,310.9H35.6l0,0v-14.1c0-10.8,2.6-21.6,7.4-31.3l5.3-10.6c5.4-10.6,8.3-22.4,8.6-34.3
				h85.3c0.6,9.5,2.9,18.6,6.8,27.4l8.3,18.7c4,9,6,18.6,6,28.4L163.2,310.9L163.2,310.9z"/>
		</g>
	</g>
	<g class="st3">
		<g>
			<path d="M172.6,52.2c-1-1.1-2.5-1.8-4-1.8H14.4c-1.9,0-3.7,1.1-4.7,2.8S8.9,57,9.9,58.7l20.6,30.8l15.8,126.4
				c0.3,2.7,2.6,4.7,5.3,4.7h95.7c2.7,0,4.9-2,5.3-4.6l21.2-159.5C174,54.9,173.6,53.4,172.6,52.2z M142.6,209.9H56.3L40.9,87
				c-0.1-0.8-0.4-1.6-0.9-2.3L24.3,61.1h138.2L142.6,209.9z"/>
		</g>
	</g>
	<g class="st3">
		<g>
			<path d="M142,23.8H56.9C39.3,23.8,25,38.1,25,55.7c0,2.9,2.4,5.3,5.3,5.3h138.3c2.9,0,5.3-2.4,5.3-5.3
				C173.9,38.1,159.5,23.8,142,23.8z M36.3,50.4c2.4-9.2,10.7-16,20.6-16H142c9.9,0,18.3,6.8,20.6,16H36.3z"/>
		</g>
	</g>
	<g class="st3">
		<g>
			<path d="M120.7,2.6H78.2c-2.9,0-5.3,2.4-5.3,5.3v21.2c0,2.9,2.4,5.3,5.3,5.3h42.6c2.9,0,5.3-2.4,5.3-5.3V7.9
				C126,4.9,123.7,2.6,120.7,2.6z M115.4,23.8H83.5V13.2h31.9V23.8z"/>
		</g>
	</g>
	<g class="st3">
		<g>
			<path d="M211.1,71.7h-42.6v10.7h42.6c2.9,0,5.3,2.4,5.3,5.3V175c0.1,2.5-1.7,4.7-4.1,5.3l-60.9,13.8l2.4,10.3l60.9-13.8
				c7.4-1.7,12.5-8.4,12.3-15.8V87.6C227,78.8,219.9,71.7,211.1,71.7z"/>
		</g>
	</g>
	<g class="st3">
		<g>
			<path d="M200.5,93h-37.2v10.7h31.9v59.6l-43.7,9.7l2.3,10.4l47.9-10.7c2.4-0.6,4.2-2.7,4.2-5.2V98.3
				C205.8,95.3,203.4,93,200.5,93z"/>
		</g>
	</g>
	<g class="st3">
		<g>
			<g>
				
					<rect x="70.2" y="82.3" transform="matrix(0.9989 -4.759523e-02 4.759523e-02 0.9989 -6.4902 3.7512)" class="st4" width="10.7" height="111.8"/>
			</g>
		</g>
	</g>
	<g class="st3">
		<g>
			<g>
				
					<rect x="67.5" y="132.8" transform="matrix(4.779385e-02 -0.9989 0.9989 4.779385e-02 -20.5357 254.78)" class="st4" width="111.8" height="10.7"/>
			</g>
		</g>
	</g>
	<g class="st3">
		<g>
			<g>
				<path class="st4" d="M99.4,241.8c-14.6,0-26.6,11.9-26.6,26.6c0,14.7,11.9,26.6,26.6,26.6c14.6,0,26.6-11.9,26.6-26.6
					C126,253.7,114.1,241.8,99.4,241.8z M99.4,284.4c-8.8,0-16-7.2-16-16c0-8.8,7.2-16,16-16s16,7.2,16,16
					C115.4,277.2,108.2,284.4,99.4,284.4z"/>
			</g>
		</g>
	</g>
</g>
<g id="Слой_4" class="st0">
	<g id="Слой_2_1_" class="st3">
		<g>
			<path class="st4" d="M113.5,259.9H99.2c-3.4,0-6.2-2.8-6.2-6.2V82.5c0-3.4,2.8-6.2,6.2-6.2h14.3c3.4,0,6.2,2.8,6.2,6.2v171.2
				C119.7,257.1,116.9,259.9,113.5,259.9z"/>
			<path class="st4" d="M134,41.5H78.8c-3.4,0-6.2-2.8-6.2-6.2v-3.7c0-3.4,2.8-6.2,6.2-6.2H134c3.4,0,6.2,2.8,6.2,6.2v3.7
				C140.2,38.7,137.4,41.5,134,41.5z"/>
		</g>
	</g>
	<g id="Слой_1_1_" class="st3">
		<g id="outline">
			<path d="M184.7,227.5c-1.2-53.5-3.8-107.7-7.8-160.9l-9.9,0.7c4,53,6.6,107,7.8,160.3L184.7,227.5z"/>
			<path d="M250,138.6V58.9c0-2.7-2.2-5-5-5h-49.3c-0.1-1.7-0.2-3.3-0.4-5v-0.4c-0.2-2.4-2-4.3-4.4-4.5c-15-1.7-30.1-2.9-45.2-3.7
				V24.2c0-2.7-2.2-5-5-5H71.3c-2.7,0-5,2.2-5,5v15.8c-18.4,0.8-36.9,2.1-55.2,4.2c-2.4,0.4-4.2,2.5-4.4,5c-0.1,1.7-0.2,3.3-0.4,5
				h-34.4c-2.7,0-5,2.2-5,5c0,0.2,0,0.4,0.1,0.6c3.4,26.9,13.7,52.4,29.9,74.1l3.8,5c-2.7,51.4-4,101.6-4,153.5c0,2.7,2.2,5,5,5h5
				V312c0,2.7,2.2,5,5,5h178.7c2.7,0,5-2.2,5-5v-14.9h5c2.7,0,5-2.2,5-5c0-19.2-0.2-38.1-0.6-57l8.9-8.9
				C237,203.2,250.1,171.5,250,138.6z M198,83.7h22.2v52.2c0,19.3-5.8,38.2-16.7,54.1C202.4,155,200.6,119.9,198,83.7z M76.3,29.1
				h59.6v10.8c-19.9-0.9-39.7-1-59.6-0.4V29.1z M70.9,49.7c0.1,0,0.2,0.1,0.4,0.1c0.2,0,0.3-0.1,0.5-0.1c22.8-0.8,45.5-0.7,68.3,0.4
				c0.2,0.1,0.4,0.1,0.7,0.1c0.1,0,0.3-0.1,0.4-0.1c14.9,0.7,29.7,1.9,44.5,3.5c6.5,81.1,9.5,155.6,9.6,233.7H6.8
				c0.1-78,3.2-152.4,9.6-233.8C34.5,51.5,52.7,50.3,70.9,49.7z M-22.2,63.9H5.6c-1.5,20-2.9,39.7-3.9,59.1
				C-10.5,105.3-18.7,85.1-22.2,63.9z M185.5,307.1H16.7v-9.9h168.8V307.1z M204.5,221.5c-0.1-5.3-0.2-10.5-0.4-15.8
				c16.8-19.4,26.1-44.1,26.1-69.7V78.8c0-2.7-2.2-5-5-5h-27.9c-0.2-3.3-0.5-6.6-0.7-9.9h43.6v74.8c0.1,30.3-12,59.4-33.4,80.7
				L204.5,221.5z"/>
			<path d="M106.1,267.4c11,0,19.9-8.9,19.9-19.9V88.7c0-11-8.9-19.9-19.9-19.9s-19.9,8.9-19.9,19.9v158.8
				C86.2,258.5,95.1,267.4,106.1,267.4z M96.1,88.7c0-5.5,4.5-9.9,9.9-9.9s9.9,4.5,9.9,9.9v158.8c0,5.5-4.5,9.9-9.9,9.9
				s-9.9-4.5-9.9-9.9V88.7z"/>
		</g>
	</g>
	<circle class="st1" cx="179.5" cy="241.1" r="5.2"/>
</g>
<g id="Слой_5" class="st0">
	<path class="st5" d="M210.4,195.8h-87.9c-13.7,0-24.9-11.2-24.9-24.9V140c0-13.7,11.2-24.9,24.9-24.9h87.9
		c13.7,0,24.9,11.2,24.9,24.9v31C235.3,184.6,224.1,195.8,210.4,195.8z"/>
	<path class="st5" d="M80.2,255.3v-64.5c0-8.4,6.9-15.3,15.3-15.3h142c8.4,0,15.3,6.9,15.3,15.3v64.5
		C252.7,263.6,80.2,263.6,80.2,255.3z"/>
	<polygon class="st5" points="100.8,268.7 80.3,268.7 80.3,258.5 107.5,258.5 	"/>
	<polygon class="st5" points="232.1,268.7 252.7,268.7 252.7,258.5 225.4,258.5 	"/>
	<rect x="77.5" y="253" class="st5" width="177.5" height="7"/>
	<line class="st6" x1="80.2" y1="195.8" x2="252.7" y2="195.8"/>
	<path class="st7" d="M-12.4,41.7l-17,45.7h77.9L33.3,41.7H-12.4z"/>
	<path class="st5" d="M57.2,139.8H25.7v-3.9c0-6.5-5.3-11.8-11.8-11.8V92.6h19.7v6.9l-3.9,7.9c-1.8,3.7-0.9,8.2,2.3,10.8
		c3.2,2.6,7.8,2.6,11,0s4.2-7.1,2.3-10.8l-3.9-7.9v-6.9h7.9c1.3,0,2.5-0.6,3.2-1.6s0.9-2.3,0.5-3.5L39,45.7
		c-1.6-4.8-6.1-8.1-11.2-8.1H-8.1c-5.1,0-9.6,3.3-11.2,8.1l-14,41.8c-0.4,1.2-0.2,2.5,0.5,3.5s1.9,1.6,3.2,1.6H5.8V124
		C-0.7,124-6,129.3-6,135.8v3.9h-31.5c-6.5,0-11.8,5.3-11.8,11.8v118c0,2.2,1.8,3.9,3.9,3.9h15.7c2.2,0,3.9-1.8,3.9-3.9v-11.8H45
		v11.8c0,2.2,1.8,3.9,3.9,3.9h15.7c2.2,0,3.9-1.8,3.9-3.9v-118C69,145.1,63.7,139.8,57.2,139.8z M38.3,111.8c-0.4,0.4-1.1,0.4-1.6,0
		c-0.2-0.3-0.2-0.6,0-0.9l0.8-1.7l0.8,1.7C38.5,111.2,38.5,111.5,38.3,111.8z M-41.1,194.8H61.2v39.3H-41.1V194.8z M2.1,135.8
		c0-2.2,1.8-3.9,3.9-3.9h7.9c2.2,0,3.9,1.8,3.9,3.9v3.9H2.1L2.1,135.8L2.1,135.8z M-41.1,151.6c0-2.2,1.8-3.9,3.9-3.9h94.4
		c2.2,0,3.9,1.8,3.9,3.9V187H-41.1V151.6z"/>
	<path class="st1" d="M13.9,155.5H6c-2.2,0-3.9,1.8-3.9,3.9c0,2.2,1.8,3.9,3.9,3.9h7.9c2.2,0,3.9-1.8,3.9-3.9
		C17.9,157.3,16.1,155.5,13.9,155.5z"/>
	<path class="st1" d="M13.9,202.7H6c-2.2,0-3.9,1.8-3.9,3.9s1.8,3.9,3.9,3.9h7.9c2.2,0,3.9-1.8,3.9-3.9S16.1,202.7,13.9,202.7z"/>
	<g class="st3">
		<g>
			<path d="M182.1,163.1c-0.6-1.1-1.6-1.8-2.8-2.1c-0.3-0.1-0.6-0.1-0.9-0.1c0-0.4,0.1-0.8,0.1-1.3s0-1.1-0.1-1.6
				c2.2-0.3,3.8-2.1,3.8-4.2c0-2.4-2-4.3-4.4-4.3c-0.2,0-0.5,0-0.7,0.1c0.5-1.2,0.8-2.5,0.8-3.9c0-0.9-0.1-1.8-0.3-2.7
				c1.8-0.7,2.9-2.4,2.9-4.4c0-2.6-2.2-4.8-4.9-4.8c-1.7,0-3.2,0.8-4.1,2.1c-1.4-0.6-3-1-4.6-1s-3.2,0.3-4.6,1
				c-0.9-1.3-2.4-2.1-4.1-2.1c-2.7,0-4.9,2.1-4.9,4.8c0,1.9,1.2,3.6,2.9,4.4c-0.2,0.9-0.3,1.8-0.3,2.6c0,1.4,0.3,2.7,0.8,3.9
				c-0.2,0-0.5-0.1-0.7-0.1c-2.5,0-4.4,1.9-4.4,4.3c0,2.2,1.7,4,3.8,4.2c-0.1,0.5-0.1,1.1-0.1,1.6c0,0.4,0,0.9,0.1,1.3h-0.1
				c-0.4,0-0.8,0-1.2,0.1c-1.2,0.3-2.1,1-2.8,2.1c-1.1,1.9-1,4.7-0.5,6.7c0.6,2.3,2.8,3.9,5.3,3.9c0.1,0,0.2,0,0.3,0l0,0l0,0l0,0
				c2-0.1,3.8-1.3,4.7-3.1c1.8,1.1,3.7,1.7,5.8,1.7c2,0,3.9-0.5,5.6-1.5c0,0.1,0.1,0.1,0.1,0.2c0.7,1.3,1.9,2.2,3.4,2.6
				c0.5,0.1,0.9,0.2,1.4,0.2c2.5,0,4.7-1.6,5.3-3.9C183.2,167.8,183.2,165,182.1,163.1z M154.7,138.6c0-1.8,1.5-3.2,3.4-3.2
				c1.3,0,2.5,0.7,3.1,1.9c0.1,0.2,0.3,0.3,0.5,0.4s0.4,0,0.6,0c1.4-0.7,3-1.1,4.6-1.1s3.2,0.4,4.6,1.1c0.2,0.1,0.4,0.1,0.6,0
				c0.2-0.1,0.4-0.2,0.5-0.4c0.5-1.2,1.8-1.9,3.1-1.9c1.9,0,3.4,1.4,3.4,3.2c0,1.2-0.8,2.4-1.9,2.9c-0.2-0.4-0.4-0.8-0.6-1.2
				c-0.2-0.4-0.7-0.5-1.1-0.3c-0.4,0.2-0.5,0.7-0.3,1.1c0.3,0.5,0.6,1.1,0.8,1.7l0,0c0.3,0.9,0.5,1.9,0.5,2.8c0,4.7-3.8,8.7-8.7,9
				v-5.8c1.1-0.4,1.9-1.6,1.9-2.6c0-0.6-0.3-1.9-2.7-1.9s-2.7,1.3-2.7,1.9c0,1,0.8,2.2,1.9,2.6v5.8c-4.9-0.4-8.7-4.3-8.7-9
				c0-1,0.2-2,0.5-2.9c0.1-0.2,0.1-0.4-0.1-0.6c-0.1-0.2-0.3-0.3-0.5-0.4C155.8,141.3,154.7,140,154.7,138.6z M166.8,160.6
				c-0.4,0-0.8,0.3-0.8,0.8v2.4c-2.6-0.4-4.7-2.7-4.7-5.4c0-1.1,0.3-2.2,1-3.1c1.4,0.6,2.9,0.9,4.5,0.9s3.1-0.3,4.5-0.9
				c0.6,0.9,1,2,1,3.1c0,2.7-2,5-4.7,5.4v-2.4C167.6,161,167.2,160.6,166.8,160.6z M165.7,146.2c0-0.1,0-0.1,0.1-0.2s0.4-0.2,1-0.2
				s0.9,0.1,1,0.2s0.1,0.1,0.1,0.2c0,0.4-0.5,1.2-1.1,1.2C166.2,147.4,165.7,146.7,165.7,146.2z M159.4,170.2
				c-0.5,0.9-1.4,1.6-2.4,1.8c-0.3,0.1-0.5,0.1-0.8,0.1l0,0c-0.1,0-0.2,0-0.3,0c-1.8,0-3.4-1.2-3.8-2.8c-0.4-1.6-0.5-4,0.3-5.5
				c0.4-0.7,1-1.2,1.8-1.4c0.3-0.1,0.5-0.1,0.8-0.1s0.5,0,0.8,0.1l0,0c2,0.6,3.5,3.2,3.9,4.9C160.1,168.4,159.9,169.4,159.4,170.2z
				 M171.9,167c-0.2,0.8-0.2,1.6-0.1,2.3c-1.5,1-3.3,1.5-5,1.5c-1.9,0-3.8-0.6-5.4-1.7c0.1-0.7,0-1.4-0.1-2.1
				c-0.6-2-2.2-4.9-4.5-5.8c-0.1-0.5-0.1-1.1-0.1-1.6c0-0.7,0.1-1.5,0.2-2.2c0-0.2,0-0.5-0.2-0.7s-0.4-0.3-0.6-0.3
				c-0.1,0-0.1,0-0.2,0c-1.6,0-2.9-1.2-2.9-2.7s1.3-2.7,2.9-2.7c0.8,0,1.5,0.3,2,0.8c0.8,1.1,1.9,2.1,3.1,2.8
				c-0.7,1.1-1.1,2.5-1.1,3.8c0,3.9,3.1,7,7,7s7-3.1,7-7c0-1.4-0.4-2.7-1.1-3.8c1.2-0.7,2.3-1.7,3.1-2.8c0.5-0.5,1.3-0.8,2-0.8
				c1.6,0,2.9,1.2,2.9,2.7s-1.3,2.7-2.9,2.7c-0.1,0-0.1,0-0.2,0c-0.2,0-0.5,0.1-0.6,0.3c-0.2,0.2-0.2,0.4-0.2,0.7
				c0.1,0.7,0.2,1.5,0.2,2.2c0,0.5,0,1-0.1,1.4C174.3,161.8,172.5,164.8,171.9,167z M181.1,169.3c-0.5,1.6-2,2.8-3.8,2.8
				c-0.3,0-0.7,0-1-0.1c-1.1-0.3-1.9-0.9-2.4-1.8s-0.6-1.8-0.4-2.8c0.5-1.8,2.1-4.6,4.3-5l0,0c0.1,0,0.3,0,0.5,0
				c0.3,0,0.5,0,0.8,0.1c0.8,0.2,1.4,0.7,1.8,1.4C181.6,165.4,181.6,167.8,181.1,169.3z"/>
		</g>
	</g>
	<g class="st3">
		<g>
			<path class="st8" d="M172.7,140.6c-0.7,0-1.3,0.6-1.3,1.3c0,0.7,0.6,1.3,1.3,1.3s1.3-0.6,1.3-1.3S173.4,140.6,172.7,140.6z"/>
		</g>
	</g>
	<g class="st3">
		<g>
			<path class="st8" d="M162.9,140.6c-0.7,0-1.3,0.6-1.3,1.3c0,0.7,0.6,1.3,1.3,1.3s1.3-0.6,1.3-1.3S163.6,140.6,162.9,140.6z"/>
		</g>
	</g>
	<g class="st3">
		<g>
			<path d="M175.8,136.2L175.8,136.2c-0.3-0.3-0.8-0.3-1.1,0s-0.3,0.8,0,1.1l0,0c0.2,0.2,0.4,0.2,0.5,0.2c0.2,0,0.4-0.1,0.6-0.2
				C176.1,137,176.1,136.5,175.8,136.2z"/>
		</g>
	</g>
	<g class="st3">
		<g>
			<path class="st8" d="M167.8,156.4c-0.4,0-0.8,0.3-0.8,0.8l0,0c0,0.4,0.3,0.8,0.8,0.8c0.4,0,0.8-0.3,0.8-0.8l0,0
				C168.6,156.7,168.2,156.4,167.8,156.4z"/>
		</g>
	</g>
</g>
<g id="Слой_6" class="st0">
	<rect x="-2.3" y="174" class="st1" width="101.6" height="40.3"/>
	<rect x="103.7" y="174" class="st1" width="106" height="40.3"/>
	<path class="st2" d="M64.9,127.8v-7.9c0-2.5-2.1-4.6-4.6-4.6c-2.5,0-4.6,2.1-4.6,4.6v7.9c0,2.5,2.1,4.6,4.6,4.6
		C62.8,132.4,64.9,130.4,64.9,127.8z M144.1,127.6c0-2.5,2-4.6,4.6-4.6s4.6,2,4.6,4.6s2.1,4.6,4.6,4.6s4.6-2.1,4.6-4.6
		c0-7.6-6.2-13.9-13.9-13.9s-13.9,6.2-13.9,13.9c0,2.5,2.1,4.6,4.6,4.6S144.1,130.1,144.1,127.6z M216.3,118.9
		C212.9,97.6,194.5,81,171.8,81H40.5c-2.5,0-4.6,2.1-4.6,4.6c0,2.5,2.1,4.6,4.6,4.6h131.3c18.3,0,33.3,13.7,35.5,31.4
		c-13.6,6.2-23.2,20.2-23.2,36.3v8.2h-61.7c-7.7,0-14.5,3.7-18.8,9.4c-4.3-5.7-11.1-9.4-18.8-9.4H23.2V158c0-16.1-9.6-30-23.2-36.3
		c1.6-12.3,9.5-23.2,20.9-28.3c2.4-1.1,3.4-3.8,2.4-6.1c-1.1-2.4-3.8-3.4-6.1-2.4c-13.8,6.2-23.6,19.2-26,34
		c-23.6-4.3-46,13.8-46,38.5c0,14.6,8.1,27.8,20.8,34.6v29.4c0,16.1,12.6,29.3,28.5,30.2v8.9c0,6.2,5,11.2,11.2,11.2h20.8
		c6.2,0,11.2-5,11.2-11.2v-8.8h132.3v8.8c0,6.2,5,11.2,11.2,11.2h20.8c6.2,0,11.2-5,11.2-11.2v-8.9c3.8-0.2,7.5-1.1,11-2.8
		c2.4-1.1,3.3-3.8,2.2-6.2c-1.1-2.4-3.8-3.3-6.2-2.2c-2.8,1.3-5.8,1.9-8.9,1.9H-3.9c-11.6,0-21-9.4-21-21V189c0-1.9-1.1-3.5-2.8-4.3
		c-10.9-4.7-18-15.5-18-27.4c0-16.6,13.6-30.1,30.4-29.8C0.8,127.7,14,141.4,14,157.9v8.2h-0.4c-12.9,0-23.4,10.5-23.4,23.4v15.6
		c0,8.7,7.1,15.8,15.8,15.8h86.6c4.3,0,8.3-1.7,11.2-4.6c2.9,2.9,6.8,4.6,11.2,4.6h86.6c8.7,0,15.8-7.1,15.8-15.8v-15.6
		c0-12.9-10.5-23.4-23.4-23.4h-0.4v-8.2c0-16.5,13.1-30.1,29.3-30.4c16.6-0.3,30.4,13.1,30.4,29.8c0,11.9-7.1,22.6-18,27.4
		c-1.7,0.7-2.8,2.4-2.8,4.3c-0.2,32.7,0.4,33.1-0.6,37.4c-0.7,2.9,1.5,5.8,4.5,5.8c2.1,0,4-1.4,4.5-3.5c1.5-6,0.6-7.9,0.9-36.7
		c12.7-6.8,20.8-20,20.8-34.6C262.3,132.7,239.9,114.5,216.3,118.9z M179.1,251.7h24.7v8.8c0,1.1-0.9,1.9-1.9,1.9H181
		c-1.1,0-1.9-0.9-1.9-1.9L179.1,251.7L179.1,251.7z M3.6,251.7h24.7v8.8c0,1.1-0.9,1.9-1.9,1.9H5.5c-1.1,0-1.9-0.9-1.9-1.9V251.7
		L3.6,251.7z M99,205.1c0,3.6-2.9,6.5-6.5,6.5H5.9c-3.6,0-6.5-2.9-6.5-6.5v-15.6c0-7.8,6.3-14.1,14.1-14.1h71.4
		c7.8,0,14.1,6.3,14.1,14.1L99,205.1L99,205.1z M193.8,175.4c7.8,0,14.1,6.3,14.1,14.1v15.6c0,3.6-2.9,6.5-6.5,6.5h-86.6
		c-3.6,0-6.5-2.9-6.5-6.5v-15.6c0-7.8,6.3-14.1,14.1-14.1H193.8z M103.7,137.6c5.8,0,11.2-2.5,14.9-6.8c1.7-1.9,1.5-4.9-0.4-6.6
		s-4.9-1.5-6.6,0.4c-2,2.3-4.9,3.7-7.9,3.7s-5.9-1.3-7.9-3.7c-1.7-1.9-4.6-2.1-6.6-0.4c-1.9,1.7-2.1,4.6-0.4,6.6
		C92.4,135.2,97.9,137.6,103.7,137.6z"/>
</g>
<g id="Слой_7" class="st0">
	<rect x="18.4" y="268.3" class="st1" width="19.7" height="47.1"/>
	<rect x="192.1" y="269.1" class="st1" width="19.7" height="47.1"/>
	<path class="st2" d="M195,78.9c-2.7-14.9-15.8-26.2-31.6-26.2h-3.9c0.3-2.1,0.4-4.3,0.4-6.4c0-24.7-20.2-44.9-44.9-44.9
		S70.2,21.5,70.2,46.3c0,2.1,0.2,4.3,0.4,6.4h-3.9C51.1,52.8,38,64,35.2,78.9C20.3,81.8,9,94.9,9,110.5v207.1c0,3.5,2.9,6.4,6.4,6.4
		h25.7c3.5,0,6.4-2.9,6.4-6.4v-46.6h135.2v46.6c0,3.5,2.9,6.4,6.4,6.4h25.7c3.5,0,6.4-2.9,6.4-6.4V110.5
		C221.2,94.9,209.9,81.8,195,78.9z M115.1,14.2c5.8,0,11.3,1.5,16,4.3c-3.5,5.2-9.5,8.6-16,8.6c-6.5,0-12.5-3.3-16-8.6
		C103.8,15.8,109.3,14.2,115.1,14.2z M89.4,27.1c6,8,15.4,12.8,25.7,12.8s19.7-4.9,25.7-12.8c4,5.4,6.4,12.1,6.4,19.3
		c0,17.7-14.4,32.1-32.1,32.1S83,64,83,46.3C83,39.1,85.4,32.5,89.4,27.1z M47.5,84.8c0-10.6,8.6-19.3,19.3-19.3h7.8
		c7.2,15.1,22.7,25.7,40.6,25.7s33.4-10.5,40.6-25.7h7.8c10.6,0,19.3,8.6,19.3,19.3v44.9H160v-2.1c0-13-10.5-23.5-23.5-23.5H93.7
		c-13,0-23.5,10.5-23.5,23.5v2.1H47.5V84.8z M147.2,127.6v2.1H83v-2.1c0-5.9,4.8-10.7,10.7-10.7h42.8
		C142.4,116.9,147.2,121.7,147.2,127.6z M21.8,110.5c0-8.4,5.4-15.5,12.8-18.1v38c-4.7,0.9-9.1,3-12.8,5.8V110.5z M34.7,311.2H21.8
		v-40.2h12.8V311.2z M208.4,311.2h-12.8v-40.2h12.8V311.2z M208.4,258.1H21.8v-57.8c0-10.6,8.6-19.3,19.3-19.3h148
		c10.6,0,19.3,8.6,19.3,19.3V258.1z M208.4,174.7c-5.4-4-12.1-6.4-19.3-6.4h-148c-7.2,0-13.9,2.4-19.3,6.4v-12.8
		c0-10.6,8.6-19.3,19.3-19.3h148c10.6,0,19.3,8.6,19.3,19.3V174.7z M208.4,136.2c-3.8-2.8-8.1-4.8-12.8-5.8V92.3
		c7.4,2.7,12.8,9.8,12.8,18.1V136.2z"/>
	<g id="Слой_1_2_" class="st3">
		<g id="oven-food-cooking">
			<path d="M77.7,138h-222.3c-6.8,0-12.4,5.6-12.4,12.4v218.2c0,2.3,1.9,4.1,4.1,4.1h8.2v8.2c0,2.3,1.9,4.1,4.1,4.1h32.9
				c2.3,0,4.1-1.9,4.1-4.1v-8.2h140v8.2c0,2.3,1.9,4.1,4.1,4.1h32.9c2.3,0,4.1-1.9,4.1-4.1v-8.2h8.2c2.3,0,4.1-1.9,4.1-4.1V150.4
				C90,143.6,84.4,138,77.7,138z M-111.7,376.8h-24.7v-4.1h24.7V376.8z M69.4,376.8H44.7v-4.1h24.7V376.8z M81.8,364.4h-230.5V191.5
				H81.8V364.4z M81.8,183.3h-230.5v-32.9c0-2.3,1.9-4.1,4.1-4.1H77.7c2.3,0,4.1,1.9,4.1,4.1V183.3z"/>
			<path d="M65.3,203.9h-197.6c-2.3,0-4.1,1.9-4.1,4.1v140c0,2.3,1.9,4.1,4.1,4.1H65.3c2.3,0,4.1-1.9,4.1-4.1V208
				C69.4,205.7,67.6,203.9,65.3,203.9z M61.2,343.8h-189.4V212.1H61.2V343.8z"/>
			<path d="M48.8,310.9H36.2c-1.3-14.7-7.2-28.6-16.9-39.6l6.7-11.6c6.7,1.2,13.2-3.2,14.4-9.9c0.2-0.8,0.2-1.5,0.2-2.3
				c-0.1-6.8-5.7-12.4-12.5-12.3c-0.8,0-1.6,0.1-2.4,0.3c-0.9-2.9-2.9-5.3-5.5-6.8c-5.9-3.4-13.5-1.4-16.9,4.5
				c-1.6,2.8-2.1,6.2-1.2,9.4c0.5,1.8,1.3,3.4,2.6,4.8l-4.8,8.2c-33.9-18.4-76.4-5.9-94.8,28c-4.6,8.4-7.4,17.7-8.2,27.3h-12.7
				c-2.3,0-4.1,1.9-4.1,4.1v8.2c0,6.8,5.6,12.4,12.3,12.4H40.6c6.8,0,12.4-5.6,12.4-12.4V315C53,312.8,51.1,310.9,48.8,310.9z
				 M13.9,245.3c-0.3-1.1-1-2-2-2.5c-1-0.5-1.6-1.4-2-2.5c-0.6-2.2,0.7-4.4,2.9-5c2.2-0.6,4.4,0.7,5,2.9c0.3,1.1,0.1,2.2-0.4,3.1
				c-1.1,2-0.5,4.5,1.5,5.7c2,1.1,4.5,0.5,5.7-1.5l0,0c1.1-2,3.5-2.6,5.5-1.6c0.1,0.1,0.1,0.1,0.2,0.1c2,1.1,2.7,3.6,1.6,5.6
				c-1.1,2-3.6,2.7-5.6,1.6c-0.1-0.1-0.1-0.1-0.2-0.1c-2-1.1-4.5-0.5-5.7,1.5l-7.2,12.6c-0.5-0.4-0.9-0.7-1.4-1.1
				c-1-0.9-2-1.6-3-2.4c-0.7-0.5-1.3-1.1-2.1-1.6l6.6-11.4C14,247.6,14.2,246.4,13.9,245.3z M-33.5,255.3c16.9,0,33.1,6.9,44.8,19.2
				h0.1c9.4,9.9,15.3,22.7,16.6,36.3H-74.4c1.1-11.5,7-22,16.3-28.9l-4.9-6.6c-11.3,8.4-18.5,21.4-19.6,35.5h-12.2
				C-91.8,279.4-65.2,255.3-33.5,255.3z M44.7,323.3c0,2.3-1.9,4.1-4.1,4.1h-148.2c-2.3,0-4.1-1.9-4.1-4.1v-4.1H44.7V323.3z"/>
		</g>
	</g>
	<circle class="st1" cx="-128.2" cy="162.7" r="9.9"/>
	<circle class="st1" cx="-102.5" cy="162.7" r="9.9"/>
	<circle class="st1" cx="-76.7" cy="162.7" r="9.9"/>
</g>
<g id="Слой_8" class="st0">
	<g id="Слой_1_3_" class="st3">
		<g id="oven-food-cooking_1_">
			<path d="M240.6,10.1H-33.6c-8.4,0-15.2,6.9-15.2,15.2v269.2c0,2.8,2.3,5.1,5.1,5.1h10.2v10.2c0,2.8,2.3,5.1,5.1,5.1h40.6
				c2.8,0,5.1-2.3,5.1-5.1v-10.2h172.7v10.2c0,2.8,2.3,5.1,5.1,5.1h40.6c2.8,0,5.1-2.3,5.1-5.1v-10.2h10.2c2.8,0,5.1-2.3,5.1-5.1
				V25.4C255.9,17,249,10.1,240.6,10.1z M7,304.7h-30.5v-5.1H7V304.7z M230.5,304.7H200v-5.1h30.5V304.7z M245.7,289.5H-38.7V76.2
				h284.4V289.5z M245.7,66H-38.7V25.4c0-2.8,2.3-5.1,5.1-5.1h274.3c2.8,0,5.1,2.3,5.1,5.1V66z"/>
			<path d="M225.4,91.4H-18.4c-2.8,0-5.1,2.3-5.1,5.1v172.7c0,2.8,2.3,5.1,5.1,5.1h243.8c2.8,0,5.1-2.3,5.1-5.1V96.5
				C230.5,93.7,228.2,91.4,225.4,91.4z M220.3,264.1H-13.3V101.6h233.6V264.1z"/>
			<path d="M205.1,223.4h-15.6c-1.6-18.1-8.9-35.2-20.8-48.9l8.3-14.3c8.3,1.5,16.3-3.9,17.8-12.2c0.2-1,0.3-1.8,0.3-2.8
				c-0.1-8.4-7-15.3-15.4-15.2c-1,0-2,0.1-2.9,0.3c-1.1-3.6-3.6-6.5-6.8-8.4c-7.3-4.2-16.6-1.7-20.9,5.5c-2,3.5-2.5,7.6-1.5,11.6
				c0.6,2.2,1.7,4.3,3.2,6l-5.9,10.2c-41.8-22.7-94.2-7.2-116.9,34.6c-5.7,10.4-9.1,21.8-10.2,33.6H1.9c-2.8,0-5.1,2.3-5.1,5.1v10.2
				c0,8.4,6.9,15.2,15.2,15.2h182.8c8.4,0,15.2-6.9,15.2-15.2v-10.2C210.2,225.7,207.9,223.4,205.1,223.4z M162,142.6
				c-0.4-1.3-1.2-2.4-2.4-3.1c-1.2-0.6-2-1.8-2.4-3.1c-0.7-2.7,0.9-5.5,3.6-6.2c2.7-0.7,5.5,0.9,6.2,3.6c0.3,1.3,0.1,2.7-0.5,3.9
				c-1.4,2.4-0.6,5.6,1.9,7c2.4,1.4,5.6,0.6,7-1.9l0,0c1.3-2.4,4.3-3.2,6.7-2c0.1,0.1,0.1,0.1,0.2,0.1c2.4,1.3,3.3,4.4,2,6.9
				c-1.3,2.4-4.4,3.3-6.9,2c-0.1-0.1-0.1-0.1-0.2-0.1c-2.4-1.4-5.5-0.6-7,1.9l-8.9,15.5c-0.6-0.5-1.1-0.9-1.7-1.4
				c-1.2-1.1-2.5-2-3.7-3c-0.9-0.6-1.7-1.4-2.5-2l8.1-14.1C162.1,145.3,162.3,143.9,162,142.6z M103.5,154.9
				c20.9,0,40.9,8.6,55.2,23.7h0.1c11.6,12.3,18.9,28.1,20.4,44.8H53c1.3-14.2,8.6-27.1,20.1-35.6l-6.1-8.1
				c-14,10.4-22.8,26.3-24.1,43.7H27.8C31.6,184.5,64.4,154.9,103.5,154.9z M200,238.7c0,2.8-2.3,5.1-5.1,5.1H12.1
				c-2.8,0-5.1-2.3-5.1-5.1v-5.1h193V238.7z"/>
		</g>
	</g>
	<circle class="st1" cx="-13.3" cy="40.6" r="12.2"/>
	<circle class="st1" cx="18.4" cy="40.6" r="12.2"/>
	<circle class="st1" cx="50.2" cy="40.6" r="12.2"/>
</g>
<g id="Слой_9" class="st0">
	<path class="st3" d="M189.5,2H38.9C25.1,2,13.9,13.2,13.9,27v245.8c0,13.9,11.2,25.1,25.1,25.1h6.3v6.3c0,10.3,8.5,18.8,18.8,18.8
		h6.3c6.9,0,12.5-5.6,12.5-12.5V298h62.7v12.5c0,6.9,5.6,12.5,12.5,12.5h6.3c10.3,0,18.8-8.5,18.8-18.8V298h6.3
		c13.9,0,25.1-11.2,25.1-25.1V27C214.5,13.2,203.3,2,189.5,2z M70.3,310.5H64c-3.4,0-6.3-2.8-6.3-6.3V298h12.5V310.5L70.3,310.5z
		 M170.6,304.2c0,3.4-2.8,6.3-6.3,6.3h-6.3V298h12.5V304.2z M202,272.9c0,6.9-5.6,12.5-12.5,12.5H38.9c-6.9,0-12.5-5.6-12.5-12.5
		V122.4H202V272.9z M202,109.8H26.4V27c0-6.9,5.6-12.5,12.5-12.5h150.5c6.9,0,12.5,5.6,12.5,12.5V109.8z"/>
	<path class="st1" d="M94.5,97.3H50.6c-6.9,0-12.5-5.6-12.5-12.5v-6.3c0-10.3,8.5-18.8,18.8-18.8h31.4c10.3,0,18.8,8.5,18.8,18.8
		v6.3C107.1,91.6,101.4,97.3,94.5,97.3z M56.9,72.2c-3.4,0-6.3,2.8-6.3,6.3v6.3h43.9v-6.3c0-3.4-2.8-6.3-6.3-6.3H56.9z"/>
	<path class="st1" d="M88.2,172.5H56.9c-10.3,0-18.8-8.5-18.8-18.8v-6.3c0-6.9,5.6-12.5,12.5-12.5h43.9c6.9,0,12.5,5.6,12.5,12.5
		v6.3C107.1,164.1,98.6,172.5,88.2,172.5z M50.6,147.4v6.3c0,3.4,2.8,6.3,6.3,6.3h31.4c3.4,0,6.3-2.8,6.3-6.3v-6.3H50.6z"/>
	<path class="st1" d="M182.2,272.9c-3.4,0-6.3-2.8-6.3-6.3v-50.2c0-3.4,2.8-6.3,6.3-6.3s6.3,2.8,6.3,6.3v50.2
		C188.5,270.1,185.6,272.9,182.2,272.9z"/>
	<path class="st1" d="M182.2,197.6c-3.4,0-6.3-2.8-6.3-6.3c0-3.4,2.8-6.3,6.3-6.3l0,0c3.4,0,6.3,2.8,6.3,6.3
		C188.5,194.8,185.6,197.6,182.2,197.6z"/>
</g>
<g id="Слой_10" class="st0">
	<g id="Page-1" class="st3">
		<g id="_x30_11---Slide-Tower" transform="translate(-1)">
			<path id="Shape" class="st4" d="M-3.4,268.3c-16.7-7.3-16.2-13.6-16.2-15.7c0-3.1-2.1-5.2-4.7-5.7s-5.2,2.1-5.7,4.7
				c-0.5,3.7-1.6,15.7,21.9,26.1c2.6,1,5.7,0,6.8-2.6C-0.3,272.4-0.8,269.8-3.4,268.3z"/>
			<path id="Shape_1_" d="M236.1,323h15.7c5.7,0,10.4-4.7,10.4-10.4V83c0-5.7-4.7-10.4-10.4-10.4h-15.7c-5.7,0-10.4,4.7-10.4,10.4
				v38.1l-62.6-35.5V83h10.4c5.7,0,10.4-4.7,10.4-10.4V56.9c0-5.7-4.7-10.4-10.4-10.4h-19.8L76.5,11c-2.6-1-5.7-1-8.9,0l-77.8,35.5
				H-30c-5.7,0-10.4,4.7-10.4,10.4v15.7c0,5.7,4.7,10.4,10.4,10.4h10.4v32.4c-19.3,8.3-29.7,20.4-31.3,35
				c-1,13.6,3.7,31.8,31.3,45.4v18.8c-19.3,8.9-29.7,20.4-31.3,35.5c-1,13.6,3.7,31.8,31.3,45.9v16.7c0,5.7,4.7,10.4,10.4,10.4H6.5
				c5.7,0,10.4-4.7,10.4-10.4v-4.7c34.4,7.8,92.9,10.4,144.5,14.6c4.2,0,11,0.5,12,0.5c8.9,0,15.7-7.3,15.7-15.7
				c0-7.8-6.3-14.6-14.1-15.7l-5.7-0.5l56.4-32.4v53.7C225.7,318.4,230.4,323,236.1,323z M163.1,217.1l25,14.6l-25,14.6V217.1z
				 M199.1,225.5l-36-20.4v-24.5l57.4,32.9L199.1,225.5z M225.7,204.6L200.1,190l25.6-14.6V204.6z M225.7,163.4l-36,20.4l-21.4-12
				l57.4-32.9V163.4z M163.1,162.8v-28.7l25,14.6L163.1,162.8z M163.1,258.3l62.6-35.5v24.5l-62.6,35.5V258.3z M236.1,83h15.7v229.6
				h-15.7V83z M220.5,130l-21.4,12l-36-20.4V97.1L220.5,130z M152.6,290.2l-15.7-1V83h15.7C152.6,83.5,152.6,215,152.6,290.2z
				 M100.5,286c1.6-15.1-9.9-28.2-24.5-30.3l0,0c-8.3-0.5-15.7-1-21.9-2.1c27.1-2.6,57.9-8.9,73.1-27.7v61.6L100.5,286z M74.4,266.2
				c4.7,0,8.9,2.1,11.5,5.7c3.1,3.7,4.7,8.3,4.2,13l-31.3-2.6C59.2,274,66,266.7,74.4,266.2z M-9.1,199.9c5.2,2.1,10.4,3.7,15.7,4.7
				v33.9c-15.1-9.4-15.7-19.3-15.7-19.8V199.9z M126.6,83v15.1C109.9,97.6,59.8,96,17,104.4V83H126.6z M17,146.1v-30.8
				c41.7-8.3,93.4-6.8,109.6-6.3v26.1c-18.8-0.5-79.3-1-105.9,12.5C19.6,147.2,18.5,146.7,17,146.1L17,146.1z M126.6,145.6v28.2
				c-5.7-5.7-12.5-9.9-19.8-12.5c-20.9-7.3-41.2-3.1-68.9-8.9C66,144.6,111.4,145.1,126.6,145.6L126.6,145.6z M71.8,20.4l56.9,26.1
				H14.9L71.8,20.4z M-30,56.9h204v15.7H-30V56.9z M6.5,83v57.4c-0.5,0-0.5-0.5-1-0.5c-6.8-4.7-14.6-12.5-14.6-20.9V83H6.5z
				 M-40.4,151.4c1-9.9,8.3-18.3,21.9-25c3.7,9.4,9.9,17.2,17.7,22.4c20.4,14.1,45.9,16.7,69.9,17.7c11.5,0,23,1.6,33.4,4.7
				c11,4.2,23,13,23,26.1c0.5,41.2-57.4,47-108,47.5c-0.5,0-0.5,0-1-0.5v-37.1c6.8,1.6,13.6,2.6,20.9,3.7l0,0c12,1.6,24,2.6,36,2.6
				c3.1,0,5.2-2.1,5.2-5.2c0-3.1-2.1-5.2-5.2-5.2c-11.5,0-23.5-1-35-2.6l0,0c-17.7-2.1-35-6.3-51.1-13
				C-32.6,178.5-41.5,166.5-40.4,151.4z M6.5,312.6H-9.1v-12.5c5.2,2.1,10.4,3.7,15.7,5.2V312.6z M178.7,307.4
				c0,1.6-0.5,3.1-1.6,4.2c-1,1-2.6,1-4.2,1c-3.7,0-7.3-0.5-11-0.5c-92.4-7.3-138.3-8.3-174.3-24.5c-20.4-9.4-29.7-21.4-28.2-36.5
				c1-9.9,8.3-18.8,22.4-25.6c2.6,6.8,8.9,18.3,27.7,27.1c14.6,6.3,30.3,10.4,45.9,12c-4.2,4.7-6.8,10.4-7.3,16.7
				c0,2.6,0.5,5.7,2.6,7.8c2.1,2.1,4.2,3.7,7.3,3.7l115.8,9.4C176.7,302.2,178.7,304.8,178.7,307.4z"/>
			<path id="Shape_2_" class="st4" d="M-6,178.5c2.6,0,4.7-1.6,5.2-4.2c0.5-2.6-0.5-4.7-3.1-5.7c-16.2-7.3-15.7-13.6-15.7-15.1
				c0-2.1-0.5-3.7-2.1-4.7c-1.6-1-3.7-1-5.2-0.5c-1.6,0.5-2.6,2.6-3.1,4.2c-0.5,6.8,1,16.7,21.9,25.6C-7,178.5-6.5,178.5-6,178.5z"
				/>
		</g>
	</g>
</g>
<g id="Слой_11" class="st0">
	<path class="st1" d="M43.6,86.1l5.5,24.4h105.1l1.8,73.3h27.6V105l-18.9-18.9H43.6z"/>
	<path class="st2" d="M103.5,283c-3.4,0-6.2,2.8-6.2,6.2s2.8,6.2,6.2,6.2c3.5,0,6.2-2.9,6.2-6.2C109.6,285.8,106.9,283,103.5,283z"
		/>
	<path class="st2" d="M-26.5,246.9c-8.7-5.5-20.2-2.9-25.6,5.7c-5.5,8.7-2.9,20.2,5.7,25.6C-2.7,306.1,51.9,322,103.5,322
		s106.2-15.9,149.9-43.8c8.7-5.5,11.2-17,5.7-25.6c-5.5-8.7-17-11.2-25.6-5.7c-5.8,3.7-11.9,7.2-18.2,10.4l-23.2-66.6H215
		c3.4,0,6.2-2.8,6.2-6.2c0-17-13.9-31-31-31h-0.6v-43.3c0-17-13.9-31-31.1-31H45.7l-15.2-52C26.7,14.1,14.4,5,0.8,5h-21.2
		c-1.9,0-3.8,0.9-5,2.5c-1.2,1.6-1.6,3.6-1,5.4l47,164.4c1.3,4.4,4.1,8.1,7.7,10.5L2.1,262.5C-7.9,257.9-17.4,252.6-26.5,246.9z
		 M240,257.3c2.9-1.8,6.7-1,8.6,1.9c1.8,2.9,1,6.7-1.9,8.6c-41.7,26.5-94,41.8-143.2,41.8S2,294.4-39.7,267.8
		c-2.9-1.8-3.8-5.7-1.9-8.6c1.8-2.9,5.7-3.7,8.6-1.9c32.3,20.5,72.9,35.1,111.2,39.1c3.4,0.4,6.5-2.1,6.8-5.5
		c0.4-3.4-2.1-6.5-5.5-6.8c-13.9-1.5-28.3-4.4-42.4-8.6L67,190.7h85.3L181,272c-17.7,6.2-35.9,10.3-53.4,12.1
		c-3.4,0.4-5.9,3.4-5.5,6.8c0.4,3.4,3.4,5.9,6.8,5.5C166.6,292.5,207.1,278.2,240,257.3z M150.5,153.6H67.3l-10.9-37.2h94
		L150.5,153.6L150.5,153.6z M204,262.7c-3.8,1.8-7.6,3.3-11.4,4.9l-27.2-76.9h13.5L204,262.7z M190.2,166c8.1,0,14.9,5.2,17.5,12.3
		h-18.2V166H190.2z M158.5,91.7c10.3,0,18.6,8.3,18.6,18.6c0,6.6,0,61.4,0,68.1h-14.3c0-6.7,0-61.5,0-68.1c0-3.4-2.8-6.2-6.2-6.2
		H52.9l-3.6-12.3L158.5,91.7L158.5,91.7z M-12.2,17.3h13c8.2,0,15.6,5.5,17.9,13.4c1.3,4.4,36.4,124.9,38.2,130.8
		c0.7,2.7,3.2,4.4,5.9,4.4h87.8v12.3H38.5c-2.8,0-5.2-1.8-6-4.5L-12.2,17.3z M40.5,190.8h13.3l-28.6,81c-3.9-1.4-7.7-2.9-11.6-4.3
		L40.5,190.8z"/>
	<circle class="st1" cx="104.2" cy="289.9" r="7.7"/>
</g>
<g id="Слой_12" class="st0">
	<rect x="31.2" y="172.5" class="st1" width="145.3" height="56"/>
	<path class="st2" d="M251.2,276.9L233.7,54.7c-0.6-8-4-15.4-9.5-20.9c-5.8-5.9-13.6-9.1-21.9-9.1H82.2c-3.5,0-6.3,2.8-6.3,6.3
		s2.8,6.3,6.3,6.3h120.1c5,0,9.4,1.9,13,5.4c3.4,3.4,5.5,8,5.8,13l17.4,220.6h-12.6L208.6,56.6c-0.1-1.5-0.6-3-1.4-4.1
		c-1.2-1.7-3.1-2.7-5.2-2.7H6.3c-2.1,0-4,1-5.2,2.7c-0.8,1.1-1.3,2.6-1.4,4.1l-17.3,219.6h-12.6l17.4-220.6c0.4-5,2.5-9.6,5.8-13
		c3.6-3.5,8.1-5.4,13-5.4h19.5c3.5,0,6.3-2.8,6.3-6.3s-2.8-6.3-6.3-6.3H6.1c-8.2,0-16,3.2-21.9,9.1c-5.5,5.5-8.9,13-9.5,20.9
		l-17.5,222.3c-8.1,2.2-14,9.6-14,18.2v6.3c0,6.9,5.7,12.6,12.6,12.6h37.7c6.9,0,12.6-5.7,12.6-12.6v-6.3c0-7.7-4.6-14.3-11.2-17.2
		l17-215.5h35.7v100.6h-6.3c-10.4,0-18.9,8.5-18.9,18.9v44c-6.9,0-12.6,5.7-12.6,12.6v12.6c0,6.9,5.7,12.6,12.6,12.6h163.5
		c6.9,0,12.6-5.7,12.6-12.6v-12.6c0-6.9-5.7-12.6-12.6-12.6v-44c0-10.4-8.5-18.9-18.9-18.9h-6.3V62.4h35.7l17,215.5
		c-6.6,3-11.2,9.6-11.2,17.2v6.3c0,6.9,5.7,12.6,12.6,12.6h37.7c6.9,0,12.6-5.7,12.6-12.6v-6.3C265.2,286.5,259.3,279.1,251.2,276.9
		z M-44.3,301.4v-6.3c0-3.5,2.8-6.3,6.3-6.3h25.2c3.5,0,6.3,2.8,6.3,6.3v6.3H-44.3z M185.9,251.1H22.4v-12.6h163.5V251.1z
		 M173.4,181.9v44H35v-44c0-3.5,2.8-6.3,6.3-6.3h125.8C170.5,175.6,173.4,178.5,173.4,181.9z M148.2,163.1H60.1V62.4h88.1V163.1z
		 M214.9,301.4v-6.3c0-3.5,2.8-6.3,6.3-6.3h25.2c3.5,0,6.3,2.8,6.3,6.3v6.3H214.9z"/>
	<path class="st2" d="M53.9,37.3c3.5,0,6.3-2.8,6.3-6.3s-2.8-6.3-6.3-6.3l0,0c-3.5,0-6.3,2.8-6.3,6.3S50.4,37.3,53.9,37.3z"/>
	<rect x="-35.3" y="266.4" class="st1" width="285.9" height="18.7"/>
	<rect x="-34.4" y="8.1" class="st1" width="286.7" height="16.2"/>
	<path class="st2" d="M255.4,32.5c3,0,5.4-2.4,5.4-5.4V5.4c0-3-2.4-5.4-5.4-5.4H-37c-2.9,0-5.4,2.4-5.4,5.4v21.7
		c0,3,2.4,5.4,5.4,5.4h5.4V260H-37c-3,0-5.4,2.4-5.4,5.4v21.7c0,3,2.4,5.4,5.4,5.4h16.2v27c0,3,2.4,5.4,5.4,5.4H1
		c2.4,0,4.4-1.5,5.1-3.7l9.6-28.9h187.1l9.6,28.7c0.7,2.2,2.8,3.7,5.1,3.7h16.2c3,0,5.4-2.4,5.4-5.4v-27h16.2c3,0,5.4-2.4,5.4-5.4
		v-21.7c0-3-2.4-5.4-5.4-5.4H250V32.5H255.4z M-31.5,10.8H250v10.8h-5.4H-26.1h-5.4V10.8L-31.5,10.8z M-2.9,314h-6.9v-21.7H4.3
		L-2.9,314z M228.4,314h-6.9l-7.2-21.7h14.1V314z M250,281.6h-16.2h-27H11.8h-27.1h-16.2v-10.8h5.4h270.7h5.4V281.6L250,281.6z
		 M239.2,259.9H-20.7V32.5h259.9V259.9z"/>
	<path class="st2" d="M-4.5,102.9h227.4c3,0,5.4-2.4,5.4-5.4V48.7c0-3-2.4-5.4-5.4-5.4H-4.5c-3,0-5.4,2.4-5.4,5.4v48.7
		C-9.8,100.5-7.4,102.9-4.5,102.9z M1,54.2h216.6v37.9H1V54.2z"/>
	<path class="st2" d="M-4.5,178.7h227.4c3,0,5.4-2.4,5.4-5.4v-54.2c0-3-2.4-5.4-5.4-5.4H-4.5c-3,0-5.4,2.4-5.4,5.4v54.2
		C-9.8,176.2-7.4,178.7-4.5,178.7z M1,124.5h216.6v43.3H1V124.5z"/>
	<path class="st2" d="M-4.5,249.1h227.4c3,0,5.4-2.4,5.4-5.4v-48.7c0-3-2.4-5.4-5.4-5.4H-4.5c-3,0-5.4,2.4-5.4,5.4v48.7
		C-9.8,246.6-7.4,249.1-4.5,249.1z M1,200.3h216.6v37.9H1V200.3z"/>
	<path class="st2" d="M130.9,65H87.6c-3,0-5.4,2.4-5.4,5.4s2.4,5.4,5.4,5.4h16.2v5.4c0,3,2.4,5.4,5.4,5.4s5.4-2.4,5.4-5.4v-5.4H131
		c3,0,5.4-2.4,5.4-5.4C136.3,67.4,133.9,65,130.9,65z"/>
	<path class="st2" d="M130.9,135.4H87.6c-3,0-5.4,2.4-5.4,5.4s2.4,5.4,5.4,5.4h16.2v5.4c0,3,2.4,5.4,5.4,5.4s5.4-2.4,5.4-5.4v-5.5
		H131c3,0,5.4-2.4,5.4-5.4C136.3,137.8,133.9,135.4,130.9,135.4z"/>
	<path class="st2" d="M130.9,211.1H87.6c-3,0-5.4,2.4-5.4,5.4c0,3,2.4,5.4,5.4,5.4h16.2v5.4c0,3,2.4,5.4,5.4,5.4s5.4-2.4,5.4-5.4
		V222H131c3,0,5.4-2.4,5.4-5.4C136.3,213.6,133.9,211.1,130.9,211.1z"/>
</g>
<g id="Слой_13" class="st0">
	<rect x="-41" y="266.4" class="st1" width="285.9" height="18.7"/>
	<rect x="-40.2" y="8.1" class="st1" width="286.7" height="16.2"/>
	<path class="st2" d="M249.7,32.5c3,0,5.4-2.4,5.4-5.4V5.4c0-3-2.4-5.4-5.4-5.4H-42.7C-45.6,0-48,2.4-48,5.4v21.7
		c0,3,2.4,5.4,5.4,5.4h5.4V260h-5.5c-3,0-5.4,2.4-5.4,5.4v21.7c0,3,2.4,5.4,5.4,5.4h16.2v27c0,3,2.4,5.4,5.4,5.4h16.2
		c2.4,0,4.4-1.5,5.1-3.7l9.6-28.9h187.1l9.6,28.7c0.7,2.2,2.8,3.7,5.1,3.7H228c3,0,5.4-2.4,5.4-5.4v-27h16.2c3,0,5.4-2.4,5.4-5.4
		v-21.7c0-3-2.4-5.4-5.4-5.4h-5.4V32.5H249.7z M-37.2,10.8h281.6v10.8h-5.4H-31.8h-5.4V10.8L-37.2,10.8z M-8.7,314h-6.9v-21.7h14.1
		L-8.7,314z M222.6,314h-6.9l-7.2-21.7h14.1V314z M244.3,281.6h-16.2h-27H6.1H-21h-16.2v-10.8h5.4h270.7h5.4V281.6L244.3,281.6z
		 M233.4,259.9H-26.4V32.5h259.9V259.9z"/>
	<path class="st2" d="M-10.2,102.9h227.4c3,0,5.4-2.4,5.4-5.4V48.7c0-3-2.4-5.4-5.4-5.4H-10.2c-3,0-5.4,2.4-5.4,5.4v48.7
		C-15.6,100.5-13.1,102.9-10.2,102.9z M-4.8,54.2h216.6v37.9H-4.8V54.2z"/>
	<path class="st2" d="M-10.2,178.7h227.4c3,0,5.4-2.4,5.4-5.4v-54.2c0-3-2.4-5.4-5.4-5.4H-10.2c-3,0-5.4,2.4-5.4,5.4v54.2
		C-15.6,176.2-13.1,178.7-10.2,178.7z M-4.8,124.5h216.6v43.3H-4.8V124.5z"/>
	<path class="st2" d="M-10.2,249.1h227.4c3,0,5.4-2.4,5.4-5.4v-48.7c0-3-2.4-5.4-5.4-5.4H-10.2c-3,0-5.4,2.4-5.4,5.4v48.7
		C-15.6,246.6-13.1,249.1-10.2,249.1z M-4.8,200.3h216.6v37.9H-4.8V200.3z"/>
	<path class="st2" d="M125.2,65H81.9c-3,0-5.4,2.4-5.4,5.4s2.4,5.4,5.4,5.4h16.2v5.4c0,3,2.4,5.4,5.4,5.4s5.4-2.4,5.4-5.4v-5.4h16.2
		c3,0,5.4-2.4,5.4-5.4C130.6,67.4,128.2,65,125.2,65z"/>
	<path class="st2" d="M125.2,135.4H81.9c-3,0-5.4,2.4-5.4,5.4s2.4,5.4,5.4,5.4h16.2v5.4c0,3,2.4,5.4,5.4,5.4s5.4-2.4,5.4-5.4v-5.5
		h16.2c3,0,5.4-2.4,5.4-5.4C130.6,137.8,128.2,135.4,125.2,135.4z"/>
	<path class="st2" d="M125.2,211.1H81.9c-3,0-5.4,2.4-5.4,5.4c0,3,2.4,5.4,5.4,5.4h16.2v5.4c0,3,2.4,5.4,5.4,5.4s5.4-2.4,5.4-5.4
		V222h16.2c3,0,5.4-2.4,5.4-5.4C130.6,213.6,128.2,211.1,125.2,211.1z"/>
</g>
<g id="Слой_14" class="st0">
	<g id="Слой_2_2_" class="st3">
		<polygon class="st9" points="233.6,325 223.2,325 223.2,252.7 244.2,252.7 		"/>
		<polygon class="st9" points="-27.2,325 -16.8,325 -16.8,252.7 -37.8,252.7 		"/>
	</g>
	<g id="Слой_3_1_" class="st3">
		<path class="st9" d="M229,205.8H125.2c-1.8,0-3.3-1.5-3.3-3.3v-19.9c0-1.8,1.5-3.3,3.3-3.3H229c1.8,0,3.3,1.5,3.3,3.3v19.9
			C232.3,204.3,230.8,205.8,229,205.8z"/>
		<path class="st9" d="M215.7,177.7H112c-1.8,0-3.3-1.5-3.3-3.3v-19.9c0-1.8,1.5-3.3,3.3-3.3h103.8c1.8,0,3.3,1.5,3.3,3.3v19.9
			C219.1,176.2,217.6,177.7,215.7,177.7z"/>
		<path class="st9" d="M245.5,151.2H141.8c-1.8,0-3.3-1.5-3.3-3.3v-19.9c0-1.8,1.5-3.3,3.3-3.3h103.8c1.8,0,3.3,1.5,3.3,3.3v19.9
			C248.8,149.7,247.4,151.2,245.5,151.2z"/>
		<path class="st10" d="M32.2,201.4h-25c-4.6,0-8.3-3.8-8.3-8.3v-14.9c0-4.6,3.8-8.3,8.3-8.3h25c4.6,0,8.3,3.8,8.3,8.3v14.9
			C40.5,197.7,36.7,201.4,32.2,201.4z"/>
		<path class="st10" d="M41.5,195.2V176c7.6,0,13.7,4.3,13.7,9.6l0,0C55.2,190.9,49.1,195.2,41.5,195.2z"/>
		<path class="st10" d="M21.6,161c1-4.1,1.2-7.9-0.7-9.3c-2.2-1.3-6,1.3-6.5,0.7c-0.8-1.2,10.3-7.6,9.1-11.6c-0.5-2-3.8-2.8-7-3.1"
			/>
	</g>
	<g id="Слой_1_4_" class="st3">
		<path class="st11" d="M-10,56.7c-1.3,1.8-2.6,3.8-4,5.6"/>
		<path class="st11" d="M67.6-54c-1.8,2.5-3.5,5-5.3,7.6"/>
		<path class="st9" d="M249,250.5H-40.1c-8.8,0-16.1-7.1-16.1-16.1v-9.9c0-8.8,7.1-16.1,16.1-16.1H249c8.8,0,16.1,7.3,16.1,16.1v9.9
			C264.9,243.2,257.8,250.5,249,250.5z"/>
	</g>
</g>
<g id="Слой_15" class="st0">
	<g class="st3">
		<path class="st12" d="M-36.1,186.6c-9.2,0-16.7-7.5-16.7-16.7c0-9.2,7.5-16.7,16.7-16.7h280.8c9.2,0,16.7,7.5,16.7,16.7
			c0,9.2-7.5,16.7-16.7,16.7H-36.1z"/>
		<path class="st13" d="M244.7,154.7c8.4,0,15.2,6.8,15.2,15.2c0,8.4-6.8,15.2-15.2,15.2H-36.1c-8.4,0-15.2-6.8-15.2-15.2
			c0-8.4,6.8-15.2,15.2-15.2H244.7 M244.7,151.6H-36.1c-10,0-18.2,8.2-18.2,18.2c0,10,8.2,18.2,18.2,18.2h280.8
			c10,0,18.2-8.2,18.2-18.2C262.9,159.8,254.7,151.6,244.7,151.6L244.7,151.6z"/>
	</g>
	<g class="st3">
		<rect x="73.6" y="187.2" class="st12" width="49.2" height="131.3"/>
		<path class="st13" d="M121.3,188.7V317H75.1V188.7H121.3 M124.3,185.7H72.1V320h52.3V185.7L124.3,185.7z"/>
	</g>
	<g class="st3">
		<rect x="-29.6" y="187.2" class="st12" width="14.5" height="131.3"/>
		<path class="st13" d="M-16.6,188.7V317H-28V188.7H-16.6 M-13.5,185.7H-31V320h17.5V185.7L-13.5,185.7z"/>
	</g>
	<g class="st3">
		<rect x="222.1" y="187.2" class="st12" width="14.5" height="131.3"/>
		<path class="st13" d="M234.9,188.7V317h-11.4V188.7H234.9 M238,185.7h-17.5V320H238V185.7L238,185.7z"/>
	</g>
	<g class="st3">
		<rect x="-29.6" y="187.2" class="st14" width="266" height="22.5"/>
		<path class="st13" d="M234.9,188.7v19.4h-263v-19.4H234.9 M238,185.7H-31.1v25.5H238V185.7L238,185.7z"/>
	</g>
	<line class="st15" x1="72.4" y1="185.7" x2="72.4" y2="153.5"/>
	<line class="st15" x1="124.6" y1="185.7" x2="124.6" y2="153.5"/>
</g>
<g id="Слой_16" class="st0">
	<g id="Слой_3_2_" class="st3">
		<path class="st16" d="M-29.5,236.9c7.5,6.8,18.5,14.4,30.9,13.7c16.2-0.9,21.1-15,36.1-14.7c15.7,0.3,19.4,16,34.4,15.7
			c14.9-0.3,18.4-16,33.1-16.1c14.6-0.1,18.2,15.3,33.1,15.4c14.9,0.1,18.1-15.3,33.6-15.7c15.6-0.5,20.9,14.9,37.8,16.1
			c11.9,0.8,23.4-5.8,34-15.4"/>
		<path class="st16" d="M-10.6,200c6.5,6.8,16,14.4,26.8,13.7c14-0.9,18.3-15,31.3-14.7c13.7,0.3,16.8,16,29.8,15.7
			c12.9-0.3,15.9-16,28.7-16.1c12.7-0.1,15.8,15.3,28.7,15.4c12.9,0.1,15.7-15.3,29-15.7c13.5-0.5,18.1,14.9,32.8,16.1
			c10.3,0.8,20.3-5.8,29.4-15.4"/>
		<path class="st16" d="M8.2,165.7c5.5,6.8,13.6,14.4,22.7,13.7c11.8-0.9,15.4-15,26.4-14.7c11.6,0.3,14.2,16,25.2,15.7
			c11-0.3,13.4-16,24.2-16.1c10.7-0.1,13.4,15.3,24.2,15.4c10.9,0.1,13.3-15.3,24.6-15.7c11.4-0.5,15.3,14.9,27.7,16.1
			c8.7,0.8,17.2-5.8,24.9-15.4"/>
	</g>
	<g id="Слой_4_1_" class="st3">
		<g id="Слой_5_1_">
			<path d="M259.7,264.2c-0.4-1-1.4-1.8-2.5-1.4c-0.1,0.1-0.3,0.1-0.5,0.2h-0.1c-4.3,0-4.4,6.6-0.2,6.8c0,0.3,0,0.5,0,0.8
				c0.1,2.6,4.2,2.7,4.1,0C260.5,268.3,260.5,266.3,259.7,264.2z"/>
			<path d="M-40.1,270.8c-0.1-0.5-0.2-1-0.2-1.5c0.1-0.5,0.1-1,0.3-1.6c0.1-1.2,0.1-2.3,0.1-3.5c0-2.5-3.6-2.6-4-0.4
				c-0.2,0.3-0.3,0.7-0.3,1.1c-0.1,1.4-0.2,3.1-0.1,4.7c0,0.8,0.1,1.6,0.3,2.5c0.6,2.1,3.4,1.7,4,0.1
				C-39.9,271.9-39.9,271.4-40.1,270.8z"/>
		</g>
	</g>
	<g id="Слой_1_5_" class="st3">
		<path class="st17" d="M-42.8,264.7"/>
		<path class="st18" d="M252,317.4H-36c-3.8,0-6.8-3.1-6.8-6.8v-39c0-3.8,3.1-6.8,6.8-6.8H252c3.8,0,6.8,3.1,6.8,6.8v39
			C258.8,314.3,255.7,317.4,252,317.4z"/>
		<path class="st17" d="M-42.1,263.8l1-1.8l54.9-106.5h188.4l53.5,105.2l1.6,3.2C257.4,269.2-42.1,269.2-42.1,263.8z"/>
	</g>
	<g id="Слой_2_3_" class="st3">
	</g>
</g>
<g id="Слой_17" class="st0">
</g>
<g id="Слой_18" class="st0">
	<path class="st19" d="M222,325H40.2c-3.7,0-6.7-3-6.7-6.7V26.7c0-3.7,3-6.7,6.7-6.7H222c3.7,0,6.7,3,6.7,6.7v291.7
		C228.6,322,225.6,325,222,325z"/>
	<line class="st19" x1="33.5" y1="45.3" x2="228.6" y2="45.3"/>
	<path class="st19" d="M203.6,121.2H55.1c-3.7,0-6.7-3-6.7-6.7V85.9c0-3.7,3-6.7,6.7-6.7h148.5c3.7,0,6.7,3,6.7,6.7v28.6
		C210.3,118.2,207.3,121.2,203.6,121.2z"/>
	<path class="st19" d="M203.6,187.2H55.1c-3.7,0-6.7-3-6.7-6.7v-28.6c0-3.7,3-6.7,6.7-6.7h148.5c3.7,0,6.7,3,6.7,6.7v28.6
		C210.3,184.2,207.3,187.2,203.6,187.2z"/>
	<path class="st19" d="M205.3,253.1H56.8c-3.7,0-6.7-3-6.7-6.7v-28.6c0-3.7,3-6.7,6.7-6.7h148.5c3.7,0,6.7,3,6.7,6.7v28.6
		C212,250.1,209,253.1,205.3,253.1z"/>
	<path class="st19" d="M205.3,312.3H56.8c-3.7,0-6.7-3-6.7-6.7v-28.6c0-3.7,3-6.7,6.7-6.7h148.5c3.7,0,6.7,3,6.7,6.7v28.6
		C212,309.4,209,312.3,205.3,312.3z"/>
	<path class="st1" d="M137.6,105.4h-16.3c-2.9,0-5.2-2.3-5.2-5.2l0,0c0-2.9,2.3-5.2,5.2-5.2h16.3c2.9,0,5.2,2.3,5.2,5.2l0,0
		C142.7,103.1,140.4,105.4,137.6,105.4z"/>
	<path class="st1" d="M137.6,296.6h-16.3c-2.9,0-5.2-2.3-5.2-5.2l0,0c0-2.9,2.3-5.2,5.2-5.2h16.3c2.9,0,5.2,2.3,5.2,5.2l0,0
		C142.7,294.2,140.4,296.6,137.6,296.6z"/>
	<path class="st1" d="M139.3,171.4h-16.3c-2.9,0-5.2-2.3-5.2-5.2l0,0c0-2.9,2.3-5.2,5.2-5.2h16.3c2.9,0,5.2,2.3,5.2,5.2l0,0
		C144.4,169,142,171.4,139.3,171.4z"/>
	<path class="st1" d="M137.6,237.3h-16.3c-2.9,0-5.2-2.3-5.2-5.2l0,0c0-2.9,2.3-5.2,5.2-5.2h16.3c2.9,0,5.2,2.3,5.2,5.2l0,0
		C142.7,235,140.4,237.3,137.6,237.3z"/>
</g>
<g id="Слой_19" class="st0">
	<path class="st15" d="M225,316H85c-5.5,0-10-4.5-10-10V41c0-5.5,4.5-10,10-10h140c5.5,0,10,4.5,10,10v265
		C235,311.5,230.5,316,225,316z"/>
	<line class="st15" x1="75" y1="67" x2="239.3" y2="67"/>
	<path class="st15" d="M202.7,143h-94c-5.5,0-10-4.5-10-10v-26c0-5.5,4.5-10,10-10h94c5.5,0,10,4.5,10,10v26
		C212.7,138.5,208.2,143,202.7,143z"/>
	<path class="st15" d="M204.2,208.5h-94c-5.5,0-10-4.5-10-10v-26c0-5.5,4.5-10,10-10h94c5.5,0,10,4.5,10,10v26
		C214.2,204,209.7,208.5,204.2,208.5z"/>
</g>
<g id="Слой_20">
	<rect x="9.5" y="267.8" class="st4" width="19.8" height="47.4"/>
	<rect x="184.5" y="268.7" class="st4" width="19.8" height="47.4"/>
	<path class="st11" d="M187.4,78.1c-2.8-15-15.9-26.4-31.8-26.4h-3.9c0.3-2.2,0.4-4.3,0.4-6.5c0-24.9-20.3-45.3-45.3-45.3
		S61.6,20.3,61.6,45.3c0,2.2,0.2,4.3,0.4,6.5h-3.9c-15.8,0-29,11.4-31.8,26.4C11.4,80.9,0,94.1,0,109.9v208.6c0,3.5,2.9,6.5,6.5,6.5
		h25.9c3.5,0,6.5-2.9,6.5-6.5v-47H175v47c0,3.5,2.9,6.5,6.5,6.5h25.9c3.5,0,6.5-2.9,6.5-6.5V109.9C213.8,94.1,202.4,80.9,187.4,78.1
		z M106.9,12.9c5.9,0,11.4,1.6,16.1,4.3c-3.5,5.3-9.6,8.6-16.1,8.6s-12.6-3.4-16.1-8.6C95.5,14.5,101,12.9,106.9,12.9z M81,25.9
		c6,8,15.5,12.9,25.9,12.9s19.8-4.9,25.9-12.9c4.1,5.4,6.5,12.2,6.5,19.4c0,17.8-14.5,32.3-32.3,32.3S74.6,63.1,74.6,45.3
		C74.6,38,77,31.3,81,25.9z M38.8,84.1c0-10.7,8.7-19.4,19.4-19.4H66c7.2,15.3,22.8,25.9,40.9,25.9s33.6-10.6,40.9-25.9h7.8
		c10.7,0,19.4,8.7,19.4,19.4v45.3h-22.8v-2.2c0-13.1-10.6-23.7-23.7-23.7H85.3c-13.1,0-23.7,10.6-23.7,23.7v2.2H38.8V84.1z
		 M139.2,127.2v2.2H74.6v-2.2c0-5.9,4.8-10.8,10.8-10.8h43.1C134.4,116.4,139.2,121.2,139.2,127.2z M12.9,109.9
		c0-8.4,5.4-15.6,12.9-18.3v38.3c-4.7,0.9-9.1,3-12.9,5.9V109.9z M25.9,312.1H12.9v-40.5h12.9V312.1z M200.9,312.1h-12.9v-40.5h12.9
		V312.1z M200.9,258.6H12.9v-58.2c0-10.7,8.7-19.4,19.4-19.4h149.1c10.7,0,19.4,8.7,19.4,19.4V258.6z M200.9,174.6
		c-5.4-4.1-12.2-6.5-19.4-6.5H32.3c-7.2,0-14,2.4-19.4,6.5v-12.9c0-10.7,8.7-19.4,19.4-19.4h149.1c10.7,0,19.4,8.7,19.4,19.4V174.6z
		 M200.9,135.8c-3.8-2.8-8.2-4.8-12.9-5.9V91.6c7.5,2.7,12.9,9.8,12.9,18.3V135.8z"/>
</g>
</svg>
