<?xml version="1.0" encoding="utf-8"?>
<!-- Generator: Adobe Illustrator 21.1.0, SVG Export Plug-In . SVG Version: 6.00 Build 0)  -->
<svg version="1.1" xmlns="http://www.w3.org/2000/svg" xmlns:xlink="http://www.w3.org/1999/xlink" x="0px" y="0px"
	 viewBox="0 0 325 194.7" style="enable-background:new 0 0 325 194.7;" xml:space="preserve">
<style type="text/css">
	.st0{fill:#9AC6E5;}
	.st1{fill:#333333;}
</style>
<g id="Слой_1">
</g>
<g id="Слой_2">
	<rect x="54.9" y="94.9" class="st0" width="103.8" height="41.1"/>
	<rect x="163" y="94.9" class="st0" width="108.2" height="41.1"/>
	<path class="st1" d="M123.4,47.8v-8.1c0-2.6-2.2-4.7-4.7-4.7s-4.7,2.2-4.7,4.7v8.1c0,2.6,2.2,4.7,4.7,4.7S123.4,50.4,123.4,47.8z
		 M204.4,47.6c0-2.6,2.1-4.7,4.7-4.7s4.7,2.1,4.7,4.7s2.2,4.7,4.7,4.7s4.7-2.2,4.7-4.7c0-7.8-6.3-14.2-14.2-14.2
		c-7.8,0-14.2,6.3-14.2,14.2c0,2.6,2.2,4.7,4.7,4.7S204.4,50.2,204.4,47.6z M278,38.7C274.6,17,255.8,0,232.6,0H98.6
		c-2.6,0-4.7,2.2-4.7,4.7s2.2,4.7,4.7,4.7h134.1c18.7,0,34,14,36.2,32.1c-13.9,6.3-23.7,20.6-23.7,37v8.4h-62.9
		c-7.8,0-14.8,3.8-19.2,9.6c-4.4-5.8-11.3-9.6-19.2-9.6H80.9v-8.4c0-16.4-9.8-30.6-23.7-37c1.6-12.5,9.7-23.7,21.4-28.9
		c2.4-1.1,3.5-3.9,2.4-6.3S77.1,2.9,74.7,4c-14.1,6.3-24.1,19.5-26.6,34.7c-24-4.4-47,14-47,39.3c0,14.9,8.2,28.4,21.2,35.3v30.1
		c0,16.4,12.9,29.9,29.1,30.9v9c0,6.3,5.1,11.5,11.5,11.5h21.3c6.3,0,11.5-5.1,11.5-11.5v-9h135v9c0,6.3,5.1,11.5,11.5,11.5h21.3
		c6.3,0,11.5-5.1,11.5-11.5v-9c3.9-0.3,7.7-1.1,11.2-2.8c2.4-1.1,3.4-3.9,2.3-6.3s-3.9-3.4-6.3-2.3c-2.8,1.3-5.9,2-9,2H53.2
		c-11.8,0-21.4-9.6-21.4-21.4v-33c0-1.9-1.1-3.6-2.8-4.4C17.8,101,10.6,90,10.6,77.9c0-17,13.9-30.7,31-30.4
		c16.5,0.3,29.9,14.2,29.9,31v8.4h-0.4c-13.2,0-23.9,10.7-23.9,23.9v15.9c0,8.9,7.2,16.1,16.1,16.1h88.4c4.4,0,8.5-1.8,11.4-4.7
		c2.9,2.9,7,4.7,11.4,4.7h88.4c8.9,0,16.1-7.2,16.1-16.1v-15.9c0-13.2-10.7-23.9-23.9-23.9h-0.4v-8.4c0-16.8,13.4-30.7,29.9-31
		c17-0.3,31,13.3,31,30.4c0,12.1-7.2,23.1-18.3,28c-1.7,0.8-2.8,2.5-2.8,4.4c-0.2,33.4,0.4,33.8-0.6,38.2c-0.8,3,1.5,5.9,4.6,5.9
		c2.2,0,4-1.5,4.6-3.6c1.5-6.1,0.6-8.1,0.9-37.5c13-6.9,21.2-20.4,21.2-35.3C325,52.8,302.2,34.2,278,38.7z M240,174.2h25.2v9
		c0,1.1-0.9,2-2,2H242c-1.1,0-2-0.9-2-2L240,174.2L240,174.2z M60.9,174.2H86v9c0,1.1-0.9,2-2,2H62.8c-1.1,0-2-0.9-2-2V174.2
		L60.9,174.2z M158.3,126.7c0,3.7-3,6.6-6.6,6.6H63.3c-3.7,0-6.6-3-6.6-6.6v-15.9c0-8,6.5-14.4,14.4-14.4h72.9
		c8,0,14.4,6.5,14.4,14.4L158.3,126.7L158.3,126.7z M255,96.4c8,0,14.4,6.5,14.4,14.4v15.9c0,3.7-3,6.6-6.6,6.6h-88.4
		c-3.7,0-6.6-3-6.6-6.6v-15.9c0-8,6.5-14.4,14.4-14.4H255z M163,57.8c5.9,0,11.5-2.5,15.2-7c1.7-2,1.5-5-0.4-6.7
		c-2-1.7-5-1.5-6.7,0.4c-2,2.3-5,3.7-8.1,3.7s-6.1-1.3-8.1-3.7c-1.7-2-4.7-2.2-6.7-0.4c-2,1.7-2.2,4.7-0.4,6.7
		C151.6,55.3,157.2,57.8,163,57.8z"/>
</g>
</svg>
