<?xml version="1.0" encoding="utf-8"?>
<!-- Generator: Adobe Illustrator 21.1.0, SVG Export Plug-In . SVG Version: 6.00 Build 0)  -->
<svg version="1.1" id="Слой_1" xmlns="http://www.w3.org/2000/svg" xmlns:xlink="http://www.w3.org/1999/xlink" x="0px" y="0px"
	 viewBox="0 0 323.7 252.3" style="enable-background:new 0 0 323.7 252.3;" xml:space="preserve">
<style type="text/css">
	.st0{fill:#FFFFFF;stroke:#333333;stroke-width:5;stroke-miterlimit:10;}
	.st1{fill:none;stroke:#333333;stroke-width:5;stroke-miterlimit:10;}
	.st2{fill:#FFFFFF;}
	.st3{fill:#9AC6E5;}
	.st4{fill:#333333;}
	.st5{fill:#68B9DD;}
</style>
<g id="Слой_1_1_">
</g>
<g id="Слой_2">
	<path class="st0" d="M274.4,173.8h-92.2c-14.4,0-26.1-11.7-26.1-26.1v-32.4c0-14.4,11.7-26.1,26.1-26.1h92.2
		c14.4,0,26.1,11.7,26.1,26.1v32.5C300.6,162,288.8,173.8,274.4,173.8z"/>
	<path class="st0" d="M137.9,236.2v-67.7c0-8.8,7.2-16.1,16.1-16.1h149c8.8,0,16.1,7.2,16.1,16.1v67.7
		C318.8,244.9,137.9,244.9,137.9,236.2z"/>
	<polygon class="st0" points="159.5,250.2 138,250.2 138,239.5 166.5,239.5 	"/>
	<polygon class="st0" points="297.2,250.2 318.8,250.2 318.8,239.5 290.2,239.5 	"/>
	<rect x="135" y="233.8" class="st0" width="186.2" height="7.3"/>
	<line class="st1" x1="137.9" y1="173.8" x2="318.8" y2="173.8"/>
	<path class="st2" d="M40.7,6.9L22.9,54.8h81.7L88.7,6.9H40.7z"/>
	<path class="st0" d="M113.7,109.8h-33v-4.1c0-6.8-5.6-12.4-12.4-12.4v-33H89v7.2l-4.1,8.3c-1.9,3.9-0.9,8.6,2.4,11.3
		c3.4,2.7,8.2,2.7,11.5,0c3.4-2.7,4.4-7.4,2.4-11.3l-4.1-8.3v-7.2h8.3c1.4,0,2.6-0.6,3.4-1.7s0.9-2.4,0.5-3.7L94.6,11.1
		C93,6,88.2,2.6,82.9,2.6H45.2c-5.4,0-10.1,3.5-11.7,8.5L18.8,54.9c-0.4,1.3-0.2,2.6,0.5,3.7c0.7,1,2,1.7,3.4,1.7h37.1v32.9
		c-6.8,0-12.4,5.6-12.4,12.4v4.1h-33C7.6,109.7,2,115.2,2,122v123.8c0,2.3,1.9,4.1,4.1,4.1h16.5c2.3,0,4.1-1.9,4.1-4.1v-12.4H101
		v12.4c0,2.3,1.9,4.1,4.1,4.1h16.5c2.3,0,4.1-1.9,4.1-4.1V122C126.1,115.3,120.6,109.8,113.7,109.8z M93.9,80.4
		c-0.4,0.4-1.2,0.4-1.7,0c-0.2-0.3-0.2-0.6,0-0.9l0.8-1.8l0.8,1.8C94.1,79.8,94.1,80.1,93.9,80.4z M10.6,167.5h107.3v41.2H10.6
		V167.5z M55.9,105.6c0-2.3,1.9-4.1,4.1-4.1h8.3c2.3,0,4.1,1.9,4.1,4.1v4.1H55.9V105.6L55.9,105.6z M10.6,122.1
		c0-2.3,1.9-4.1,4.1-4.1h99c2.3,0,4.1,1.9,4.1,4.1v37.1H10.6V122.1z"/>
	<path class="st3" d="M68.3,126.2H60c-2.3,0-4.1,1.9-4.1,4.1c0,2.3,1.9,4.1,4.1,4.1h8.3c2.3,0,4.1-1.9,4.1-4.1
		C72.5,128.1,70.6,126.2,68.3,126.2z"/>
	<path class="st3" d="M68.3,175.8H60c-2.3,0-4.1,1.9-4.1,4.1s1.9,4.1,4.1,4.1h8.3c2.3,0,4.1-1.9,4.1-4.1S70.6,175.8,68.3,175.8z"/>
	<g>
		<g>
			<path class="st4" d="M244.8,139.5c-0.6-1.2-1.7-1.9-2.9-2.2c-0.3-0.1-0.6-0.1-0.9-0.1c0-0.4,0.1-0.8,0.1-1.4c0-0.5,0-1.2-0.1-1.7
				c2.3-0.3,4-2.2,4-4.4c0-2.5-2.1-4.5-4.6-4.5c-0.2,0-0.5,0-0.7,0.1c0.5-1.3,0.8-2.6,0.8-4.1c0-0.9-0.1-1.9-0.3-2.8
				c1.9-0.7,3-2.5,3-4.6c0-2.7-2.3-5-5.1-5c-1.8,0-3.4,0.8-4.3,2.2c-1.5-0.6-3.1-1-4.8-1s-3.4,0.3-4.8,1c-0.9-1.4-2.5-2.2-4.3-2.2
				c-2.8,0-5.1,2.2-5.1,5c0,2,1.3,3.8,3,4.6c-0.2,0.9-0.3,1.9-0.3,2.7c0,1.5,0.3,2.8,0.8,4.1c-0.2,0-0.5-0.1-0.7-0.1
				c-2.6,0-4.6,2-4.6,4.5c0,2.3,1.8,4.2,4,4.4c-0.1,0.5-0.1,1.2-0.1,1.7c0,0.4,0,0.9,0.1,1.4h-0.1c-0.4,0-0.8,0-1.3,0.1
				c-1.3,0.3-2.2,1-2.9,2.2c-1.2,2-1,4.9-0.5,7c0.6,2.4,2.9,4.1,5.6,4.1c0.1,0,0.2,0,0.3,0l0,0l0,0l0,0c2.1-0.1,4-1.4,4.9-3.3
				c1.9,1.2,3.9,1.8,6.1,1.8c2.1,0,4.1-0.5,5.9-1.6c0,0.1,0.1,0.1,0.1,0.2c0.7,1.4,2,2.3,3.6,2.7c0.5,0.1,0.9,0.2,1.5,0.2
				c2.6,0,4.9-1.7,5.6-4.1C245.9,144.4,245.9,141.4,244.8,139.5z M216,113.8c0-1.9,1.6-3.4,3.6-3.4c1.4,0,2.6,0.7,3.3,2
				c0.1,0.2,0.3,0.3,0.5,0.4s0.4,0,0.6,0c1.5-0.7,3.1-1.2,4.8-1.2s3.4,0.4,4.8,1.2c0.2,0.1,0.4,0.1,0.6,0c0.2-0.1,0.4-0.2,0.5-0.4
				c0.5-1.3,1.9-2,3.3-2c2,0,3.6,1.5,3.6,3.4c0,1.3-0.8,2.5-2,3c-0.2-0.4-0.4-0.8-0.6-1.3c-0.2-0.4-0.7-0.5-1.2-0.3
				c-0.4,0.2-0.5,0.7-0.3,1.2c0.3,0.5,0.6,1.2,0.8,1.8l0,0c0.3,0.9,0.5,2,0.5,2.9c0,4.9-4,9.1-9.1,9.4v-6.1c1.2-0.4,2-1.7,2-2.7
				c0-0.6-0.3-2-2.8-2s-2.8,1.4-2.8,2c0,1,0.8,2.3,2,2.7v6.1c-5.1-0.4-9.1-4.5-9.1-9.4c0-1,0.2-2.1,0.5-3c0.1-0.2,0.1-0.4-0.1-0.6
				c-0.1-0.2-0.3-0.3-0.5-0.4C217.2,116.6,216,115.2,216,113.8z M228.7,136.8c-0.4,0-0.8,0.3-0.8,0.8v2.5c-2.7-0.4-4.9-2.8-4.9-5.7
				c0-1.2,0.3-2.3,1-3.3c1.5,0.6,3,0.9,4.7,0.9s3.3-0.3,4.7-0.9c0.6,0.9,1,2.1,1,3.3c0,2.8-2.1,5.2-4.9,5.7v-2.5
				C229.6,137.3,229.1,136.8,228.7,136.8z M227.6,121.7c0-0.1,0-0.1,0.1-0.2s0.4-0.2,1-0.2s0.9,0.1,1,0.2s0.1,0.1,0.1,0.2
				c0,0.4-0.5,1.3-1.2,1.3C228.1,123,227.6,122.3,227.6,121.7z M220.9,146.9c-0.5,0.9-1.5,1.7-2.5,1.9c-0.3,0.1-0.5,0.1-0.8,0.1l0,0
				c-0.1,0-0.2,0-0.3,0c-1.9,0-3.6-1.3-4-2.9c-0.4-1.7-0.5-4.2,0.3-5.8c0.4-0.7,1-1.3,1.9-1.5c0.3-0.1,0.5-0.1,0.8-0.1
				s0.5,0,0.8,0.1l0,0c2.1,0.6,3.7,3.4,4.1,5.1C221.7,145,221.5,146.1,220.9,146.9z M234.1,143.5c-0.2,0.8-0.2,1.7-0.1,2.4
				c-1.6,1-3.5,1.6-5.2,1.6c-2,0-4-0.6-5.7-1.8c0.1-0.7,0-1.5-0.1-2.2c-0.6-2.1-2.3-5.1-4.7-6.1c-0.1-0.5-0.1-1.2-0.1-1.7
				c0-0.7,0.1-1.6,0.2-2.3c0-0.2,0-0.5-0.2-0.7s-0.4-0.3-0.6-0.3c-0.1,0-0.1,0-0.2,0c-1.7,0-3-1.3-3-2.8c0-1.6,1.4-2.8,3-2.8
				c0.8,0,1.6,0.3,2.1,0.8c0.8,1.2,2,2.2,3.3,2.9c-0.7,1.2-1.2,2.6-1.2,4c0,4.1,3.3,7.3,7.3,7.3s7.3-3.3,7.3-7.3
				c0-1.5-0.4-2.8-1.2-4c1.3-0.7,2.4-1.8,3.3-2.9c0.5-0.5,1.4-0.8,2.1-0.8c1.7,0,3,1.3,3,2.8c0,1.6-1.4,2.8-3,2.8
				c-0.1,0-0.1,0-0.2,0c-0.2,0-0.5,0.1-0.6,0.3c-0.2,0.2-0.2,0.4-0.2,0.7c0.1,0.7,0.2,1.6,0.2,2.3c0,0.5,0,1-0.1,1.5
				C236.6,138.1,234.7,141.2,234.1,143.5z M243.7,146c-0.5,1.7-2.1,2.9-4,2.9c-0.3,0-0.7,0-1-0.1c-1.2-0.3-2-0.9-2.5-1.9
				c-0.5-0.9-0.6-1.9-0.4-2.9c0.5-1.9,2.2-4.8,4.5-5.2l0,0c0.1,0,0.3,0,0.5,0c0.3,0,0.5,0,0.8,0.1c0.8,0.2,1.5,0.7,1.9,1.5
				C244.2,141.9,244.2,144.4,243.7,146z"/>
		</g>
	</g>
	<g>
		<g>
			<path class="st5" d="M234.9,115.9c-0.7,0-1.4,0.6-1.4,1.4c0,0.7,0.6,1.4,1.4,1.4s1.4-0.6,1.4-1.4S235.6,115.9,234.9,115.9z"/>
		</g>
	</g>
	<g>
		<g>
			<path class="st5" d="M224.6,115.9c-0.7,0-1.4,0.6-1.4,1.4c0,0.7,0.6,1.4,1.4,1.4c0.7,0,1.4-0.6,1.4-1.4S225.4,115.9,224.6,115.9z
				"/>
		</g>
	</g>
	<g>
		<g>
			<path d="M238.2,111.2L238.2,111.2c-0.3-0.3-0.8-0.3-1.2,0s-0.3,0.8,0,1.2l0,0c0.2,0.2,0.4,0.2,0.5,0.2c0.2,0,0.4-0.1,0.6-0.2
				C238.5,112.1,238.5,111.6,238.2,111.2z"/>
		</g>
	</g>
	<g>
		<g>
			<path class="st5" d="M229.8,132.4c-0.4,0-0.8,0.3-0.8,0.8l0,0c0,0.4,0.3,0.8,0.8,0.8c0.4,0,0.8-0.3,0.8-0.8l0,0
				C230.6,132.7,230.2,132.4,229.8,132.4z"/>
		</g>
	</g>
</g>
</svg>
