<svg id="Слой_1" data-name="Слой 1" xmlns="http://www.w3.org/2000/svg" viewBox="0 0 500 500"><defs><style>.cls-1,.cls-3{fill:none;}.cls-1{stroke:#8cc3e5;stroke-linecap:round;stroke-width:15.73px;stroke-dasharray:29.49;}.cls-1,.cls-2,.cls-3,.cls-4{stroke-linejoin:round;}.cls-2{fill:#8cc3e5;}.cls-2,.cls-3,.cls-4{stroke:#000;stroke-width:16px;}.cls-4{fill:#fff;}</style></defs><path class="cls-1" d="M376.45,234.2A217.76,217.76,0,0,1,465,409.66"/><rect x="29.1" y="383.3" width="16.6" height="42.74" rx="8.3"/><rect x="241.7" y="383.3" width="16.6" height="42.74" rx="8.3"/><rect x="423.95" y="275" width="16.6" height="42.74" rx="8.3" transform="translate(-90.92 265.24) rotate(-31.03)"/><rect class="cls-2" x="219.98" y="288.48" width="223.81" height="47.6" transform="translate(-113.48 215.77) rotate(-31.03)"/><line class="cls-3" x1="344.15" y1="332.67" x2="319.62" y2="291.89"/><rect class="cls-4" x="201.22" y="268.51" width="223.81" height="25.17" transform="translate(-100.09 201.64) rotate(-31.03)"/><rect class="cls-4" x="-7.57" y="228.41" width="151.01" height="61.07" transform="translate(-191.01 326.87) rotate(-90)"/><path class="cls-2" d="M37.4,259.24H190.08A59.92,59.92,0,0,1,250,319.16v71.2a0,0,0,0,1,0,0H37.4a0,0,0,0,1,0,0V259.24A0,0,0,0,1,37.4,259.24Z"/></svg>