<?xml version="1.0" encoding="utf-8"?>
<!-- Generator: Adobe Illustrator 21.1.0, SVG Export Plug-In . SVG Version: 6.00 Build 0)  -->
<svg version="1.1" xmlns="http://www.w3.org/2000/svg" xmlns:xlink="http://www.w3.org/1999/xlink" x="0px" y="0px"
	 viewBox="0 0 323.6 279.5" style="enable-background:new 0 0 323.6 279.5;" xml:space="preserve">
<style type="text/css">
	.st0{display:none;}
	.st1{display:inline;fill:#9AC6E5;}
	.st2{display:inline;fill:#333333;}
	.st3{fill:#333333;}
	.st4{fill:#9AC6E5;}
</style>
<g id="Слой_1" class="st0">
	<rect x="9" y="-36.5" class="st1" width="305" height="15"/>
	<path class="st2" d="M308.3-44.5H14.7C6.1-44.5-1-37.4-1-28.8c0,8.7,7.1,15.7,15.7,15.7h293.5c8.7,0,15.7-7.1,15.7-15.7
		C324-37.4,316.9-44.5,308.3-44.5z M308.3-23.5H14.7c-2.9,0-5.2-2.4-5.2-5.2s2.3-5.2,5.2-5.2h293.5c2.9,0,5.2,2.4,5.2,5.2
		S311.2-23.5,308.3-23.5z"/>
	<path class="st2" d="M161.5,123.2c-37.6,0-68.1,30.6-68.1,68.1c0,37.6,30.6,68.1,68.1,68.1c37.6,0,68.1-30.6,68.1-68.1
		S199.1,123.2,161.5,123.2z M218.9,196.6c-1.1,12-5.8,22.9-13.1,31.6l-10.9-10.9l-7.4,7.4l10.9,10.9c-10,8.3-22.9,13.4-36.9,13.4
		s-26.9-5-36.9-13.4l10.9-10.9l-7.4-7.4l-10.9,10.9c-7.3-8.7-12-19.7-13.1-31.6h15.5v-10.5h-15.5c1.1-12,5.8-22.9,13.1-31.6
		l10.9,10.9l7.4-7.4l-10.9-10.9c8.7-7.3,19.7-12,31.6-13.1v15.5h10.5V134c12,1.1,22.9,5.8,31.6,13.1L187.4,158l7.4,7.4l10.9-10.9
		c7.3,8.7,12,19.7,13.1,31.6h-15.5v10.5H218.9z"/>
	<path class="st2" d="M173.2,168.8c-1.5-5.2-6.3-8.8-11.7-8.8s-10.2,3.6-11.7,8.8l-8.5,29.8c-0.5,1.7-0.7,3.5-0.7,5.2
		c0,10.5,8.5,19,19,19h3.9c10.5,0,19-8.5,19-19c0-1.8-0.2-3.5-0.7-5.2L173.2,168.8z M163.4,212.4h-3.9c-4.7,0-8.6-3.8-8.6-8.6
		c0-0.8,0.1-1.6,0.3-2.3l8.5-29.8c0.2-0.7,0.9-1.2,1.6-1.2c0.8,0,1.4,0.5,1.6,1.2l8.5,29.8c0.2,0.8,0.3,1.6,0.3,2.3
		C172,208.5,168.1,212.4,163.4,212.4z"/>
	<path class="st2" d="M290.5,192c-3.8-38.4-30-71.5-66.5-84.2l-0.8-0.3H99.8l-0.8,0.3c-36.6,12.7-62.7,45.7-66.5,84.2l-7.2,71.8
		c-0.1,0.5-0.1,1-0.1,1.6c0,8.4,6.8,15.2,15.2,15.2h242.1c8.4,0,15.2-6.8,15.2-15.2c0-0.5,0-1-0.1-1.5L290.5,192z M282.6,270H40.4
		c-2.6,0-4.7-2.1-4.7-5.2l7.2-71.8c3.4-34.1,26.4-63.5,58.7-75h119.8c32.3,11.5,55.3,40.9,58.7,75l7.2,71.8v0.5
		C287.3,267.9,285.2,270,282.6,270z"/>
	<path class="st2" d="M303,2.7c0,37.6-30.6,68.1-68.1,68.1h-26.2h-10.5h-73.4h-10.5H88.1C50.5,70.8,20,40.3,20,2.7v-5.2H9.5v5.2
		c0,43.4,35.3,78.6,78.6,78.6h26.2V97h10.5V81.3h10.5V97h10.5V81.3h31.5V97h10.5V81.3h10.5V97h10.5V81.3H235
		c43.4,0,78.6-35.3,78.6-78.6v-5.2H303V2.7z"/>
	<path class="st2" d="M40.9-2.6H30.5V7.9H41L40.9-2.6L40.9-2.6z"/>
	<path class="st2" d="M145.8-2.6H51.4V7.9h94.4V-2.6z"/>
</g>
<g id="Слой_2">
	<path class="st3" d="M-0.7,67h324.3v44.7H-0.7V67z"/>
	<g>
		<path class="st4" d="M60.8,33.5h33.5c9.3,0,16.8,7.5,16.8,16.8l0,0c0,9.3-7.5,16.8-16.8,16.8H60.8c-9.3,0-16.8-7.5-16.8-16.8l0,0
			C44.1,41,51.6,33.5,60.8,33.5z"/>
		<path class="st4" d="M60.8,167.7h33.5c9.3,0,16.8,7.5,16.8,16.8l0,0c0,9.3-7.5,16.8-16.8,16.8H60.8c-9.3,0-16.8-7.5-16.8-16.8l0,0
			C44.1,175.2,51.6,167.7,60.8,167.7z"/>
	</g>
	<path class="st3" d="M-0.7,201.2h324.3V246H-0.7V201.2z"/>
	<g>
		<path class="st3" d="M-0.7-0.1h22.4V67H-0.7V-0.1z"/>
		<path class="st3" d="M-0.7,111.8h22.4v89.5H-0.7V111.8z"/>
		<path class="st3" d="M-0.7,246h22.4v33.5H-0.7V246z"/>
		<path class="st3" d="M301.3-0.1h22.4V67h-22.4V-0.1z"/>
		<path class="st3" d="M301.3,111.8h22.4v89.5h-22.4V111.8z"/>
		<path class="st3" d="M301.3,246h22.4v33.5h-22.4V246z"/>
	</g>
	<g>
		<path class="st4" d="M245.4,33.5H133.5v55.9h145.4V67C278.9,48.5,263.9,33.5,245.4,33.5z"/>
		<path class="st4" d="M245.4,167.7H133.5v55.9h145.4v-22.4C278.9,182.7,263.9,167.7,245.4,167.7z"/>
	</g>
</g>
</svg>
