<?xml version="1.0" standalone="no"?>
<!DOCTYPE svg PUBLIC "-//W3C//DTD SVG 20010904//EN"
 "http://www.w3.org/TR/2001/REC-SVG-20010904/DTD/svg10.dtd">
<svg version="1.0" xmlns="http://www.w3.org/2000/svg"
 width="2155.000000pt" height="2155.000000pt" viewBox="0 0 2155.000000 2155.000000"
 preserveAspectRatio="xMidYMid meet">

<g transform="translate(0.000000,2155.000000) scale(0.100000,-0.100000)"
fill="#000000" stroke="none">
<path d="M12240 20314 c-19 -2 -84 -9 -145 -15 -245 -24 -543 -87 -790 -166
-405 -129 -858 -359 -1203 -610 -650 -474 -1167 -1109 -1490 -1833 -189 -422
-294 -794 -375 -1322 l-21 -143 -3 -3747 -3 -3747 -33 -5 c-17 -3 -61 -11 -97
-16 -94 -16 -217 -49 -280 -77 -83 -36 -127 -71 -150 -117 -20 -41 -20 -58
-20 -832 l0 -789 -433 -73 c-237 -40 -435 -72 -439 -72 -5 0 -8 349 -8 775 l0
775 -29 32 c-27 30 -34 33 -104 36 -88 5 -139 -9 -167 -45 -20 -25 -20 -39
-20 -829 0 -442 -3 -804 -7 -804 -29 0 -201 -33 -263 -50 -321 -90 -590 -360
-685 -686 -138 -475 84 -976 529 -1193 143 -70 253 -94 431 -95 135 -1 174 4
390 42 132 24 367 65 523 91 l282 48 -2 -525 -3 -525 -160 -32 c-314 -63 -532
-133 -736 -236 -194 -99 -313 -204 -373 -329 -29 -60 -31 -73 -31 -170 0 -100
2 -108 34 -170 111 -214 414 -388 881 -507 793 -201 1893 -216 2729 -37 351
76 617 175 810 304 112 75 184 154 230 250 33 69 36 82 36 166 0 84 -2 95 -39
168 -67 136 -183 235 -401 341 -188 92 -454 173 -730 225 -66 12 -126 24 -132
26 -10 3 -13 481 -13 2349 0 2574 5 2374 -59 2428 -83 69 -282 127 -559 162
l-52 7 3 3726 2 3727 28 163 c143 834 495 1528 1063 2096 565 565 1266 914
2013 1001 232 27 550 19 791 -21 1198 -199 2237 -1163 2639 -2449 42 -134 101
-366 101 -397 0 -9 4 -19 9 -22 7 -5 495 86 779 145 l53 11 -7 36 c-16 89 -98
402 -138 524 -104 320 -277 699 -448 981 -633 1045 -1611 1756 -2737 1988
-211 43 -386 60 -666 64 -148 2 -286 1 -305 -1z m-2949 -11735 c173 -34 304
-86 304 -119 0 -22 -99 -68 -207 -95 -385 -97 -1040 -97 -1414 1 -97 25 -181
61 -202 87 -11 12 -7 19 22 36 50 32 165 68 283 91 57 11 111 20 119 20 11 0
14 -18 14 -89 l0 -88 39 -7 c155 -25 596 -30 764 -9 l47 6 0 99 0 100 68 -7
c37 -3 110 -15 163 -26z m-1026 -1913 c209 -71 362 -203 455 -391 50 -103 69
-177 77 -295 20 -331 -191 -646 -504 -755 -38 -13 -163 -40 -278 -60 -116 -20
-222 -38 -237 -41 l-27 -5 35 83 c20 45 47 125 62 178 24 88 26 110 26 290 0
179 -2 203 -27 292 -56 211 -162 399 -313 557 -79 84 -84 91 -62 96 13 3 124
23 248 45 195 34 241 39 345 36 99 -3 134 -8 200 -30z m-1630 -262 c255 -68
454 -262 535 -519 34 -107 39 -276 11 -385 -29 -120 -97 -251 -171 -333 -410
-451 -1135 -279 -1302 309 -31 111 -31 277 0 388 82 288 306 497 591 551 92
18 250 13 336 -11z m995 -3090 c0 -213 6 -236 74 -286 57 -42 114 -65 241 -98
502 -131 1398 -91 1680 75 23 13 56 40 74 60 l31 36 0 200 0 199 23 -4 c12 -3
68 -14 124 -26 446 -91 798 -252 863 -393 23 -50 16 -77 -34 -134 -169 -192
-699 -358 -1366 -427 -895 -93 -1919 18 -2439 265 -172 81 -273 164 -287 236
-23 117 236 281 615 390 97 28 351 87 394 92 4 1 7 -83 7 -185z"/>
<path d="M16200 16520 c-482 -90 -465 -86 -507 -123 -39 -35 -72 -97 -73 -138
0 -43 149 -841 166 -886 19 -53 73 -98 133 -113 41 -10 90 -3 480 70 258 47
449 88 470 98 48 25 92 89 98 143 6 59 -141 857 -169 918 -31 65 -94 101 -172
100 -34 0 -225 -32 -426 -69z"/>
</g>
</svg>
