<?xml version="1.0" encoding="utf-8"?>
<!-- Generator: Adobe Illustrator 21.1.0, SVG Export Plug-In . SVG Version: 6.00 Build 0)  -->
<svg version="1.1" id="Слой_1" xmlns="http://www.w3.org/2000/svg" xmlns:xlink="http://www.w3.org/1999/xlink" x="0px" y="0px"
	 viewBox="0 0 325 196.4" style="enable-background:new 0 0 325 196.4;" xml:space="preserve">
<style type="text/css">
	.st0{fill:none;stroke:#353333;stroke-width:10;stroke-miterlimit:10;}
	.st1{fill:none;stroke:#9AC6E5;stroke-width:10;stroke-miterlimit:10;}
	.st2{fill:#333333;}
</style>
<g id="Слой_2_2_">
	<polygon class="st0" points="289.5,191.9 279.3,191.9 279.3,120.8 300,120.8 	"/>
	<polygon class="st0" points="33.3,191.9 43.5,191.9 43.5,120.8 22.9,120.8 	"/>
</g>
<g id="Слой_3_1_">
	<path class="st0" d="M286,84.6H184c-1.8,0-3.2-1.5-3.2-3.2V61.9c0-1.8,1.5-3.2,3.2-3.2h102c1.8,0,3.2,1.5,3.2,3.2v19.6
		C289.3,83.1,287.8,84.6,286,84.6z"/>
	<path class="st0" d="M272.9,57H171c-1.8,0-3.2-1.5-3.2-3.2V34.2c0-1.8,1.5-3.2,3.2-3.2h102c1.8,0,3.2,1.5,3.2,3.2v19.6
		C276.3,55.5,274.8,57,272.9,57z"/>
	<path class="st0" d="M302.2,30.9H200.3c-1.8,0-3.2-1.5-3.2-3.2V8.2c0-1.8,1.5-3.2,3.2-3.2h102c1.8,0,3.2,1.5,3.2,3.2v19.6
		C305.5,29.5,304.1,30.9,302.2,30.9z"/>
	<path class="st1" d="M92.6,80.3H68.1c-4.5,0-8.2-3.7-8.2-8.2V57.5c0-4.5,3.7-8.2,8.2-8.2h24.6c4.5,0,8.2,3.7,8.2,8.2v14.6
		C100.8,76.6,97.1,80.3,92.6,80.3z"/>
	<path class="st1" d="M101.8,74.2V55.3c7.5,0,13.5,4.2,13.5,9.4l0,0C115.2,69.9,109.2,74.2,101.8,74.2z"/>
	<path class="st1" d="M82.2,40.6c1-4,1.2-7.8-0.7-9.1c-2.2-1.3-5.9,1.3-6.4,0.7c-0.8-1.2,10.1-7.5,8.9-11.4c-0.5-2-3.7-2.8-6.9-3"/>
</g>
<g id="Слой_1_4_">
	<path class="st2" d="M50.2-14c-1.3,1.2-2.6,2.6-3.9,3.8"/>
	<path class="st2" d="M126.4-89.8c-1.8,1.7-3.4,3.4-5.2,5.2"/>
	<path class="st0" d="M304.7,118.7H20.6c-8.6,0-15.8-4.9-15.8-11v-6.8c0-6,7-11,15.8-11h284.1c8.6,0,15.8,5,15.8,11v6.8
		C320.3,113.7,313.3,118.7,304.7,118.7z"/>
</g>
</svg>
