<svg id="Слой_1" data-name="Слой 1" xmlns="http://www.w3.org/2000/svg" viewBox="0 0 500 500"><defs><style>.cls-1{fill:#fff;}.cls-2{fill:#201600;}.cls-3{fill:#8cc3e5;}.cls-4{opacity:0.61;}.cls-5{opacity:0.5;}</style></defs><polygon class="cls-1" points="288.93 53.49 288.93 104.85 288.93 156.22 288.93 232.28 467.71 232.28 467.71 156.22 467.71 104.85 467.71 53.49 288.93 53.49"/><path class="cls-2" d="M467.71,236.38H288.93a4.11,4.11,0,0,1-4.11-4.11V53.49a4.11,4.11,0,0,1,4.11-4.11H467.71a4.11,4.11,0,0,1,4.11,4.11V232.27A4.11,4.11,0,0,1,467.71,236.38ZM293,228.17H463.6V57.6H293Z"/><rect class="cls-3" x="309.85" y="74.41" width="136.94" height="136.94"/><g class="cls-4"><polygon class="cls-1" points="438.08 83.12 438.08 101.33 336.77 202.65 318.55 202.65 318.55 184.34 419.78 83.12 438.08 83.12"/></g><path class="cls-2" d="M446.79,215.46H309.85a4.11,4.11,0,0,1-4.11-4.11V74.41a4.11,4.11,0,0,1,4.11-4.1H446.79a4.11,4.11,0,0,1,4.1,4.1V211.35A4.11,4.11,0,0,1,446.79,215.46ZM314,207.24H442.68V78.52H314Z"/><rect class="cls-2" x="453.59" y="124.72" width="6.39" height="36.23" rx="3.2"/><g class="cls-5"><path class="cls-1" d="M338.66,85.7c.1.45.14.84.21,1.27l.12,1.17c.07.78.1,1.51.1,2.22,0,.18-.15.21-.27.26a1.13,1.13,0,0,0-.29.25l-.52.52L337,92.45l-4.24,4.24-4.23,4.23L326.37,103a31.75,31.75,0,0,1-4.64-.4,32.94,32.94,0,0,1-.4-4.63l2.12-2.12,4.23-4.23,4.23-4.23L333,86.36l.53-.53a1.08,1.08,0,0,0,.24-.28c.06-.12.09-.27.26-.27a21.44,21.44,0,0,1,2.22.1l1.18.12C337.82,85.57,338.22,85.61,338.66,85.7Z"/><path class="cls-1" d="M359.45,83.31c-.33,1.35-.7,2.65-1.12,3.89s-.88,2.48-1.35,3.67a1.73,1.73,0,0,1-.64.62,6.06,6.06,0,0,0-.64.6l-1.26,1.26-2.5,2.5-10,10-10,10-5,5a63.89,63.89,0,0,1-7.53,2.5,63.27,63.27,0,0,1,2.49-7.53l5-5,10-10,10-10,2.51-2.51,1.25-1.25a7.55,7.55,0,0,0,.61-.65,1.63,1.63,0,0,1,.62-.63c1.19-.48,2.41-.94,3.66-1.35S358.1,83.63,359.45,83.31Z"/></g><g class="cls-5"><path class="cls-1" d="M435.45,182.49c.09.44.13.84.2,1.26l.12,1.18a21.44,21.44,0,0,1,.1,2.22c0,.17-.15.2-.27.25a1.35,1.35,0,0,0-.28.25l-.53.53-1.06,1.06-4.23,4.23-4.23,4.23-2.12,2.12a32.94,32.94,0,0,1-4.63-.4,31.84,31.84,0,0,1-.41-4.64l2.12-2.11,4.23-4.24,4.24-4.23,1.05-1.06.53-.53a1.35,1.35,0,0,0,.25-.28c.05-.12.08-.27.26-.27.7,0,1.43,0,2.21.1l1.18.12C434.6,182.35,435,182.39,435.45,182.49Z"/><path class="cls-1" d="M437.84,161.7c-.32,1.35-.69,2.65-1.12,3.9s-.87,2.47-1.35,3.66a1.63,1.63,0,0,1-.63.62,4.7,4.7,0,0,0-.65.61l-1.25,1.25-2.51,2.51-10,10-10,10-5,5a63.28,63.28,0,0,1-7.53,2.5,63.89,63.89,0,0,1,2.5-7.53l5-5,10-10,10-10,2.51-2.5,1.25-1.26a5.26,5.26,0,0,0,.61-.64,1.66,1.66,0,0,1,.62-.64q1.79-.72,3.66-1.35C435.19,162.4,436.49,162,437.84,161.7Z"/></g><path d="M377.17,347.69a76,76,0,0,1-75.86-75.86,4.22,4.22,0,0,1,4.21-4.22H448.81a4.21,4.21,0,0,1,4.21,4.22A75.94,75.94,0,0,1,377.17,347.69ZM309.87,276a67.43,67.43,0,0,0,134.59,0Z"/><path d="M354.16,275.12h-13A4.21,4.21,0,0,1,337,270.9V258a4.21,4.21,0,0,1,4.21-4.22h13a4.22,4.22,0,0,1,4.22,4.22V270.9A4.22,4.22,0,0,1,354.16,275.12Zm-8.73-8.43H350v-4.53h-4.52Z"/><path d="M415.8,275.12h-13a4.22,4.22,0,0,1-4.21-4.22V258a4.22,4.22,0,0,1,4.21-4.22h13A4.21,4.21,0,0,1,420,258V270.9A4.21,4.21,0,0,1,415.8,275.12Zm-8.74-8.43h4.52v-4.53h-4.52Z"/><path d="M386.76,275.12H370a6.65,6.65,0,0,1-6.64-6.64v-42.4a9.47,9.47,0,0,1,9.46-9.46h11.07a9.47,9.47,0,0,1,9.46,9.46v42.4A6.65,6.65,0,0,1,386.76,275.12Zm-14.93-8.43H385V226.08a1,1,0,0,0-1-1H372.86a1,1,0,0,0-1,1Z"/><rect class="cls-3" x="367.62" y="232.03" width="21.56" height="38.88"/><path d="M389.18,274.59H367.62a3.69,3.69,0,0,1-3.69-3.69V232a3.69,3.69,0,0,1,3.69-3.69h21.56a3.69,3.69,0,0,1,3.69,3.69V270.9A3.69,3.69,0,0,1,389.18,274.59Zm-17.87-7.38h14.18v-31.5H371.31Z"/><path class="cls-3" d="M381,332.79c-1,0-1.6,0-2.25,0-2.4-.08-4-1.5-4-3.62s1.48-3.54,3.87-3.79A102.18,102.18,0,0,0,389.68,324c14.37-3.19,25.45-11.17,33.39-23.53a18.06,18.06,0,0,1,1.06-1.62,3.75,3.75,0,0,1,5.12-1.13,3.6,3.6,0,0,1,1.07,5.11,74.2,74.2,0,0,1-6.35,8.92A59.8,59.8,0,0,1,381,332.79Z"/><path class="cls-3" d="M432.52,294.66c-3-.07-4.8-2.07-4.39-4.24a38.08,38.08,0,0,1,1.68-6,3.64,3.64,0,0,1,7,2,22.8,22.8,0,0,1-1.67,5.75C434.55,293.35,433.12,294.11,432.52,294.66Z"/><path d="M448.81,409.71H305.19a4.22,4.22,0,0,1-4.22-4.22V350.9a4.22,4.22,0,0,1,4.22-4.21H448.81A4.21,4.21,0,0,1,453,350.9v54.59A4.21,4.21,0,0,1,448.81,409.71ZM309.4,401.28H444.59V355.12H309.4Z"/><rect x="363.36" y="362.13" width="27.27" height="10.59" rx="5.3"/><path d="M449,355.21H305.19A4.22,4.22,0,0,1,301,351V271.83a4.22,4.22,0,0,1,4.22-4.22H449a4.22,4.22,0,0,1,4.22,4.22V351A4.22,4.22,0,0,1,449,355.21ZM309.4,346.78H444.82V276H309.4Z"/><path d="M448.81,464.3H305.19a4.22,4.22,0,0,1-4.22-4.22V405.49a4.21,4.21,0,0,1,4.22-4.21H448.81a4.2,4.2,0,0,1,4.21,4.21v54.59A4.21,4.21,0,0,1,448.81,464.3ZM309.4,455.87H444.59V409.71H309.4Z"/><rect x="363.36" y="416.72" width="27.27" height="10.59" rx="5.3"/><path class="cls-2" d="M150.55,232.6H69.43a3.94,3.94,0,0,1-3.94-3.94V57.73a4,4,0,0,1,3.94-3.94h81.12a3.94,3.94,0,0,1,3.94,3.94V228.66A3.93,3.93,0,0,1,150.55,232.6Zm-77.18-7.88h73.25v-163H73.37Z"/><polygon class="cls-1" points="69.43 228.66 69.43 232.43 69.43 236.19 69.43 241.77 231.68 241.77 231.68 236.19 231.68 232.43 231.68 228.66 69.43 228.66"/><path class="cls-2" d="M231.68,245.71H69.43a3.94,3.94,0,0,1-3.94-3.94V228.66a3.94,3.94,0,0,1,3.94-3.94H231.68a3.94,3.94,0,0,1,3.94,3.94v13.11A3.94,3.94,0,0,1,231.68,245.71ZM73.37,237.83H227.74V232.6H73.37Z"/><polygon class="cls-1" points="69.43 44.62 69.43 48.38 69.43 52.15 69.43 57.73 231.68 57.73 231.68 52.15 231.68 48.38 231.68 44.62 69.43 44.62"/><path class="cls-2" d="M231.68,61.67H69.43a3.94,3.94,0,0,1-3.94-3.94V44.62a3.94,3.94,0,0,1,3.94-3.94H231.68a3.94,3.94,0,0,1,3.94,3.94V57.73A3.94,3.94,0,0,1,231.68,61.67ZM73.37,53.79H227.74V48.56H73.37Z"/><polygon class="cls-3" points="92.84 76.64 92.84 114.88 92.84 153.12 92.84 209.75 127.14 209.75 127.14 153.12 127.14 114.88 127.14 76.64 92.84 76.64"/><path class="cls-2" d="M127.14,213.69H92.84a3.93,3.93,0,0,1-3.93-3.94V76.64a3.94,3.94,0,0,1,3.93-3.94h34.3a3.94,3.94,0,0,1,3.94,3.94V209.75A3.93,3.93,0,0,1,127.14,213.69Zm-30.36-7.88H123.2V80.58H96.78Z"/><path class="cls-2" d="M231.68,232.6H150.55a3.93,3.93,0,0,1-3.93-3.94V57.73a3.94,3.94,0,0,1,3.93-3.94h81.13a4,4,0,0,1,3.94,3.94V228.66A3.94,3.94,0,0,1,231.68,232.6Zm-77.19-7.88h73.25v-163H154.49Z"/><polygon class="cls-3" points="208.26 76.64 208.26 114.88 208.26 153.12 208.26 209.75 173.97 209.75 173.97 153.12 173.97 114.88 173.97 76.64 208.26 76.64"/><path class="cls-2" d="M208.26,213.69H174a3.93,3.93,0,0,1-3.94-3.94V76.64A3.94,3.94,0,0,1,174,72.7h34.29a3.94,3.94,0,0,1,3.94,3.94V209.75A3.93,3.93,0,0,1,208.26,213.69Zm-30.35-7.88h26.41V80.58H177.91Z"/><rect class="cls-2" x="136.05" y="114.24" width="6.13" height="54.31" rx="3.07"/><rect class="cls-2" x="159.19" y="114.24" width="6.13" height="54.31" rx="3.07"/><rect class="cls-3" x="190.23" y="300.09" width="69.57" height="159.24"/><path d="M259.8,464.3H190.23a5,5,0,0,1-5-5V300.09a5,5,0,0,1,5-5H259.8a5,5,0,0,1,5,5V459.33A5,5,0,0,1,259.8,464.3Zm-64.6-9.94h59.63V305.05H195.2Z"/><path d="M190,411.19H50.29a5,5,0,0,1-5-5V353.11a5,5,0,0,1,5-5H190a5,5,0,0,1,5,5v53.11A5,5,0,0,1,190,411.19ZM55.25,401.25h129.8V358.08H55.25Z"/><rect x="106.88" y="364.03" width="26.53" height="10.31" rx="4.03"/><path d="M190.23,358.16H50.29a5,5,0,0,1-5-5V300.09a5,5,0,0,1,5-5H190.23a5,5,0,0,1,5,5V353.2A5,5,0,0,1,190.23,358.16Zm-135-9.93h130V305.05h-130Z"/><rect x="190.23" y="348.23" width="69.57" height="9.93"/><rect x="106.88" y="311.01" width="26.53" height="10.31" rx="4.03"/><rect x="211.75" y="311.01" width="26.53" height="10.31" rx="4.03"/><rect x="211.75" y="364.03" width="26.53" height="10.31" rx="4.03"/><path d="M190,464.3H50.29a5,5,0,0,1-5-5V406.22a5,5,0,0,1,5-5H190a5,5,0,0,1,5,5v53.11A5,5,0,0,1,190,464.3ZM55.25,454.36h129.8V411.19H55.25Z"/><rect x="106.88" y="417.14" width="26.53" height="10.31" rx="4.03"/></svg>