<svg id="Слой_1" data-name="Слой 1" xmlns="http://www.w3.org/2000/svg" viewBox="0 0 500 500"><defs><style>.cls-1{fill:none;stroke-width:16px;}.cls-1,.cls-2{stroke:#000;stroke-linejoin:round;}.cls-2,.cls-3{fill:#8cc3e5;}.cls-2{stroke-width:14px;}</style></defs><path class="cls-1" d="M386,119.74a136,136,0,0,1-272,0Z"/><rect class="cls-1" x="181.79" y="93.4" width="24.59" height="24.59"/><rect class="cls-1" x="298.77" y="93.4" width="24.59" height="24.59"/><path class="cls-1" d="M241.87,23h21a10,10,0,0,1,10,10v80.48a4.6,4.6,0,0,1-4.6,4.6H236.51a4.6,4.6,0,0,1-4.6-4.6V32.91A10,10,0,0,1,241.87,23Z"/><rect class="cls-2" x="231.91" y="44.2" width="40.92" height="73.78"/><path class="cls-3" d="M257.24,235.44c-1.8,0-3,0-4.25,0-4.57-.15-7.53-2.84-7.58-6.87s2.81-6.72,7.33-7.2c7-.75,14.18-1,21-2.55,27.28-6.05,48.3-21.21,63.37-44.68.66-1,1.26-2.11,2-3.07,2.61-3.35,6.55-4.19,9.72-2.13a6.82,6.82,0,0,1,2,9.69c-3.75,5.82-7.52,11.74-12.06,16.94C317.14,220.4,289.62,233.56,257.24,235.44Z"/><path class="cls-3" d="M355.08,163.07c-5.65-.13-9.1-3.93-8.32-8A73.41,73.41,0,0,1,350,143.67a6.67,6.67,0,0,1,8.19-4.35,6.74,6.74,0,0,1,5.08,8.11c-.75,3.72-1.5,7.58-3.17,10.92C358.94,160.58,356.24,162,355.08,163.07Z"/><rect class="cls-1" x="113.42" y="269.83" width="272.59" height="103.61"/><rect x="223.83" y="291.13" width="51.76" height="20.11" rx="8.3"/><rect class="cls-1" x="113.42" y="119.74" width="273.01" height="150.25"/><rect class="cls-1" x="113.42" y="373.44" width="272.59" height="103.61"/><rect x="223.83" y="394.74" width="51.76" height="20.11" rx="8.3"/></svg>