<?xml version="1.0" encoding="utf-8"?>
<!-- Generator: Adobe Illustrator 21.1.0, SVG Export Plug-In . SVG Version: 6.00 Build 0)  -->
<svg version="1.1" xmlns="http://www.w3.org/2000/svg" xmlns:xlink="http://www.w3.org/1999/xlink" x="0px" y="0px"
	 viewBox="0 0 301.5 322.8" style="enable-background:new 0 0 301.5 322.8;" xml:space="preserve">
<style type="text/css">
	.st0{display:none;}
	.st1{display:inline;fill:#9AC6E5;}
	.st2{display:inline;fill:#333333;}
	.st3{fill:#9AC6E5;}
	.st4{fill:#333333;}
</style>
<g id="Слой_1" class="st0">
	<rect x="10" y="6" class="st1" width="305" height="15"/>
	<path class="st2" d="M309.3-2H15.7C7.1-2,0,5.1,0,13.7c0,8.7,7.1,15.7,15.7,15.7h293.5c8.7,0,15.7-7.1,15.7-15.7
		C325,5.1,317.9-2,309.3-2z M309.3,19H15.7c-2.9,0-5.2-2.4-5.2-5.2s2.3-5.2,5.2-5.2h293.5c2.9,0,5.2,2.4,5.2,5.2S312.2,19,309.3,19z
		"/>
	<path class="st2" d="M162.5,165.7c-37.6,0-68.1,30.6-68.1,68.1c0,37.6,30.6,68.1,68.1,68.1c37.6,0,68.1-30.6,68.1-68.1
		S200.1,165.7,162.5,165.7z M219.9,239.1c-1.1,12-5.8,22.9-13.1,31.6l-10.9-10.9l-7.4,7.4l10.9,10.9c-10,8.3-22.9,13.4-36.9,13.4
		s-26.9-5-36.9-13.4l10.9-10.9l-7.4-7.4l-10.9,10.9c-7.3-8.7-12-19.7-13.1-31.6h15.5v-10.5h-15.5c1.1-12,5.8-22.9,13.1-31.6
		l10.9,10.9l7.4-7.4l-10.9-10.9c8.7-7.3,19.7-12,31.6-13.1V192h10.5v-15.5c12,1.1,22.9,5.8,31.6,13.1l-10.9,10.9l7.4,7.4l10.9-10.9
		c7.3,8.7,12,19.7,13.1,31.6h-15.5v10.5H219.9z"/>
	<path class="st2" d="M174.2,211.3c-1.5-5.2-6.3-8.8-11.7-8.8s-10.2,3.6-11.7,8.8l-8.5,29.8c-0.5,1.7-0.7,3.5-0.7,5.2
		c0,10.5,8.5,19,19,19h3.9c10.5,0,19-8.5,19-19c0-1.8-0.2-3.5-0.7-5.2L174.2,211.3z M164.4,254.9h-3.9c-4.7,0-8.6-3.8-8.6-8.6
		c0-0.8,0.1-1.6,0.3-2.3l8.5-29.8c0.2-0.7,0.9-1.2,1.6-1.2c0.8,0,1.4,0.5,1.6,1.2l8.5,29.8c0.2,0.8,0.3,1.6,0.3,2.3
		C173,251,169.1,254.9,164.4,254.9z"/>
	<path class="st2" d="M291.5,234.5c-3.8-38.4-30-71.5-66.5-84.2l-0.8-0.3H100.8l-0.8,0.3C63.4,163,37.3,196,33.5,234.5l-7.2,71.8
		c-0.1,0.5-0.1,1-0.1,1.6c0,8.4,6.8,15.2,15.2,15.2h242.1c8.4,0,15.2-6.8,15.2-15.2c0-0.5,0-1-0.1-1.5L291.5,234.5z M283.6,312.5
		H41.4c-2.6,0-4.7-2.1-4.7-5.2l7.2-71.8c3.4-34.1,26.4-63.5,58.7-75h119.8c32.3,11.5,55.3,40.9,58.7,75l7.2,71.8v0.5
		C288.3,310.4,286.2,312.5,283.6,312.5z"/>
	<path class="st2" d="M304,45.2c0,37.6-30.6,68.1-68.1,68.1h-26.2h-10.5h-73.4h-10.5H89.1C51.5,113.3,21,82.8,21,45.2V40H10.5v5.2
		c0,43.4,35.3,78.6,78.6,78.6h26.2v15.7h10.5v-15.7h10.5v15.7h10.5v-15.7h31.5v15.7h10.5v-15.7h10.5v15.7h10.5v-15.7H236
		c43.4,0,78.6-35.3,78.6-78.6V40H304V45.2z"/>
	<path class="st2" d="M41.9,39.9H31.5v10.5H42L41.9,39.9L41.9,39.9z"/>
	<path class="st2" d="M146.8,39.9H52.4v10.5h94.4V39.9z"/>
</g>
<g id="Слой_2">
	<rect x="7.1" y="264.7" class="st3" width="284.2" height="18.6"/>
	<rect x="7.9" y="8" class="st3" width="285" height="16.1"/>
	<path class="st4" d="M296.1,32.2c3,0,5.4-2.4,5.4-5.4V5.3c0-3-2.4-5.4-5.4-5.4H5.4c-2.9,0-5.3,2.4-5.3,5.4v21.6
		c0,3,2.4,5.4,5.4,5.4h5.4v226.1H5.4c-3,0-5.4,2.4-5.4,5.4v21.6c0,3,2.4,5.4,5.4,5.4h16.1v26.9c0,3,2.4,5.4,5.4,5.4h16.1
		c2.3,0,4.4-1.5,5.1-3.7l9.5-28.7h186l9.5,28.6c0.7,2.2,2.8,3.7,5.1,3.7h16.1c3,0,5.4-2.4,5.4-5.4v-26.9h16.1c3,0,5.4-2.4,5.4-5.4
		v-21.6c0-3-2.4-5.4-5.4-5.4h-5.4v-226H296.1z M10.8,10.6h279.9v10.7h-5.4H16.2h-5.4L10.8,10.6L10.8,10.6z M39.2,312.1h-6.9v-21.6
		h14L39.2,312.1z M269.2,312.1h-6.9l-7.2-21.6h14V312.1z M290.7,279.8h-16.1h-26.9H53.9H27H10.8v-10.7h5.4h269.1h5.4V279.8
		L290.7,279.8z M279.9,258.3H21.6V32.2h258.4V258.3z"/>
	<path class="st4" d="M37.7,102.2h226.1c3,0,5.4-2.4,5.4-5.4V48.3c0-3-2.4-5.4-5.4-5.4H37.7c-3,0-5.4,2.4-5.4,5.4v48.4
		C32.4,99.8,34.8,102.2,37.7,102.2z M43.1,53.7h215.3v37.7H43.1V53.7z"/>
	<path class="st4" d="M37.7,177.5h226.1c3,0,5.4-2.4,5.4-5.4v-53.8c0-3-2.4-5.4-5.4-5.4H37.7c-3,0-5.4,2.4-5.4,5.4v53.8
		C32.4,175.1,34.8,177.5,37.7,177.5z M43.1,123.7h215.3v43H43.1V123.7z"/>
	<path class="st4" d="M37.7,247.5h226.1c3,0,5.4-2.4,5.4-5.4v-48.4c0-3-2.4-5.4-5.4-5.4H37.7c-3,0-5.4,2.4-5.4,5.4v48.4
		C32.4,245.1,34.8,247.5,37.7,247.5z M43.1,199.1h215.3v37.7H43.1V199.1z"/>
	<path class="st4" d="M172.3,64.5h-43c-3,0-5.4,2.4-5.4,5.4c0,3,2.4,5.4,5.4,5.4h16.1v5.4c0,3,2.4,5.4,5.4,5.4s5.4-2.4,5.4-5.4v-5.4
		h16.1c3,0,5.4-2.4,5.4-5.4C177.7,66.9,175.3,64.5,172.3,64.5z"/>
	<path class="st4" d="M172.3,134.5h-43c-3,0-5.4,2.4-5.4,5.4c0,3,2.4,5.4,5.4,5.4h16.1v5.4c0,3,2.4,5.4,5.4,5.4s5.4-2.4,5.4-5.4
		v-5.5h16.1c3,0,5.4-2.4,5.4-5.4C177.7,136.9,175.3,134.5,172.3,134.5z"/>
	<path class="st4" d="M172.3,209.8h-43c-3,0-5.4,2.4-5.4,5.4c0,3,2.4,5.4,5.4,5.4h16.1v5.4c0,3,2.4,5.4,5.4,5.4s5.4-2.4,5.4-5.4
		v-5.4h16.1c3,0,5.4-2.4,5.4-5.4C177.7,212.2,175.3,209.8,172.3,209.8z"/>
</g>
</svg>
