<?xml version="1.0" encoding="utf-8"?>
<!-- Generator: Adobe Illustrator 21.1.0, SVG Export Plug-In . SVG Version: 6.00 Build 0)  -->
<svg version="1.1" xmlns="http://www.w3.org/2000/svg" xmlns:xlink="http://www.w3.org/1999/xlink" x="0px" y="0px"
	 viewBox="0 0 301.5 250.5" style="enable-background:new 0 0 301.5 250.5;" xml:space="preserve">
<style type="text/css">
	.st0{display:none;}
	.st1{display:inline;fill:#9AC6E5;}
	.st2{display:inline;fill:#333333;}
	.st3{fill:#9AC6E5;}
	.st4{fill:#333333;}
</style>
<g id="Слой_1" class="st0">
	<rect x="10" y="-66.2" class="st1" width="305" height="15"/>
	<path class="st2" d="M309.3-74.2H15.7C7.1-74.2,0-67.1,0-58.5c0,8.7,7.1,15.7,15.7,15.7h293.5c8.7,0,15.7-7.1,15.7-15.7
		C325-67.1,317.9-74.2,309.3-74.2z M309.3-53.2H15.7c-2.9,0-5.2-2.4-5.2-5.2c0-2.8,2.3-5.2,5.2-5.2h293.5c2.9,0,5.2,2.4,5.2,5.2
		C314.4-55.6,312.2-53.2,309.3-53.2z"/>
	<path class="st2" d="M162.5,93.5c-37.6,0-68.1,30.6-68.1,68.1c0,37.6,30.6,68.1,68.1,68.1c37.6,0,68.1-30.6,68.1-68.1
		S200.1,93.5,162.5,93.5z M219.9,166.9c-1.1,12-5.8,22.9-13.1,31.6l-10.9-10.9l-7.4,7.4l10.9,10.9c-10,8.3-22.9,13.4-36.9,13.4
		s-26.9-5-36.9-13.4l10.9-10.9l-7.4-7.4l-10.9,10.9c-7.3-8.7-12-19.7-13.1-31.6h15.5v-10.5h-15.5c1.1-12,5.8-22.9,13.1-31.6
		l10.9,10.9l7.4-7.4l-10.9-10.9c8.7-7.3,19.7-12,31.6-13.1v15.5h10.5v-15.5c12,1.1,22.9,5.8,31.6,13.1l-10.9,10.9l7.4,7.4l10.9-10.9
		c7.3,8.7,12,19.7,13.1,31.6h-15.5v10.5H219.9z"/>
	<path class="st2" d="M174.2,139.1c-1.5-5.2-6.3-8.8-11.7-8.8s-10.2,3.6-11.7,8.8l-8.5,29.8c-0.5,1.7-0.7,3.5-0.7,5.2
		c0,10.5,8.5,19,19,19h3.9c10.5,0,19-8.5,19-19c0-1.8-0.2-3.5-0.7-5.2L174.2,139.1z M164.4,182.7h-3.9c-4.7,0-8.6-3.8-8.6-8.6
		c0-0.8,0.1-1.6,0.3-2.3l8.5-29.8c0.2-0.7,0.9-1.2,1.6-1.2c0.8,0,1.4,0.5,1.6,1.2l8.5,29.8c0.2,0.8,0.3,1.6,0.3,2.3
		C173,178.8,169.1,182.7,164.4,182.7z"/>
	<path class="st2" d="M291.5,162.3c-3.8-38.4-30-71.5-66.5-84.2l-0.8-0.3H100.8l-0.8,0.3c-36.6,12.7-62.7,45.7-66.5,84.2l-7.2,71.8
		c-0.1,0.5-0.1,1-0.1,1.6c0,8.4,6.8,15.2,15.2,15.2h242.1c8.4,0,15.2-6.8,15.2-15.2c0-0.5,0-1-0.1-1.5L291.5,162.3z M283.6,240.3
		H41.4c-2.6,0-4.7-2.1-4.7-5.2l7.2-71.8c3.4-34.1,26.4-63.5,58.7-75h119.8c32.3,11.5,55.3,40.9,58.7,75l7.2,71.8v0.5
		C288.3,238.2,286.2,240.3,283.6,240.3z"/>
	<path class="st2" d="M304-27c0,37.6-30.6,68.1-68.1,68.1h-26.2h-10.5h-73.4h-10.5H89.1C51.5,41.1,21,10.6,21-27v-5.2H10.5v5.2
		c0,43.4,35.3,78.6,78.6,78.6h26.2v15.7h10.5V51.6h10.5v15.7h10.5V51.6h31.5v15.7h10.5V51.6h10.5v15.7h10.5V51.6H236
		c43.4,0,78.6-35.3,78.6-78.6v-5.2H304V-27z"/>
	<path class="st2" d="M41.9-32.3H31.5v10.5H42L41.9-32.3L41.9-32.3z"/>
	<path class="st2" d="M146.8-32.3H52.4v10.5h94.4V-32.3z"/>
</g>
<g id="Слой_2" class="st0">
	<rect x="7.1" y="192.5" class="st1" width="284.2" height="18.6"/>
	<rect x="7.9" y="-64.2" class="st1" width="285" height="16.1"/>
	<path class="st2" d="M296.1-40c3,0,5.4-2.4,5.4-5.4v-21.5c0-3-2.4-5.4-5.4-5.4H5.4c-2.9,0-5.3,2.4-5.3,5.4v21.6
		c0,3,2.4,5.4,5.4,5.4h5.4v226.1H5.4c-3,0-5.4,2.4-5.4,5.4v21.6c0,3,2.4,5.4,5.4,5.4h16.1v26.9c0,3,2.4,5.4,5.4,5.4h16.1
		c2.3,0,4.4-1.5,5.1-3.7l9.5-28.7h186l9.5,28.6c0.7,2.2,2.8,3.7,5.1,3.7h16.1c3,0,5.4-2.4,5.4-5.4v-26.9h16.1c3,0,5.4-2.4,5.4-5.4
		v-21.6c0-3-2.4-5.4-5.4-5.4h-5.4V-40H296.1z M10.8-61.6h279.9v10.7h-5.4H16.2h-5.4L10.8-61.6L10.8-61.6z M39.2,239.9h-6.9v-21.6h14
		L39.2,239.9z M269.2,239.9h-6.9l-7.2-21.6h14V239.9z M290.7,207.6h-16.1h-26.9H53.9H27H10.8v-10.7h5.4h269.1h5.4V207.6L290.7,207.6
		z M279.9,186H21.6V-40h258.4V186z"/>
	<path class="st2" d="M37.7,30h226.1c3,0,5.4-2.4,5.4-5.4v-48.4c0-3-2.4-5.4-5.4-5.4H37.7c-3,0-5.4,2.4-5.4,5.4v48.4
		C32.4,27.6,34.8,30,37.7,30z M43.1-18.5h215.3v37.7H43.1V-18.5z"/>
	<path class="st2" d="M37.7,105.3h226.1c3,0,5.4-2.4,5.4-5.4V46c0-3-2.4-5.4-5.4-5.4H37.7c-3,0-5.4,2.4-5.4,5.4v53.8
		C32.4,102.9,34.8,105.3,37.7,105.3z M43.1,51.4h215.3v43H43.1V51.4z"/>
	<path class="st2" d="M37.7,175.3h226.1c3,0,5.4-2.4,5.4-5.4v-48.4c0-3-2.4-5.4-5.4-5.4H37.7c-3,0-5.4,2.4-5.4,5.4v48.4
		C32.4,172.9,34.8,175.3,37.7,175.3z M43.1,126.9h215.3v37.7H43.1V126.9z"/>
	<path class="st2" d="M172.3-7.7h-43c-3,0-5.4,2.4-5.4,5.4s2.4,5.4,5.4,5.4h16.1v5.4c0,3,2.4,5.4,5.4,5.4s5.4-2.4,5.4-5.4V3.1h16.1
		c3,0,5.4-2.4,5.4-5.4C177.7-5.3,175.3-7.7,172.3-7.7z"/>
	<path class="st2" d="M172.3,62.3h-43c-3,0-5.4,2.4-5.4,5.4c0,3,2.4,5.4,5.4,5.4h16.1v5.4c0,3,2.4,5.4,5.4,5.4s5.4-2.4,5.4-5.4V73
		h16.1c3,0,5.4-2.4,5.4-5.4C177.7,64.7,175.3,62.3,172.3,62.3z"/>
	<path class="st2" d="M172.3,137.6h-43c-3,0-5.4,2.4-5.4,5.4c0,3,2.4,5.4,5.4,5.4h16.1v5.4c0,3,2.4,5.4,5.4,5.4s5.4-2.4,5.4-5.4
		v-5.4h16.1c3,0,5.4-2.4,5.4-5.4C177.7,140,175.3,137.6,172.3,137.6z"/>
</g>
<g id="Слой_3">
	<rect x="94.2" y="40" class="st3" width="107.5" height="70"/>
	<path class="st4" d="M6.1,177.9c0.8,14.3,12.8,25.7,27.2,25.7h10.7l1.4,31.4c0.4,8.6,6.7,15,15.2,15.5s15.6-5.1,17-13.6l1.1-6.7
		h143.6l1.1,6.7c1.3,8.2,7.8,13.6,15.9,13.6c9.1,0,16-6.5,16.4-15.6l1.4-31.4H268c14.4,0,26.3-11.2,27.2-25.7l2.2-35.7
		c0.2-2.4-1.7-4.5-4.2-4.7c-2.4-0.2-4.5,1.7-4.7,4.2l-2,35.8c-0.6,9.7-8.7,17.3-18.4,17.3h-10.6c0-14.7,0-55.9,0-70.6
		c0-3.4-1.2-6.8-3.6-9.5l3.2-22.6c1.9-13.2,13.5-23.6,27.2-23.6c4.7,0,8.5,3.9,8.2,8.7l-2.7,43.8c-0.2,2.4,1.7,4.5,4.2,4.7
		c2.4,0.2,4.5-1.7,4.7-4.2l2.7-43.8c0.6-9.7-7.2-18.1-17-18.1c-9.2,0-18.5,3.6-25.5,10.4V24.7c0-13.7-11.1-24.7-24.7-24.7H161
		c-2.4,0-4.4,2-4.4,4.4s2,4.4,4.4,4.4h73.2c8.7,0,15.9,7.2,15.9,15.9v59.4c-0.7,2.1-1.3,4.4-1.7,6.7l-2.7,19.2
		c-0.8-0.2-1.7-0.2-2.5-0.2h-36.6c1.2-2.2,1.7-4.7,1.7-7.3V48.3c0-8.9-7.2-16.2-16.2-16.2h-88.5c-8.9,0-16.2,7.2-16.2,16.2v54.1
		c0,2.7,0.7,5.2,1.7,7.3H58.3c-0.7,0-1.7,0.1-2.5,0.2c-2.8-14.5-1.2-24.8-9.9-36.2V24.7C45.8,16,53,8.8,61.8,8.8h78.7
		c2.4,0,4.4-2,4.4-4.4s-2-4.4-4.4-4.4H61.8C48.1,0,37,11.1,37,24.7v40.9c-5.9-3.8-12.8-5.9-19.9-5.9C7.3,59.7-0.6,68,0,77.7
		L6.1,177.9z M69.1,235.4c-0.8,4.9-4.7,6.4-7.7,6.2c-3.1-0.2-6.7-2.2-7-7.1l-1.4-31h21.5C74.2,205.1,69.2,235.2,69.1,235.4z
		 M80.4,221.3c1-6.1,1.9-11.6,2.9-17.7h134.8c1,6.2,1.9,11.7,2.9,17.7H80.4z M247.2,234.6c-0.2,4.9-3.9,6.9-7,7.1
		c-3.1,0.2-7-1.3-7.7-6.2c-0.1-0.7-5.2-31.1-5.3-31.9h21.5L247.2,234.6z M96.3,48.2c0-4.1,3.3-7.3,7.3-7.3h88.6
		c4.1,0,7.3,3.3,7.3,7.3v54.1c0,4.1-3.3,7.3-7.3,7.3h-88.6c-4.1,0-7.3-3.3-7.3-7.3L96.3,48.2L96.3,48.2z M52.8,124
		c0-3.1,2.6-5.5,5.5-5.5h185c2.9,0,5.5,2.4,5.5,5.5v35.2h-196V124z M52.8,168.1h196.1v26.7c-10.2,0-188.4,0-196.1,0L52.8,168.1
		L52.8,168.1z M17,68.6c13.6,0,25.2,10.2,27.2,23.6l3.2,22.6c-2.4,2.7-3.6,6.1-3.6,9.5v70.6H33.4c-9.7,0-17.8-7.6-18.4-17.3
		L8.9,77.2C8.6,72.6,12.3,68.6,17,68.6z"/>
</g>
</svg>
