<?xml version="1.0" encoding="utf-8"?>
<!-- Generator: Adobe Illustrator 21.1.0, SVG Export Plug-In . SVG Version: 6.00 Build 0)  -->
<svg version="1.1" id="Слой_1" xmlns="http://www.w3.org/2000/svg" xmlns:xlink="http://www.w3.org/1999/xlink" x="0px" y="0px"
	 viewBox="0 0 321.3 324.7" style="enable-background:new 0 0 321.3 324.7;" xml:space="preserve">
<style type="text/css">
	.st0{display:none;}
	.st1{display:inline;fill:#9AC6E5;}
	.st2{display:inline;fill:#333333;}
	.st3{fill:#333333;}
	.st4{fill:#9AC6E5;}
</style>
<g id="Слой_1_1_" class="st0">
	<rect x="6.6" y="7.7" class="st1" width="305" height="15"/>
	<path class="st2" d="M305.9-0.3H12.3C3.7-0.3-3.4,6.8-3.4,15.4c0,8.7,7.1,15.7,15.7,15.7h293.5c8.7,0,15.7-7.1,15.7-15.7
		C321.6,6.8,314.5-0.3,305.9-0.3z M305.9,20.7H12.3c-2.9,0-5.2-2.4-5.2-5.2s2.3-5.2,5.2-5.2h293.5c2.9,0,5.2,2.4,5.2,5.2
		S308.8,20.7,305.9,20.7z"/>
	<path class="st2" d="M159.1,167.4c-37.6,0-68.1,30.6-68.1,68.1c0,37.6,30.6,68.1,68.1,68.1c37.6,0,68.1-30.6,68.1-68.1
		S196.7,167.4,159.1,167.4z M216.5,240.8c-1.1,12-5.8,22.9-13.1,31.6l-10.9-10.9l-7.4,7.4l10.9,10.9c-10,8.3-22.9,13.4-36.9,13.4
		s-26.9-5-36.9-13.4l10.9-10.9l-7.4-7.4l-10.9,10.9c-7.3-8.7-12-19.7-13.1-31.6h15.5v-10.5h-15.5c1.1-12,5.8-22.9,13.1-31.6
		l10.9,10.9l7.4-7.4l-10.9-10.9c8.7-7.3,19.7-12,31.6-13.1v15.5h10.5v-15.5c12,1.1,22.9,5.8,31.6,13.1L185,202.2l7.4,7.4l10.9-10.9
		c7.3,8.7,12,19.7,13.1,31.6h-15.5v10.5H216.5z"/>
	<path class="st2" d="M170.8,213c-1.5-5.2-6.3-8.8-11.7-8.8s-10.2,3.6-11.7,8.8l-8.5,29.8c-0.5,1.7-0.7,3.5-0.7,5.2
		c0,10.5,8.5,19,19,19h3.9c10.5,0,19-8.5,19-19c0-1.8-0.2-3.5-0.7-5.2L170.8,213z M161,256.6h-3.9c-4.7,0-8.6-3.8-8.6-8.6
		c0-0.8,0.1-1.6,0.3-2.3l8.5-29.8c0.2-0.7,0.9-1.2,1.6-1.2c0.8,0,1.4,0.5,1.6,1.2l8.5,29.8c0.2,0.8,0.3,1.6,0.3,2.3
		C169.6,252.7,165.7,256.6,161,256.6z"/>
	<path class="st2" d="M288.1,236.2c-3.8-38.4-30-71.5-66.5-84.2l-0.8-0.3H97.4l-0.8,0.3c-36.6,12.7-62.7,45.7-66.5,84.2L22.9,308
		c-0.1,0.5-0.1,1-0.1,1.6c0,8.4,6.8,15.2,15.2,15.2h242.1c8.4,0,15.2-6.8,15.2-15.2c0-0.5,0-1-0.1-1.5L288.1,236.2z M280.2,314.2H38
		c-2.6,0-4.7-2.1-4.7-5.2l7.2-71.8c3.4-34.1,26.4-63.5,58.7-75H219c32.3,11.5,55.3,40.9,58.7,75l7.2,71.8v0.5
		C284.9,312.1,282.8,314.2,280.2,314.2z"/>
	<path class="st2" d="M300.6,46.9c0,37.6-30.6,68.1-68.1,68.1h-26.2h-10.5h-73.4h-10.5H85.7c-37.6,0-68.1-30.5-68.1-68.1v-5.2H7.1
		v5.2c0,43.4,35.3,78.6,78.6,78.6h26.2v15.7h10.5v-15.7h10.5v15.7h10.5v-15.7h31.5v15.7h10.5v-15.7h10.5v15.7h10.5v-15.7h26.2
		c43.4,0,78.6-35.3,78.6-78.6v-5.2h-10.6L300.6,46.9L300.6,46.9z"/>
	<path class="st2" d="M38.5,41.6H28.1v10.5h10.5L38.5,41.6L38.5,41.6z"/>
	<path class="st2" d="M143.4,41.6H49v10.5h94.4V41.6z"/>
</g>
<g id="Слой_2">
	<path class="st3" d="M310.5,0h-10.7c-5.9,0-10.7,4.8-10.7,10.8H101.7c-5.8,0-11.1,3.2-14,8.4C74.6,3.1,51,0.8,35.1,14
		c-1.1,0.9-2.1,1.8-3,2.8v-6c0-6-4.8-10.8-10.7-10.8H10.7C4.7,0,0,4.8-0.1,10.8v313.8h10.7v-238h10.7v238.1H32v-75.8h166v75.8h10.7
		v-32.5H289v32.5h10.7V86.6h10.7v238.1h10.7V10.8C321.2,4.8,316.5,0,310.5,0z M128.5,21.6h160.7v27.1H128.5V21.6z M96.3,27.1
		c0-3,2.4-5.4,5.4-5.4h16.1v27.1H96.3V27.1z M58.9,16.2c14.8,0,26.8,12.1,26.8,27.1v5.4H32.1v-5.4C32.1,28.4,44.1,16.3,58.9,16.2z
		 M10.7,10.8h10.7v37.9H10.7V10.8z M289.1,281.4h-80.3v-32.5h80.3V281.4z M289.1,238.1h-257v-10.8h257V238.1z M64.2,184h139.2v10.8
		H64.2V184z M64.2,173.2v-64.9h139.2v64.9H64.2z M139.2,205.6v10.8h-10.7v-10.8H139.2z M267.7,216.4H257V184h10.7V216.4z M246.3,184
		v32.5h-10.7v-43.3h10.7V184z M278.4,216.4v-48.7h10.7v48.7H278.4z M289.1,156.9h-10.7c-5.9,0-10.7,4.8-10.7,10.8v5.4H257
		c0-6-4.8-10.8-10.7-10.8h-10.7c-5.9,0-10.7,4.8-10.7,10.8v43.3h-75v-10.8h53.6c5.9,0,10.7-4.8,10.7-10.8v-86.6
		c0-6-4.8-10.8-10.7-10.8H64.2c-5.9,0-10.7,4.8-10.7,10.8v86.6c0,6,4.8,10.8,10.7,10.8h53.6v10.8H32.1V86.6h257V156.9z M310.5,75.8
		H10.7V59.5h299.9v16.3H310.5z M299.8,48.7V10.8h10.7v37.9H299.8z"/>
	<path class="st4" d="M149.9,324.7v-10.8H166c5.9,0,10.7-4.8,10.7-10.8v-10.8c5.9,0,10.7-4.8,10.7-10.8v-10.8
		c0-6-4.8-10.8-10.7-10.8H91c-5.9,0-10.7,4.8-10.7,10.8v10.8c0,6,4.8,10.8,10.7,10.8V303c0,6,4.8,10.8,10.7,10.8h16.1v10.8h10.7
		v-10.8h10.7v10.8h10.7V324.7z M91,270.6h85.7v10.8H91V270.6z M101.7,303v-10.8H166V303H101.7z"/>
	<rect x="240.9" y="259.7" class="st4" width="21.4" height="10.8"/>
	<rect x="240.9" y="303" class="st4" width="21.4" height="10.8"/>
</g>
</svg>
