<?xml version="1.0" encoding="UTF-8"?>
<!DOCTYPE svg PUBLIC "-//W3C//DTD SVG 1.1//EN" "http://www.w3.org/Graphics/SVG/1.1/DTD/svg11.dtd">
<!-- Creator: CorelDRAW 2019 (64-Bit) -->
<svg xmlns="http://www.w3.org/2000/svg" xml:space="preserve" width="217.674mm" height="92.039mm" version="1.1" style="shape-rendering:geometricPrecision; text-rendering:geometricPrecision; image-rendering:optimizeQuality; fill-rule:evenodd; clip-rule:evenodd"
viewBox="0 0 4967.01 2100.2"
 xmlns:xlink="http://www.w3.org/1999/xlink">
 <defs>
  <style type="text/css">
   <![CDATA[
    .str9 {stroke:#9AC6E5;stroke-width:154.56;stroke-miterlimit:22.9256}
    .str5 {stroke:#333333;stroke-width:130.89;stroke-miterlimit:22.9256}
    .str1 {stroke:#333333;stroke-width:154.56;stroke-miterlimit:22.9256}
    .str8 {stroke:#333333;stroke-width:154.56;stroke-miterlimit:22.9256}
    .str0 {stroke:#333333;stroke-width:154.56;stroke-miterlimit:22.9256}
    .str7 {stroke:#333333;stroke-width:154.56;stroke-miterlimit:22.9256}
    .str6 {stroke:#333333;stroke-width:154.56;stroke-miterlimit:22.9256}
    .str2 {stroke:#333333;stroke-width:154.56;stroke-miterlimit:22.9256}
    .str4 {stroke:#333333;stroke-width:154.56;stroke-miterlimit:22.9256}
    .str3 {stroke:#333333;stroke-width:126;stroke-miterlimit:22.9256}
    .fil1 {fill:none}
    .fil0 {fill:#9AC6E5}
   ]]>
  </style>
 </defs>
 <g id="Слой_x0020_1">
  <metadata id="CorelCorpID_0Corel-Layer"/>
  <path class="fil0" d="M3579.04 703.28c429.26,-69.07 801.42,-278.99 949.1,-371.33 0,0 -143.27,-300.22 -453.46,-249.06 -310.19,51.16 -495.85,403.76 -548.52,628.79 17.73,-2.78 35.36,-5.59 52.87,-8.41z"/>
  <path class="fil1 str0" d="M1368.84 1969.62l2335.77 0m448.38 0l695.57 0c0,0 92.72,-882.59 0,-1253.54 -92.72,-370.95 -252.61,-428.51 -252.61,-428.51 0,0 -460.49,326.18 -1016.91,415.72 -556.42,89.54 -1221.57,166.28 -2078.58,-31.98 -857.01,-198.26 -1371.88,335.77 -1371.88,335.77 0,0 -95.93,76.75 -25.58,322.99 70.35,246.23 95.93,386.94 95.93,386.94 0,0 -214.25,252.62 -70.36,252.62l798.17 0"/>
  <path class="fil1 str1" d="M4528.14 331.96c0,0 -143.27,-300.22 -453.46,-249.06 -310.19,51.16 -495.85,403.76 -548.52,628.79"/>
  <circle class="fil1 str2" cx="3939.75" cy="1521.93" r="500.99"/>
  <circle class="fil1 str3" cx="3939.75" cy="1521.93" r="235.14"/>
  <circle class="fil1 str4" cx="1151.87" cy="1521.93" r="500.99"/>
  <circle class="fil1 str5" cx="1151.87" cy="1521.93" r="244.26"/>
  <line class="fil1 str6" x1="198.94" y1="1716.99" x2="687.45" y2= "1716.99" />
  <path class="fil1 str7" d="M1615.48 1716.98l1177.07 0m321.99 0l360.88 0"/>
  <line class="fil1 str8" x1="4400.27" y1="1716.98" x2="4870.56" y2= "1716.98" />
  <path class="fil1 str9" d="M226.62 1128.59c0,0 249.55,-310.88 770.78,-345.1 521.23,-34.21 487.02,114.19 1340.31,161.48"/>
 </g>
</svg>
