<?xml version="1.0" encoding="utf-8"?>
<!-- Generator: Adobe Illustrator 21.1.0, SVG Export Plug-In . SVG Version: 6.00 Build 0)  -->
<svg version="1.1" xmlns="http://www.w3.org/2000/svg" xmlns:xlink="http://www.w3.org/1999/xlink" x="0px" y="0px"
	 viewBox="0 0 325 282.4" style="enable-background:new 0 0 325 282.4;" xml:space="preserve">
<style type="text/css">
	.st0{display:none;}
	.st1{display:inline;fill:#9AC6E5;}
	.st2{display:inline;fill:#333333;}
	.st3{fill:#9AC6E5;}
	.st4{fill:#333333;stroke:#333333;stroke-width:2;}
</style>
<g id="Слой_1" class="st0">
	<rect x="10" y="-34.6" class="st1" width="305" height="15"/>
	<path class="st2" d="M309.3-42.6H15.7C7.1-42.6,0-35.5,0-26.9c0,8.7,7.1,15.7,15.7,15.7h293.5c8.7,0,15.7-7.1,15.7-15.7
		C325-35.5,317.9-42.6,309.3-42.6z M309.3-21.6H15.7c-2.9,0-5.2-2.4-5.2-5.2s2.3-5.2,5.2-5.2h293.5c2.9,0,5.2,2.4,5.2,5.2
		S312.2-21.6,309.3-21.6z"/>
	<path class="st2" d="M162.5,125.1c-37.6,0-68.1,30.6-68.1,68.1c0,37.6,30.6,68.1,68.1,68.1c37.6,0,68.1-30.6,68.1-68.1
		S200.1,125.1,162.5,125.1z M219.9,198.5c-1.1,12-5.8,22.9-13.1,31.6l-10.9-10.9l-7.4,7.4l10.9,10.9c-10,8.3-22.9,13.4-36.9,13.4
		s-26.9-5-36.9-13.4l10.9-10.9l-7.4-7.4l-10.9,10.9c-7.3-8.7-12-19.7-13.1-31.6h15.5V188h-15.5c1.1-12,5.8-22.9,13.1-31.6l10.9,10.9
		l7.4-7.4L125.6,149c8.7-7.3,19.7-12,31.6-13.1v15.5h10.5v-15.5c12,1.1,22.9,5.8,31.6,13.1l-10.9,10.9l7.4,7.4l10.9-10.9
		c7.3,8.7,12,19.7,13.1,31.6h-15.5v10.5H219.9z"/>
	<path class="st2" d="M174.2,170.7c-1.5-5.2-6.3-8.8-11.7-8.8s-10.2,3.6-11.7,8.8l-8.5,29.8c-0.5,1.7-0.7,3.5-0.7,5.2
		c0,10.5,8.5,19,19,19h3.9c10.5,0,19-8.5,19-19c0-1.8-0.2-3.5-0.7-5.2L174.2,170.7z M164.4,214.3h-3.9c-4.7,0-8.6-3.8-8.6-8.6
		c0-0.8,0.1-1.6,0.3-2.3l8.5-29.8c0.2-0.7,0.9-1.2,1.6-1.2c0.8,0,1.4,0.5,1.6,1.2l8.5,29.8c0.2,0.8,0.3,1.6,0.3,2.3
		C173,210.4,169.1,214.3,164.4,214.3z"/>
	<path class="st2" d="M291.5,193.9c-3.8-38.4-30-71.5-66.5-84.2l-0.8-0.3H100.8l-0.8,0.3c-36.6,12.7-62.7,45.7-66.5,84.2l-7.2,71.8
		c-0.1,0.5-0.1,1-0.1,1.6c0,8.4,6.8,15.2,15.2,15.2h242.1c8.4,0,15.2-6.8,15.2-15.2c0-0.5,0-1-0.1-1.5L291.5,193.9z M283.6,271.9
		H41.4c-2.6,0-4.7-2.1-4.7-5.2l7.2-71.8c3.4-34.1,26.4-63.5,58.7-75h119.8c32.3,11.5,55.3,40.9,58.7,75l7.2,71.8v0.5
		C288.3,269.8,286.2,271.9,283.6,271.9z"/>
	<path class="st2" d="M304,4.6c0,37.6-30.6,68.1-68.1,68.1h-26.2h-10.5h-73.4h-10.5H89.1C51.5,72.7,21,42.2,21,4.6v-5.2H10.5v5.2
		c0,43.4,35.3,78.6,78.6,78.6h26.2v15.7h10.5V83.2h10.5v15.7h10.5V83.2h31.5v15.7h10.5V83.2h10.5v15.7h10.5V83.2H236
		c43.4,0,78.6-35.3,78.6-78.6v-5.2H304V4.6z"/>
	<path class="st2" d="M41.9-0.7H31.5V9.8H42L41.9-0.7L41.9-0.7z"/>
	<path class="st2" d="M146.8-0.7H52.4V9.8h94.4V-0.7z"/>
</g>
<g id="Слой_2">
	<circle class="st3" cx="49" cy="20.8" r="13.4"/>
	<circle class="st3" cx="277.3" cy="20.8" r="13.4"/>
	<path class="st4" d="M319.5,163.1H314v-16.2c0-10.7-6.4-20.4-16.2-24.8V38.8c0-2.2-1.3-4.1-3.3-4.9c2.1-3.3,3.3-7.3,3.3-11.3
		c0-11.9-9.6-21.6-21.6-21.6s-21.6,9.7-21.6,21.6c0,3.8,1.1,7.5,3,10.8H67.9c1.9-3.3,3-7,3-10.8C70.9,10.7,61.2,1,49.2,1
		s-21.6,9.7-21.6,21.6c0,4,1.2,7.9,3.3,11.3c-2,0.8-3.3,2.8-3.3,4.9v83.4c-9.9,4.3-16.2,14-16.2,24.8v16.2H6c-3,0-5.4,2.4-5.4,5.4
		v75.7c0,3,2.4,5.4,5.4,5.4h5.4v27c0,3,2.4,5.4,5.4,5.4h21.6c3,0,5.4-2.4,5.4-5.4v-27h237.8v27c0,3,2.4,5.4,5.4,5.4h21.6
		c3,0,5.4-2.4,5.4-5.4v-27h5.4c3,0,5.4-2.4,5.4-5.4v-75.7C324.8,165.6,322.5,163.1,319.5,163.1z M276.2,11.8
		c5.9,0,10.8,4.9,10.8,10.8s-4.9,10.8-10.8,10.8c-5.9,0-10.8-4.9-10.8-10.8C265.4,16.7,270.3,11.8,276.2,11.8z M49.2,11.8
		c5.9,0,10.8,4.9,10.8,10.8s-4.9,10.8-10.8,10.8s-10.8-4.9-10.8-10.8C38.4,16.7,43.3,11.8,49.2,11.8z M38.4,44.3H287V120h-21.7
		c3.6-4.7,5.5-10.4,5.5-16.2V93c0-14.9-12.1-27-27-27h-43.2c-14.9,0-27,12.1-27,27v10.8c0,5.9,2,11.5,5.5,16.2h-32.7
		c3.6-4.7,5.5-10.4,5.5-16.2V93c0-14.9-12.1-27-27-27H81.7c-14.9,0-27,12.1-27,27v10.8c0,5.9,2,11.5,5.5,16.2H38.4V44.3z M260,92.9
		v10.8c0,8.9-7.3,16.2-16.2,16.2h-43.2c-8.9,0-16.2-7.3-16.2-16.2V92.9c0-8.9,7.3-16.2,16.2-16.2h43.2C252.7,76.7,260,83.9,260,92.9
		z M141.2,92.9v10.8c0,8.9-7.3,16.2-16.2,16.2H81.7c-8.9,0-16.2-7.3-16.2-16.2V92.9c0-8.9,7.3-16.2,16.2-16.2h43.2
		C133.9,76.7,141.2,83.9,141.2,92.9z M22.2,147c0-8.9,7.3-16.2,16.2-16.2H287c8.9,0,16.2,7.3,16.2,16.2v16.2h-281V147z M33,271.3
		H22.2v-21.6H33V271.3z M303.3,271.3h-10.8v-21.6h10.8V271.3z M314,238.8H11.4V174H314V238.8z"/>
	<path class="st4" d="M49.2,215.3H27.7c-3,0-5.4,2.4-5.4,5.4c0,3,2.4,5.4,5.4,5.4h21.6c3,0,5.4-2.4,5.4-5.4
		C54.7,217.7,52.2,215.3,49.2,215.3z"/>
	<path class="st4" d="M297.8,215.3H70.9c-3,0-5.4,2.4-5.4,5.4c0,3,2.4,5.4,5.4,5.4h227c3,0,5.4-2.4,5.4-5.4
		C303.3,217.7,300.8,215.3,297.8,215.3z"/>
</g>
</svg>
