<svg id="Слой_1" data-name="Слой 1" xmlns="http://www.w3.org/2000/svg" viewBox="0 0 500 500"><defs><style>.cls-1{fill:#8cc3e5;}.cls-1,.cls-2,.cls-3{stroke:#000;stroke-linejoin:round;}.cls-1,.cls-2{stroke-width:16px;}.cls-2,.cls-3{fill:#fff;}.cls-3{stroke-width:10px;}</style></defs><path class="cls-1" d="M219.17,199.34H473.52a0,0,0,0,1,0,0v108a0,0,0,0,1,0,0H179.17a0,0,0,0,1,0,0v-68A40,40,0,0,1,219.17,199.34Z"/><rect class="cls-2" x="179.17" y="355.65" width="294.35" height="81.16"/><rect class="cls-1" x="179.17" y="334.18" width="294.35" height="21.47"/><rect class="cls-2" x="25.2" y="355.65" width="87.61" height="81.16"/><rect class="cls-1" x="25.2" y="334.18" width="87.61" height="21.47"/><rect class="cls-2" x="406.45" y="355.65" width="67.07" height="81.16"/><path class="cls-1" d="M446.45,199.34a40,40,0,0,0-40,40V355.65h67.07V199.34Z"/><line class="cls-3" x1="190.45" y1="307.34" x2="190.45" y2="334.18"/><line class="cls-3" x1="284.8" y1="307.34" x2="284.8" y2="334.18"/><line class="cls-3" x1="379.16" y1="307.34" x2="379.16" y2="334.18"/><circle cx="222.11" cy="251.6" r="6.36"/><circle cx="273.77" cy="251.6" r="6.36"/><circle cx="325.44" cy="251.6" r="6.36"/><circle cx="377.1" cy="251.6" r="6.36"/><rect class="cls-2" x="119.36" y="284.22" width="208.7" height="32.1"/><rect class="cls-2" x="164.2" y="383.46" width="119.03" height="18.31"/><rect class="cls-2" x="143.95" y="316.32" width="33.61" height="120.49"/><rect class="cls-2" x="269.86" y="316.32" width="33.61" height="120.49"/></svg>