<?xml version="1.0" encoding="utf-8"?>
<!-- Generator: Adobe Illustrator 21.1.0, SVG Export Plug-In . SVG Version: 6.00 Build 0)  -->
<svg version="1.1" id="Слой_1" xmlns="http://www.w3.org/2000/svg" xmlns:xlink="http://www.w3.org/1999/xlink" x="0px" y="0px"
	 viewBox="0 0 321.1 321.3" style="enable-background:new 0 0 321.1 321.3;" xml:space="preserve">
<style type="text/css">
	.st0{display:none;}
	.st1{display:inline;fill:#9AC6E5;}
	.st2{display:inline;fill:#333333;}
	.st3{fill:#333333;}
	.st4{fill:#9AC6E5;}
</style>
<g id="Слой_1_1_" class="st0">
	<rect x="7" y="4.3" class="st1" width="305" height="15"/>
	<path class="st2" d="M306.3-3.7H12.7C4.1-3.7-3,3.4-3,12c0,8.7,7.1,15.7,15.7,15.7h293.5c8.7,0,15.7-7.1,15.7-15.7
		C322,3.4,314.9-3.7,306.3-3.7z M306.3,17.3H12.7c-2.9,0-5.2-2.4-5.2-5.2s2.3-5.2,5.2-5.2h293.5c2.9,0,5.2,2.4,5.2,5.2
		S309.2,17.3,306.3,17.3z"/>
	<path class="st2" d="M159.5,164c-37.6,0-68.1,30.6-68.1,68.1c0,37.6,30.6,68.1,68.1,68.1c37.6,0,68.1-30.6,68.1-68.1
		S197.1,164,159.5,164z M216.9,237.4c-1.1,12-5.8,22.9-13.1,31.6l-10.9-10.9l-7.4,7.4l10.9,10.9c-10,8.3-22.9,13.4-36.9,13.4
		s-26.9-5-36.9-13.4l10.9-10.9l-7.4-7.4L115.2,269c-7.3-8.7-12-19.7-13.1-31.6h15.5v-10.5h-15.5c1.1-12,5.8-22.9,13.1-31.6
		l10.9,10.9l7.4-7.4l-10.9-10.9c8.7-7.3,19.7-12,31.6-13.1v15.5h10.5v-15.5c12,1.1,22.9,5.8,31.6,13.1l-10.9,10.9l7.4,7.4l10.9-10.9
		c7.3,8.7,12,19.7,13.1,31.6h-15.5v10.5H216.9z"/>
	<path class="st2" d="M171.2,209.6c-1.5-5.2-6.3-8.8-11.7-8.8s-10.2,3.6-11.7,8.8l-8.5,29.8c-0.5,1.7-0.7,3.5-0.7,5.2
		c0,10.5,8.5,19,19,19h3.9c10.5,0,19-8.5,19-19c0-1.8-0.2-3.5-0.7-5.2L171.2,209.6z M161.4,253.2h-3.9c-4.7,0-8.6-3.8-8.6-8.6
		c0-0.8,0.1-1.6,0.3-2.3l8.5-29.8c0.2-0.7,0.9-1.2,1.6-1.2c0.8,0,1.4,0.5,1.6,1.2l8.5,29.8c0.2,0.8,0.3,1.6,0.3,2.3
		C170,249.3,166.1,253.2,161.4,253.2z"/>
	<path class="st2" d="M288.5,232.8c-3.8-38.4-30-71.5-66.5-84.2l-0.8-0.3H97.8l-0.8,0.3c-36.6,12.7-62.7,45.7-66.5,84.2l-7.2,71.8
		c-0.1,0.5-0.1,1-0.1,1.6c0,8.4,6.8,15.2,15.2,15.2h242.1c8.4,0,15.2-6.8,15.2-15.2c0-0.5,0-1-0.1-1.5L288.5,232.8z M280.6,310.8
		H38.4c-2.6,0-4.7-2.1-4.7-5.2l7.2-71.8c3.4-34.1,26.4-63.5,58.7-75h119.8c32.3,11.5,55.3,40.9,58.7,75l7.2,71.8v0.5
		C285.3,308.7,283.2,310.8,280.6,310.8z"/>
	<path class="st2" d="M301,43.5c0,37.6-30.6,68.1-68.1,68.1h-26.2h-10.5h-73.4h-10.5H86.1C48.5,111.6,18,81.1,18,43.5v-5.2H7.5v5.2
		c0,43.4,35.3,78.6,78.6,78.6h26.2v15.7h10.5v-15.7h10.5v15.7h10.5v-15.7h31.5v15.7h10.5v-15.7h10.5v15.7h10.5v-15.7H233
		c43.4,0,78.6-35.3,78.6-78.6v-5.2H301V43.5z"/>
	<path class="st2" d="M38.9,38.2H28.5v10.5H39L38.9,38.2L38.9,38.2z"/>
	<path class="st2" d="M143.8,38.2H49.4v10.5h94.4V38.2z"/>
</g>
<g id="Слой_2">
	<g id="Capa_1">
		<g id="SVGCleanerId_0">
			<g>
				<path d="M230.1,192.9H91c-2.9,0-5.3,2.4-5.3,5.3V316c0,2.9,2.4,5.3,5.3,5.3h139.2c2.9,0,5.3-2.4,5.3-5.3V198.2
					C235.5,195.3,233.1,192.9,230.1,192.9z M224.8,310.7H96.3V203.6h128.5V310.7L224.8,310.7z"/>
			</g>
		</g>
		<g>
			<g>
				<path class="st3" d="M230.1,192.9H91c-2.9,0-5.3,2.4-5.3,5.3V316c0,2.9,2.4,5.3,5.3,5.3h139.2c2.9,0,5.3-2.4,5.3-5.3V198.2
					C235.5,195.3,233.1,192.9,230.1,192.9z M224.8,310.7H96.3V203.6h128.5V310.7L224.8,310.7z"/>
			</g>
		</g>
		<g>
			<g>
				<path class="st3" d="M91,192.9H5.2c-2.9,0-5.3,2.4-5.3,5.3V316c0,2.9,2.4,5.3,5.3,5.3h85.7c2.9,0,5.3-2.4,5.3-5.3V198.2
					C96.3,195.3,93.9,192.9,91,192.9z M85.6,310.7h-75V203.6h75V310.7L85.6,310.7z"/>
			</g>
		</g>
		<g>
			<g>
				<path class="st3" d="M315.8,192.9h-85.7c-2.9,0-5.3,2.4-5.3,5.3V316c0,2.9,2.4,5.3,5.3,5.3h85.7c2.9,0,5.3-2.4,5.3-5.3V198.2
					C321.2,195.3,318.8,192.9,315.8,192.9z M310.4,310.7h-74.9V203.6h75L310.4,310.7L310.4,310.7z"/>
			</g>
		</g>
		<g>
			<g>
				<path class="st3" d="M208.7,235.7h-96.4c-2.9,0-5.3,2.4-5.3,5.3v53.5c0,2.9,2.4,5.3,5.3,5.3h96.4c2.9,0,5.3-2.4,5.3-5.3V241
					C214.1,238.1,211.7,235.7,208.7,235.7z M203.4,289.3h-85.7v-42.9h85.7V289.3L203.4,289.3z"/>
			</g>
		</g>
		<g>
			<g>
				<rect x="165.9" y="214.3" class="st3" width="10.7" height="10.7"/>
			</g>
		</g>
		<g>
			<g>
				<rect x="144.5" y="214.3" class="st3" width="10.7" height="10.7"/>
			</g>
		</g>
		<g>
			<g>
				<rect x="123.1" y="214.3" class="st3" width="10.7" height="10.7"/>
			</g>
		</g>
		<g>
			<g>
				<rect x="187.3" y="214.3" class="st3" width="10.7" height="10.7"/>
			</g>
		</g>
		<g>
			<g>
				<rect x="5.2" y="235.7" class="st3" width="85.7" height="10.7"/>
			</g>
		</g>
		<g>
			<g>
				<rect x="37.4" y="214.3" width="21.4" height="10.7"/>
			</g>
		</g>
		<g>
			<g>
				<rect x="37.4" y="257.1" width="21.4" height="10.7"/>
			</g>
		</g>
		<g>
			<g>
				<rect x="230.1" y="235.7" class="st3" width="85.7" height="10.7"/>
			</g>
		</g>
		<g>
			<g>
				<rect x="267.7" y="241.1" class="st3" width="10.7" height="75"/>
			</g>
		</g>
		<g>
			<g>
				<rect x="262.3" y="214.3" width="21.4" height="10.7"/>
			</g>
		</g>
		<g>
			<g>
				<rect x="246.2" y="267.9" width="10.7" height="16.1"/>
			</g>
		</g>
		<g>
			<g>
				<rect x="289.1" y="267.9" width="10.7" height="16.1"/>
			</g>
		</g>
		<g>
			<g>
				<path class="st3" d="M228.6,87.3l-19.8-19.8V5.4c0-2.9-2.4-5.3-5.3-5.3h-85.7c-2.9,0-5.3,2.4-5.3,5.3v62.1l-20,19.8
					c-1.5,1.5-2,3.8-1.2,5.8s2.8,3.3,5,3.3h128.5c2.1,0,4.1-1.3,5-3.3C230.6,91.2,230.1,88.9,228.6,87.3z M109.2,85.8l12.3-12.3
					c1-1,1.6-2.4,1.6-3.8V10.8h75v58.9c0,1.4,0.6,2.8,1.6,3.8L212,85.8L109.2,85.8L109.2,85.8z"/>
			</g>
		</g>
		<g>
			<g>
				<path class="st3" d="M289.1,117.9c-11.8,0-21.4,9.6-21.4,21.4v5.3h10.7v-5.3c0-5.9,4.8-10.7,10.7-10.7s10.7,4.8,10.7,10.7v58.9
					h10.7v-58.9C310.4,127.5,300.8,117.9,289.1,117.9z"/>
			</g>
		</g>
		<g>
			<g>
				<rect x="289.1" y="171.5" class="st3" width="16.1" height="10.7"/>
			</g>
		</g>
		<g>
			<g>
				<path class="st3" d="M155.2,160.8h-53.5c-2.9,0-5.3,2.4-5.3,5.3v32.1c0,2.9,2.4,5.3,5.3,5.3h53.5c2.9,0,5.3-2.4,5.3-5.3v-32.1
					C160.5,163.1,158.2,160.8,155.2,160.8z M149.8,192.9H107v-21.4h42.9L149.8,192.9L149.8,192.9z"/>
			</g>
		</g>
		<g>
			<g>
				<rect x="85.6" y="171.5" class="st3" width="16.1" height="10.7"/>
			</g>
		</g>
		<g>
			<g>
				<rect x="155.2" y="171.5" class="st3" width="16.1" height="10.7"/>
			</g>
		</g>
		<g>
			<g>
				<path class="st3" d="M91,0.1H5.2c-2.9,0-5.3,2.4-5.3,5.3v64.3c0,2.9,2.4,5.3,5.3,5.3h85.7c2.9,0,5.3-2.4,5.3-5.3V5.4
					C96.3,2.5,93.9,0.1,91,0.1z M85.6,64.4h-75V10.8h75V64.4L85.6,64.4z"/>
			</g>
		</g>
		<g>
			<g>
				<rect x="64.2" y="32.2" width="10.7" height="21.4"/>
			</g>
		</g>
		<g>
			<g>
				<path class="st3" d="M315.8,0.1h-85.7c-2.9,0-5.3,2.4-5.3,5.3v64.3c0,2.9,2.4,5.3,5.3,5.3h85.7c2.9,0,5.3-2.4,5.3-5.3V5.4
					C321.2,2.5,318.8,0.1,315.8,0.1z M310.4,64.4h-74.9V10.8h75L310.4,64.4L310.4,64.4z"/>
			</g>
		</g>
		<g>
			<g>
				<rect x="246.2" y="32.2" width="10.7" height="21.4"/>
			</g>
		</g>
		<g>
			<g>
				<rect x="-0.1" y="107.2" class="st3" width="96.4" height="10.7"/>
			</g>
		</g>
		<g>
			<g>
				<rect x="10.6" y="96.5" class="st3" width="10.7" height="48.2"/>
			</g>
		</g>
		<g>
			<g>
				<path class="st3" d="M16,139.4c-8.8,0-16.1,7.2-16.1,16.1s7.2,16.1,16.1,16.1s16-7.3,16-16.2S24.8,139.4,16,139.4z M16,160.8
					c-2.9,0-5.3-2.4-5.3-5.3s2.4-5.3,5.3-5.3s5.3,2.4,5.3,5.3S18.9,160.8,16,160.8z"/>
			</g>
		</g>
		<g>
			<g>
				<rect x="32" y="96.5" class="st3" width="10.7" height="48.2"/>
			</g>
		</g>
		<g>
			<g>
				<path class="st3" d="M37.4,139.4c-8.8,0-16.1,7.2-16.1,16.1s7.2,16.1,16.1,16.1s16.1-7.2,16.1-16.1S46.2,139.4,37.4,139.4z
					 M37.4,160.8c-2.9,0-5.3-2.4-5.3-5.3s2.4-5.3,5.3-5.3s5.3,2.4,5.3,5.3C42.8,158.4,40.3,160.8,37.4,160.8z"/>
			</g>
		</g>
		<g>
			<g>
				<rect x="53.4" y="96.5" class="st3" width="10.7" height="48.2"/>
			</g>
		</g>
		<g>
			<g>
				<path class="st3" d="M58.8,139.4c-8.8,0-16.1,7.2-16.1,16.1s7.2,16.1,16.1,16.1s16.1-7.2,16.1-16.1S67.7,139.4,58.8,139.4z
					 M58.8,160.8c-2.9,0-5.3-2.4-5.3-5.3s2.4-5.3,5.3-5.3c2.9,0,5.3,2.4,5.3,5.3S61.8,160.8,58.8,160.8z"/>
			</g>
		</g>
	</g>
	<rect x="37.4" y="214.3" class="st4" width="21.4" height="10.7"/>
	<rect x="37.4" y="257.1" class="st4" width="21.4" height="10.7"/>
	<rect x="262.3" y="214.3" class="st4" width="21.4" height="10.7"/>
	<rect x="246.1" y="265.2" class="st4" width="10.7" height="21.4"/>
	<rect x="289" y="265.2" class="st4" width="10.7" height="21.4"/>
	<rect x="64.2" y="32.2" class="st4" width="10.7" height="21.4"/>
	<rect x="246.2" y="32.2" class="st4" width="10.7" height="21.4"/>
</g>
</svg>
