<?xml version="1.0" encoding="utf-8"?>
<!-- Generator: Adobe Illustrator 21.1.0, SVG Export Plug-In . SVG Version: 6.00 Build 0)  -->
<svg version="1.1" xmlns="http://www.w3.org/2000/svg" xmlns:xlink="http://www.w3.org/1999/xlink" x="0px" y="0px"
	 viewBox="0 0 325 298" style="enable-background:new 0 0 325 298;" xml:space="preserve">
<style type="text/css">
	.st0{display:none;}
	.st1{display:inline;fill:#9AC6E5;}
	.st2{display:inline;fill:#333333;}
	.st3{fill:#9AC6E5;}
	.st4{fill:#333333;}
</style>
<g id="Слой_1" class="st0">
	<rect x="10" y="8" class="st1" width="305" height="15"/>
	<path class="st2" d="M309.3,0H15.7C7.1,0,0,7.1,0,15.7c0,8.7,7.1,15.7,15.7,15.7h293.5c8.7,0,15.7-7.1,15.7-15.7
		C325,7.1,317.9,0,309.3,0z M309.3,21H15.7c-2.9,0-5.2-2.4-5.2-5.2s2.3-5.2,5.2-5.2h293.5c2.9,0,5.2,2.4,5.2,5.2S312.2,21,309.3,21z
		"/>
	<path class="st2" d="M162.5,167.7c-37.6,0-68.1,30.6-68.1,68.1c0,37.6,30.6,68.1,68.1,68.1c37.6,0,68.1-30.6,68.1-68.1
		S200.1,167.7,162.5,167.7z M219.9,241.1c-1.1,12-5.8,22.9-13.1,31.6l-10.9-10.9l-7.4,7.4l10.9,10.9c-10,8.3-22.9,13.4-36.9,13.4
		s-26.9-5-36.9-13.4l10.9-10.9l-7.4-7.4l-10.9,10.9c-7.3-8.7-12-19.7-13.1-31.6h15.5v-10.5h-15.5c1.1-12,5.8-22.9,13.1-31.6
		l10.9,10.9l7.4-7.4l-10.9-10.9c8.7-7.3,19.7-12,31.6-13.1V194h10.5v-15.5c12,1.1,22.9,5.8,31.6,13.1l-10.9,10.9l7.4,7.4l10.9-10.9
		c7.3,8.7,12,19.7,13.1,31.6h-15.5v10.5H219.9z"/>
	<path class="st2" d="M174.2,213.3c-1.5-5.2-6.3-8.8-11.7-8.8s-10.2,3.6-11.7,8.8l-8.5,29.8c-0.5,1.7-0.7,3.5-0.7,5.2
		c0,10.5,8.5,19,19,19h3.9c10.5,0,19-8.5,19-19c0-1.8-0.2-3.5-0.7-5.2L174.2,213.3z M164.4,256.9h-3.9c-4.7,0-8.6-3.8-8.6-8.6
		c0-0.8,0.1-1.6,0.3-2.3l8.5-29.8c0.2-0.7,0.9-1.2,1.6-1.2c0.8,0,1.4,0.5,1.6,1.2l8.5,29.8c0.2,0.8,0.3,1.6,0.3,2.3
		C173,253,169.1,256.9,164.4,256.9z"/>
	<path class="st2" d="M291.5,236.5c-3.8-38.4-30-71.5-66.5-84.2l-0.8-0.3H100.8l-0.8,0.3C63.4,165,37.3,198,33.5,236.5l-7.2,71.8
		c-0.1,0.5-0.1,1-0.1,1.6c0,8.4,6.8,15.2,15.2,15.2h242.1c8.4,0,15.2-6.8,15.2-15.2c0-0.5,0-1-0.1-1.5L291.5,236.5z M283.6,314.5
		H41.4c-2.6,0-4.7-2.1-4.7-5.2l7.2-71.8c3.4-34.1,26.4-63.5,58.7-75h119.8c32.3,11.5,55.3,40.9,58.7,75l7.2,71.8v0.5
		C288.3,312.4,286.2,314.5,283.6,314.5z"/>
	<path class="st2" d="M304,47.2c0,37.6-30.6,68.1-68.1,68.1h-26.2h-10.5h-73.4h-10.5H89.1C51.5,115.3,21,84.8,21,47.2V42H10.5v5.2
		c0,43.4,35.3,78.6,78.6,78.6h26.2v15.7h10.5v-15.7h10.5v15.7h10.5v-15.7h31.5v15.7h10.5v-15.7h10.5v15.7h10.5v-15.7H236
		c43.4,0,78.6-35.3,78.6-78.6V42H304V47.2z"/>
	<path class="st2" d="M41.9,41.9H31.5v10.5H42L41.9,41.9L41.9,41.9z"/>
	<path class="st2" d="M146.8,41.9H52.4v10.5h94.4V41.9z"/>
</g>
<g id="Слой_2">
	<rect x="8.1" y="159.1" class="st3" width="307.4" height="16.3"/>
	<path class="st4" d="M319.6,151.7h-38.1c3.6-4.7,5.6-10.4,5.6-16.3c0-1.4-0.5-2.8-1.6-3.9s-2.4-1.6-3.9-1.6h-0.1
		c3.6-4.7,5.6-10.4,5.6-16.3c0-1.4-0.5-2.8-1.6-3.9s-2.4-1.6-3.9-1.6h-0.1c3.6-4.7,5.6-10.4,5.6-16.3c0-1.4-0.5-2.8-1.6-3.9
		s-2.4-1.6-3.9-1.6h-12.7c7.9-6.3,13.5-15,16.3-24.6c2.8-9.7,2.4-20-0.9-29.5c-3.4-9.5-9.5-17.7-17.8-23.6c-8.3-5.9-18.1-9-28.2-9
		c-10.1,0-19.9,3.1-28.2,8.9c-8.3,5.8-14.5,14.1-17.8,23.6c-3.4,9.5-3.7,19.8-0.9,29.5c2.8,9.7,8.5,18.3,16.3,24.6H195
		c-1.4,0-2.8,0.5-3.9,1.6s-1.6,2.4-1.6,3.9c0,5.9,2,11.6,5.6,16.3H195c-1.4,0-2.8,0.5-3.9,1.6s-1.6,2.4-1.6,3.9
		c0,5.9,2,11.6,5.6,16.3H195c-1.4,0-2.8,0.5-3.9,1.6s-1.6,2.4-1.6,3.9c0,5.9,2,11.6,5.6,16.3h-92.2V81.3h21.7v10.8
		c0,1.4,0.5,2.8,1.6,3.9s2.4,1.6,3.9,1.6h16.3c1.4,0,2.8-0.5,3.9-1.6s1.6-2.4,1.6-3.9V54.2c0-1.4-0.5-2.8-1.6-3.9s-2.4-1.6-3.9-1.6
		H75.8c-1.4,0-2.8,0.5-3.9,1.6s-1.6,2.4-1.6,3.9V130H48.8c-1.4,0-2.8,0.5-3.9,1.6s-1.6,2.4-1.6,3.9v16.3H5.4c-1.4,0-2.8,0.5-3.9,1.6
		c-1,1.1-1.6,2.5-1.6,3.9v21.7c0,1.4,0.5,2.8,1.6,3.9s2.4,1.6,3.9,1.6h5.4v108.3c0,1.4,0.5,2.8,1.6,3.9s2.4,1.6,3.9,1.6h292.5
		c1.4,0,2.8-0.5,3.9-1.6s1.6-2.4,1.6-3.9V184.2h5.4c1.4,0,2.8-0.5,3.9-1.6s1.6-2.4,1.6-3.9v-21.7c0-1.4-0.5-2.8-1.6-3.9
		C322.4,152.3,321,151.7,319.6,151.7z M200.4,48.8c0-7.5,2.2-14.8,6.4-21.1c4.2-6.2,10.1-11.1,17-13.9c6.9-2.8,14.6-3.6,21.9-2.2
		c7.4,1.5,14.1,5.1,19.4,10.4c5.3,5.3,8.9,12.1,10.4,19.4c1.5,7.4,0.7,15-2.2,21.9c-2.8,6.9-7.7,12.9-13.9,17
		c-6.2,4.2-13.5,6.4-21.1,6.4c-10,0-19.7-4-26.8-11.1C204.4,68.5,200.4,58.8,200.4,48.8z M201.4,97.6h74c-1.2,3.2-3.2,5.9-6,7.9
		c-2.8,2-6,3-9.4,3h-43.3c-3.4,0-6.6-1-9.4-3C204.5,103.5,202.4,100.8,201.4,97.6z M201.4,119.2h74c-1.2,3.2-3.2,5.9-6,7.9
		s-6,3-9.4,3h-43.3c-3.4,0-6.6-1-9.4-3C204.5,125.1,202.4,122.4,201.4,119.2z M201.4,140.9h74c-1.2,3.2-3.2,5.9-6,7.9
		c-2.8,2-6,3-9.4,3h-43.3c-3.4,0-6.6-1-9.4-3C204.5,146.8,202.4,144.1,201.4,140.9z M140.8,86.7h-5.4v-5.4h5.4V86.7z M81.3,59.7
		h59.6v10.8H97.5c-1.4,0-2.8,0.5-3.9,1.6s-1.6,2.4-1.6,3.9v75.8H81.3V59.7z M54.2,140.9h16.2v10.8H54.2V140.9z M21.7,184.2h135.4
		v102.9H21.7V184.2z M303.3,287.2H167.9V184.2h135.4V287.2z M314.2,173.4H10.8v-10.8h303.3V173.4z"/>
	<path class="st4" d="M135.4,216.7h10.8v21.7h-10.8V216.7z"/>
	<path class="st4" d="M178.8,216.7h10.8v21.7h-10.8V216.7z"/>
	<path class="st4" d="M238.3,27.2c-4.3,0-8.5,1.3-12.1,3.7c-3.6,2.4-6.4,5.8-8,9.8c-1.6,4-2.1,8.3-1.2,12.5c0.8,4.2,2.9,8.1,6,11.1
		c3,3,6.9,5.1,11.1,6c4.2,0.8,8.5,0.4,12.5-1.2c3.9-1.6,7.3-4.4,9.8-8c2.4-3.6,3.7-7.7,3.7-12.1c0-5.8-2.3-11.2-6.4-15.3
		C249.6,29.4,244.1,27.2,238.3,27.2z M238.3,59.7c-2.2,0-4.3-0.6-6-1.8c-1.8-1.2-3.2-2.9-4-4.9c-0.8-2-1-4.1-0.6-6.2s1.4-4.1,3-5.6
		c1.5-1.5,3.5-2.6,5.6-3s4.3-0.2,6.2,0.6s3.7,2.2,4.9,4c1.2,1.8,1.8,3.9,1.8,6c0,2.8-1.2,5.6-3.2,7.7
		C244,58.5,241.2,59.7,238.3,59.7z"/>
</g>
</svg>
