<?xml version="1.0" encoding="utf-8"?>
<!-- Generator: Adobe Illustrator 21.1.0, SVG Export Plug-In . SVG Version: 6.00 Build 0)  -->
<svg version="1.1" id="Слой_1" xmlns="http://www.w3.org/2000/svg" xmlns:xlink="http://www.w3.org/1999/xlink" x="0px" y="0px"
	 viewBox="0 0 512 312" style="enable-background:new 0 0 512 312;" xml:space="preserve">
<style type="text/css">
	.st0{fill:#9AC6E5;}
	.st1{fill:#333333;}
</style>
<rect x="60" y="139" class="st0" width="190" height="51"/>
<rect x="260" y="135" class="st0" width="190" height="55"/>
<path class="st1" d="M508,77.2c-2.9-3.2-7.1-5.1-11.5-5.1h-10.7c-2,0-4,0.3-5.9,0.8V31.5c0-17.4-14.2-31.5-31.6-31.5H280
	c-9.6,0-18.3,4.3-24,11.2C250.2,4.3,241.6,0,232,0H63.6C46.2,0,32.1,14.2,32.1,31.5v41.4c-1.9-0.5-3.9-0.8-5.9-0.8H15.5
	C11.2,72.1,7,74,4,77.2c-2.9,3.2-4.4,7.6-4,11.9l13.8,145.1c1.2,12.1,11.2,21.3,23.4,21.3h1.6L32.1,303c-0.3,2.2,0.3,4.3,1.8,6
	c1.4,1.6,3.5,2.6,5.7,2.6h16c3,0,5.7-1.8,6.9-4.5l22.1-51.6h11.1c4.1,0,7.5-3.4,7.5-7.5c0-4.1-3.4-7.5-7.5-7.5H37.3
	c-4.4,0-8.1-3.3-8.5-7.7L15,87.7c0-0.1,0-0.2,0.1-0.4c0.2-0.2,0.3-0.2,0.4-0.2h10.7c4.1,0,7.7,2.9,8.4,7l13.5,74.3v7.3
	c0,13,10.6,23.5,23.5,23.5H240c6.2,0,11.8-2.4,16-6.3c4.2,3.9,9.8,6.3,16,6.3h168.3c13,0,23.5-10.6,23.5-23.5v-7.3l13.5-74.3
	c0.7-4.1,4.3-7,8.4-7h10.7c0.1,0,0.2,0,0.4,0.2c0.2,0.2,0.1,0.3,0.1,0.4l-13.8,145.1c-0.4,4.4-4.1,7.7-8.5,7.7H127.7
	c-4.1,0-7.5,3.4-7.5,7.5c0,4.1,3.4,7.5,7.5,7.5h299.7l22.1,51.6c1.2,2.8,3.9,4.5,6.9,4.5h16c2.2,0,4.2-0.9,5.7-2.6
	c1.4-1.6,2.1-3.8,1.8-6l-6.8-47.6h1.6c12.2,0,22.3-9.2,23.4-21.3l13.8-145.1C512.3,84.8,510.9,80.4,508,77.2z M50.7,296.6h-2.4
	l5.9-41.1h14.2L50.7,296.6z M63.6,15H232c9.1,0,16.5,7.4,16.5,16.5v88.2c0,4.7-3.8,8.5-8.5,8.5H71.6c-5.5,0-10.6,1.9-14.7,5.1
	l-7.6-41.9c-0.4-2.4-1.2-4.6-2.3-6.6V31.5C47.1,22.4,54.5,15,63.6,15z M240,184.4H71.6c-4.7,0-8.5-3.8-8.5-8.5v-24
	c0-4.7,3.8-8.5,8.5-8.5H240c4.7,0,8.5,3.8,8.5,8.5v24C248.5,180.5,244.7,184.4,240,184.4z M448.9,175.8c0,4.7-3.8,8.5-8.5,8.5H272
	c-4.7,0-8.5-3.8-8.5-8.5v-24.1c0-4.7,3.8-8.5,8.5-8.5h128.3c4.1,0,7.5-3.4,7.5-7.5c0-4.1-3.4-7.5-7.5-7.5H272
	c-4.7,0-8.5-3.8-8.5-8.5V31.6c0-9.1,7.4-16.6,16.5-16.6h168.3c9.1,0,16.5,7.4,16.5,16.6v53.3c-1.1,2-1.8,4.3-2.3,6.6l-7.6,41.9
	c-4-3.2-9.1-5.2-14.7-5.2h-8c-4.1,0-7.5,3.4-7.5,7.5c0,4.1,3.4,7.5,7.5,7.5h8c4.7,0,8.5,3.8,8.5,8.5L448.9,175.8L448.9,175.8z
	 M463.8,296.6h-2.4l-17.6-41.1h14.2L463.8,296.6z"/>
<path class="st1" d="M111.8,71.1c4.1,0,7.5-3.4,7.5-7.5s-3.4-7.5-7.5-7.5h-0.1c-4.1,0-7.5,3.4-7.5,7.5S107.6,71.1,111.8,71.1z"/>
<path class="st1" d="M400.3,56.1L400.3,56.1c-4.2,0-7.5,3.4-7.5,7.5s3.4,7.5,7.5,7.5c4.1,0,7.5-3.4,7.5-7.5S404.4,56.1,400.3,56.1z"
	/>
<path class="st1" d="M183.9,71.1c4.1,0,7.5-3.4,7.5-7.5s-3.4-7.5-7.5-7.5h-0.1c-4.1,0-7.5,3.4-7.5,7.5S179.8,71.1,183.9,71.1z"/>
<path class="st1" d="M328.2,56.1L328.2,56.1c-4.2,0-7.5,3.4-7.5,7.5s3.4,7.5,7.5,7.5c4.1,0,7.5-3.4,7.5-7.5S332.4,56.1,328.2,56.1z"
	/>
</svg>
