<?xml version="1.0" encoding="utf-8"?>
<!-- Generator: Adobe Illustrator 21.1.0, SVG Export Plug-In . SVG Version: 6.00 Build 0)  -->
<svg version="1.1" xmlns="http://www.w3.org/2000/svg" xmlns:xlink="http://www.w3.org/1999/xlink" x="0px" y="0px"
	 viewBox="0 0 325 297.8" style="enable-background:new 0 0 325 297.8;" xml:space="preserve">
<style type="text/css">
	.st0{display:none;}
	.st1{display:inline;fill:#9AC6E5;}
	.st2{display:inline;fill:#333333;}
	.st3{fill:#9AC6E5;}
	.st4{fill:#333333;}
</style>
<g id="Слой_1" class="st0">
	<rect x="10" y="-19" class="st1" width="305" height="15"/>
	<path class="st2" d="M309.3-27H15.7C7.1-27,0-19.9,0-11.3C0-2.6,7.1,4.4,15.7,4.4h293.5c8.7,0,15.7-7.1,15.7-15.7
		C325-19.9,317.9-27,309.3-27z M309.3-6H15.7c-2.9,0-5.2-2.4-5.2-5.2s2.3-5.2,5.2-5.2h293.5c2.9,0,5.2,2.4,5.2,5.2S312.2-6,309.3-6z
		"/>
	<path class="st2" d="M162.5,140.7c-37.6,0-68.1,30.6-68.1,68.1c0,37.6,30.6,68.1,68.1,68.1c37.6,0,68.1-30.6,68.1-68.1
		S200.1,140.7,162.5,140.7z M219.9,214.1c-1.1,12-5.8,22.9-13.1,31.6l-10.9-10.9l-7.4,7.4l10.9,10.9c-10,8.3-22.9,13.4-36.9,13.4
		s-26.9-5-36.9-13.4l10.9-10.9l-7.4-7.4l-10.9,10.9c-7.3-8.7-12-19.7-13.1-31.6h15.5v-10.5h-15.5c1.1-12,5.8-22.9,13.1-31.6
		l10.9,10.9l7.4-7.4l-10.9-10.9c8.7-7.3,19.7-12,31.6-13.1V167h10.5v-15.5c12,1.1,22.9,5.8,31.6,13.1l-10.9,10.9l7.4,7.4l10.9-10.9
		c7.3,8.7,12,19.7,13.1,31.6h-15.5v10.5H219.9z"/>
	<path class="st2" d="M174.2,186.3c-1.5-5.2-6.3-8.8-11.7-8.8s-10.2,3.6-11.7,8.8l-8.5,29.8c-0.5,1.7-0.7,3.5-0.7,5.2
		c0,10.5,8.5,19,19,19h3.9c10.5,0,19-8.5,19-19c0-1.8-0.2-3.5-0.7-5.2L174.2,186.3z M164.4,229.9h-3.9c-4.7,0-8.6-3.8-8.6-8.6
		c0-0.8,0.1-1.6,0.3-2.3l8.5-29.8c0.2-0.7,0.9-1.2,1.6-1.2c0.8,0,1.4,0.5,1.6,1.2l8.5,29.8c0.2,0.8,0.3,1.6,0.3,2.3
		C173,226,169.1,229.9,164.4,229.9z"/>
	<path class="st2" d="M291.5,209.5c-3.8-38.4-30-71.5-66.5-84.2l-0.8-0.3H100.8l-0.8,0.3C63.4,138,37.3,171,33.5,209.5l-7.2,71.8
		c-0.1,0.5-0.1,1-0.1,1.6c0,8.4,6.8,15.2,15.2,15.2h242.1c8.4,0,15.2-6.8,15.2-15.2c0-0.5,0-1-0.1-1.5L291.5,209.5z M283.6,287.5
		H41.4c-2.6,0-4.7-2.1-4.7-5.2l7.2-71.8c3.4-34.1,26.4-63.5,58.7-75h119.8c32.3,11.5,55.3,40.9,58.7,75l7.2,71.8v0.5
		C288.3,285.4,286.2,287.5,283.6,287.5z"/>
	<path class="st2" d="M304,20.2c0,37.6-30.6,68.1-68.1,68.1h-26.2h-10.5h-73.4h-10.5H89.1C51.5,88.3,21,57.8,21,20.2V15H10.5v5.2
		c0,43.4,35.3,78.6,78.6,78.6h26.2v15.7h10.5V98.8h10.5v15.7h10.5V98.8h31.5v15.7h10.5V98.8h10.5v15.7h10.5V98.8H236
		c43.4,0,78.6-35.3,78.6-78.6V15H304V20.2z"/>
	<path class="st2" d="M41.9,14.9H31.5v10.5H42L41.9,14.9L41.9,14.9z"/>
	<path class="st2" d="M146.8,14.9H52.4v10.5h94.4V14.9z"/>
</g>
<g id="Слой_2">
	<rect x="7.4" y="120.5" class="st3" width="110.4" height="28.4"/>
	<rect x="207.2" y="120.5" class="st3" width="110.4" height="28.4"/>
	<path class="st4" d="M319.6,113.8H167.9c9,0,16.3-7.2,16.3-16.3c0-0.2,0-0.5-0.1-0.7l-5.4-43.3c-0.3-2.7-2.6-4.7-5.3-4.7h-5.4V29.9
		l13.7-9.1c2.5-1.6,3.2-5,1.5-7.5c-1.6-2.5-5-3.2-7.5-1.5l-7.7,5.1V5.4c0-3-2.4-5.4-5.4-5.4s-5.4,2.4-5.4,5.4v14l-9.1-3
		c-2.8-0.9-5.9,0.6-6.8,3.5c-0.9,2.8,0.6,5.9,3.5,6.8l12.5,4.1v17.9h-5.4c-2.7,0-5,2-5.3,4.7l-5.4,43.3c0,0.2-0.1,0.5-0.1,0.7
		c0,9,7.2,16.3,16.3,16.3H5.4c-3,0-5.4,2.4-5.4,5.4v32.5c0,3,2.4,5.4,5.4,5.4h20.8L5.5,291.7c-0.5,3,1.6,5.8,4.5,6.2
		c0.3,0.1,0.5,0.1,0.8,0.1h16.3c2.6,0,4.9-2,5.3-4.6l2.6-17.1h254.9l2.6,17.1c0.4,2.6,2.7,4.6,5.3,4.6h16.3c3,0,5.4-2.4,5.4-5.4
		c0-0.3,0-0.5-0.1-0.8l-20.7-134.6h20.8c3,0,5.4-2.4,5.4-5.4v-32.5C325,116.2,322.6,113.8,319.6,113.8z M151.7,97.8l4.8-38.2h12.1
		l4.8,38.2c-0.1,2.9-2.5,5.1-5.4,5.1h-10.8C154.2,102.9,151.8,100.7,151.7,97.8z M124.6,124.6h75.8v54.2h-75.8V124.6z M124.6,189.6
		h75.8v5.4h-75.8V189.6z M124.6,205.8h75.8v5.4h-75.8V205.8z M119.2,222.1h86.7c3,0,5.4-2.4,5.4-5.4v-59.6h60.3l14.2,92.1H39.2
		l14.2-92.1h60.4v59.6C113.8,219.6,116.2,222.1,119.2,222.1z M10.8,146.3v-21.7h102.9v21.7H10.8z M22.5,287.1h-5.3l20-130h5.3
		L22.5,287.1z M36.8,265.4l0.8-5.4h249.8l0.8,5.4H36.8z M307.9,287.1h-5.3l-20-130h5.3L307.9,287.1z M314.2,146.3H211.3v-21.7h102.9
		V146.3z"/>
</g>
</svg>
