<?xml version="1.0" encoding="utf-8"?>
<!-- Generator: Adobe Illustrator 21.1.0, SVG Export Plug-In . SVG Version: 6.00 Build 0)  -->
<svg version="1.1" id="Слой_1" xmlns="http://www.w3.org/2000/svg" xmlns:xlink="http://www.w3.org/1999/xlink" x="0px" y="0px"
	 viewBox="0 0 316.7 177.3" style="enable-background:new 0 0 316.7 177.3;" xml:space="preserve">
<style type="text/css">
	.st0{display:none;}
	.st1{display:inline;fill:#9AC6E5;}
	.st2{display:inline;fill:#333333;}
	.st3{display:inline;}
	.st4{fill:#9AC6E5;}
	.st5{display:inline;fill:#FFFFFF;stroke:#000000;stroke-width:5;stroke-miterlimit:10;}
	.st6{display:inline;fill:none;stroke:#000000;stroke-width:5;stroke-miterlimit:10;}
	.st7{display:inline;fill:#FFFFFF;}
	.st8{fill:#68B9DD;}
	.st9{fill:none;stroke:#353333;stroke-width:5;stroke-miterlimit:10;}
	.st10{fill:none;stroke:#9AC6E5;stroke-width:5;stroke-miterlimit:10;}
	.st11{fill:#333333;}
	.st12{fill:#FFFFFF;stroke:#000000;stroke-width:10;stroke-miterlimit:10;}
	.st13{stroke:#000000;stroke-width:10;stroke-miterlimit:10;}
	.st14{fill:#8BBAF2;stroke:#000000;stroke-width:10;stroke-miterlimit:10;}
	.st15{display:inline;fill:none;stroke:#000000;stroke-width:10;stroke-miterlimit:10;}
	.st16{fill:none;stroke:#9AC6E5;stroke-width:10;stroke-miterlimit:10;}
	.st17{fill:none;stroke:#000000;stroke-width:15;stroke-miterlimit:10;}
	.st18{fill:#9AC6E5;stroke:#333333;stroke-width:15;stroke-miterlimit:10;}
	.st19{fill:none;stroke:#333333;stroke-width:15;stroke-miterlimit:10;}
</style>
<g id="Слой_1_1_" class="st0">
	<rect x="1" y="-139.7" class="st1" width="305" height="15"/>
	<path class="st2" d="M300.3-147.7H6.7C-1.9-147.7-9-140.6-9-132c0,8.7,7.1,15.7,15.7,15.7h293.5c8.7,0,15.7-7.1,15.7-15.7
		C316-140.6,308.9-147.7,300.3-147.7z M300.3-126.7H6.7c-2.9,0-5.2-2.4-5.2-5.2s2.3-5.2,5.2-5.2h293.5c2.9,0,5.2,2.4,5.2,5.2
		S303.2-126.7,300.3-126.7z"/>
	<path class="st2" d="M153.5,20c-37.6,0-68.1,30.6-68.1,68.1c0,37.6,30.6,68.1,68.1,68.1c37.6,0,68.1-30.6,68.1-68.1
		S191.1,20,153.5,20z M210.9,93.4c-1.1,12-5.8,22.9-13.1,31.6l-10.9-10.9l-7.4,7.4l10.9,10.9c-10,8.3-22.9,13.4-36.9,13.4
		s-26.9-5-36.9-13.4l10.9-10.9l-7.4-7.4L109.2,125c-7.3-8.7-12-19.7-13.1-31.6h15.5V82.9H96.1c1.1-12,5.8-22.9,13.1-31.6l10.9,10.9
		l7.4-7.4l-10.9-10.9c8.7-7.3,19.7-12,31.6-13.1v15.5h10.5V30.8c12,1.1,22.9,5.8,31.6,13.1l-10.9,10.9l7.4,7.4l10.9-10.9
		c7.3,8.7,12,19.7,13.1,31.6h-15.5v10.5H210.9z"/>
	<path class="st2" d="M165.2,65.6c-1.5-5.2-6.3-8.8-11.7-8.8s-10.2,3.6-11.7,8.8l-8.5,29.8c-0.5,1.7-0.7,3.5-0.7,5.2
		c0,10.5,8.5,19,19,19h3.9c10.5,0,19-8.5,19-19c0-1.8-0.2-3.5-0.7-5.2L165.2,65.6z M155.4,109.2h-3.9c-4.7,0-8.6-3.8-8.6-8.6
		c0-0.8,0.1-1.6,0.3-2.3l8.5-29.8c0.2-0.7,0.9-1.2,1.6-1.2c0.8,0,1.4,0.5,1.6,1.2l8.5,29.8c0.2,0.8,0.3,1.6,0.3,2.3
		C164,105.3,160.1,109.2,155.4,109.2z"/>
	<path class="st2" d="M282.5,88.8c-3.8-38.4-30-71.5-66.5-84.2l-0.8-0.3H91.8L91,4.6C54.4,17.3,28.3,50.3,24.5,88.8l-7.2,71.8
		c-0.1,0.5-0.1,1-0.1,1.6c0,8.4,6.8,15.2,15.2,15.2h242.1c8.4,0,15.2-6.8,15.2-15.2c0-0.5,0-1-0.1-1.5L282.5,88.8z M274.6,166.8
		H32.4c-2.6,0-4.7-2.1-4.7-5.2l7.2-71.8c3.4-34.1,26.4-63.5,58.7-75h119.8c32.3,11.5,55.3,40.9,58.7,75l7.2,71.8v0.5
		C279.3,164.7,277.2,166.8,274.6,166.8z"/>
	<path class="st2" d="M295-100.5c0,37.6-30.6,68.1-68.1,68.1h-26.2h-10.5h-73.4h-10.5H80.1C42.5-32.4,12-62.9,12-100.5v-5.2H1.5v5.2
		c0,43.4,35.3,78.6,78.6,78.6h26.2v15.7h10.5v-15.7h10.5v15.7h10.5v-15.7h31.5v15.7h10.5v-15.7h10.5v15.7h10.5v-15.7H227
		c43.4,0,78.6-35.3,78.6-78.6v-5.2H295V-100.5z"/>
	<path class="st2" d="M32.9-105.8H22.5v10.5H33L32.9-105.8L32.9-105.8z"/>
	<path class="st2" d="M137.8-105.8H43.4v10.5h94.4V-105.8z"/>
</g>
<g id="Слой_2" class="st0">
	<rect x="26.2" y="44.6" class="st1" width="253.3" height="34.2"/>
	<path class="st2" d="M308.4-60.6c-6.6-11.6-27.9-19.3-53.1-19.3c-12.3,0-24.3,1.9-34,5.5c-9.6-3.5-21.5-5.5-34-5.5
		s-24.3,1.9-34,5.5c-9.6-3.5-21.5-5.5-34-5.5c-12.4,0-24.3,1.9-34,5.5C76-78,64.1-79.9,51.7-79.9c-25.2,0-46.5,7.7-53.1,19.3
		c-1.4,2.4-2.2,5.1-2.2,7.7v84.6c0,8.7,7.4,15.8,16.5,15.8h7.3v23.8c0,8.7,7.4,15.8,16.5,15.8h13.9v10.8c0,4,3.4,7.3,7.6,7.3h29.7
		c4.1,0,7.6-3.2,7.6-7.3V87h115.8v10.8c0,4,3.4,7.3,7.6,7.3h29.7c4.1,0,7.6-3.2,7.6-7.3V87h13.9c9.1,0,16.5-7.1,16.5-15.8V47.5h7.3
		c9.1,0,16.5-7.1,16.5-15.8v-84.6C310.6-55.5,309.9-58.3,308.4-60.6z M86.4,96.1H59.8V87h26.5L86.4,96.1L86.4,96.1z M247.2,96.1
		h-26.5V87h26.5V96.1z M277.6,71.2c0,3.8-3.2,6.8-7.3,6.8H36.8c-4.1,0-7.3-3.1-7.3-6.8V47.5h248.1V71.2z M301.4,31.8
		c0,3.8-3.2,6.8-7.3,6.8H12.9c-4.1,0-7.3-3.1-7.3-6.8v-63.2h78.8c2.5,0,4.6-2,4.6-4.5s-2.1-4.5-4.6-4.5H5.6v-12.5
		c0-1.1,0.3-2.3,0.9-3.3c0,0,0-0.1,0.1-0.1C10.7-63.4,27.8-71,51.7-71c12,0,23.4,1.9,32.2,5.5c1.2,0.4,2.4,0.4,3.5,0
		c8.7-3.5,20.2-5.5,32.2-5.5s23.4,1.9,32.2,5.5c1.2,0.4,2.4,0.4,3.5,0C164-69,175.5-71,187.5-71s23.4,1.9,32.2,5.5
		c1.2,0.4,2.4,0.4,3.5,0c8.7-3.5,20.2-5.5,32.2-5.5c23.9,0,41,7.5,45.1,14.7c0,0,0,0.1,0.1,0.1c0.6,1.1,0.9,2.1,0.9,3.3v12.5H102.7
		c-2.5,0-4.6,2-4.6,4.5s2.1,4.5,4.6,4.5h198.7V31.8z"/>
	<path class="st2" d="M74.2-5.2C72.4-7,69.5-7,67.7-5.3l-3.2,3l-3.2-3C59.6-7.1,56.7-7,55-5.2c-1.8,1.8-1.7,4.6,0.1,6.3l3,2.8
		l-3,2.8c-1.8,1.8-1.9,4.6-0.1,6.3c0.9,0.9,2.1,1.3,3.3,1.3s2.3-0.4,3.2-1.2l3.2-3l3.2,3c0.9,0.9,2.1,1.2,3.2,1.2
		c1.2,0,2.4-0.4,3.3-1.3c1.8-1.8,1.7-4.6-0.1-6.3l-3-2.8l3-2.8C76-0.6,76-3.5,74.2-5.2z"/>
	<path class="st2" d="M232.8,13.1c0.9,0.9,2.1,1.3,3.3,1.3s2.3-0.4,3.2-1.2l3.2-3l3.2,3c0.9,0.9,2.1,1.2,3.2,1.2
		c1.2,0,2.4-0.4,3.3-1.3c1.8-1.8,1.7-4.6-0.1-6.3l-3-2.8l3-2.8c1.8-1.8,1.9-4.6,0.1-6.3s-4.7-1.8-6.5-0.1l-3.2,3l-3.2-3
		c-1.8-1.8-4.8-1.7-6.5,0.1c-1.8,1.8-1.7,4.6,0.1,6.3l3,2.8l-3,2.8C231.1,8.5,231,11.3,232.8,13.1z"/>
	<path class="st2" d="M143.8,13.1c0.9,0.9,2.1,1.3,3.3,1.3s2.3-0.4,3.2-1.2l3.2-3l3.2,3c0.9,0.9,2.1,1.2,3.2,1.2s2.4-0.4,3.3-1.3
		c1.8-1.8,1.7-4.6-0.1-6.3l-3-2.8l3-2.8c1.8-1.8,1.9-4.6,0.1-6.3s-4.7-1.8-6.5-0.1l-3.2,3l-3.2-3c-1.8-1.8-4.8-1.7-6.5,0.1
		c-1.8,1.8-1.7,4.6,0.1,6.3l3,2.8l-3,2.8C142.1,8.5,142.1,11.3,143.8,13.1z"/>
</g>
<g id="Слой_3" class="st0">
	<g class="st3">
		<g>
			<path d="M217,114.7L208.7,96c-4-9-6-18.6-6-28.4c0-2.9-2.4-5.3-5.3-5.3h-95.8c-2.9,0-5.3,2.4-5.3,5.3v3.5
				c0,10.8-2.6,21.7-7.5,31.3l-5.3,10.7c-5.6,11.2-8.5,23.6-8.5,36.1v19.4c0,2.9,2.4,5.3,5.3,5.3h138.3c2.9,0,5.3-2.4,5.3-5.3v-21.2
				C223.9,136,221.5,125,217,114.7z M213.2,163.3H85.6l0,0v-14.1c0-10.8,2.6-21.6,7.4-31.3l5.3-10.6c5.4-10.6,8.3-22.4,8.6-34.3
				h85.3c0.6,9.5,2.9,18.6,6.8,27.4l8.3,18.7c4,9,6,18.6,6,28.4L213.2,163.3L213.2,163.3z"/>
		</g>
	</g>
	<g class="st3">
		<g>
			<path d="M222.6-95.4c-1-1.1-2.5-1.8-4-1.8H64.4c-1.9,0-3.7,1.1-4.7,2.8s-0.8,3.8,0.2,5.5l20.6,30.8L96.3,68.3
				c0.3,2.7,2.6,4.7,5.3,4.7h95.7c2.7,0,4.9-2,5.3-4.6l21.2-159.5C224-92.8,223.6-94.3,222.6-95.4z M192.6,62.3h-86.3l-15.4-123
				c-0.1-0.8-0.4-1.6-0.9-2.3L74.3-86.6h138.2L192.6,62.3z"/>
		</g>
	</g>
	<g class="st3">
		<g>
			<path d="M192-123.9h-85.1C89.3-123.9,75-109.6,75-92c0,2.9,2.4,5.3,5.3,5.3h138.3c2.9,0,5.3-2.4,5.3-5.3
				C223.9-109.5,209.5-123.9,192-123.9z M86.3-97.2c2.4-9.2,10.7-16,20.6-16H192c9.9,0,18.3,6.8,20.6,16H86.3z"/>
		</g>
	</g>
	<g class="st3">
		<g>
			<path d="M170.7-145.1h-42.6c-2.9,0-5.3,2.4-5.3,5.3v21.2c0,2.9,2.4,5.3,5.3,5.3h42.6c2.9,0,5.3-2.4,5.3-5.3v-21.2
				C176-142.7,173.7-145.1,170.7-145.1z M165.4-123.9h-31.9v-10.6h31.9V-123.9z"/>
		</g>
	</g>
	<g class="st3">
		<g>
			<path d="M261.1-76h-42.6v10.7h42.6c2.9,0,5.3,2.4,5.3,5.3v87.4c0.1,2.5-1.7,4.7-4.1,5.3l-60.9,13.8l2.4,10.3L264.6,43
				c7.4-1.7,12.5-8.4,12.3-15.8V-60C277-68.8,269.9-76,261.1-76z"/>
		</g>
	</g>
	<g class="st3">
		<g>
			<path d="M250.5-54.7h-37.2V-44h31.9v59.6l-43.7,9.7l2.3,10.4L251.7,25c2.4-0.6,4.2-2.7,4.2-5.2v-69.2
				C255.8-52.3,253.4-54.7,250.5-54.7z"/>
		</g>
	</g>
	<g class="st3">
		<g>
			<g>
				
					<rect x="120.2" y="-65.4" transform="matrix(0.9989 -4.759365e-02 4.759365e-02 0.9989 0.5945 5.9648)" class="st4" width="10.7" height="111.8"/>
			</g>
		</g>
	</g>
	<g class="st3">
		<g>
			<g>
				
					<rect x="117.5" y="-14.9" transform="matrix(4.779181e-02 -0.9989 0.9989 4.779181e-02 174.6686 164.1314)" class="st4" width="111.8" height="10.7"/>
			</g>
		</g>
	</g>
	<g class="st3">
		<g>
			<g>
				<path class="st4" d="M149.4,94.2c-14.6,0-26.6,11.9-26.6,26.6s11.9,26.6,26.6,26.6c14.6,0,26.6-11.9,26.6-26.6
					S164.1,94.2,149.4,94.2z M149.4,136.7c-8.8,0-16-7.2-16-16s7.2-16,16-16s16,7.2,16,16S158.2,136.7,149.4,136.7z"/>
			</g>
		</g>
	</g>
</g>
<g id="Слой_4" class="st0">
	<g id="Слой_2_1_" class="st3">
		<g>
			<path class="st4" d="M163.5,112.3h-14.3c-3.4,0-6.2-2.8-6.2-6.2V-65.2c0-3.4,2.8-6.2,6.2-6.2h14.3c3.4,0,6.2,2.8,6.2,6.2V106
				C169.7,109.5,166.9,112.3,163.5,112.3z"/>
			<path class="st4" d="M184-106.1h-55.2c-3.4,0-6.2-2.8-6.2-6.2v-3.7c0-3.4,2.8-6.2,6.2-6.2H184c3.4,0,6.2,2.8,6.2,6.2v3.7
				C190.2-108.9,187.4-106.1,184-106.1z"/>
		</g>
	</g>
	<g id="Слой_1_2_" class="st3">
		<g id="outline">
			<path d="M234.7,79.9c-1.2-53.5-3.8-107.7-7.8-160.9l-9.9,0.7c4,53,6.6,107,7.8,160.3L234.7,79.9z"/>
			<path d="M300-9v-79.7c0-2.7-2.2-5-5-5h-49.3c-0.1-1.7-0.2-3.3-0.4-5v-0.4c-0.2-2.4-2-4.3-4.4-4.5c-15-1.7-30.1-2.9-45.2-3.7
				v-16.1c0-2.7-2.2-5-5-5h-69.5c-2.7,0-5,2.2-5,5v15.8c-18.4,0.8-36.9,2.1-55.2,4.2c-2.4,0.4-4.2,2.5-4.4,5c-0.1,1.7-0.2,3.3-0.4,5
				H22.1c-2.7,0-5,2.2-5,5c0,0.2,0,0.4,0.1,0.6C20.5-61.2,30.9-35.7,47.1-14l3.8,5c-2.7,51.4-4,101.6-4,153.5c0,2.7,2.2,5,5,5h5
				v14.9c0,2.7,2.2,5,5,5h178.7c2.7,0,5-2.2,5-5v-14.9h5c2.7,0,5-2.2,5-5c0-19.2-0.2-38.1-0.6-57l8.9-8.9C287,55.5,300.1,23.8,300-9
				z M248-63.9h22.2v52.2c0,19.3-5.8,38.2-16.7,54.1C252.4,7.3,250.6-27.8,248-63.9z M126.3-118.5h59.6v10.8
				c-19.9-0.9-39.7-1-59.6-0.4C126.3-108.1,126.3-118.5,126.3-118.5z M120.9-98c0.1,0,0.2,0.1,0.4,0.1c0.2,0,0.3-0.1,0.5-0.1
				c22.8-0.8,45.5-0.7,68.3,0.4c0.2,0.1,0.4,0.1,0.7,0.1c0.1,0,0.3-0.1,0.4-0.1c14.9,0.7,29.7,1.9,44.5,3.5
				c6.5,81.1,9.5,155.6,9.6,233.7H56.8c0.1-78,3.2-152.4,9.6-233.8C84.5-96.1,102.7-97.3,120.9-98z M27.8-83.8h27.9
				c-1.5,20-2.9,39.7-3.9,59.1C39.5-42.4,31.3-62.6,27.8-83.8z M235.5,159.4H66.7v-9.9h168.8V159.4z M254.5,73.9
				c-0.1-5.3-0.2-10.5-0.4-15.8c16.8-19.4,26.1-44.1,26.1-69.7v-57.2c0-2.7-2.2-5-5-5h-27.9c-0.2-3.3-0.5-6.6-0.7-9.9h43.6V-9
				c0.1,30.3-12,59.4-33.4,80.7L254.5,73.9z"/>
			<path d="M156.1,119.7c11,0,19.9-8.9,19.9-19.9V-59c0-11-8.9-19.9-19.9-19.9S136.2-70,136.2-59V99.8
				C136.2,110.8,145.1,119.7,156.1,119.7z M146.1-59c0-5.5,4.5-9.9,9.9-9.9c5.5,0,9.9,4.5,9.9,9.9V99.8c0,5.5-4.5,9.9-9.9,9.9
				c-5.5,0-9.9-4.5-9.9-9.9V-59z"/>
		</g>
	</g>
	<circle class="st1" cx="229.5" cy="93.5" r="5.2"/>
</g>
<g id="Слой_5" class="st0">
	<path class="st5" d="M260.4,48.1h-87.9c-13.7,0-24.9-11.2-24.9-24.9V-7.7c0-13.7,11.2-24.9,24.9-24.9h87.9
		c13.7,0,24.9,11.2,24.9,24.9v31C285.3,36.9,274.1,48.1,260.4,48.1z"/>
	<path class="st5" d="M130.2,107.6V43.1c0-8.4,6.9-15.3,15.3-15.3h142c8.4,0,15.3,6.9,15.3,15.3v64.5
		C302.7,115.9,130.2,115.9,130.2,107.6z"/>
	<polygon class="st5" points="150.8,121 130.3,121 130.3,110.8 157.5,110.8 	"/>
	<polygon class="st5" points="282.1,121 302.7,121 302.7,110.8 275.4,110.8 	"/>
	<rect x="127.5" y="105.3" class="st5" width="177.5" height="7"/>
	<line class="st6" x1="130.2" y1="48.1" x2="302.7" y2="48.1"/>
	<path class="st7" d="M37.6-106l-17,45.7h77.9L83.3-106H37.6z"/>
	<path class="st5" d="M107.2-7.9H75.7v-3.9c0-6.5-5.3-11.8-11.8-11.8v-31.5h19.7v6.9l-3.9,7.9c-1.8,3.7-0.9,8.2,2.3,10.8
		c3.2,2.6,7.8,2.6,11,0s4.2-7.1,2.3-10.8l-3.9-7.9v-6.9h7.9c1.3,0,2.5-0.6,3.2-1.6s0.9-2.3,0.5-3.5L89-102
		c-1.6-4.8-6.1-8.1-11.2-8.1H41.9c-5.1,0-9.6,3.3-11.2,8.1l-14,41.8c-0.4,1.2-0.2,2.5,0.5,3.5s1.9,1.6,3.2,1.6h35.4v31.4
		c-6.5,0-11.8,5.3-11.8,11.8V-8H12.5C6-8,0.7-2.7,0.7,3.8v118c0,2.2,1.8,3.9,3.9,3.9h15.7c2.2,0,3.9-1.8,3.9-3.9V110H95v11.8
		c0,2.2,1.8,3.9,3.9,3.9h15.7c2.2,0,3.9-1.8,3.9-3.9V3.8C119-2.6,113.7-7.9,107.2-7.9z M88.3-35.9c-0.4,0.4-1.1,0.4-1.6,0
		c-0.2-0.3-0.2-0.6,0-0.9l0.8-1.7l0.8,1.7C88.5-36.5,88.5-36.2,88.3-35.9z M8.9,47.1h102.3v39.3H8.9V47.1z M52.1-11.9
		c0-2.2,1.8-3.9,3.9-3.9h7.9c2.2,0,3.9,1.8,3.9,3.9V-8H52.1V-11.9L52.1-11.9z M8.9,3.9c0-2.2,1.8-3.9,3.9-3.9h94.4
		c2.2,0,3.9,1.8,3.9,3.9v35.4H8.9V3.9z"/>
	<path class="st1" d="M63.9,7.8H56c-2.2,0-3.9,1.8-3.9,3.9c0,2.2,1.8,3.9,3.9,3.9h7.9c2.2,0,3.9-1.8,3.9-3.9
		C67.9,9.6,66.1,7.8,63.9,7.8z"/>
	<path class="st1" d="M63.9,55H56c-2.2,0-3.9,1.8-3.9,3.9s1.8,3.9,3.9,3.9h7.9c2.2,0,3.9-1.8,3.9-3.9S66.1,55,63.9,55z"/>
	<g class="st3">
		<g>
			<path d="M232.1,15.4c-0.6-1.1-1.6-1.8-2.8-2.1c-0.3-0.1-0.6-0.1-0.9-0.1c0-0.4,0.1-0.8,0.1-1.3s0-1.1-0.1-1.6
				c2.2-0.3,3.8-2.1,3.8-4.2c0-2.4-2-4.3-4.4-4.3c-0.2,0-0.5,0-0.7,0.1c0.5-1.2,0.8-2.5,0.8-3.9c0-0.9-0.1-1.8-0.3-2.7
				c1.8-0.7,2.9-2.4,2.9-4.4c0-2.6-2.2-4.8-4.9-4.8c-1.7,0-3.2,0.8-4.1,2.1c-1.4-0.6-3-1-4.6-1s-3.2,0.3-4.6,1
				c-0.9-1.3-2.4-2.1-4.1-2.1c-2.7,0-4.9,2.1-4.9,4.8c0,1.9,1.2,3.6,2.9,4.4c-0.2,0.9-0.3,1.8-0.3,2.6c0,1.4,0.3,2.7,0.8,3.9
				c-0.2,0-0.5-0.1-0.7-0.1c-2.5,0-4.4,1.9-4.4,4.3c0,2.2,1.7,4,3.8,4.2c-0.1,0.5-0.1,1.1-0.1,1.6c0,0.4,0,0.9,0.1,1.3h-0.1
				c-0.4,0-0.8,0-1.2,0.1c-1.2,0.3-2.1,1-2.8,2.1c-1.1,1.9-1,4.7-0.5,6.7c0.6,2.3,2.8,3.9,5.3,3.9c0.1,0,0.2,0,0.3,0l0,0l0,0l0,0
				c2-0.1,3.8-1.3,4.7-3.1c1.8,1.1,3.7,1.7,5.8,1.7c2,0,3.9-0.5,5.6-1.5c0,0.1,0.1,0.1,0.1,0.2c0.7,1.3,1.9,2.2,3.4,2.6
				c0.5,0.1,0.9,0.2,1.4,0.2c2.5,0,4.7-1.6,5.3-3.9C233.2,20.1,233.2,17.3,232.1,15.4z M204.7-9.1c0-1.8,1.5-3.2,3.4-3.2
				c1.3,0,2.5,0.7,3.1,1.9c0.1,0.2,0.3,0.3,0.5,0.4s0.4,0,0.6,0c1.4-0.7,3-1.1,4.6-1.1s3.2,0.4,4.6,1.1c0.2,0.1,0.4,0.1,0.6,0
				c0.2-0.1,0.4-0.2,0.5-0.4c0.5-1.2,1.8-1.9,3.1-1.9c1.9,0,3.4,1.4,3.4,3.2c0,1.2-0.8,2.4-1.9,2.9c-0.2-0.4-0.4-0.8-0.6-1.2
				c-0.2-0.4-0.7-0.5-1.1-0.3c-0.4,0.2-0.5,0.7-0.3,1.1c0.3,0.5,0.6,1.1,0.8,1.7l0,0c0.3,0.9,0.5,1.9,0.5,2.8c0,4.7-3.8,8.7-8.7,9
				V1.1c1.1-0.4,1.9-1.6,1.9-2.6c0-0.6-0.3-1.9-2.7-1.9s-2.7,1.3-2.7,1.9c0,1,0.8,2.2,1.9,2.6v5.8c-4.9-0.4-8.7-4.3-8.7-9
				c0-1,0.2-2,0.5-2.9c0.1-0.2,0.1-0.4-0.1-0.6c-0.1-0.2-0.3-0.3-0.5-0.4C205.8-6.4,204.7-7.7,204.7-9.1z M216.8,12.9
				c-0.4,0-0.8,0.3-0.8,0.8v2.4c-2.6-0.4-4.7-2.7-4.7-5.4c0-1.1,0.3-2.2,1-3.1c1.4,0.6,2.9,0.9,4.5,0.9s3.1-0.3,4.5-0.9
				c0.6,0.9,1,2,1,3.1c0,2.7-2,5-4.7,5.4v-2.4C217.6,13.3,217.2,12.9,216.8,12.9z M215.7-1.5c0-0.1,0-0.1,0.1-0.2s0.4-0.2,1-0.2
				s0.9,0.1,1,0.2s0.1,0.1,0.1,0.2c0,0.4-0.5,1.2-1.1,1.2C216.2-0.3,215.7-1,215.7-1.5z M209.4,22.5c-0.5,0.9-1.4,1.6-2.4,1.8
				c-0.3,0.1-0.5,0.1-0.8,0.1l0,0c-0.1,0-0.2,0-0.3,0c-1.8,0-3.4-1.2-3.8-2.8c-0.4-1.6-0.5-4,0.3-5.5c0.4-0.7,1-1.2,1.8-1.4
				c0.3-0.1,0.5-0.1,0.8-0.1s0.5,0,0.8,0.1l0,0c2,0.6,3.5,3.2,3.9,4.9C210.1,20.7,209.9,21.7,209.4,22.5z M221.9,19.3
				c-0.2,0.8-0.2,1.6-0.1,2.3c-1.5,1-3.3,1.5-5,1.5c-1.9,0-3.8-0.6-5.4-1.7c0.1-0.7,0-1.4-0.1-2.1c-0.6-2-2.2-4.9-4.5-5.8
				c-0.1-0.5-0.1-1.1-0.1-1.6c0-0.7,0.1-1.5,0.2-2.2c0-0.2,0-0.5-0.2-0.7s-0.4-0.3-0.6-0.3c-0.1,0-0.1,0-0.2,0
				c-1.6,0-2.9-1.2-2.9-2.7s1.3-2.7,2.9-2.7c0.8,0,1.5,0.3,2,0.8c0.8,1.1,1.9,2.1,3.1,2.8c-0.7,1.1-1.1,2.5-1.1,3.8c0,3.9,3.1,7,7,7
				s7-3.1,7-7c0-1.4-0.4-2.7-1.1-3.8c1.2-0.7,2.3-1.7,3.1-2.8c0.5-0.5,1.3-0.8,2-0.8c1.6,0,2.9,1.2,2.9,2.7s-1.3,2.7-2.9,2.7
				c-0.1,0-0.1,0-0.2,0c-0.2,0-0.5,0.1-0.6,0.3c-0.2,0.2-0.2,0.4-0.2,0.7c0.1,0.7,0.2,1.5,0.2,2.2c0,0.5,0,1-0.1,1.4
				C224.3,14.1,222.5,17.1,221.9,19.3z M231.1,21.6c-0.5,1.6-2,2.8-3.8,2.8c-0.3,0-0.7,0-1-0.1c-1.1-0.3-1.9-0.9-2.4-1.8
				s-0.6-1.8-0.4-2.8c0.5-1.8,2.1-4.6,4.3-5l0,0c0.1,0,0.3,0,0.5,0c0.3,0,0.5,0,0.8,0.1c0.8,0.2,1.4,0.7,1.8,1.4
				C231.6,17.7,231.6,20.1,231.1,21.6z"/>
		</g>
	</g>
	<g class="st3">
		<g>
			<path class="st8" d="M222.7-7.1c-0.7,0-1.3,0.6-1.3,1.3s0.6,1.3,1.3,1.3s1.3-0.6,1.3-1.3S223.4-7.1,222.7-7.1z"/>
		</g>
	</g>
	<g class="st3">
		<g>
			<path class="st8" d="M212.9-7.1c-0.7,0-1.3,0.6-1.3,1.3s0.6,1.3,1.3,1.3s1.3-0.6,1.3-1.3S213.6-7.1,212.9-7.1z"/>
		</g>
	</g>
	<g class="st3">
		<g>
			<path d="M225.8-11.5L225.8-11.5c-0.3-0.3-0.8-0.3-1.1,0s-0.3,0.8,0,1.1l0,0c0.2,0.2,0.4,0.2,0.5,0.2c0.2,0,0.4-0.1,0.6-0.2
				C226.1-10.7,226.1-11.2,225.8-11.5z"/>
		</g>
	</g>
	<g class="st3">
		<g>
			<path class="st8" d="M217.8,8.7c-0.4,0-0.8,0.3-0.8,0.8l0,0c0,0.4,0.3,0.8,0.8,0.8c0.4,0,0.8-0.3,0.8-0.8l0,0
				C218.6,9,218.2,8.7,217.8,8.7z"/>
		</g>
	</g>
</g>
<g id="Слой_6" class="st0">
	<rect x="47.7" y="26.3" class="st1" width="101.6" height="40.3"/>
	<rect x="153.7" y="26.3" class="st1" width="106" height="40.3"/>
	<path class="st2" d="M114.9-19.9v-7.9c0-2.5-2.1-4.6-4.6-4.6s-4.6,2.1-4.6,4.6v7.9c0,2.5,2.1,4.6,4.6,4.6
		C112.8-15.2,114.9-17.3,114.9-19.9z M194.1-20.1c0-2.5,2-4.6,4.6-4.6s4.6,2,4.6,4.6s2.1,4.6,4.6,4.6s4.6-2.1,4.6-4.6
		c0-7.6-6.2-13.9-13.9-13.9s-13.9,6.2-13.9,13.9c0,2.5,2.1,4.6,4.6,4.6S194.1-17.5,194.1-20.1z M266.3-28.8
		c-3.3-21.3-21.8-37.9-44.4-37.9H90.5c-2.5,0-4.6,2.1-4.6,4.6s2.1,4.6,4.6,4.6h131.3c18.3,0,33.3,13.7,35.5,31.4
		C243.6-19.8,234-5.7,234,10.3v8.2h-61.7c-7.7,0-14.5,3.7-18.8,9.4c-4.3-5.7-11.1-9.4-18.8-9.4H73.2v-8.2c0-16.1-9.6-30-23.2-36.3
		c1.6-12.3,9.5-23.2,20.9-28.3c2.4-1.1,3.4-3.8,2.4-6.1c-1.1-2.4-3.8-3.4-6.1-2.4c-13.8,6.2-23.6,19.2-26,34C17.5-33.1-5-15-5,9.7
		c0,14.6,8.1,27.8,20.8,34.6v29.4c0,16.1,12.6,29.3,28.5,30.2v8.9c0,6.2,5,11.2,11.2,11.2h20.8c6.2,0,11.2-5,11.2-11.2V104h132.3
		v8.8c0,6.2,5,11.2,11.2,11.2h20.8c6.2,0,11.2-5,11.2-11.2V104c3.8-0.2,7.5-1.1,11-2.8c2.4-1.1,3.3-3.8,2.2-6.2s-3.8-3.3-6.2-2.2
		c-2.8,1.3-5.8,1.9-8.9,1.9h-215c-11.6,0-21-9.4-21-21V41.3c0-1.9-1.1-3.5-2.8-4.3c-10.9-4.7-18-15.5-18-27.4
		C4.3-7,17.9-20.5,34.7-20.2C50.8-19.9,64-6.3,64,10.2v8.2h-0.4c-12.9,0-23.4,10.5-23.4,23.4v15.6c0,8.7,7.1,15.8,15.8,15.8h86.6
		c4.3,0,8.3-1.7,11.2-4.6c2.9,2.9,6.8,4.6,11.2,4.6h86.6c8.7,0,15.8-7.1,15.8-15.8V41.8c0-12.9-10.5-23.4-23.4-23.4h-0.4v-8.2
		c0-16.5,13.1-30.1,29.3-30.4C289.3-20.5,303-7.1,303,9.6c0,11.9-7.1,22.6-18,27.4c-1.7,0.7-2.8,2.4-2.8,4.3
		c-0.2,32.7,0.4,33.1-0.6,37.4c-0.7,2.9,1.5,5.8,4.5,5.8c2.1,0,4-1.4,4.5-3.5c1.5-6,0.6-7.9,0.9-36.7c12.7-6.8,20.8-20,20.8-34.6
		C312.3-15,289.9-33.1,266.3-28.8z M229.1,104h24.7v8.8c0,1.1-0.9,1.9-1.9,1.9H231c-1.1,0-1.9-0.9-1.9-1.9V104L229.1,104z M53.6,104
		h24.7v8.8c0,1.1-0.9,1.9-1.9,1.9H55.5c-1.1,0-1.9-0.9-1.9-1.9V104L53.6,104z M149,57.5c0,3.6-2.9,6.5-6.5,6.5H55.9
		c-3.6,0-6.5-2.9-6.5-6.5V41.9c0-7.8,6.3-14.1,14.1-14.1h71.4c7.8,0,14.1,6.3,14.1,14.1V57.5L149,57.5z M243.8,27.7
		c7.8,0,14.1,6.3,14.1,14.1v15.6c0,3.6-2.9,6.5-6.5,6.5h-86.6c-3.6,0-6.5-2.9-6.5-6.5V41.9c0-7.8,6.3-14.1,14.1-14.1h71.4V27.7z
		 M153.7-10c5.8,0,11.2-2.5,14.9-6.8c1.7-1.9,1.5-4.9-0.4-6.6s-4.9-1.5-6.6,0.4c-2,2.3-4.9,3.7-7.9,3.7s-5.9-1.3-7.9-3.7
		c-1.7-1.9-4.6-2.1-6.6-0.4c-1.9,1.7-2.1,4.6-0.4,6.6C142.4-12.5,147.9-10,153.7-10z"/>
</g>
<g id="Слой_7" class="st0">
	<rect x="68.4" y="120.6" class="st1" width="19.7" height="47.1"/>
	<rect x="242.1" y="121.5" class="st1" width="19.7" height="47.1"/>
	<path class="st2" d="M245-68.7c-2.7-14.9-15.8-26.2-31.6-26.2h-3.9c0.3-2.1,0.4-4.3,0.4-6.4c0-24.7-20.2-44.9-44.9-44.9
		s-44.9,20.1-44.9,44.9c0,2.1,0.2,4.3,0.4,6.4h-3.9c-15.7,0-28.8,11.3-31.6,26.2c-14.7,2.8-26,15.9-26,31.5v207.1
		c0,3.5,2.9,6.4,6.4,6.4h25.7c3.5,0,6.4-2.9,6.4-6.4v-46.6h135.2v46.6c0,3.5,2.9,6.4,6.4,6.4h25.7c3.5,0,6.4-2.9,6.4-6.4V-37.2
		C271.2-52.8,259.9-65.9,245-68.7z M165.1-133.4c5.8,0,11.3,1.5,16,4.3c-3.5,5.2-9.5,8.6-16,8.6s-12.5-3.3-16-8.6
		C153.8-131.9,159.3-133.4,165.1-133.4z M139.4-120.6c6,8,15.4,12.8,25.7,12.8s19.7-4.9,25.7-12.8c4,5.4,6.4,12.1,6.4,19.3
		c0,17.7-14.4,32.1-32.1,32.1S133-83.6,133-101.3C133-108.5,135.4-115.2,139.4-120.6z M97.5-62.8c0-10.6,8.6-19.3,19.3-19.3h7.8
		c7.2,15.1,22.7,25.7,40.6,25.7s33.4-10.5,40.6-25.7h7.8c10.6,0,19.3,8.6,19.3,19.3v44.9H210V-20c0-13-10.5-23.5-23.5-23.5h-42.8
		c-13,0-23.5,10.5-23.5,23.5v2.1H97.5V-62.8z M197.2-20v2.1H133V-20c0-5.9,4.8-10.7,10.7-10.7h42.8C192.4-30.7,197.2-25.9,197.2-20z
		 M71.8-37.2c0-8.4,5.4-15.5,12.8-18.1v38c-4.7,0.9-9.1,3-12.8,5.8V-37.2z M84.7,163.5H71.8v-40.2h12.8L84.7,163.5L84.7,163.5z
		 M258.4,163.5h-12.8v-40.2h12.8V163.5z M258.4,110.4H71.8V52.7c0-10.6,8.6-19.3,19.3-19.3h148c10.6,0,19.3,8.6,19.3,19.3V110.4z
		 M258.4,27c-5.4-4-12.1-6.4-19.3-6.4h-148c-7.2,0-13.9,2.4-19.3,6.4V14.2c0-10.6,8.6-19.3,19.3-19.3h148c10.6,0,19.3,8.6,19.3,19.3
		V27z M258.4-11.5c-3.8-2.8-8.1-4.8-12.8-5.8v-38.1c7.4,2.7,12.8,9.8,12.8,18.1V-11.5z"/>
	<g id="Слой_1_3_" class="st3">
		<g id="oven-food-cooking">
			<path d="M127.7-9.7H-94.7c-6.8,0-12.3,5.6-12.3,12.4v218.2c0,2.3,1.9,4.1,4.1,4.1h8.2v8.2c0,2.3,1.9,4.1,4.1,4.1h32.9
				c2.3,0,4.1-1.9,4.1-4.1V225h140v8.2c0,2.3,1.9,4.1,4.1,4.1h32.9c2.3,0,4.1-1.9,4.1-4.1V225h8.2c2.3,0,4.1-1.9,4.1-4.1V2.7
				C140-4.1,134.4-9.7,127.7-9.7z M-61.7,229.1h-24.7V225h24.7V229.1z M119.4,229.1H94.7V225h24.7
				C119.4,225,119.4,229.1,119.4,229.1z M131.8,216.8H-98.8v-173h230.5v173H131.8z M131.8,35.6H-98.8V2.7c0-2.3,1.9-4.1,4.1-4.1
				h222.3c2.3,0,4.1,1.9,4.1,4.1v32.9H131.8z"/>
			<path d="M115.3,56.2H-82.3c-2.3,0-4.1,1.9-4.1,4.1v140c0,2.3,1.9,4.1,4.1,4.1h197.6c2.3,0,4.1-1.9,4.1-4.1v-140
				C119.4,58.1,117.6,56.2,115.3,56.2z M111.2,196.2H-78.2V64.4h189.4V196.2z"/>
			<path d="M98.8,163.2H86.2c-1.3-14.7-7.2-28.6-16.9-39.6L76,112c6.7,1.2,13.2-3.2,14.4-9.9c0.2-0.8,0.2-1.5,0.2-2.3
				c-0.1-6.8-5.7-12.4-12.5-12.3c-0.8,0-1.6,0.1-2.4,0.3c-0.9-2.9-2.9-5.3-5.5-6.8c-5.9-3.4-13.5-1.4-16.9,4.5
				c-1.6,2.8-2.1,6.2-1.2,9.4c0.5,1.8,1.3,3.4,2.6,4.8l-4.8,8.2C16,89.5-26.5,102-44.9,136c-4.6,8.4-7.4,17.7-8.2,27.3h-12.7
				c-2.3,0-4.1,1.9-4.1,4.1v8.2c0,6.8,5.6,12.4,12.3,12.4H90.6c6.8,0,12.3-5.6,12.3-12.4v-8.2C102.9,165.1,101.1,163.2,98.8,163.2z
				 M63.9,97.7c-0.3-1.1-1-2-2-2.5s-1.6-1.4-2-2.5c-0.6-2.2,0.7-4.4,2.9-5c2.2-0.6,4.4,0.7,5,2.9c0.3,1.1,0.1,2.2-0.4,3.1
				c-1.1,2-0.5,4.5,1.5,5.7c2,1.1,4.5,0.5,5.7-1.5l0,0c1.1-2,3.5-2.6,5.5-1.6c0.1,0.1,0.1,0.1,0.2,0.1c2,1.1,2.7,3.6,1.6,5.6
				s-3.6,2.7-5.6,1.6c-0.1-0.1-0.1-0.1-0.2-0.1c-2-1.1-4.5-0.5-5.7,1.5l-7.2,12.6c-0.5-0.4-0.9-0.7-1.4-1.1c-1-0.9-2-1.6-3-2.4
				c-0.7-0.5-1.3-1.1-2.1-1.6l6.6-11.4C64,99.9,64.2,98.8,63.9,97.7z M16.5,107.7c16.9,0,33.1,6.9,44.8,19.2h0.1
				c9.4,9.9,15.3,22.7,16.6,36.3H-24.4c1.1-11.5,7-22,16.3-28.9l-4.9-6.6c-11.3,8.4-18.5,21.4-19.6,35.5h-12.2
				C-41.8,131.7-15.2,107.7,16.5,107.7z M94.7,175.6c0,2.3-1.9,4.1-4.1,4.1H-57.6c-2.3,0-4.1-1.9-4.1-4.1v-4.1H94.7V175.6z"/>
		</g>
	</g>
	<circle class="st1" cx="-78.2" cy="15" r="9.9"/>
	<circle class="st1" cx="-52.5" cy="15" r="9.9"/>
	<circle class="st1" cx="-26.7" cy="15" r="9.9"/>
</g>
<g id="Слой_8" class="st0">
	<g id="Слой_1_4_" class="st3">
		<g id="oven-food-cooking_1_">
			<path d="M290.6-137.5H16.4c-8.4,0-15.2,6.9-15.2,15.2v269.2c0,2.8,2.3,5.1,5.1,5.1h10.2v10.2c0,2.8,2.3,5.1,5.1,5.1h40.6
				c2.8,0,5.1-2.3,5.1-5.1V152H240v10.2c0,2.8,2.3,5.1,5.1,5.1h40.6c2.8,0,5.1-2.3,5.1-5.1V152H301c2.8,0,5.1-2.3,5.1-5.1v-269.2
				C305.9-130.7,299-137.5,290.6-137.5z M57,157H26.5v-5H57V157z M280.5,157H250v-5h30.5V157z M295.7,141.8H11.3V-71.5h284.4
				L295.7,141.8L295.7,141.8z M295.7-81.7H11.3v-40.6c0-2.8,2.3-5.1,5.1-5.1h274.3c2.8,0,5.1,2.3,5.1,5.1L295.7-81.7L295.7-81.7z"/>
			<path d="M275.4-56.3H31.6c-2.8,0-5.1,2.3-5.1,5.1v172.7c0,2.8,2.3,5.1,5.1,5.1h243.8c2.8,0,5.1-2.3,5.1-5.1V-51.2
				C280.5-54,278.2-56.3,275.4-56.3z M270.3,116.4H36.7V-46.1h233.6L270.3,116.4L270.3,116.4z"/>
			<path d="M255.1,75.8h-15.6c-1.6-18.1-8.9-35.2-20.8-48.9l8.3-14.3c8.3,1.5,16.3-3.9,17.8-12.2c0.2-1,0.3-1.8,0.3-2.8
				c-0.1-8.4-7-15.3-15.4-15.2c-1,0-2,0.1-2.9,0.3c-1.1-3.6-3.6-6.5-6.8-8.4c-7.3-4.2-16.6-1.7-20.9,5.5c-2,3.5-2.5,7.6-1.5,11.6
				c0.6,2.2,1.7,4.3,3.2,6l-5.9,10.2C153.1-15.1,100.7,0.4,78,42.2C72.1,52.5,68.7,64,67.6,75.8H51.9c-2.8,0-5.1,2.3-5.1,5.1V91
				c0,8.4,6.9,15.2,15.2,15.2h182.8c8.4,0,15.2-6.9,15.2-15.2V80.9C260.2,78.1,257.9,75.8,255.1,75.8z M212-5.1
				c-0.4-1.3-1.2-2.4-2.4-3.1c-1.2-0.6-2-1.8-2.4-3.1c-0.7-2.7,0.9-5.5,3.6-6.2c2.7-0.7,5.5,0.9,6.2,3.6c0.3,1.3,0.1,2.7-0.5,3.9
				c-1.4,2.4-0.6,5.6,1.9,7c2.4,1.4,5.6,0.6,7-1.9l0,0c1.3-2.4,4.3-3.2,6.7-2c0.1,0.1,0.1,0.1,0.2,0.1c2.4,1.3,3.3,4.4,2,6.9
				c-1.3,2.4-4.4,3.3-6.9,2C227.3,2,227.3,2,227.2,2c-2.4-1.4-5.5-0.6-7,1.9l-8.9,15.5c-0.6-0.5-1.1-0.9-1.7-1.4
				c-1.2-1.1-2.5-2-3.7-3c-0.9-0.6-1.7-1.4-2.5-2l8.1-14.1C212.1-2.4,212.3-3.8,212-5.1z M153.5,7.2c20.9,0,40.9,8.6,55.2,23.7h0.1
				c11.6,12.3,18.9,28.1,20.4,44.8H103c1.3-14.2,8.6-27.1,20.1-35.6L117,32c-14,10.4-22.8,26.3-24.1,43.7H77.8
				C81.6,36.9,114.4,7.2,153.5,7.2z M250,91c0,2.8-2.3,5.1-5.1,5.1H62.1c-2.8,0-5.1-2.3-5.1-5.1v-5.1h193V91z"/>
		</g>
	</g>
	<circle class="st1" cx="36.7" cy="-107.1" r="12.2"/>
	<circle class="st1" cx="68.4" cy="-107.1" r="12.2"/>
	<circle class="st1" cx="100.2" cy="-107.1" r="12.2"/>
</g>
<g id="Слой_9" class="st0">
	<path class="st3" d="M239.5-145.7H88.9c-13.9,0-25.1,11.2-25.1,25.1v245.8c0,13.9,11.2,25.1,25.1,25.1h6.3v6.3
		c0,10.3,8.5,18.8,18.8,18.8h6.3c6.9,0,12.5-5.6,12.5-12.5v-12.5h62.7v12.5c0,6.9,5.6,12.5,12.5,12.5h6.3c10.3,0,18.8-8.5,18.8-18.8
		v-6.3h6.3c13.9,0,25.1-11.2,25.1-25.1v-245.8C264.5-134.5,253.3-145.7,239.5-145.7z M120.3,162.8H114c-3.4,0-6.3-2.8-6.3-6.3v-6.3
		h12.5v12.6H120.3z M220.6,156.6c0,3.4-2.8,6.3-6.3,6.3H208v-12.5h12.5v6.2H220.6z M252,125.2c0,6.9-5.6,12.5-12.5,12.5H88.9
		c-6.9,0-12.5-5.6-12.5-12.5V-25.3H252V125.2z M252-37.8H76.4v-82.8c0-6.9,5.6-12.5,12.5-12.5h150.5c6.9,0,12.5,5.6,12.5,12.5v82.8
		H252z"/>
	<path class="st1" d="M144.5-50.4h-43.9c-6.9,0-12.5-5.6-12.5-12.5v-6.3c0-10.3,8.5-18.8,18.8-18.8h31.4c10.3,0,18.8,8.5,18.8,18.8
		v6.3C157.1-56,151.4-50.4,144.5-50.4z M106.9-75.5c-3.4,0-6.3,2.8-6.3,6.3v6.3h43.9v-6.3c0-3.4-2.8-6.3-6.3-6.3H106.9z"/>
	<path class="st1" d="M138.2,24.9h-31.4C96.5,24.9,88,16.4,88,6.1v-6.3c0-6.9,5.6-12.5,12.5-12.5h43.9c6.9,0,12.5,5.6,12.5,12.5v6.3
		C157.1,16.4,148.6,24.9,138.2,24.9z M100.6-0.2v6.3c0,3.4,2.8,6.3,6.3,6.3h31.4c3.4,0,6.3-2.8,6.3-6.3v-6.3
		C144.6-0.2,100.6-0.2,100.6-0.2z"/>
	<path class="st1" d="M232.2,125.2c-3.4,0-6.3-2.8-6.3-6.3V68.8c0-3.4,2.8-6.3,6.3-6.3s6.3,2.8,6.3,6.3V119
		C238.5,122.4,235.6,125.2,232.2,125.2z"/>
	<path class="st1" d="M232.2,50c-3.4,0-6.3-2.8-6.3-6.3c0-3.4,2.8-6.3,6.3-6.3l0,0c3.4,0,6.3,2.8,6.3,6.3
		C238.5,47.1,235.6,50,232.2,50z"/>
</g>
<g id="Слой_10" class="st0">
	<g id="Page-1" class="st3">
		<g id="_x30_11---Slide-Tower" transform="translate(-1)">
			<path id="Shape" class="st4" d="M46.6,120.6c-16.7-7.3-16.2-13.6-16.2-15.7c0-3.1-2.1-5.2-4.7-5.7s-5.2,2.1-5.7,4.7
				c-0.5,3.7-1.6,15.7,21.9,26.1c2.6,1,5.7,0,6.8-2.6C49.7,124.8,49.2,122.2,46.6,120.6z"/>
			<path id="Shape_1_" d="M286.1,175.4h15.7c5.7,0,10.4-4.7,10.4-10.4V-64.7c0-5.7-4.7-10.4-10.4-10.4h-15.7
				c-5.7,0-10.4,4.7-10.4,10.4v38.1l-62.6-35.5v-2.6h10.4c5.7,0,10.4-4.7,10.4-10.4v-15.7c0-5.7-4.7-10.4-10.4-10.4h-19.8
				l-77.2-35.5c-2.6-1-5.7-1-8.9,0l-77.8,35.5H20c-5.7,0-10.4,4.7-10.4,10.4v15.7c0,5.7,4.7,10.4,10.4,10.4h10.4v32.4
				C11.1-24,0.7-12-0.9,2.7c-1,13.6,3.7,31.8,31.3,45.4v18.8C11.1,75.7,0.7,87.2-0.9,102.3c-1,13.6,3.7,31.8,31.3,45.9v16.7
				c0,5.7,4.7,10.4,10.4,10.4h15.7c5.7,0,10.4-4.7,10.4-10.4v-4.7c34.4,7.8,92.9,10.4,144.5,14.6c4.2,0,11,0.5,12,0.5
				c8.9,0,15.7-7.3,15.7-15.7c0-7.8-6.3-14.6-14.1-15.7l-5.7-0.5l56.4-32.4v53.7C275.7,170.7,280.4,175.4,286.1,175.4z M213.1,69.4
				l25,14.6l-25,14.6V69.4z M249.1,77.8l-36-20.4V32.9l57.4,32.9L249.1,77.8z M275.7,56.9l-25.6-14.6l25.6-14.6V56.9z M275.7,15.7
				l-36,20.4l-21.4-12l57.4-32.9V15.7z M213.1,15.2v-28.7l25,14.6L213.1,15.2z M213.1,110.7l62.6-35.5v24.5l-62.6,35.5V110.7z
				 M286.1-64.7h15.7v229.6h-15.7V-64.7z M270.5-17.7l-21.4,12l-36-20.4v-24.5L270.5-17.7z M202.6,142.5l-15.7-1V-64.7h15.7
				C202.6-64.1,202.6,67.4,202.6,142.5z M150.5,138.3c1.6-15.1-9.9-28.2-24.5-30.3l0,0c-8.3-0.5-15.7-1-21.9-2.1
				c27.1-2.6,57.9-8.9,73.1-27.7v61.6L150.5,138.3z M124.4,118.5c4.7,0,8.9,2.1,11.5,5.7c3.1,3.7,4.7,8.3,4.2,13l-31.3-2.6
				C109.2,126.3,116,119,124.4,118.5z M40.9,52.2c5.2,2.1,10.4,3.7,15.7,4.7v33.9C41.4,81.5,40.9,71.5,40.9,71V52.2z M176.6-64.7
				v15.1c-16.7-0.5-66.8-2.1-109.6,6.3v-21.4H176.6z M67-1.5v-30.8c41.7-8.3,93.4-6.8,109.6-6.3v26.1c-18.8-0.5-79.4-1-106,12.5
				C69.6-0.5,68.5-1,67-1.5L67-1.5z M176.6-2v28.2c-5.7-5.7-12.5-9.9-19.8-12.5c-20.9-7.3-41.2-3.1-68.9-8.9
				C116-3.1,161.4-2.6,176.6-2L176.6-2z M121.8-127.3l56.9,26.1H64.9L121.8-127.3z M20-90.8h204v15.7H20V-90.8z M56.5-64.7v57.4
				c-0.5,0-0.5-0.5-1-0.5c-6.8-4.7-14.6-12.5-14.6-20.9v-36H56.5z M9.6,3.7c1-9.9,8.3-18.3,21.9-25C35.1-12,41.4-4.1,49.2,1.1
				c20.4,14.1,45.9,16.7,69.9,17.7c11.5,0,23,1.6,33.4,4.7c11,4.2,23,13,23,26.1c0.5,41.2-57.4,47-108,47.5c-0.5,0-0.5,0-1-0.5V59.5
				c6.8,1.6,13.6,2.6,20.9,3.7l0,0c12,1.6,24,2.6,36,2.6c3.1,0,5.2-2.1,5.2-5.2s-2.1-5.2-5.2-5.2c-11.5,0-23.5-1-35-2.6l0,0
				c-17.7-2.1-35-6.3-51.1-13C17.4,30.8,8.5,18.8,9.6,3.7z M56.5,164.9H40.9v-12.5c5.2,2.1,10.4,3.7,15.7,5.2v7.3H56.5z
				 M228.7,159.7c0,1.6-0.5,3.1-1.6,4.2s-2.6,1-4.2,1c-3.7,0-7.3-0.5-11-0.5c-92.4-7.3-138.3-8.3-174.3-24.5
				c-20.2-9.4-29.6-21.4-28-36.5c1-9.9,8.3-18.8,22.4-25.6c2.6,6.8,8.9,18.3,27.7,27.1c14.6,6.3,30.3,10.4,45.9,12
				c-4.2,4.7-6.8,10.4-7.3,16.7c0,2.6,0.5,5.7,2.6,7.8s4.2,3.7,7.3,3.7l115.8,9.4C226.7,154.5,228.7,157.1,228.7,159.7z"/>
			<path id="Shape_2_" class="st4" d="M44,30.8c2.6,0,4.7-1.6,5.2-4.2s-0.5-4.7-3.1-5.7C29.9,13.6,30.4,7.4,30.4,5.8
				c0-2.1-0.5-3.7-2.1-4.7s-3.7-1-5.2-0.5c-1.6,0.5-2.6,2.6-3.1,4.2c-0.5,6.8,1,16.7,21.9,25.6C43,30.8,43.5,30.8,44,30.8z"/>
		</g>
	</g>
</g>
<g id="Слой_11" class="st0">
	<path class="st1" d="M93.6-61.6l5.5,24.4h105.1l1.8,73.3h27.6v-78.8l-18.9-18.9H93.6z"/>
	<path class="st2" d="M153.5,135.4c-3.4,0-6.2,2.8-6.2,6.2s2.8,6.2,6.2,6.2c3.5,0,6.2-2.9,6.2-6.2
		C159.6,138.1,156.9,135.4,153.5,135.4z"/>
	<path class="st2" d="M23.5,99.2c-8.7-5.5-20.2-2.9-25.6,5.7c-5.5,8.7-2.9,20.2,5.7,25.6c43.7,27.8,98.3,43.8,149.8,43.8
		s106.2-15.9,149.9-43.8c8.7-5.5,11.2-17,5.7-25.6c-5.5-8.7-17-11.2-25.6-5.7c-5.8,3.7-11.9,7.2-18.2,10.4L242.1,43H265
		c3.4,0,6.2-2.8,6.2-6.2c0-17-13.9-31-31-31h-0.6v-43.3c0-17-13.9-31-31.1-31H95.7l-15.2-52c-3.8-13.2-16-22.3-29.7-22.3H29.6
		c-1.9,0-3.8,0.9-5,2.5s-1.6,3.6-1,5.4l47,164.4c1.3,4.4,4.1,8.1,7.7,10.5L52,114.6C42.1,110.2,32.6,104.9,23.5,99.2z M290,109.6
		c2.9-1.8,6.7-1,8.6,1.9c1.8,2.9,1,6.7-1.9,8.6c-41.7,26.5-94,41.8-143.2,41.8S52,146.8,10.3,120.1c-2.9-1.8-3.8-5.7-1.9-8.6
		c1.8-2.9,5.7-3.7,8.6-1.9c32.3,20.5,72.9,35.1,111.2,39.1c3.4,0.4,6.5-2.1,6.8-5.5c0.4-3.4-2.1-6.5-5.5-6.8
		c-13.9-1.5-28.3-4.4-42.4-8.6L117,43h85.3l28.7,81.3c-17.7,6.2-35.9,10.3-53.4,12.1c-3.4,0.4-5.9,3.4-5.5,6.8
		c0.4,3.4,3.4,5.9,6.8,5.5C216.6,144.8,257.1,130.6,290,109.6z M200.5,6h-83.2l-10.9-37.2h94L200.5,6L200.5,6z M254,115.1
		c-3.8,1.8-7.6,3.3-11.4,4.9l-27.2-77h13.5L254,115.1z M240.2,18.3c8.1,0,14.9,5.2,17.5,12.3h-18.2V18.3H240.2z M208.5-56
		c10.3,0,18.6,8.3,18.6,18.6c0,6.6,0,61.4,0,68.1h-14.3c0-6.7,0-61.5,0-68.1c0-3.4-2.8-6.2-6.2-6.2H102.9l-3.6-12.3L208.5-56
		L208.5-56z M37.8-130.3h13c8.2,0,15.6,5.5,17.9,13.4C70-112.5,105.1,8,106.9,13.9c0.7,2.7,3.2,4.4,5.9,4.4h87.8v12.3H88.5
		c-2.8,0-5.2-1.8-6-4.5L37.8-130.3z M90.5,43.1h13.3l-28.6,81c-3.9-1.4-7.7-2.9-11.6-4.3L90.5,43.1z"/>
	<circle class="st1" cx="154.2" cy="142.3" r="7.7"/>
</g>
<g id="Слой_12" class="st0">
	<rect x="81.2" y="24.8" class="st1" width="145.3" height="56"/>
	<path class="st2" d="M301.2,129.2L283.7-93c-0.6-8-4-15.4-9.5-20.9c-5.8-5.9-13.6-9.1-21.9-9.1H132.2c-3.5,0-6.3,2.8-6.3,6.3
		s2.8,6.3,6.3,6.3h120.1c5,0,9.4,1.9,13,5.4c3.4,3.4,5.5,8,5.8,13l17.4,220.6h-12.6L258.6-91c-0.1-1.5-0.6-3-1.4-4.1
		c-1.2-1.7-3.1-2.7-5.2-2.7H56.3c-2.1,0-4,1-5.2,2.7c-0.8,1.1-1.3,2.6-1.4,4.1L32.4,128.6H19.8L37.2-92c0.4-5,2.5-9.6,5.8-13
		c3.6-3.5,8.1-5.4,13-5.4h19.5c3.5,0,6.3-2.8,6.3-6.3S79-123,75.5-123H56.1c-8.2,0-16,3.2-21.9,9.1c-5.5,5.5-8.9,13-9.5,20.9
		L7.1,129.2c-8.1,2.2-14,9.6-14,18.2v6.3c0,6.9,5.7,12.6,12.6,12.6h37.7c6.9,0,12.6-5.7,12.6-12.6v-6.3c0-7.7-4.6-14.3-11.2-17.2
		l17-215.5h35.7V15.4h-6.3c-10.4,0-18.9,8.5-18.9,18.9v44c-6.9,0-12.6,5.7-12.6,12.6v12.6c0,6.9,5.7,12.6,12.6,12.6h163.5
		c6.9,0,12.6-5.7,12.6-12.6V90.9c0-6.9-5.7-12.6-12.6-12.6v-44c0-10.4-8.5-18.9-18.9-18.9h-6.3V-85.2h35.7l17,215.5
		c-6.6,3-11.2,9.6-11.2,17.2v6.3c0,6.9,5.7,12.6,12.6,12.6h37.7c6.9,0,12.6-5.7,12.6-12.6v-6.3C315.2,138.8,309.3,131.4,301.2,129.2
		z M5.7,153.8v-6.3c0-3.5,2.8-6.3,6.3-6.3h25.2c3.5,0,6.3,2.8,6.3,6.3v6.3H5.7z M235.9,103.4H72.4V90.9h163.5V103.4z M223.4,34.3v44
		H85v-44c0-3.5,2.8-6.3,6.3-6.3h125.8C220.5,28,223.4,30.8,223.4,34.3z M198.2,15.4h-88.1V-85.2h88.1V15.4z M264.9,153.8v-6.3
		c0-3.5,2.8-6.3,6.3-6.3h25.2c3.5,0,6.3,2.8,6.3,6.3v6.3H264.9z"/>
	<path class="st2" d="M103.9-110.4c3.5,0,6.3-2.8,6.3-6.3s-2.8-6.3-6.3-6.3l0,0c-3.5,0-6.3,2.8-6.3,6.3S100.4-110.4,103.9-110.4z"/>
	<rect x="14.7" y="118.7" class="st1" width="285.9" height="18.7"/>
	<rect x="15.6" y="-139.5" class="st1" width="286.7" height="16.2"/>
	<path class="st2" d="M305.4-115.2c3,0,5.4-2.4,5.4-5.4v-21.6c0-3-2.4-5.4-5.4-5.4H13c-2.9,0-5.4,2.4-5.4,5.4v21.7
		c0,3,2.4,5.4,5.4,5.4h5.4v227.4H13c-3,0-5.4,2.4-5.4,5.4v21.7c0,3,2.4,5.4,5.4,5.4h16.2v27c0,3,2.4,5.4,5.4,5.4H51
		c2.4,0,4.4-1.5,5.1-3.7l9.6-28.9h187.1l9.6,28.7c0.7,2.2,2.8,3.7,5.1,3.7h16.2c3,0,5.4-2.4,5.4-5.4v-27h16.2c3,0,5.4-2.4,5.4-5.4
		v-21.7c0-3-2.4-5.4-5.4-5.4H300v-227.3C300-115.2,305.4-115.2,305.4-115.2z M18.5-136.9H300v10.8h-5.4H23.9h-5.4V-136.9L18.5-136.9
		z M47.1,166.4h-6.9v-21.7h14.1L47.1,166.4z M278.4,166.4h-6.9l-7.2-21.7h14.1V166.4z M300,133.9h-16.2h-27h-195H34.7H18.5v-10.8
		h5.4h270.7h5.4V133.9L300,133.9z M289.2,112.2H29.3v-227.4h259.9L289.2,112.2L289.2,112.2z"/>
	<path class="st2" d="M45.5-44.8h227.4c3,0,5.4-2.4,5.4-5.4v-48.7c0-3-2.4-5.4-5.4-5.4H45.5c-3,0-5.4,2.4-5.4,5.4v48.7
		C40.2-47.2,42.6-44.8,45.5-44.8z M51-93.5h216.6v37.9H51V-93.5z"/>
	<path class="st2" d="M45.5,31h227.4c3,0,5.4-2.4,5.4-5.4v-54.2c0-3-2.4-5.4-5.4-5.4H45.5c-3,0-5.4,2.4-5.4,5.4v54.2
		C40.2,28.6,42.6,31,45.5,31z M51-23.2h216.6v43.3H51V-23.2z"/>
	<path class="st2" d="M45.5,101.4h227.4c3,0,5.4-2.4,5.4-5.4V47.2c0-3-2.4-5.4-5.4-5.4H45.5c-3,0-5.4,2.4-5.4,5.4V96
		C40.2,99,42.6,101.4,45.5,101.4z M51,52.7h216.6v37.9H51V52.7z"/>
	<path class="st2" d="M180.9-82.7h-43.3c-3,0-5.4,2.4-5.4,5.4s2.4,5.4,5.4,5.4h16.2v5.4c0,3,2.4,5.4,5.4,5.4s5.4-2.4,5.4-5.4v-5.4
		H181c3,0,5.4-2.4,5.4-5.4C186.3-80.3,183.9-82.7,180.9-82.7z"/>
	<path class="st2" d="M180.9-12.3h-43.3c-3,0-5.4,2.4-5.4,5.4s2.4,5.4,5.4,5.4h16.2V4c0,3,2.4,5.4,5.4,5.4s5.4-2.4,5.4-5.4v-5.5H181
		c3,0,5.4-2.4,5.4-5.4C186.3-9.9,183.9-12.3,180.9-12.3z"/>
	<path class="st2" d="M180.9,63.5h-43.3c-3,0-5.4,2.4-5.4,5.4s2.4,5.4,5.4,5.4h16.2v5.4c0,3,2.4,5.4,5.4,5.4s5.4-2.4,5.4-5.4v-5.4
		H181c3,0,5.4-2.4,5.4-5.4C186.3,65.9,183.9,63.5,180.9,63.5z"/>
</g>
<g id="Слой_13" class="st0">
	<rect x="9" y="118.7" class="st1" width="285.9" height="18.7"/>
	<rect x="9.8" y="-139.5" class="st1" width="286.7" height="16.2"/>
	<path class="st2" d="M299.7-115.2c3,0,5.4-2.4,5.4-5.4v-21.6c0-3-2.4-5.4-5.4-5.4H7.3c-2.9,0-5.4,2.4-5.4,5.4v21.7
		c0,3,2.4,5.4,5.4,5.4h5.4v227.4H7.3c-3,0-5.4,2.4-5.4,5.4v21.7c0,3,2.4,5.4,5.4,5.4h16.2v27c0,3,2.4,5.4,5.4,5.4h16.2
		c2.4,0,4.4-1.5,5.1-3.7l9.6-28.9h187.1l9.6,28.7c0.7,2.2,2.8,3.7,5.1,3.7H278c3,0,5.4-2.4,5.4-5.4v-27h16.2c3,0,5.4-2.4,5.4-5.4
		v-21.7c0-3-2.4-5.4-5.4-5.4h-5.4v-227.3C294.2-115.2,299.7-115.2,299.7-115.2z M12.8-136.9h281.6v10.8H289H18.2h-5.4L12.8-136.9
		L12.8-136.9z M41.3,166.4h-6.9v-21.7h14.1L41.3,166.4z M272.6,166.4h-6.9l-7.2-21.7h14.1V166.4z M294.3,133.9h-16.2h-27h-195H29
		H12.8v-10.8h5.4h270.7h5.4L294.3,133.9L294.3,133.9z M283.4,112.2H23.6v-227.4h259.9v227.4H283.4z"/>
	<path class="st2" d="M39.8-44.8h227.4c3,0,5.4-2.4,5.4-5.4v-48.7c0-3-2.4-5.4-5.4-5.4H39.8c-3,0-5.4,2.4-5.4,5.4v48.7
		C34.4-47.2,36.9-44.8,39.8-44.8z M45.2-93.5h216.6v37.9H45.2V-93.5z"/>
	<path class="st2" d="M39.8,31h227.4c3,0,5.4-2.4,5.4-5.4v-54.2c0-3-2.4-5.4-5.4-5.4H39.8c-3,0-5.4,2.4-5.4,5.4v54.2
		C34.4,28.6,36.9,31,39.8,31z M45.2-23.2h216.6v43.3H45.2V-23.2z"/>
	<path class="st2" d="M39.8,101.4h227.4c3,0,5.4-2.4,5.4-5.4V47.2c0-3-2.4-5.4-5.4-5.4H39.8c-3,0-5.4,2.4-5.4,5.4V96
		C34.4,99,36.9,101.4,39.8,101.4z M45.2,52.7h216.6v37.9H45.2V52.7z"/>
	<path class="st2" d="M175.2-82.7h-43.3c-3,0-5.4,2.4-5.4,5.4s2.4,5.4,5.4,5.4h16.2v5.4c0,3,2.4,5.4,5.4,5.4s5.4-2.4,5.4-5.4v-5.4
		h16.2c3,0,5.4-2.4,5.4-5.4C180.6-80.3,178.2-82.7,175.2-82.7z"/>
	<path class="st2" d="M175.2-12.3h-43.3c-3,0-5.4,2.4-5.4,5.4s2.4,5.4,5.4,5.4h16.2V4c0,3,2.4,5.4,5.4,5.4S159,7,159,4v-5.5h16.2
		c3,0,5.4-2.4,5.4-5.4C180.6-9.9,178.2-12.3,175.2-12.3z"/>
	<path class="st2" d="M175.2,63.5h-43.3c-3,0-5.4,2.4-5.4,5.4s2.4,5.4,5.4,5.4h16.2v5.4c0,3,2.4,5.4,5.4,5.4s5.4-2.4,5.4-5.4v-5.4
		h16.2c3,0,5.4-2.4,5.4-5.4C180.6,65.9,178.2,63.5,175.2,63.5z"/>
</g>
<g id="Слой_14" class="st0">
	<g id="Слой_2_2_" class="st3">
		<polygon class="st9" points="283.6,177.3 273.2,177.3 273.2,105 294.2,105 		"/>
		<polygon class="st9" points="22.8,177.3 33.2,177.3 33.2,105 12.2,105 		"/>
	</g>
	<g id="Слой_3_1_" class="st3">
		<path class="st9" d="M279,58.2H175.2c-1.8,0-3.3-1.5-3.3-3.3V35c0-1.8,1.5-3.3,3.3-3.3H279c1.8,0,3.3,1.5,3.3,3.3v19.9
			C282.3,56.7,280.8,58.2,279,58.2z"/>
		<path class="st9" d="M265.7,30H162c-1.8,0-3.3-1.5-3.3-3.3V6.9c0-1.8,1.5-3.3,3.3-3.3h103.8c1.8,0,3.3,1.5,3.3,3.3v19.9
			C269.1,28.5,267.6,30,265.7,30z"/>
		<path class="st9" d="M295.5,3.6H191.8c-1.8,0-3.3-1.5-3.3-3.3v-19.9c0-1.8,1.5-3.3,3.3-3.3h103.8c1.8,0,3.3,1.5,3.3,3.3V0.2
			C298.8,2.1,297.4,3.6,295.5,3.6z"/>
		<path class="st10" d="M82.2,53.7h-25c-4.6,0-8.3-3.8-8.3-8.3V30.5c0-4.6,3.8-8.3,8.3-8.3h25c4.6,0,8.3,3.8,8.3,8.3v14.9
			C90.5,50.1,86.7,53.7,82.2,53.7z"/>
		<path class="st10" d="M91.5,47.6V28.4c7.6,0,13.7,4.3,13.7,9.6l0,0C105.2,43.3,99.1,47.6,91.5,47.6z"/>
		<path class="st10" d="M71.6,13.3c1-4.1,1.2-7.9-0.7-9.3c-2.2-1.3-6,1.3-6.5,0.7c-0.8-1.2,10.3-7.6,9.1-11.6c-0.5-2-3.8-2.8-7-3.1"
			/>
	</g>
	<g id="Слой_1_5_" class="st3">
		<path class="st11" d="M40-90.9c-1.3,1.8-2.6,3.8-4,5.6"/>
		<path class="st11" d="M117.6-201.7c-1.8,2.5-3.5,5-5.3,7.6"/>
		<path class="st9" d="M299,102.9H9.9c-8.8,0-16.1-7.1-16.1-16.1v-9.9c0-8.8,7.1-16.1,16.1-16.1H299c8.8,0,16.1,7.3,16.1,16.1v9.9
			C314.9,95.6,307.8,102.9,299,102.9z"/>
	</g>
</g>
<g id="Слой_15" class="st0">
	<g class="st3">
		<path class="st12" d="M13.9,38.9c-9.2,0-16.7-7.5-16.7-16.7S4.6,5.5,13.9,5.5h280.8c9.2,0,16.7,7.5,16.7,16.7s-7.5,16.7-16.7,16.7
			H13.9z"/>
		<path class="st13" d="M294.7,7c8.4,0,15.2,6.8,15.2,15.2s-6.8,15.2-15.2,15.2H13.9c-8.4,0-15.2-6.8-15.2-15.2S5.5,7,13.9,7H294.7
			 M294.7,4H13.9C3.8,4-4.4,12.2-4.4,22.2s8.2,18.2,18.2,18.2h280.8c10,0,18.2-8.2,18.2-18.2S304.7,4,294.7,4L294.7,4z"/>
	</g>
	<g class="st3">
		<rect x="123.6" y="39.5" class="st12" width="49.2" height="131.3"/>
		<path class="st13" d="M171.3,41.1v128.2h-46.2V41.1H171.3 M174.3,38H122v134.3h52.3V38L174.3,38z"/>
	</g>
	<g class="st3">
		<rect x="20.4" y="39.5" class="st12" width="14.5" height="131.3"/>
		<path class="st13" d="M33.4,41.1v128.2H22V41.1H33.4 M36.5,38H19v134.3h17.5V38L36.5,38z"/>
	</g>
	<g class="st3">
		<rect x="272.1" y="39.5" class="st12" width="14.5" height="131.3"/>
		<path class="st13" d="M284.9,41.1v128.2h-11.4V41.1H284.9 M288,38h-17.5v134.3H288V38L288,38z"/>
	</g>
	<g class="st3">
		<rect x="20.4" y="39.5" class="st14" width="266" height="22.5"/>
		<path class="st13" d="M284.9,41.1v19.4h-263V41.1H284.9 M288,38H18.9v25.5H288V38L288,38z"/>
	</g>
	<line class="st15" x1="122.4" y1="38" x2="122.4" y2="5.8"/>
	<line class="st15" x1="174.6" y1="38" x2="174.6" y2="5.8"/>
</g>
<g id="Слой_16">
	<g id="Слой_3_2_">
		<path class="st16" d="M20.5,89.3C28,96.1,39,103.7,51.4,103c16.2-0.9,21.1-15,36.1-14.7c15.7,0.3,19.4,16,34.4,15.7
			c14.9-0.3,18.4-16,33.1-16.1c14.6-0.1,18.2,15.3,33.1,15.4c14.9,0.1,18.1-15.3,33.6-15.7c15.6-0.5,20.9,14.9,37.8,16.1
			c11.9,0.8,23.4-5.8,34-15.4"/>
		<path class="st16" d="M39.4,52.3c6.5,6.8,16,14.4,26.8,13.7c14-0.9,18.3-15,31.3-14.7c13.7,0.3,16.8,16,29.8,15.7
			c12.9-0.3,15.9-16,28.7-16.1c12.7-0.1,15.8,15.3,28.7,15.4s15.7-15.3,29-15.7c13.5-0.5,18.1,14.9,32.8,16.1
			c10.3,0.8,20.3-5.8,29.4-15.4"/>
		<path class="st16" d="M58.2,18.1c5.5,6.8,13.6,14.4,22.7,13.7c11.8-0.9,15.4-15,26.4-14.7c11.6,0.3,14.2,16,25.2,15.7
			s13.4-16,24.2-16.1c10.7-0.1,13.4,15.3,24.2,15.4c10.9,0.1,13.3-15.3,24.6-15.7c11.4-0.5,15.3,14.9,27.7,16.1
			c8.7,0.8,17.2-5.8,24.9-15.4"/>
	</g>
	<g id="Слой_4_1_">
		<g id="Слой_5_1_">
			<path d="M309.7,116.5c-0.4-1-1.4-1.8-2.5-1.4c-0.1,0.1-0.3,0.1-0.5,0.2h-0.1c-4.3,0-4.4,6.6-0.2,6.8c0,0.3,0,0.5,0,0.8
				c0.1,2.6,4.2,2.7,4.1,0C310.5,120.6,310.5,118.7,309.7,116.5z"/>
			<path d="M9.9,123.2c-0.1-0.5-0.2-1-0.2-1.5c0.1-0.5,0.1-1,0.3-1.6c0.1-1.2,0.1-2.3,0.1-3.5c0-2.5-3.6-2.6-4-0.4
				c-0.2,0.3-0.3,0.7-0.3,1.1c-0.1,1.4-0.2,3.1-0.1,4.7c0,0.8,0.1,1.6,0.3,2.5c0.6,2.1,3.4,1.7,4,0.1
				C10.1,124.2,10.1,123.7,9.9,123.2z"/>
		</g>
	</g>
	<g id="Слой_1_6_">
		<path class="st17" d="M7.2,117"/>
		<path class="st18" d="M302,169.7H14c-3.8,0-6.8-3.1-6.8-6.8v-39c0-3.8,3.1-6.8,6.8-6.8h288c3.8,0,6.8,3.1,6.8,6.8v39
			C308.8,166.7,305.7,169.7,302,169.7z"/>
		<path class="st19" d="M7.9,116.1l1-1.8L63.7,7.7h188.4l53.5,105.2l1.6,3.2C307.4,121.5,7.9,121.5,7.9,116.1z"/>
	</g>
	<g id="Слой_2_3_">
	</g>
</g>
</svg>
