<svg width="1000" height="1000" viewBox="0 0 1000 1000" fill="none" xmlns="http://www.w3.org/2000/svg">
<path d="M499.696 0C223.708 0 0 223.708 0 499.696C0 648.632 65.0456 781.763 167.781 873.556L258.359 319.149C262.006 296.049 272.34 277.204 288.754 262.006C305.167 247.416 325.228 239.514 348.328 239.514C368.997 239.514 386.626 245.593 401.216 258.359C415.805 271.125 425.532 287.538 431.003 307.599L498.48 592.705H501.52L568.389 307.599C573.252 287.538 582.979 271.125 598.176 258.359C613.374 245.593 631.003 238.906 651.672 238.906C674.772 238.906 694.833 246.201 711.246 261.398C727.66 275.988 737.994 295.441 741.641 318.541L797.568 665.046C800.608 682.067 801.824 694.833 801.824 703.951C801.824 741.033 784.194 759.271 749.544 759.271C729.483 759.271 714.286 751.368 705.167 735.562C698.48 725.228 693.617 708.815 689.97 685.106L646.201 407.295H644.377L578.723 665.046C572.036 691.185 564.134 710.03 555.015 721.581C542.249 737.386 523.404 745.897 500.304 745.897C476.596 745.897 458.359 737.994 445.593 721.581C436.474 710.638 429.179 691.793 421.884 665.046L355.623 408.511H354.407L273.556 910.638C271.733 922.796 269.301 933.739 266.869 942.249C336.778 979.331 415.805 1000 500.304 1000C776.292 1000 1000 776.292 1000 500.304C1000 223.708 775.684 0 499.696 0Z" fill="#82B1D8"/>
</svg>
