<?xml version="1.0" encoding="utf-8"?>
<!-- Generator: Adobe Illustrator 21.1.0, SVG Export Plug-In . SVG Version: 6.00 Build 0)  -->
<svg version="1.1" id="Слой_1" xmlns="http://www.w3.org/2000/svg" xmlns:xlink="http://www.w3.org/1999/xlink" x="0px" y="0px"
	 viewBox="0 0 169.3 294" style="enable-background:new 0 0 169.3 294;" xml:space="preserve">
<style type="text/css">
	.st0{display:none;}
	.st1{display:inline;fill:#9AC6E5;}
	.st2{display:inline;fill:#333333;}
	.st3{display:inline;}
	.st4{fill:#9AC6E5;}
	.st5{display:inline;fill:#FFFFFF;stroke:#000000;stroke-width:5;stroke-miterlimit:10;}
	.st6{display:inline;fill:none;stroke:#000000;stroke-width:5;stroke-miterlimit:10;}
	.st7{display:inline;fill:#FFFFFF;}
	.st8{fill:#68B9DD;}
	.st9{fill:none;stroke:#353333;stroke-width:5;stroke-miterlimit:10;}
	.st10{fill:none;stroke:#9AC6E5;stroke-width:5;stroke-miterlimit:10;}
	.st11{fill:#333333;}
	.st12{fill:#FFFFFF;stroke:#000000;stroke-width:10;stroke-miterlimit:10;}
	.st13{stroke:#000000;stroke-width:10;stroke-miterlimit:10;}
	.st14{fill:#8BBAF2;stroke:#000000;stroke-width:10;stroke-miterlimit:10;}
	.st15{display:inline;fill:none;stroke:#000000;stroke-width:10;stroke-miterlimit:10;}
	.st16{fill:none;stroke:#9AC6E5;stroke-width:10;stroke-miterlimit:10;}
	.st17{fill:none;stroke:#000000;stroke-width:15;stroke-miterlimit:10;}
	.st18{fill:#9AC6E5;stroke:#000000;stroke-width:15;stroke-miterlimit:10;}
	.st19{display:inline;fill:none;stroke:#000000;stroke-width:15;stroke-miterlimit:10;}
	.st20{fill:none;stroke:#333333;stroke-width:10;stroke-miterlimit:10;}
</style>
<g id="Слой_1_1_" class="st0">
	<rect x="-119" y="-18" class="st1" width="305" height="15"/>
	<path class="st2" d="M180.3-26h-293.6c-8.6,0-15.7,7.1-15.7,15.7c0,8.7,7.1,15.7,15.7,15.7h293.5c8.7,0,15.7-7.1,15.7-15.7
		C196-18.9,188.9-26,180.3-26z M180.3-5h-293.6c-2.9,0-5.2-2.4-5.2-5.2s2.3-5.2,5.2-5.2h293.5c2.9,0,5.2,2.4,5.2,5.2
		S183.2-5,180.3-5z"/>
	<path class="st2" d="M33.5,141.7c-37.6,0-68.1,30.6-68.1,68.1c0,37.6,30.6,68.1,68.1,68.1c37.6,0,68.1-30.6,68.1-68.1
		S71.1,141.7,33.5,141.7z M90.9,215.1c-1.1,12-5.8,22.9-13.1,31.6l-10.9-10.9l-7.4,7.4l10.9,10.9c-10,8.3-22.9,13.4-36.9,13.4
		s-26.9-5-36.9-13.4l10.9-10.9l-7.4-7.4l-10.9,10.9c-7.3-8.7-12-19.7-13.1-31.6h15.5v-10.5h-15.5c1.1-12,5.8-22.9,13.1-31.6
		l10.9,10.9l7.4-7.4l-10.9-10.9c8.7-7.3,19.7-12,31.6-13.1V168h10.5v-15.5c12,1.1,22.9,5.8,31.6,13.1l-10.9,10.9l7.4,7.4L77.7,173
		c7.3,8.7,12,19.7,13.1,31.6H75.3v10.5H90.9z"/>
	<path class="st2" d="M45.2,187.3c-1.5-5.2-6.3-8.8-11.7-8.8s-10.2,3.6-11.7,8.8l-8.5,29.8c-0.5,1.7-0.7,3.5-0.7,5.2
		c0,10.5,8.5,19,19,19h3.9c10.5,0,19-8.5,19-19c0-1.8-0.2-3.5-0.7-5.2L45.2,187.3z M35.4,230.9h-3.9c-4.7,0-8.6-3.8-8.6-8.6
		c0-0.8,0.1-1.6,0.3-2.3l8.5-29.8c0.2-0.7,0.9-1.2,1.6-1.2c0.8,0,1.4,0.5,1.6,1.2l8.5,29.8c0.2,0.8,0.3,1.6,0.3,2.3
		C44,227,40.1,230.9,35.4,230.9z"/>
	<path class="st2" d="M162.5,210.5c-3.8-38.4-30-71.5-66.5-84.2l-0.8-0.3H-28.2l-0.8,0.3C-65.6,139-91.7,172-95.5,210.5l-7.2,71.8
		c-0.1,0.5-0.1,1-0.1,1.6c0,8.4,6.8,15.2,15.2,15.2h242.1c8.4,0,15.2-6.8,15.2-15.2c0-0.5,0-1-0.1-1.5L162.5,210.5z M154.6,288.5
		H-87.6c-2.6,0-4.7-2.1-4.7-5.2l7.2-71.8c3.4-34.1,26.4-63.5,58.7-75H93.4c32.3,11.5,55.3,40.9,58.7,75l7.2,71.8v0.5
		C159.3,286.4,157.2,288.5,154.6,288.5z"/>
	<path class="st2" d="M175,21.2c0,37.6-30.6,68.1-68.1,68.1H80.7H70.2H-3.2h-10.5h-26.2c-37.6,0-68.1-30.5-68.1-68.1V16h-10.5v5.2
		c0,43.4,35.3,78.6,78.6,78.6h26.2v15.7h10.5V99.8H7.3v15.7h10.5V99.8h31.5v15.7h10.5V99.8h10.5v15.7h10.5V99.8H107
		c43.4,0,78.6-35.3,78.6-78.6V16H175V21.2z"/>
	<path class="st2" d="M-87.1,15.9h-10.4v10.5H-87L-87.1,15.9L-87.1,15.9z"/>
	<path class="st2" d="M17.8,15.9h-94.4v10.5h94.4C17.8,26.4,17.8,15.9,17.8,15.9z"/>
</g>
<g id="Слой_2" class="st0">
	<rect x="-93.8" y="166.3" class="st1" width="253.3" height="34.2"/>
	<path class="st2" d="M188.4,61c-6.6-11.6-27.9-19.3-53.1-19.3c-12.3,0-24.3,1.9-34,5.5c-9.6-3.5-21.5-5.5-34-5.5s-24.3,1.9-34,5.5
		c-9.6-3.5-21.5-5.5-34-5.5s-24.3,1.9-34,5.5c-9.4-3.6-21.4-5.5-33.7-5.5c-25.2,0-46.5,7.7-53.1,19.3c-1.4,2.4-2.2,5.1-2.2,7.7v84.6
		c0,8.7,7.4,15.8,16.5,15.8h7.3v23.8c0,8.7,7.4,15.8,16.5,15.8h13.9v10.8c0,4,3.4,7.3,7.6,7.3h29.7c4.1,0,7.6-3.2,7.6-7.3v-10.8h116
		v10.8c0,4,3.4,7.3,7.6,7.3h29.7c4.1,0,7.6-3.2,7.6-7.3v-10.8h13.9c9.1,0,16.5-7.1,16.5-15.8v-23.8h7.3c9.1,0,16.5-7.1,16.5-15.8
		V68.8C190.6,66.1,189.9,63.4,188.4,61z M-33.6,217.8h-26.6v-9.1h26.5L-33.6,217.8L-33.6,217.8z M127.2,217.8h-26.5v-9.1h26.5V217.8
		z M157.6,192.9c0,3.8-3.2,6.8-7.3,6.8H-83.2c-4.1,0-7.3-3.1-7.3-6.8v-23.8h248.1V192.9z M181.4,153.5c0,3.8-3.2,6.8-7.3,6.8h-281.2
		c-4.1,0-7.3-3.1-7.3-6.8V90.2h78.8c2.5,0,4.6-2,4.6-4.5s-2.1-4.5-4.6-4.5h-78.8V68.8c0-1.1,0.3-2.3,0.9-3.3c0,0,0-0.1,0.1-0.1
		c4.1-7.1,21.2-14.7,45.1-14.7c12,0,23.4,1.9,32.2,5.5c1.2,0.4,2.4,0.4,3.5,0c8.7-3.5,20.2-5.5,32.2-5.5s23.4,1.9,32.2,5.5
		c1.2,0.4,2.4,0.4,3.5,0c8.7-3.5,20.2-5.5,32.2-5.5s23.4,1.9,32.2,5.5c1.2,0.4,2.4,0.4,3.5,0c8.7-3.5,20.2-5.5,32.2-5.5
		c23.9,0,41,7.5,45.1,14.7c0,0,0,0.1,0.1,0.1c0.6,1.1,0.9,2.1,0.9,3.3v12.5H-17.3c-2.5,0-4.6,2-4.6,4.5s2.1,4.5,4.6,4.5h198.7V153.5
		z"/>
	<path class="st2" d="M-45.8,116.5c-1.8-1.8-4.7-1.8-6.5-0.1l-3.2,3l-3.2-3c-1.8-1.8-4.8-1.7-6.5,0.1c-1.8,1.8-1.7,4.6,0.1,6.3
		l3,2.8l-3,2.8c-1.8,1.8-1.9,4.6-0.1,6.3c0.9,0.9,2.1,1.3,3.3,1.3s2.3-0.4,3.2-1.2l3.2-3l3.2,3c0.9,0.9,2.1,1.2,3.2,1.2
		c1.2,0,2.4-0.4,3.3-1.3c1.8-1.8,1.7-4.6-0.1-6.3l-3-2.8l3-2.8C-44,121.1-44,118.2-45.8,116.5z"/>
	<path class="st2" d="M112.8,134.8c0.9,0.9,2.1,1.3,3.3,1.3c1.2,0,2.3-0.4,3.2-1.2l3.2-3l3.2,3c0.9,0.9,2.1,1.2,3.2,1.2
		c1.2,0,2.4-0.4,3.3-1.3c1.8-1.8,1.7-4.6-0.1-6.3l-3-2.8l3-2.8c1.8-1.8,1.9-4.6,0.1-6.3s-4.7-1.8-6.5-0.1l-3.2,3l-3.2-3
		c-1.8-1.8-4.8-1.7-6.5,0.1c-1.8,1.8-1.7,4.6,0.1,6.3l3,2.8l-3,2.8C111.1,130.1,111,132.9,112.8,134.8z"/>
	<path class="st2" d="M23.8,134.8c0.9,0.9,2.1,1.3,3.3,1.3c1.2,0,2.3-0.4,3.2-1.2l3.2-3l3.2,3c0.9,0.9,2.1,1.2,3.2,1.2
		c1.2,0,2.4-0.4,3.3-1.3c1.8-1.8,1.7-4.6-0.1-6.3l-3-2.8l3-2.8c1.8-1.8,1.9-4.6,0.1-6.3s-4.7-1.8-6.5-0.1l-3.2,3l-3.2-3
		c-1.8-1.8-4.8-1.7-6.5,0.1c-1.8,1.8-1.7,4.6,0.1,6.3l3,2.8l-3,2.8C22.1,130.1,22.1,132.9,23.8,134.8z"/>
</g>
<g id="Слой_3" class="st0">
	<g class="st3">
		<g>
			<path d="M97,236.3l-8.3-18.7c-4-9-6-18.6-6-28.4c0-2.9-2.4-5.3-5.3-5.3h-95.8c-2.9,0-5.3,2.4-5.3,5.3v3.5
				c0,10.8-2.6,21.7-7.5,31.3l-5.3,10.7c-5.6,11.2-8.5,23.6-8.5,36.1v19.4c0,2.9,2.4,5.3,5.3,5.3H98.6c2.9,0,5.3-2.4,5.3-5.3V269
				C103.9,257.7,101.5,246.7,97,236.3z M93.2,284.9H-34.4l0,0v-14.1c0-10.8,2.6-21.6,7.4-31.3l5.3-10.6c5.4-10.6,8.3-22.4,8.6-34.3
				h85.3c0.6,9.5,2.9,18.6,6.8,27.4l8.3,18.7c4,9,6,18.6,6,28.4L93.2,284.9L93.2,284.9z"/>
		</g>
	</g>
	<g class="st3">
		<g>
			<path d="M102.6,26.2c-1-1.1-2.5-1.8-4-1.8H-55.6c-1.9,0-3.7,1.1-4.7,2.8s-0.8,3.8,0.2,5.5l20.6,30.8l15.8,126.4
				c0.3,2.7,2.6,4.7,5.3,4.7h95.7c2.7,0,4.9-2,5.3-4.6l21.2-159.5C104,28.9,103.6,27.4,102.6,26.2z M72.6,183.9h-86.3L-29.1,61
				c-0.1-0.8-0.4-1.6-0.9-2.3l-15.8-23.6H92.5L72.6,183.9z"/>
		</g>
	</g>
	<g class="st3">
		<g>
			<path d="M72-2.2h-85.1C-30.7-2.2-45,12.1-45,29.7c0,2.9,2.4,5.3,5.3,5.3H98.6c2.9,0,5.3-2.4,5.3-5.3C103.9,12.1,89.5-2.2,72-2.2z
				 M-33.7,24.4c2.4-9.2,10.7-16,20.6-16H72c9.9,0,18.3,6.8,20.6,16H-33.7z"/>
		</g>
	</g>
	<g class="st3">
		<g>
			<path d="M50.7-23.4H8.2c-2.9,0-5.3,2.4-5.3,5.3V3.1c0,2.9,2.4,5.3,5.3,5.3h42.6C53.7,8.4,56,6,56,3.1v-21.2
				C56-21.1,53.7-23.4,50.7-23.4z M45.4-2.2H13.5v-10.6h31.9V-2.2z"/>
		</g>
	</g>
	<g class="st3">
		<g>
			<path d="M141.1,45.7H98.5v10.7h42.6c2.9,0,5.3,2.4,5.3,5.3V149c0.1,2.5-1.7,4.7-4.1,5.3l-60.9,13.8l2.4,10.3l60.9-13.8
				c7.4-1.7,12.5-8.4,12.3-15.8V61.6C157,52.8,149.9,45.7,141.1,45.7z"/>
		</g>
	</g>
	<g class="st3">
		<g>
			<path d="M130.5,67H93.3v10.7h31.9v59.6L81.5,147l2.3,10.4l47.9-10.7c2.4-0.6,4.2-2.7,4.2-5.2V72.3C135.8,69.3,133.4,67,130.5,67z
				"/>
		</g>
	</g>
	<g class="st3">
		<g>
			<g>
				
					<rect x="0.2" y="56.3" transform="matrix(0.9989 -4.759365e-02 4.759365e-02 0.9989 -5.3338 0.3914)" class="st4" width="10.7" height="111.8"/>
			</g>
		</g>
	</g>
	<g class="st3">
		<g>
			<g>
				
					<rect x="-2.5" y="106.8" transform="matrix(4.779181e-02 -0.9989 0.9989 4.779181e-02 -61.1845 160.0611)" class="st4" width="111.8" height="10.7"/>
			</g>
		</g>
	</g>
	<g class="st3">
		<g>
			<g>
				<path class="st4" d="M29.4,215.8c-14.6,0-26.6,11.9-26.6,26.6c0,14.7,11.9,26.6,26.6,26.6C44,269,56,257.1,56,242.4
					C56,227.7,44.1,215.8,29.4,215.8z M29.4,258.4c-8.8,0-16-7.2-16-16s7.2-16,16-16s16,7.2,16,16S38.2,258.4,29.4,258.4z"/>
			</g>
		</g>
	</g>
</g>
<g id="Слой_4" class="st0">
	<g id="Слой_2_1_" class="st3">
		<g>
			<path class="st4" d="M43.5,233.9H29.2c-3.4,0-6.2-2.8-6.2-6.2V56.5c0-3.4,2.8-6.2,6.2-6.2h14.3c3.4,0,6.2,2.8,6.2,6.2v171.2
				C49.7,231.1,46.9,233.9,43.5,233.9z"/>
			<path class="st4" d="M64,15.5H8.8c-3.4,0-6.2-2.8-6.2-6.2V5.6c0-3.4,2.8-6.2,6.2-6.2H64c3.4,0,6.2,2.8,6.2,6.2v3.7
				C70.2,12.7,67.4,15.5,64,15.5z"/>
		</g>
	</g>
	<g id="Слой_1_2_" class="st3">
		<g id="outline">
			<path d="M114.7,201.5c-1.2-53.5-3.8-107.7-7.8-160.9L97,41.3c4,53,6.6,107,7.8,160.3L114.7,201.5z"/>
			<path d="M180,112.6V32.9c0-2.7-2.2-5-5-5h-49.3c-0.1-1.7-0.2-3.3-0.4-5v-0.4c-0.2-2.4-2-4.3-4.4-4.5c-15-1.7-30.1-2.9-45.2-3.7
				V-1.8c0-2.7-2.2-5-5-5H1.3c-2.7,0-5,2.2-5,5V14c-18.4,0.8-36.9,2.1-55.2,4.2c-2.4,0.4-4.2,2.5-4.4,5c-0.1,1.7-0.2,3.3-0.4,5
				h-34.4c-2.7,0-5,2.2-5,5c0,0.2,0,0.4,0.1,0.6c3.4,26.9,13.7,52.4,29.9,74.1l3.8,5c-2.7,51.4-4,101.6-4,153.5c0,2.7,2.2,5,5,5h5
				V286c0,2.7,2.2,5,5,5h178.7c2.7,0,5-2.2,5-5v-14.9h5c2.7,0,5-2.2,5-5c0-19.2-0.2-38.1-0.6-57l8.9-8.9
				C167,177.2,180.1,145.5,180,112.6z M128,57.7h22.2v52.2c0,19.3-5.8,38.2-16.7,54.1C132.4,129,130.6,93.9,128,57.7z M6.3,3.1h59.6
				v10.8C46,13,26.2,12.9,6.3,13.5C6.3,13.5,6.3,3.1,6.3,3.1z M0.9,23.7c0.1,0,0.2,0.1,0.4,0.1s0.3-0.1,0.5-0.1
				c22.8-0.8,45.5-0.7,68.3,0.4c0.2,0.1,0.4,0.1,0.7,0.1c0.1,0,0.3-0.1,0.4-0.1c14.9,0.7,29.7,1.9,44.5,3.5
				c6.5,81.1,9.5,155.6,9.6,233.7H-63.2c0.1-78,3.2-152.4,9.6-233.8C-35.5,25.5-17.3,24.3,0.9,23.7z M-92.2,37.9h27.9
				c-1.5,20-2.9,39.7-3.9,59.1C-80.5,79.3-88.7,59.1-92.2,37.9z M115.5,281.1H-53.3v-9.9h168.8V281.1z M134.5,195.5
				c-0.1-5.3-0.2-10.5-0.4-15.8c16.8-19.4,26.1-44.1,26.1-69.7V52.8c0-2.7-2.2-5-5-5h-27.9c-0.2-3.3-0.5-6.6-0.7-9.9h43.6v74.8
				c0.1,30.3-12,59.4-33.4,80.7L134.5,195.5z"/>
			<path d="M36.1,241.4c11,0,19.9-8.9,19.9-19.9V62.7c0-11-8.9-19.9-19.9-19.9s-19.9,8.9-19.9,19.9v158.8
				C16.2,232.5,25.1,241.4,36.1,241.4z M26.1,62.7c0-5.5,4.5-9.9,9.9-9.9c5.5,0,9.9,4.5,9.9,9.9v158.8c0,5.5-4.5,9.9-9.9,9.9
				c-5.5,0-9.9-4.5-9.9-9.9V62.7z"/>
		</g>
	</g>
	<circle class="st1" cx="109.5" cy="215.1" r="5.2"/>
</g>
<g id="Слой_5" class="st0">
	<path class="st5" d="M140.4,169.8H52.5c-13.7,0-24.9-11.2-24.9-24.9V114c0-13.7,11.2-24.9,24.9-24.9h87.9
		c13.7,0,24.9,11.2,24.9,24.9v31C165.3,158.6,154.1,169.8,140.4,169.8z"/>
	<path class="st5" d="M10.2,229.3v-64.5c0-8.4,6.9-15.3,15.3-15.3h142c8.4,0,15.3,6.9,15.3,15.3v64.5
		C182.7,237.6,10.2,237.6,10.2,229.3z"/>
	<polygon class="st5" points="30.8,242.7 10.3,242.7 10.3,232.5 37.5,232.5 	"/>
	<polygon class="st5" points="162.1,242.7 182.7,242.7 182.7,232.5 155.4,232.5 	"/>
	<rect x="7.5" y="227" class="st5" width="177.5" height="7"/>
	<line class="st6" x1="10.2" y1="169.8" x2="182.7" y2="169.8"/>
	<path class="st7" d="M-82.4,15.7l-17,45.7h77.9l-15.2-45.7C-36.7,15.7-82.4,15.7-82.4,15.7z"/>
	<path class="st5" d="M-12.8,113.8h-31.5v-3.9c0-6.5-5.3-11.8-11.8-11.8V66.6h19.7v6.9l-3.9,7.9c-1.8,3.7-0.9,8.2,2.3,10.8
		c3.2,2.6,7.8,2.6,11,0s4.2-7.1,2.3-10.8l-3.9-7.9v-6.9h7.9c1.3,0,2.5-0.6,3.2-1.6s0.9-2.3,0.5-3.5l-14-41.8
		c-1.6-4.8-6.1-8.1-11.2-8.1h-35.9c-5.1,0-9.6,3.3-11.2,8.1l-14,41.8c-0.4,1.2-0.2,2.5,0.5,3.5s1.9,1.6,3.2,1.6h35.4V98
		c-6.5,0-11.8,5.3-11.8,11.8v3.9h-31.5c-6.5,0-11.8,5.3-11.8,11.8v118c0,2.2,1.8,3.9,3.9,3.9h15.7c2.2,0,3.9-1.8,3.9-3.9v-11.8H-25
		v11.8c0,2.2,1.8,3.9,3.9,3.9h15.7c2.2,0,3.9-1.8,3.9-3.9v-118C-1,119.1-6.3,113.8-12.8,113.8z M-31.7,85.8c-0.4,0.4-1.1,0.4-1.6,0
		c-0.2-0.3-0.2-0.6,0-0.9l0.8-1.7l0.8,1.7C-31.5,85.2-31.5,85.5-31.7,85.8z M-111.1,168.8H-8.8v39.3h-102.3
		C-111.1,208.1-111.1,168.8-111.1,168.8z M-67.9,109.8c0-2.2,1.8-3.9,3.9-3.9h7.9c2.2,0,3.9,1.8,3.9,3.9v3.9h-15.7L-67.9,109.8
		L-67.9,109.8z M-111.1,125.6c0-2.2,1.8-3.9,3.9-3.9h94.4c2.2,0,3.9,1.8,3.9,3.9V161h-102.2C-111.1,161-111.1,125.6-111.1,125.6z"/>
	<path class="st1" d="M-56.1,129.5H-64c-2.2,0-3.9,1.8-3.9,3.9c0,2.2,1.8,3.9,3.9,3.9h7.9c2.2,0,3.9-1.8,3.9-3.9
		C-52.1,131.3-53.9,129.5-56.1,129.5z"/>
	<path class="st1" d="M-56.1,176.7H-64c-2.2,0-3.9,1.8-3.9,3.9s1.8,3.9,3.9,3.9h7.9c2.2,0,3.9-1.8,3.9-3.9S-53.9,176.7-56.1,176.7z"
		/>
	<g class="st3">
		<g>
			<path d="M112.1,137.1c-0.6-1.1-1.6-1.8-2.8-2.1c-0.3-0.1-0.6-0.1-0.9-0.1c0-0.4,0.1-0.8,0.1-1.3s0-1.1-0.1-1.6
				c2.2-0.3,3.8-2.1,3.8-4.2c0-2.4-2-4.3-4.4-4.3c-0.2,0-0.5,0-0.7,0.1c0.5-1.2,0.8-2.5,0.8-3.9c0-0.9-0.1-1.8-0.3-2.7
				c1.8-0.7,2.9-2.4,2.9-4.4c0-2.6-2.2-4.8-4.9-4.8c-1.7,0-3.2,0.8-4.1,2.1c-1.4-0.6-3-1-4.6-1s-3.2,0.3-4.6,1
				c-0.9-1.3-2.4-2.1-4.1-2.1c-2.7,0-4.9,2.1-4.9,4.8c0,1.9,1.2,3.6,2.9,4.4c-0.2,0.9-0.3,1.8-0.3,2.6c0,1.4,0.3,2.7,0.8,3.9
				c-0.2,0-0.5-0.1-0.7-0.1c-2.5,0-4.4,1.9-4.4,4.3c0,2.2,1.7,4,3.8,4.2c-0.1,0.5-0.1,1.1-0.1,1.6c0,0.4,0,0.9,0.1,1.3h-0.1
				c-0.4,0-0.8,0-1.2,0.1c-1.2,0.3-2.1,1-2.8,2.1c-1.1,1.9-1,4.7-0.5,6.7c0.6,2.3,2.8,3.9,5.3,3.9c0.1,0,0.2,0,0.3,0l0,0l0,0l0,0
				c2-0.1,3.8-1.3,4.7-3.1c1.8,1.1,3.7,1.7,5.8,1.7c2,0,3.9-0.5,5.6-1.5c0,0.1,0.1,0.1,0.1,0.2c0.7,1.3,1.9,2.2,3.4,2.6
				c0.5,0.1,0.9,0.2,1.4,0.2c2.5,0,4.7-1.6,5.3-3.9C113.2,141.8,113.2,139,112.1,137.1z M84.7,112.6c0-1.8,1.5-3.2,3.4-3.2
				c1.3,0,2.5,0.7,3.1,1.9c0.1,0.2,0.3,0.3,0.5,0.4s0.4,0,0.6,0c1.4-0.7,3-1.1,4.6-1.1s3.2,0.4,4.6,1.1c0.2,0.1,0.4,0.1,0.6,0
				s0.4-0.2,0.5-0.4c0.5-1.2,1.8-1.9,3.1-1.9c1.9,0,3.4,1.4,3.4,3.2c0,1.2-0.8,2.4-1.9,2.9c-0.2-0.4-0.4-0.8-0.6-1.2
				c-0.2-0.4-0.7-0.5-1.1-0.3s-0.5,0.7-0.3,1.1c0.3,0.5,0.6,1.1,0.8,1.7l0,0c0.3,0.9,0.5,1.9,0.5,2.8c0,4.7-3.8,8.7-8.7,9v-5.8
				c1.1-0.4,1.9-1.6,1.9-2.6c0-0.6-0.3-1.9-2.7-1.9s-2.7,1.3-2.7,1.9c0,1,0.8,2.2,1.9,2.6v5.8c-4.9-0.4-8.7-4.3-8.7-9
				c0-1,0.2-2,0.5-2.9c0.1-0.2,0.1-0.4-0.1-0.6c-0.1-0.2-0.3-0.3-0.5-0.4C85.8,115.3,84.7,114,84.7,112.6z M96.8,134.6
				c-0.4,0-0.8,0.3-0.8,0.8v2.4c-2.6-0.4-4.7-2.7-4.7-5.4c0-1.1,0.3-2.2,1-3.1c1.4,0.6,2.9,0.9,4.5,0.9s3.1-0.3,4.5-0.9
				c0.6,0.9,1,2,1,3.1c0,2.7-2,5-4.7,5.4v-2.4C97.6,135,97.2,134.6,96.8,134.6z M95.7,120.2c0-0.1,0-0.1,0.1-0.2s0.4-0.2,1-0.2
				s0.9,0.1,1,0.2s0.1,0.1,0.1,0.2c0,0.4-0.5,1.2-1.1,1.2C96.2,121.4,95.7,120.7,95.7,120.2z M89.4,144.2c-0.5,0.9-1.4,1.6-2.4,1.8
				c-0.3,0.1-0.5,0.1-0.8,0.1l0,0c-0.1,0-0.2,0-0.3,0c-1.8,0-3.4-1.2-3.8-2.8s-0.5-4,0.3-5.5c0.4-0.7,1-1.2,1.8-1.4
				c0.3-0.1,0.5-0.1,0.8-0.1s0.5,0,0.8,0.1l0,0c2,0.6,3.5,3.2,3.9,4.9C90.1,142.4,89.9,143.4,89.4,144.2z M101.9,141
				c-0.2,0.8-0.2,1.6-0.1,2.3c-1.5,1-3.3,1.5-5,1.5c-1.9,0-3.8-0.6-5.4-1.7c0.1-0.7,0-1.4-0.1-2.1c-0.6-2-2.2-4.9-4.5-5.8
				c-0.1-0.5-0.1-1.1-0.1-1.6c0-0.7,0.1-1.5,0.2-2.2c0-0.2,0-0.5-0.2-0.7s-0.4-0.3-0.6-0.3c-0.1,0-0.1,0-0.2,0
				c-1.6,0-2.9-1.2-2.9-2.7s1.3-2.7,2.9-2.7c0.8,0,1.5,0.3,2,0.8c0.8,1.1,1.9,2.1,3.1,2.8c-0.7,1.1-1.1,2.5-1.1,3.8c0,3.9,3.1,7,7,7
				s7-3.1,7-7c0-1.4-0.4-2.7-1.1-3.8c1.2-0.7,2.3-1.7,3.1-2.8c0.5-0.5,1.3-0.8,2-0.8c1.6,0,2.9,1.2,2.9,2.7s-1.3,2.7-2.9,2.7
				c-0.1,0-0.1,0-0.2,0c-0.2,0-0.5,0.1-0.6,0.3c-0.2,0.2-0.2,0.4-0.2,0.7c0.1,0.7,0.2,1.5,0.2,2.2c0,0.5,0,1-0.1,1.4
				C104.3,135.8,102.5,138.8,101.9,141z M111.1,143.3c-0.5,1.6-2,2.8-3.8,2.8c-0.3,0-0.7,0-1-0.1c-1.1-0.3-1.9-0.9-2.4-1.8
				s-0.6-1.8-0.4-2.8c0.5-1.8,2.1-4.6,4.3-5l0,0c0.1,0,0.3,0,0.5,0c0.3,0,0.5,0,0.8,0.1c0.8,0.2,1.4,0.7,1.8,1.4
				C111.6,139.4,111.6,141.8,111.1,143.3z"/>
		</g>
	</g>
	<g class="st3">
		<g>
			<path class="st8" d="M102.7,114.6c-0.7,0-1.3,0.6-1.3,1.3c0,0.7,0.6,1.3,1.3,1.3s1.3-0.6,1.3-1.3S103.4,114.6,102.7,114.6z"/>
		</g>
	</g>
	<g class="st3">
		<g>
			<path class="st8" d="M92.9,114.6c-0.7,0-1.3,0.6-1.3,1.3c0,0.7,0.6,1.3,1.3,1.3s1.3-0.6,1.3-1.3S93.6,114.6,92.9,114.6z"/>
		</g>
	</g>
	<g class="st3">
		<g>
			<path d="M105.8,110.2L105.8,110.2c-0.3-0.3-0.8-0.3-1.1,0s-0.3,0.8,0,1.1l0,0c0.2,0.2,0.4,0.2,0.5,0.2c0.2,0,0.4-0.1,0.6-0.2
				C106.1,111,106.1,110.5,105.8,110.2z"/>
		</g>
	</g>
	<g class="st3">
		<g>
			<path class="st8" d="M97.8,130.4c-0.4,0-0.8,0.3-0.8,0.8l0,0c0,0.4,0.3,0.8,0.8,0.8c0.4,0,0.8-0.3,0.8-0.8l0,0
				C98.6,130.7,98.2,130.4,97.8,130.4z"/>
		</g>
	</g>
</g>
<g id="Слой_6" class="st0">
	<rect x="-72.3" y="148" class="st1" width="101.6" height="40.3"/>
	<rect x="33.7" y="148" class="st1" width="106" height="40.3"/>
	<path class="st2" d="M-5.1,101.8v-7.9c0-2.5-2.1-4.6-4.6-4.6s-4.6,2.1-4.6,4.6v7.9c0,2.5,2.1,4.6,4.6,4.6S-5.1,104.4-5.1,101.8z
		 M74.1,101.6c0-2.5,2-4.6,4.6-4.6c2.5,0,4.6,2,4.6,4.6s2.1,4.6,4.6,4.6s4.6-2.1,4.6-4.6c0-7.6-6.2-13.9-13.9-13.9
		s-13.9,6.2-13.9,13.9c0,2.5,2.1,4.6,4.6,4.6C72,106.3,74.1,104.1,74.1,101.6z M146.3,92.9C142.9,71.6,124.5,55,101.8,55H-29.5
		c-2.5,0-4.6,2.1-4.6,4.6s2.1,4.6,4.6,4.6h131.3c18.3,0,33.3,13.7,35.5,31.4c-13.6,6.2-23.2,20.2-23.2,36.3v8.2H52.4
		c-7.7,0-14.5,3.7-18.8,9.4c-4.3-5.7-11.1-9.4-18.8-9.4h-61.7V132c0-16.1-9.6-30-23.2-36.3c1.6-12.3,9.5-23.2,20.9-28.3
		c2.4-1.1,3.4-3.8,2.4-6.1s-3.8-3.4-6.1-2.4c-13.8,6.2-23.6,19.2-26,34c-23.6-4.3-46,13.8-46,38.5c0,14.6,8.1,27.8,20.8,34.6v29.4
		c0,16.1,12.6,29.3,28.5,30.2v8.9c0,6.2,5,11.2,11.2,11.2h20.8c6.2,0,11.2-5,11.2-11.2v-8.8H99.8v8.8c0,6.2,5,11.2,11.2,11.2h20.8
		c6.2,0,11.2-5,11.2-11.2v-8.9c3.8-0.2,7.5-1.1,11-2.8c2.4-1.1,3.3-3.8,2.2-6.2s-3.8-3.3-6.2-2.2c-2.8,1.3-5.8,1.9-8.9,1.9h-215
		c-11.6,0-21-9.4-21-21V163c0-1.9-1.1-3.5-2.8-4.3c-10.9-4.7-18-15.5-18-27.4c0-16.6,13.6-30.1,30.4-29.8
		c16.2,0.2,29.3,13.9,29.3,30.4v8.2h-0.4c-12.9,0-23.4,10.5-23.4,23.4v15.6c0,8.7,7.1,15.8,15.8,15.8h86.6c4.3,0,8.3-1.7,11.2-4.6
		c2.9,2.9,6.8,4.6,11.2,4.6h86.6c8.7,0,15.8-7.1,15.8-15.8v-15.6c0-12.9-10.5-23.4-23.4-23.4h-0.4v-8.2c0-16.5,13.1-30.1,29.3-30.4
		c16.6-0.3,30.4,13.1,30.4,29.8c0,11.9-7.1,22.6-18,27.4c-1.7,0.7-2.8,2.4-2.8,4.3c-0.2,32.7,0.4,33.1-0.6,37.4
		c-0.7,2.9,1.5,5.8,4.5,5.8c2.1,0,4-1.4,4.5-3.5c1.5-6,0.6-7.9,0.9-36.7c12.7-6.8,20.8-20,20.8-34.6
		C192.3,106.7,169.9,88.5,146.3,92.9z M109.1,225.7h24.7v8.8c0,1.1-0.9,1.9-1.9,1.9H111c-1.1,0-1.9-0.9-1.9-1.9V225.7L109.1,225.7z
		 M-66.4,225.7h24.7v8.8c0,1.1-0.9,1.9-1.9,1.9h-20.8c-1.1,0-1.9-0.9-1.9-1.9L-66.4,225.7L-66.4,225.7z M29,179.1
		c0,3.6-2.9,6.5-6.5,6.5h-86.6c-3.6,0-6.5-2.9-6.5-6.5v-15.6c0-7.8,6.3-14.1,14.1-14.1h71.4c7.8,0,14.1,6.3,14.1,14.1L29,179.1
		L29,179.1z M123.8,149.4c7.8,0,14.1,6.3,14.1,14.1v15.6c0,3.6-2.9,6.5-6.5,6.5H44.8c-3.6,0-6.5-2.9-6.5-6.5v-15.6
		c0-7.8,6.3-14.1,14.1-14.1H123.8z M33.7,111.6c5.8,0,11.2-2.5,14.9-6.8c1.7-1.9,1.5-4.9-0.4-6.6s-4.9-1.5-6.6,0.4
		c-2,2.3-4.9,3.7-7.9,3.7s-5.9-1.3-7.9-3.7c-1.7-1.9-4.6-2.1-6.6-0.4c-1.9,1.7-2.1,4.6-0.4,6.6C22.4,109.2,27.9,111.6,33.7,111.6z"
		/>
</g>
<g id="Слой_7" class="st0">
	<rect x="-51.6" y="242.3" class="st1" width="19.7" height="47.1"/>
	<rect x="122.1" y="243.1" class="st1" width="19.7" height="47.1"/>
	<path class="st2" d="M125,52.9c-2.7-14.9-15.8-26.2-31.6-26.2h-3.9c0.3-2.1,0.4-4.3,0.4-6.4c0-24.7-20.2-44.9-44.9-44.9
		S0.2-4.5,0.2,20.3c0,2.1,0.2,4.3,0.4,6.4h-3.9C-18.9,26.8-32,38-34.8,52.9C-49.7,55.8-61,68.9-61,84.5v207.1c0,3.5,2.9,6.4,6.4,6.4
		h25.7c3.5,0,6.4-2.9,6.4-6.4V245h135.2v46.6c0,3.5,2.9,6.4,6.4,6.4h25.7c3.5,0,6.4-2.9,6.4-6.4V84.5
		C151.2,68.9,139.9,55.8,125,52.9z M45.1-11.8c5.8,0,11.3,1.5,16,4.3c-3.5,5.2-9.5,8.6-16,8.6s-12.5-3.3-16-8.6
		C33.8-10.2,39.3-11.8,45.1-11.8z M19.4,1.1c6,8,15.4,12.8,25.7,12.8S64.8,9,70.8,1.1c4,5.4,6.4,12.1,6.4,19.3
		c0,17.7-14.4,32.1-32.1,32.1S13,38,13,20.3C13,13.1,15.4,6.5,19.4,1.1z M-22.5,58.8c0-10.6,8.6-19.3,19.3-19.3h7.8
		c7.2,15.1,22.7,25.7,40.6,25.7s33.4-10.5,40.6-25.7h7.8c10.6,0,19.3,8.6,19.3,19.3v44.9H90v-2.1c0-13-10.5-23.5-23.5-23.5H23.7
		c-13,0-23.5,10.5-23.5,23.5v2.1h-22.7V58.8z M77.2,101.6v2.1H13v-2.1c0-5.9,4.8-10.7,10.7-10.7h42.8
		C72.4,90.9,77.2,95.7,77.2,101.6z M-48.2,84.5c0-8.4,5.4-15.5,12.8-18.1v38c-4.7,0.9-9.1,3-12.8,5.8V84.5z M-35.3,285.2h-12.8V245
		h12.8V285.2z M138.4,285.2h-12.8V245h12.8V285.2z M138.4,232.1H-48.2v-57.8c0-10.6,8.6-19.3,19.3-19.3h148
		c10.6,0,19.3,8.6,19.3,19.3V232.1z M138.4,148.7c-5.4-4-12.1-6.4-19.3-6.4h-148c-7.2,0-13.9,2.4-19.3,6.4v-12.8
		c0-10.6,8.6-19.3,19.3-19.3h148c10.6,0,19.3,8.6,19.3,19.3V148.7z M138.4,110.2c-3.8-2.8-8.1-4.8-12.8-5.8V66.3
		c7.4,2.7,12.8,9.8,12.8,18.1V110.2z"/>
	<g id="Слой_1_3_" class="st3">
		<g id="oven-food-cooking">
			<path d="M7.7,112h-222.3c-6.8,0-12.4,5.6-12.4,12.3v218.2c0,2.3,1.9,4.1,4.1,4.1h8.2v8.2c0,2.3,1.9,4.1,4.1,4.1h32.9
				c2.3,0,4.1-1.9,4.1-4.1v-8.2h140v8.2c0,2.3,1.9,4.1,4.1,4.1h33c2.3,0,4.1-1.9,4.1-4.1v-8.2h8.2c2.3,0,4.1-1.9,4.1-4.1V124.3
				C20,117.6,14.4,112,7.7,112z M-181.7,350.8h-24.7v-4.1h24.7V350.8z M-0.6,350.8h-24.7v-4.1h24.7C-0.6,346.7-0.6,350.8-0.6,350.8z
				 M11.8,338.4h-230.5V165.5H11.8V338.4z M11.8,157.3h-230.5v-32.9c0-2.3,1.9-4.1,4.1-4.1H7.7c2.3,0,4.1,1.9,4.1,4.1
				C11.8,124.4,11.8,157.3,11.8,157.3z"/>
			<path d="M-4.7,177.9h-197.6c-2.3,0-4.1,1.9-4.1,4.1v140c0,2.3,1.9,4.1,4.1,4.1H-4.7c2.3,0,4.1-1.9,4.1-4.1V182
				C-0.6,179.7-2.4,177.9-4.7,177.9z M-8.8,317.8h-189.4V186.1H-8.8V317.8z"/>
			<path d="M-21.2,284.9h-12.7c-1.3-14.7-7.2-28.6-16.9-39.6l6.7-11.6c6.7,1.2,13.2-3.2,14.4-9.9c0.2-0.8,0.2-1.5,0.2-2.3
				c-0.1-6.8-5.7-12.4-12.5-12.3c-0.8,0-1.6,0.1-2.4,0.3c-0.9-2.9-2.9-5.3-5.5-6.8c-5.9-3.4-13.5-1.4-16.9,4.5
				c-1.6,2.8-2.1,6.2-1.2,9.4c0.5,1.8,1.3,3.4,2.6,4.8l-4.8,8.2c-33.9-18.4-76.4-5.9-94.8,28c-4.6,8.4-7.4,17.7-8.2,27.3h-12.7
				c-2.3,0-4.1,1.9-4.1,4.1v8.2c0,6.8,5.6,12.4,12.3,12.4h148.2c6.8,0,12.4-5.6,12.4-12.4V289C-17,286.8-18.9,284.9-21.2,284.9z
				 M-56.1,219.3c-0.3-1.1-1-2-2-2.5s-1.6-1.4-2-2.5c-0.6-2.2,0.7-4.4,2.9-5s4.4,0.7,5,2.9c0.3,1.1,0.1,2.2-0.4,3.1
				c-1.1,2-0.5,4.5,1.5,5.7c2,1.1,4.5,0.5,5.7-1.5l0,0c1.1-2,3.5-2.6,5.5-1.6c0.1,0.1,0.1,0.1,0.2,0.1c2,1.1,2.7,3.6,1.6,5.6
				c-1.1,2-3.6,2.7-5.6,1.6c-0.1-0.1-0.1-0.1-0.2-0.1c-2-1.1-4.5-0.5-5.7,1.5l-7.2,12.6c-0.5-0.4-0.9-0.7-1.4-1.1
				c-1-0.9-2-1.6-3-2.4c-0.7-0.5-1.3-1.1-2.1-1.6l6.6-11.4C-56,221.6-55.8,220.4-56.1,219.3z M-103.5,229.3
				c16.9,0,33.1,6.9,44.8,19.2h0.1c9.4,9.9,15.3,22.7,16.6,36.3h-102.3c1.1-11.5,7-22,16.3-28.9l-4.9-6.6
				c-11.3,8.4-18.5,21.4-19.6,35.5h-12.2C-161.8,253.4-135.2,229.3-103.5,229.3z M-25.3,297.3c0,2.3-1.9,4.1-4.1,4.1h-148.2
				c-2.3,0-4.1-1.9-4.1-4.1v-4.1h156.4C-25.3,293.2-25.3,297.3-25.3,297.3z"/>
		</g>
	</g>
	<circle class="st1" cx="-198.2" cy="136.7" r="9.9"/>
	<circle class="st1" cx="-172.5" cy="136.7" r="9.9"/>
	<circle class="st1" cx="-146.7" cy="136.7" r="9.9"/>
</g>
<g id="Слой_8" class="st0">
	<g id="Слой_1_4_" class="st3">
		<g id="oven-food-cooking_1_">
			<path d="M170.6-15.9h-274.3c-8.4,0-15.2,6.9-15.2,15.2v269.2c0,2.8,2.3,5.1,5.1,5.1h10.2v10.2c0,2.8,2.3,5.1,5.1,5.1h40.6
				c2.8,0,5.1-2.3,5.1-5.1v-10.2h172.7v10.2c0,2.8,2.3,5.1,5.1,5.1h40.6c2.8,0,5.1-2.3,5.1-5.1v-10.2h10.2c2.8,0,5.1-2.3,5.1-5.1
				V-0.6C185.9-9,179-15.9,170.6-15.9z M-63,278.7h-30.5v-5.1H-63V278.7z M160.5,278.7H130v-5.1h30.5V278.7z M175.7,263.5h-284.4
				V50.2h284.4V263.5z M175.7,40h-284.4V-0.6c0-2.8,2.3-5.1,5.1-5.1h274.3c2.8,0,5.1,2.3,5.1,5.1L175.7,40L175.7,40z"/>
			<path d="M155.4,65.4H-88.4c-2.8,0-5.1,2.3-5.1,5.1v172.7c0,2.8,2.3,5.1,5.1,5.1h243.8c2.8,0,5.1-2.3,5.1-5.1V70.5
				C160.5,67.7,158.2,65.4,155.4,65.4z M150.3,238.1H-83.3V75.6h233.6V238.1z"/>
			<path d="M135.1,197.4h-15.6c-1.6-18.1-8.9-35.2-20.8-48.9l8.3-14.3c8.3,1.5,16.3-3.9,17.8-12.2c0.2-1,0.3-1.8,0.3-2.8
				c-0.1-8.4-7-15.3-15.4-15.2c-1,0-2,0.1-2.9,0.3c-1.1-3.6-3.6-6.5-6.8-8.4c-7.3-4.2-16.6-1.7-20.9,5.5c-2,3.5-2.5,7.6-1.5,11.6
				c0.6,2.2,1.7,4.3,3.2,6l-5.9,10.2C33.1,106.5-19.3,122-42,163.8c-5.7,10.4-9.1,21.8-10.2,33.6h-15.7c-2.8,0-5.1,2.3-5.1,5.1v10.2
				c0,8.4,6.9,15.2,15.2,15.2H125c8.4,0,15.2-6.9,15.2-15.2v-10.2C140.2,199.7,137.9,197.4,135.1,197.4z M92,116.6
				c-0.4-1.3-1.2-2.4-2.4-3.1c-1.2-0.6-2-1.8-2.4-3.1c-0.7-2.7,0.9-5.5,3.6-6.2s5.5,0.9,6.2,3.6c0.3,1.3,0.1,2.7-0.5,3.9
				c-1.4,2.4-0.6,5.6,1.9,7c2.4,1.4,5.6,0.6,7-1.9l0,0c1.3-2.4,4.3-3.2,6.7-2c0.1,0.1,0.1,0.1,0.2,0.1c2.4,1.3,3.3,4.4,2,6.9
				c-1.3,2.4-4.4,3.3-6.9,2c-0.1-0.1-0.1-0.1-0.2-0.1c-2.4-1.4-5.5-0.6-7,1.9l-8.9,15.5c-0.6-0.5-1.1-0.9-1.7-1.4
				c-1.2-1.1-2.5-2-3.7-3c-0.9-0.6-1.7-1.4-2.5-2l8.1-14.1C92.1,119.3,92.3,117.9,92,116.6z M33.5,128.9c20.9,0,40.9,8.6,55.2,23.7
				h0.1c11.6,12.3,18.9,28.1,20.4,44.8H-17c1.3-14.2,8.6-27.1,20.1-35.6l-6.1-8.1c-14,10.4-22.8,26.3-24.1,43.7h-15.1
				C-38.4,158.5-5.6,128.9,33.5,128.9z M130,212.7c0,2.8-2.3,5.1-5.1,5.1H-57.9c-2.8,0-5.1-2.3-5.1-5.1v-5.1h193V212.7z"/>
		</g>
	</g>
	<circle class="st1" cx="-83.3" cy="14.6" r="12.2"/>
	<circle class="st1" cx="-51.6" cy="14.6" r="12.2"/>
	<circle class="st1" cx="-19.8" cy="14.6" r="12.2"/>
</g>
<g id="Слой_9" class="st0">
	<path class="st3" d="M119.5-24H-31.1c-13.8,0-25,11.2-25,25v245.8c0,13.9,11.2,25.1,25.1,25.1h6.3v6.3c0,10.3,8.5,18.8,18.8,18.8
		h6.3c6.9,0,12.5-5.6,12.5-12.5V272h62.7v12.5c0,6.9,5.6,12.5,12.5,12.5h6.3c10.3,0,18.8-8.5,18.8-18.8V272h6.3
		c13.9,0,25.1-11.2,25.1-25.1V1C144.5-12.8,133.3-24,119.5-24z M0.3,284.5H-6c-3.4,0-6.3-2.8-6.3-6.3V272H0.3V284.5L0.3,284.5z
		 M100.6,278.2c0,3.4-2.8,6.3-6.3,6.3H88V272h12.5v6.2H100.6z M132,246.9c0,6.9-5.6,12.5-12.5,12.5H-31.1c-6.9,0-12.5-5.6-12.5-12.5
		V96.4H132V246.9z M132,83.8H-43.6V1c0-6.9,5.6-12.5,12.5-12.5h150.5c6.9,0,12.5,5.6,12.5,12.5v82.8H132z"/>
	<path class="st1" d="M24.5,71.3h-43.9c-6.9,0-12.5-5.6-12.5-12.5v-6.3c0-10.3,8.5-18.8,18.8-18.8h31.4c10.3,0,18.8,8.5,18.8,18.8
		v6.3C37.1,65.6,31.4,71.3,24.5,71.3z M-13.1,46.2c-3.4,0-6.3,2.8-6.3,6.3v6.3h43.9v-6.3c0-3.4-2.8-6.3-6.3-6.3H-13.1z"/>
	<path class="st1" d="M18.2,146.5h-31.4c-10.3,0-18.8-8.5-18.8-18.8v-6.3c0-6.9,5.6-12.5,12.5-12.5h43.9c6.9,0,12.5,5.6,12.5,12.5
		v6.3C37.1,138.1,28.6,146.5,18.2,146.5z M-19.4,121.4v6.3c0,3.4,2.8,6.3,6.3,6.3h31.4c3.4,0,6.3-2.8,6.3-6.3v-6.3
		C24.6,121.4-19.4,121.4-19.4,121.4z"/>
	<path class="st1" d="M112.2,246.9c-3.4,0-6.3-2.8-6.3-6.3v-50.2c0-3.4,2.8-6.3,6.3-6.3s6.3,2.8,6.3,6.3v50.2
		C118.5,244.1,115.6,246.9,112.2,246.9z"/>
	<path class="st1" d="M112.2,171.6c-3.4,0-6.3-2.8-6.3-6.3c0-3.4,2.8-6.3,6.3-6.3l0,0c3.4,0,6.3,2.8,6.3,6.3
		S115.6,171.6,112.2,171.6z"/>
</g>
<g id="Слой_10" class="st0">
	<g id="Page-1" class="st3">
		<g id="_x30_11---Slide-Tower" transform="translate(-1)">
			<path id="Shape" class="st4" d="M-73.4,242.3c-16.7-7.3-16.2-13.6-16.2-15.7c0-3.1-2.1-5.2-4.7-5.7s-5.2,2.1-5.7,4.7
				c-0.5,3.7-1.6,15.7,21.9,26.1c2.6,1,5.7,0,6.8-2.6C-70.3,246.4-70.8,243.8-73.4,242.3z"/>
			<path id="Shape_1_" d="M166.1,297h15.7c5.7,0,10.4-4.7,10.4-10.4V57c0-5.7-4.7-10.4-10.4-10.4h-15.7c-5.7,0-10.4,4.7-10.4,10.4
				v38.1L93.1,59.6V57h10.4c5.7,0,10.4-4.7,10.4-10.4V30.9c0-5.7-4.7-10.4-10.4-10.4H83.7L6.5-15c-2.6-1-5.7-1-8.9,0l-77.8,35.5
				H-100c-5.7,0-10.4,4.7-10.4,10.4v15.7c0,5.7,4.7,10.4,10.4,10.4h10.4v32.4c-19.3,8.3-29.7,20.4-31.3,35
				c-1,13.6,3.7,31.8,31.3,45.4v18.8c-19.3,8.9-29.7,20.4-31.3,35.5c-1,13.6,3.7,31.8,31.3,45.9v16.7c0,5.7,4.7,10.4,10.4,10.4h15.7
				c5.7,0,10.4-4.7,10.4-10.4V282c34.4,7.8,92.9,10.4,144.5,14.6c4.2,0,11,0.5,12,0.5c8.9,0,15.7-7.3,15.7-15.7
				c0-7.8-6.3-14.6-14.1-15.7l-5.7-0.5l56.4-32.4v53.7C155.7,292.4,160.4,297,166.1,297z M93.1,191.1l25,14.6l-25,14.6V191.1z
				 M129.1,199.5l-36-20.4v-24.5l57.4,32.9L129.1,199.5z M155.7,178.6L130.1,164l25.6-14.6L155.7,178.6L155.7,178.6z M155.7,137.4
				l-36,20.4l-21.4-12l57.4-32.9V137.4z M93.1,136.8v-28.7l25,14.6L93.1,136.8z M93.1,232.3l62.6-35.5v24.5l-62.6,35.5V232.3z
				 M166.1,57h15.7v229.6h-15.7V57z M150.5,104l-21.4,12l-36-20.4V71.1L150.5,104z M82.6,264.2l-15.7-1V57h15.7
				C82.6,57.5,82.6,189,82.6,264.2z M30.5,260c1.6-15.1-9.9-28.2-24.5-30.3l0,0c-8.3-0.5-15.7-1-21.9-2.1
				c27.1-2.6,57.9-8.9,73.1-27.7v61.6L30.5,260z M4.4,240.2c4.7,0,8.9,2.1,11.5,5.7c3.1,3.7,4.7,8.3,4.2,13l-31.3-2.6
				C-10.8,248-4,240.7,4.4,240.2z M-79.1,173.9c5.2,2.1,10.4,3.7,15.7,4.7v33.9c-15.1-9.4-15.7-19.3-15.7-19.8V173.9z M56.6,57v15.1
				C39.9,71.6-10.2,70-53,78.4V57H56.6z M-53,120.1V89.4c41.7-8.3,93.4-6.8,109.6-6.3v26.1c-18.8-0.5-79.3-1-105.9,12.5
				C-50.4,121.2-51.5,120.7-53,120.1L-53,120.1z M56.6,119.6v28.2c-5.7-5.7-12.5-9.9-19.8-12.5c-20.9-7.3-41.2-3.1-68.9-8.9
				C-4,118.6,41.4,119.1,56.6,119.6L56.6,119.6z M1.8-5.6l56.9,26.1H-55.1L1.8-5.6z M-100,30.9h204v15.7h-204V30.9z M-63.5,57v57.4
				c-0.5,0-0.5-0.5-1-0.5c-6.8-4.7-14.6-12.5-14.6-20.9V57H-63.5z M-110.4,125.4c1-9.9,8.3-18.3,21.9-25c3.7,9.4,9.9,17.2,17.7,22.4
				c20.4,14.1,45.9,16.7,69.9,17.7c11.5,0,23,1.6,33.4,4.7c11,4.2,23,13,23,26.1c0.5,41.2-57.4,47-108,47.5c-0.5,0-0.5,0-1-0.5
				v-37.1c6.8,1.6,13.6,2.6,20.9,3.7l0,0c12,1.6,24,2.6,36,2.6c3.1,0,5.2-2.1,5.2-5.2c0-3.1-2.1-5.2-5.2-5.2c-11.5,0-23.5-1-35-2.6
				l0,0c-17.7-2.1-35-6.3-51.1-13C-102.6,152.5-111.5,140.5-110.4,125.4z M-63.5,286.6h-15.7v-12.5c5.2,2.1,10.4,3.7,15.7,5.2
				C-63.5,279.3-63.5,286.6-63.5,286.6z M108.7,281.4c0,1.6-0.5,3.1-1.6,4.2c-1,1-2.6,1-4.2,1c-3.7,0-7.3-0.5-11-0.5
				c-92.4-7.3-138.3-8.3-174.3-24.5c-20.4-9.4-29.7-21.4-28.2-36.5c1-9.9,8.3-18.8,22.4-25.6c2.6,6.8,8.9,18.3,27.7,27.1
				c14.6,6.3,30.3,10.4,45.9,12c-4.2,4.7-6.8,10.4-7.3,16.7c0,2.6,0.5,5.7,2.6,7.8s4.2,3.7,7.3,3.7l115.8,9.4
				C106.7,276.2,108.7,278.8,108.7,281.4z"/>
			<path id="Shape_2_" class="st4" d="M-76,152.5c2.6,0,4.7-1.6,5.2-4.2c0.5-2.6-0.5-4.7-3.1-5.7c-16.2-7.3-15.7-13.6-15.7-15.1
				c0-2.1-0.5-3.7-2.1-4.7s-3.7-1-5.2-0.5s-2.6,2.6-3.1,4.2c-0.5,6.8,1,16.7,21.9,25.6C-77,152.5-76.5,152.5-76,152.5z"/>
		</g>
	</g>
</g>
<g id="Слой_11" class="st0">
	<path class="st1" d="M-26.4,60.1l5.5,24.4h105l1.8,73.3h27.6V79L94.7,60.1H-26.4z"/>
	<path class="st2" d="M33.5,257c-3.4,0-6.2,2.8-6.2,6.2s2.8,6.2,6.2,6.2c3.5,0,6.2-2.9,6.2-6.2C39.6,259.8,36.9,257,33.5,257z"/>
	<path class="st2" d="M-96.5,220.9c-8.7-5.5-20.2-2.9-25.6,5.7c-5.5,8.7-2.9,20.2,5.7,25.6C-72.7,280.1-18.1,296,33.5,296
		s106.2-15.9,149.9-43.8c8.7-5.5,11.2-17,5.7-25.6c-5.5-8.7-17-11.2-25.6-5.7c-5.8,3.7-11.9,7.2-18.2,10.4l-23.2-66.6H145
		c3.4,0,6.2-2.8,6.2-6.2c0-17-13.9-31-31-31h-0.6V84.2c0-17-13.9-31-31.1-31H-24.3l-15.2-52C-43.3-11.9-55.6-21-69.2-21h-21.2
		c-1.9,0-3.8,0.9-5,2.5s-1.6,3.6-1,5.4l47,164.4c1.3,4.4,4.1,8.1,7.7,10.5L-68,236.4C-77.9,231.9-87.4,226.6-96.5,220.9z M170,231.3
		c2.9-1.8,6.7-1,8.6,1.9c1.8,2.9,1,6.7-1.9,8.6c-41.7,26.5-94,41.8-143.2,41.8S-68,268.4-109.7,241.8c-2.9-1.8-3.8-5.7-1.9-8.6
		c1.8-2.9,5.7-3.7,8.6-1.9c32.3,20.5,72.9,35.1,111.2,39.1c3.4,0.4,6.5-2.1,6.8-5.5c0.4-3.4-2.1-6.5-5.5-6.8
		c-13.9-1.5-28.3-4.4-42.4-8.6L-3,164.7h85.3L111,246c-17.7,6.1-36,10.3-53.5,12c-3.4,0.4-5.9,3.4-5.5,6.8s3.4,5.9,6.8,5.5
		C96.6,266.5,137.1,252.2,170,231.3z M80.5,127.6H-2.7l-10.9-37.2h94L80.5,127.6L80.5,127.6z M134,236.7c-3.8,1.8-7.6,3.3-11.4,4.9
		l-27.2-76.9h13.5L134,236.7z M120.2,140c8.1,0,14.9,5.2,17.5,12.3h-18.2V140H120.2z M88.5,65.7c10.3,0,18.6,8.3,18.6,18.6
		c0,6.6,0,61.4,0,68.1H92.8c0-6.7,0-61.5,0-68.1c0-3.4-2.8-6.2-6.2-6.2H-17.1l-3.6-12.3L88.5,65.7L88.5,65.7z M-82.2-8.7h13
		c8.2,0,15.6,5.5,17.9,13.4c1.3,4.4,36.4,124.9,38.2,130.8c0.7,2.7,3.2,4.4,5.9,4.4h87.8v12.3H-31.5c-2.8,0-5.2-1.8-6-4.5L-82.2-8.7
		z M-29.5,164.8h13.3l-28.6,81c-3.9-1.4-7.7-2.9-11.6-4.3L-29.5,164.8z"/>
	<circle class="st1" cx="34.2" cy="263.9" r="7.7"/>
</g>
<g id="Слой_12" class="st0">
	<rect x="-38.8" y="146.5" class="st1" width="145.3" height="56"/>
	<path class="st2" d="M181.2,250.9L163.7,28.7c-0.6-8-4-15.4-9.5-20.9c-5.8-5.9-13.6-9.1-21.9-9.1H12.2C8.7-1.3,5.9,1.5,5.9,5
		s2.8,6.3,6.3,6.3h120.1c5,0,9.4,1.9,13,5.4c3.4,3.4,5.5,8,5.8,13l17.4,220.6h-12.6L138.6,30.6c-0.1-1.5-0.6-3-1.4-4.1
		c-1.2-1.7-3.1-2.7-5.2-2.7H-63.7c-2.1,0-4,1-5.2,2.7c-0.8,1.1-1.3,2.6-1.4,4.1l-17.3,219.6h-12.6l17.4-220.6c0.4-5,2.5-9.6,5.8-13
		c3.6-3.5,8.1-5.4,13-5.4h19.5c3.5,0,6.3-2.8,6.3-6.3s-2.8-6.3-6.3-6.3H-64c-8.2,0-16,3.2-21.9,9.1c-5.5,5.5-8.9,13-9.5,20.9
		l-17.5,222.3c-8.1,2.2-14,9.6-14,18.2v6.3c0,6.9,5.7,12.6,12.6,12.6h37.7c6.9,0,12.6-5.7,12.6-12.6v-6.3c0-7.7-4.6-14.3-11.2-17.2
		l17-215.5h35.7V137h-6.3c-10.4,0-18.9,8.5-18.9,18.9v44c-6.9,0-12.6,5.7-12.6,12.6v12.6c0,6.9,5.7,12.6,12.6,12.6h163.5
		c6.9,0,12.6-5.7,12.6-12.6v-12.6c0-6.9-5.7-12.6-12.6-12.6v-44c0-10.4-8.5-18.9-18.9-18.9h-6.3V36.4h35.7l17,215.5
		c-6.6,3-11.2,9.6-11.2,17.2v6.3c0,6.9,5.7,12.6,12.6,12.6h37.7c6.9,0,12.6-5.7,12.6-12.6v-6.3C195.2,260.5,189.3,253.1,181.2,250.9
		z M-114.3,275.4v-6.3c0-3.5,2.8-6.3,6.3-6.3h25.2c3.5,0,6.3,2.8,6.3,6.3v6.3H-114.3z M115.9,225.1H-47.6v-12.6h163.5V225.1z
		 M103.4,155.9v44H-35v-44c0-3.5,2.8-6.3,6.3-6.3H97.1C100.5,149.6,103.4,152.5,103.4,155.9z M78.2,137.1H-9.9V36.4h88.1V137.1z
		 M144.9,275.4v-6.3c0-3.5,2.8-6.3,6.3-6.3h25.2c3.5,0,6.3,2.8,6.3,6.3v6.3H144.9z"/>
	<path class="st2" d="M-16.1,11.3c3.5,0,6.3-2.8,6.3-6.3s-2.8-6.3-6.3-6.3l0,0c-3.5,0-6.3,2.8-6.3,6.3S-19.6,11.3-16.1,11.3z"/>
	<rect x="-105.3" y="240.4" class="st1" width="285.9" height="18.7"/>
	<rect x="-104.4" y="-17.9" class="st1" width="286.7" height="16.2"/>
	<path class="st2" d="M185.4,6.5c3,0,5.4-2.4,5.4-5.4v-21.6c0-3-2.4-5.4-5.4-5.4H-107c-2.9,0-5.4,2.4-5.4,5.4V1.1
		c0,3,2.4,5.4,5.4,5.4h5.4V234h-5.5c-3,0-5.4,2.4-5.4,5.4v21.7c0,3,2.4,5.4,5.4,5.4h16.2v27c0,3,2.4,5.4,5.4,5.4H-69
		c2.4,0,4.4-1.5,5.1-3.7l9.6-28.9h187.1l9.6,28.7c0.7,2.2,2.8,3.7,5.1,3.7h16.2c3,0,5.4-2.4,5.4-5.4v-27h16.2c3,0,5.4-2.4,5.4-5.4
		v-21.7c0-3-2.4-5.4-5.4-5.4H180V6.5H185.4z M-101.5-15.2H180v10.8h-5.4H-96.1h-5.4V-15.2L-101.5-15.2z M-72.9,288h-6.9v-21.7h14.1
		L-72.9,288z M158.4,288h-6.9l-7.2-21.7h14.1L158.4,288L158.4,288z M180,255.6h-16.2h-27h-195h-27.1h-16.2v-10.8h5.4h270.7h5.4
		V255.6L180,255.6z M169.2,233.9H-90.7V6.5h259.9V233.9z"/>
	<path class="st2" d="M-74.5,76.9h227.4c3,0,5.4-2.4,5.4-5.4V22.7c0-3-2.4-5.4-5.4-5.4H-74.5c-3,0-5.4,2.4-5.4,5.4v48.7
		C-79.8,74.5-77.4,76.9-74.5,76.9z M-69,28.2h216.6v37.9H-69V28.2z"/>
	<path class="st2" d="M-74.5,152.7h227.4c3,0,5.4-2.4,5.4-5.4V93.1c0-3-2.4-5.4-5.4-5.4H-74.5c-3,0-5.4,2.4-5.4,5.4v54.2
		C-79.8,150.2-77.4,152.7-74.5,152.7z M-69,98.5h216.6v43.3H-69V98.5z"/>
	<path class="st2" d="M-74.5,223.1h227.4c3,0,5.4-2.4,5.4-5.4V169c0-3-2.4-5.4-5.4-5.4H-74.5c-3,0-5.4,2.4-5.4,5.4v48.7
		C-79.8,220.6-77.4,223.1-74.5,223.1z M-69,174.3h216.6v37.9H-69V174.3z"/>
	<path class="st2" d="M60.9,39H17.6c-3,0-5.4,2.4-5.4,5.4s2.4,5.4,5.4,5.4h16.2v5.4c0,3,2.4,5.4,5.4,5.4s5.4-2.4,5.4-5.4v-5.4H61
		c3,0,5.4-2.4,5.4-5.4C66.3,41.4,63.9,39,60.9,39z"/>
	<path class="st2" d="M60.9,109.4H17.6c-3,0-5.4,2.4-5.4,5.4s2.4,5.4,5.4,5.4h16.2v5.4c0,3,2.4,5.4,5.4,5.4s5.4-2.4,5.4-5.4v-5.5H61
		c3,0,5.4-2.4,5.4-5.4C66.3,111.8,63.9,109.4,60.9,109.4z"/>
	<path class="st2" d="M60.9,185.1H17.6c-3,0-5.4,2.4-5.4,5.4s2.4,5.4,5.4,5.4h16.2v5.4c0,3,2.4,5.4,5.4,5.4s5.4-2.4,5.4-5.4V196H61
		c3,0,5.4-2.4,5.4-5.4C66.3,187.6,63.9,185.1,60.9,185.1z"/>
</g>
<g id="Слой_13" class="st0">
	<rect x="-111" y="240.4" class="st1" width="285.9" height="18.7"/>
	<rect x="-110.2" y="-17.9" class="st1" width="286.7" height="16.2"/>
	<path class="st2" d="M179.7,6.5c3,0,5.4-2.4,5.4-5.4v-21.6c0-3-2.4-5.4-5.4-5.4h-292.4c-2.9,0-5.4,2.4-5.4,5.4V1.1
		c0,3,2.4,5.4,5.4,5.4h5.4V234h-5.5c-3,0-5.4,2.4-5.4,5.4v21.7c0,3,2.4,5.4,5.4,5.4h16.2v27c0,3,2.4,5.4,5.4,5.4H-75
		c2.4,0,4.4-1.5,5.1-3.7l9.6-28.9h187.1l9.6,28.7c0.7,2.2,2.8,3.7,5.1,3.7H158c3,0,5.4-2.4,5.4-5.4v-27h16.2c3,0,5.4-2.4,5.4-5.4
		v-21.7c0-3-2.4-5.4-5.4-5.4h-5.4V6.5H179.7z M-107.2-15.2h281.6v10.8H169h-270.7h-5.4L-107.2-15.2L-107.2-15.2z M-78.7,288h-6.9
		v-21.7h14.1L-78.7,288z M152.6,288h-6.9l-7.2-21.7h14.1L152.6,288L152.6,288z M174.3,255.6h-16.2h-27h-195H-91h-16.2v-10.8h5.4
		h270.7h5.4L174.3,255.6L174.3,255.6z M163.4,233.9H-96.4V6.5h259.9v227.4H163.4z"/>
	<path class="st2" d="M-80.2,76.9h227.4c3,0,5.4-2.4,5.4-5.4V22.7c0-3-2.4-5.4-5.4-5.4H-80.2c-3,0-5.4,2.4-5.4,5.4v48.7
		C-85.6,74.5-83.1,76.9-80.2,76.9z M-74.8,28.2h216.6v37.9H-74.8V28.2z"/>
	<path class="st2" d="M-80.2,152.7h227.4c3,0,5.4-2.4,5.4-5.4V93.1c0-3-2.4-5.4-5.4-5.4H-80.2c-3,0-5.4,2.4-5.4,5.4v54.2
		C-85.6,150.2-83.1,152.7-80.2,152.7z M-74.8,98.5h216.6v43.3H-74.8V98.5z"/>
	<path class="st2" d="M-80.2,223.1h227.4c3,0,5.4-2.4,5.4-5.4V169c0-3-2.4-5.4-5.4-5.4H-80.2c-3,0-5.4,2.4-5.4,5.4v48.7
		C-85.6,220.6-83.1,223.1-80.2,223.1z M-74.8,174.3h216.6v37.9H-74.8V174.3z"/>
	<path class="st2" d="M55.2,39H11.9c-3,0-5.4,2.4-5.4,5.4s2.4,5.4,5.4,5.4h16.2v5.4c0,3,2.4,5.4,5.4,5.4s5.4-2.4,5.4-5.4v-5.4h16.2
		c3,0,5.4-2.4,5.4-5.4C60.6,41.4,58.2,39,55.2,39z"/>
	<path class="st2" d="M55.2,109.4H11.9c-3,0-5.4,2.4-5.4,5.4s2.4,5.4,5.4,5.4h16.2v5.4c0,3,2.4,5.4,5.4,5.4s5.4-2.4,5.4-5.4v-5.5
		h16.2c3,0,5.4-2.4,5.4-5.4C60.6,111.8,58.2,109.4,55.2,109.4z"/>
	<path class="st2" d="M55.2,185.1H11.9c-3,0-5.4,2.4-5.4,5.4s2.4,5.4,5.4,5.4h16.2v5.4c0,3,2.4,5.4,5.4,5.4s5.4-2.4,5.4-5.4V196
		h16.2c3,0,5.4-2.4,5.4-5.4C60.6,187.6,58.2,185.1,55.2,185.1z"/>
</g>
<g id="Слой_14" class="st0">
	<g id="Слой_2_2_" class="st3">
		<polygon class="st9" points="163.6,299 153.2,299 153.2,226.7 174.2,226.7 		"/>
		<polygon class="st9" points="-97.2,299 -86.8,299 -86.8,226.7 -107.8,226.7 		"/>
	</g>
	<g id="Слой_3_1_" class="st3">
		<path class="st9" d="M159,179.8H55.2c-1.8,0-3.3-1.5-3.3-3.3v-19.9c0-1.8,1.5-3.3,3.3-3.3H159c1.8,0,3.3,1.5,3.3,3.3v19.9
			C162.3,178.3,160.8,179.8,159,179.8z"/>
		<path class="st9" d="M145.7,151.7H42c-1.8,0-3.3-1.5-3.3-3.3v-19.9c0-1.8,1.5-3.3,3.3-3.3h103.8c1.8,0,3.3,1.5,3.3,3.3v19.9
			C149.1,150.2,147.6,151.7,145.7,151.7z"/>
		<path class="st9" d="M175.5,125.2H71.8c-1.8,0-3.3-1.5-3.3-3.3V102c0-1.8,1.5-3.3,3.3-3.3h103.8c1.8,0,3.3,1.5,3.3,3.3v19.9
			C178.8,123.7,177.4,125.2,175.5,125.2z"/>
		<path class="st10" d="M-37.8,175.4h-25c-4.6,0-8.3-3.8-8.3-8.3v-14.9c0-4.6,3.8-8.3,8.3-8.3h25c4.6,0,8.3,3.8,8.3,8.3v14.9
			C-29.5,171.7-33.3,175.4-37.8,175.4z"/>
		<path class="st10" d="M-28.5,169.2V150c7.6,0,13.7,4.3,13.7,9.6l0,0C-14.8,164.9-20.9,169.2-28.5,169.2z"/>
		<path class="st10" d="M-48.4,135c1-4.1,1.2-7.9-0.7-9.3c-2.2-1.3-6,1.3-6.5,0.7c-0.8-1.2,10.3-7.6,9.1-11.6c-0.5-2-3.8-2.8-7-3.1"
			/>
	</g>
	<g id="Слой_1_5_" class="st3">
		<path class="st11" d="M-80,30.7c-1.3,1.8-2.6,3.8-4,5.6"/>
		<path class="st11" d="M-2.4-80c-1.8,2.5-3.5,5-5.3,7.6"/>
		<path class="st9" d="M179,224.5h-289.1c-8.8,0-16.1-7.1-16.1-16.1v-9.9c0-8.8,7.1-16.1,16.1-16.1H179c8.8,0,16.1,7.3,16.1,16.1
			v9.9C194.9,217.2,187.8,224.5,179,224.5z"/>
	</g>
</g>
<g id="Слой_15" class="st0">
	<g class="st3">
		<path class="st12" d="M-106.1,160.6c-9.2,0-16.7-7.5-16.7-16.7s7.5-16.7,16.7-16.7h280.8c9.2,0,16.7,7.5,16.7,16.7
			s-7.5,16.7-16.7,16.7H-106.1z"/>
		<path class="st13" d="M174.7,128.7c8.4,0,15.2,6.8,15.2,15.2s-6.8,15.2-15.2,15.2h-280.8c-8.4,0-15.2-6.8-15.2-15.2
			s6.8-15.2,15.2-15.2H174.7 M174.7,125.6h-280.8c-10,0-18.2,8.2-18.2,18.2s8.2,18.2,18.2,18.2h280.8c10,0,18.2-8.2,18.2-18.2
			S184.7,125.6,174.7,125.6L174.7,125.6z"/>
	</g>
	<g class="st3">
		<rect x="3.6" y="161.2" class="st12" width="49.2" height="131.3"/>
		<path class="st13" d="M51.3,162.7V291H5.1V162.7H51.3 M54.3,159.7H2.1V294h52.3L54.3,159.7L54.3,159.7z"/>
	</g>
	<g class="st3">
		<rect x="-99.6" y="161.2" class="st12" width="14.5" height="131.3"/>
		<path class="st13" d="M-86.6,162.7V291H-98V162.7H-86.6 M-83.5,159.7H-101V294h17.5V159.7L-83.5,159.7z"/>
	</g>
	<g class="st3">
		<rect x="152.1" y="161.2" class="st12" width="14.5" height="131.3"/>
		<path class="st13" d="M164.9,162.7V291h-11.4V162.7H164.9 M168,159.7h-17.5V294H168V159.7L168,159.7z"/>
	</g>
	<g class="st3">
		<rect x="-99.6" y="161.2" class="st14" width="266" height="22.5"/>
		<path class="st13" d="M164.9,162.7v19.4h-263v-19.4H164.9 M168,159.7h-269.1v25.5H168V159.7L168,159.7z"/>
	</g>
	<line class="st15" x1="2.4" y1="159.7" x2="2.4" y2="127.5"/>
	<line class="st15" x1="54.6" y1="159.7" x2="54.6" y2="127.5"/>
</g>
<g id="Слой_16" class="st0">
	<g id="Слой_3_2_" class="st3">
		<path class="st16" d="M-99.5,210.9c7.5,6.8,18.5,14.4,30.9,13.7c16.2-0.9,21.1-15,36.1-14.7c15.7,0.3,19.4,16,34.4,15.7
			c14.9-0.3,18.4-16,33.1-16.1c14.6-0.1,18.2,15.3,33.1,15.4c14.9,0.1,18.1-15.3,33.6-15.7c15.6-0.5,20.9,14.9,37.8,16.1
			c11.9,0.8,23.4-5.8,34-15.4"/>
		<path class="st16" d="M-80.6,174c6.5,6.8,16,14.4,26.8,13.7c14-0.9,18.3-15,31.3-14.7c13.7,0.3,16.8,16,29.8,15.7
			c12.9-0.3,15.9-16,28.7-16.1c12.7-0.1,15.8,15.3,28.7,15.4c12.9,0.1,15.7-15.3,29-15.7c13.5-0.5,18.1,14.9,32.8,16.1
			c10.3,0.8,20.3-5.8,29.4-15.4"/>
		<path class="st16" d="M-61.8,139.7c5.5,6.8,13.6,14.4,22.7,13.7c11.8-0.9,15.4-15,26.4-14.7c11.6,0.3,14.2,16,25.2,15.7
			s13.4-16,24.2-16.1c10.7-0.1,13.4,15.3,24.2,15.4c10.9,0.1,13.3-15.3,24.6-15.7c11.4-0.5,15.3,14.9,27.7,16.1
			c8.7,0.8,17.2-5.8,24.9-15.4"/>
	</g>
	<g id="Слой_4_1_" class="st3">
		<g id="Слой_5_1_">
			<path d="M189.7,238.2c-0.4-1-1.4-1.8-2.5-1.4c-0.1,0.1-0.3,0.1-0.5,0.2h-0.1c-4.3,0-4.4,6.6-0.2,6.8c0,0.3,0,0.5,0,0.8
				c0.1,2.6,4.2,2.7,4.1,0C190.5,242.3,190.5,240.3,189.7,238.2z"/>
			<path d="M-110.1,244.8c-0.1-0.5-0.2-1-0.2-1.5c0.1-0.5,0.1-1,0.3-1.6c0.1-1.2,0.1-2.3,0.1-3.5c0-2.5-3.6-2.6-4-0.4
				c-0.2,0.3-0.3,0.7-0.3,1.1c-0.1,1.4-0.2,3.1-0.1,4.7c0,0.8,0.1,1.6,0.3,2.5c0.6,2.1,3.4,1.7,4,0.1
				C-109.9,245.9-109.9,245.4-110.1,244.8z"/>
		</g>
	</g>
	<g id="Слой_1_6_" class="st3">
		<path class="st17" d="M-112.8,238.7"/>
		<path class="st18" d="M182,291.4h-288c-3.8,0-6.8-3.1-6.8-6.8v-39c0-3.8,3.1-6.8,6.8-6.8h288c3.8,0,6.8,3.1,6.8,6.8v39
			C188.8,288.3,185.7,291.4,182,291.4z"/>
		<path class="st17" d="M-112.1,237.8l1-1.8l54.9-106.5h188.4l53.5,105.2l1.6,3.2C187.4,243.2-112.1,243.2-112.1,237.8z"/>
	</g>
	<g id="Слой_2_3_" class="st3">
	</g>
</g>
<g id="Слой_17" class="st0">
</g>
<g id="Слой_18" class="st0">
	<path class="st19" d="M152,299H-29.8c-3.7,0-6.7-3-6.7-6.7V0.7c0-3.7,3-6.7,6.7-6.7H152c3.7,0,6.7,3,6.7,6.7v291.7
		C158.6,296,155.6,299,152,299z"/>
	<line class="st19" x1="-36.5" y1="19.3" x2="158.6" y2="19.3"/>
	<path class="st19" d="M133.6,95.2H-14.9c-3.7,0-6.7-3-6.7-6.7V59.9c0-3.7,3-6.7,6.7-6.7h148.5c3.7,0,6.7,3,6.7,6.7v28.6
		C140.3,92.2,137.3,95.2,133.6,95.2z"/>
	<path class="st19" d="M133.6,161.2H-14.9c-3.7,0-6.7-3-6.7-6.7v-28.6c0-3.7,3-6.7,6.7-6.7h148.5c3.7,0,6.7,3,6.7,6.7v28.6
		C140.3,158.2,137.3,161.2,133.6,161.2z"/>
	<path class="st19" d="M135.3,227.1H-13.2c-3.7,0-6.7-3-6.7-6.7v-28.6c0-3.7,3-6.7,6.7-6.7h148.5c3.7,0,6.7,3,6.7,6.7v28.6
		C142,224.1,139,227.1,135.3,227.1z"/>
	<path class="st19" d="M135.3,286.3H-13.2c-3.7,0-6.7-3-6.7-6.7V251c0-3.7,3-6.7,6.7-6.7h148.5c3.7,0,6.7,3,6.7,6.7v28.6
		C142,283.4,139,286.3,135.3,286.3z"/>
	<path class="st1" d="M67.6,79.4H51.3c-2.9,0-5.2-2.3-5.2-5.2l0,0c0-2.9,2.3-5.2,5.2-5.2h16.3c2.9,0,5.2,2.3,5.2,5.2l0,0
		C72.7,77.1,70.4,79.4,67.6,79.4z"/>
	<path class="st1" d="M67.6,270.6H51.3c-2.9,0-5.2-2.3-5.2-5.2l0,0c0-2.9,2.3-5.2,5.2-5.2h16.3c2.9,0,5.2,2.3,5.2,5.2l0,0
		C72.7,268.2,70.4,270.6,67.6,270.6z"/>
	<path class="st1" d="M69.3,145.4H52.9c-2.9,0-5.2-2.3-5.2-5.2l0,0c0-2.9,2.3-5.2,5.2-5.2h16.3c2.9,0,5.2,2.3,5.2,5.2l0,0
		C74.4,143,72,145.4,69.3,145.4z"/>
	<path class="st1" d="M67.6,211.3H51.3c-2.9,0-5.2-2.3-5.2-5.2l0,0c0-2.9,2.3-5.2,5.2-5.2h16.3c2.9,0,5.2,2.3,5.2,5.2l0,0
		C72.7,209,70.4,211.3,67.6,211.3z"/>
</g>
<g id="Слой_19">
	<path class="st20" d="M155,290H15c-5.5,0-10-4.5-10-10V15C5,9.5,9.5,5,15,5h140c5.5,0,10,4.5,10,10v265
		C165,285.5,160.5,290,155,290z"/>
	<line class="st20" x1="5" y1="41" x2="169.3" y2="41"/>
	<path class="st20" d="M132.7,117h-94c-5.5,0-10-4.5-10-10V81c0-5.5,4.5-10,10-10h94c5.5,0,10,4.5,10,10v26
		C142.7,112.5,138.2,117,132.7,117z"/>
	<path class="st20" d="M133.2,182.5h-94c-5.5,0-10-4.5-10-10v-26c0-5.5,4.5-10,10-10h94c5.5,0,10,4.5,10,10v26
		C143.2,178,138.7,182.5,133.2,182.5z"/>
	<path class="st20" d="M133.5,248h-94c-5.5,0-10-4.5-10-10v-26c0-5.5,4.5-10,10-10h94c5.5,0,10,4.5,10,10v26
		C143.5,243.5,139,248,133.5,248z"/>
	<path class="st4" d="M93.3,97.9H81c-2.1,0-3.9-1.8-3.9-3.9l0,0c0-2.1,1.8-3.9,3.9-3.9h12.3c2.1,0,3.9,1.8,3.9,3.9l0,0
		C97.1,96.1,95.4,97.9,93.3,97.9z"/>
	<path class="st4" d="M93.3,163.4H81c-2.1,0-3.9-1.8-3.9-3.9l0,0c0-2.1,1.8-3.9,3.9-3.9h12.3c2.1,0,3.9,1.8,3.9,3.9l0,0
		C97.1,161.6,95.4,163.4,93.3,163.4z"/>
	<path class="st4" d="M93.3,228.9H81c-2.1,0-3.9-1.8-3.9-3.9l0,0c0-2.1,1.8-3.9,3.9-3.9h12.3c2.1,0,3.9,1.8,3.9,3.9l0,0
		C97.1,227.1,95.4,228.9,93.3,228.9z"/>
</g>
</svg>
