<?xml version="1.0" encoding="utf-8"?>
<!-- Generator: Adobe Illustrator 21.1.0, SVG Export Plug-In . SVG Version: 6.00 Build 0)  -->
<svg version="1.1" id="Слой_1" xmlns="http://www.w3.org/2000/svg" xmlns:xlink="http://www.w3.org/1999/xlink" x="0px" y="0px"
	 viewBox="0 0 250 325" style="enable-background:new 0 0 250 325;" xml:space="preserve">
<style type="text/css">
	.st0{display:none;}
	.st1{display:inline;fill:#9AC6E5;}
	.st2{display:inline;fill:#333333;}
	.st3{fill:#9AC6E5;}
	.st4{fill:#333333;}
</style>
<g id="Слой_1_1_" class="st0">
	<rect x="-17.7" y="8" class="st1" width="305" height="15"/>
	<path class="st2" d="M281.6,0H-12c-8.6,0-15.7,7.1-15.7,15.7c0,8.7,7.1,15.7,15.7,15.7h293.5c8.7,0,15.7-7.1,15.7-15.7
		C297.3,7.1,290.2,0,281.6,0z M281.6,21H-12c-2.9,0-5.2-2.4-5.2-5.2s2.3-5.2,5.2-5.2h293.5c2.9,0,5.2,2.4,5.2,5.2S284.5,21,281.6,21
		z"/>
	<path class="st2" d="M134.8,167.7c-37.6,0-68.1,30.6-68.1,68.1c0,37.6,30.6,68.1,68.1,68.1c37.6,0,68.1-30.6,68.1-68.1
		S172.4,167.7,134.8,167.7z M192.2,241.1c-1.1,12-5.8,22.9-13.1,31.6l-10.9-10.9l-7.4,7.4l10.9,10.9c-10,8.3-22.9,13.4-36.9,13.4
		s-26.9-5-36.9-13.4l10.9-10.9l-7.4-7.4l-10.9,10.9c-7.3-8.7-12-19.7-13.1-31.6h15.5v-10.5H77.4c1.1-12,5.8-22.9,13.1-31.6
		l10.9,10.9l7.4-7.4l-10.9-10.9c8.7-7.3,19.7-12,31.6-13.1V194H140v-15.5c12,1.1,22.9,5.8,31.6,13.1l-10.9,10.9l7.4,7.4L179,199
		c7.3,8.7,12,19.7,13.1,31.6h-15.5v10.5H192.2z"/>
	<path class="st2" d="M146.5,213.3c-1.5-5.2-6.3-8.8-11.7-8.8s-10.2,3.6-11.7,8.8l-8.5,29.8c-0.5,1.7-0.7,3.5-0.7,5.2
		c0,10.5,8.5,19,19,19h3.9c10.5,0,19-8.5,19-19c0-1.8-0.2-3.5-0.7-5.2L146.5,213.3z M136.7,256.9h-3.9c-4.7,0-8.6-3.8-8.6-8.6
		c0-0.8,0.1-1.6,0.3-2.3l8.5-29.8c0.2-0.7,0.9-1.2,1.6-1.2c0.8,0,1.4,0.5,1.6,1.2l8.5,29.8c0.2,0.8,0.3,1.6,0.3,2.3
		C145.3,253,141.4,256.9,136.7,256.9z"/>
	<path class="st2" d="M263.8,236.5c-3.8-38.4-30-71.5-66.5-84.2l-0.8-0.3H73.1l-0.8,0.3C35.7,165,9.6,198,5.8,236.5l-7.2,71.8
		c-0.1,0.5-0.1,1-0.1,1.6c0,8.4,6.8,15.2,15.2,15.2h242.1c8.4,0,15.2-6.8,15.2-15.2c0-0.5,0-1-0.1-1.5L263.8,236.5z M255.9,314.5
		H13.7c-2.6,0-4.7-2.1-4.7-5.2l7.2-71.8c3.4-34.1,26.4-63.5,58.7-75h119.8c32.3,11.5,55.3,40.9,58.7,75l7.2,71.8v0.5
		C260.6,312.4,258.5,314.5,255.9,314.5z"/>
	<path class="st2" d="M276.3,47.2c0,37.6-30.6,68.1-68.1,68.1H182h-10.5H98.1H87.6H61.4c-37.6,0-68.1-30.5-68.1-68.1V42h-10.5v5.2
		c0,43.4,35.3,78.6,78.6,78.6h26.2v15.7h10.5v-15.7h10.5v15.7h10.5v-15.7h31.5v15.7h10.5v-15.7h10.5v15.7h10.5v-15.7h26.2
		c43.4,0,78.6-35.3,78.6-78.6V42h-10.6V47.2z"/>
	<path class="st2" d="M14.2,41.9H3.8v10.5h10.5L14.2,41.9L14.2,41.9z"/>
	<path class="st2" d="M119.1,41.9H24.7v10.5h94.4C119.1,52.4,119.1,41.9,119.1,41.9z"/>
</g>
<g id="Слой_2">
	<circle class="st3" cx="16.1" cy="309.1" r="10.8"/>
	<circle class="st3" cx="233.5" cy="310.4" r="10.8"/>
	<ellipse class="st3" cx="151.3" cy="233.9" rx="13.8" ry="12.5"/>
	<ellipse class="st3" cx="168.9" cy="60.7" rx="14.4" ry="11.9"/>
	<path id="Shape" class="st4" d="M31.6,314.8H38c9,0,16.3-7.3,16.3-16.3v-27.1h141.1v27.1c0,9,7.3,16.3,16.3,16.3h6.4
		c2.2,6.2,7.9,10.5,14.5,10.9s12.7-3.3,15.6-9.3s1.8-13-2.6-17.9c-4.4-4.9-11.4-6.6-17.6-4.4V16.4c0-9-7.3-16.3-16.3-16.3
		s-16.3,7.3-16.3,16.3v48.8H190v-5.4c0-9-7.3-16.3-16.3-16.3h-10.9c-9,0-16.3,7.3-16.3,16.3v5.4H54.3V16.4c0-9-7.3-16.3-16.3-16.3
		S21.7,7.4,21.7,16.4V294c-6.2-2.2-13.1-0.5-17.6,4.4s-5.5,12-2.6,17.9s9,9.6,15.6,9.3C23.7,325.3,29.4,321,31.6,314.8z M54.3,238.8
		v-16.3c0-3,2.4-5.4,5.4-5.4h65.1c3,0,5.4,2.4,5.4,5.4v16.3H54.3z M81.4,124.9c0-3,2.4-5.4,5.4-5.4h70.5v10.9H86.8
		C83.8,130.3,81.4,127.9,81.4,124.9z M81.4,146.6c0-3,2.4-5.4,5.4-5.4h70.5V152H86.8C83.8,152,81.4,149.6,81.4,146.6z M195.4,162.9
		v10.9H54.3v-10.9H195.4z M141.1,233.4c0-3,2.4-5.4,5.4-5.4h10.9c3,0,5.4,2.4,5.4,5.4v5.4h-21.7L141.1,233.4L141.1,233.4z
		 M157.4,217.1c-11.2,0-13.1-0.4-16.9,1.2c-1.9-7.1-8.3-12-15.6-12c-70.5,0-66.6-0.4-70.5,1v-22.7h141.1v54.3h-21.7v-5.4
		C173.7,224.4,166.4,217.1,157.4,217.1z M195.4,152h-27.1v-10.9h5.4c3,0,5.4-2.4,5.4-5.4s-2.4-5.4-5.4-5.4h-5.4v-10.9h5.4
		c3,0,5.4-2.4,5.4-5.4s-2.4-5.4-5.4-5.4H86.8c-6.4,0-12.2,3.8-14.8,9.7c-2.6,5.9-1.5,12.7,2.7,17.5c-4.1,4.4-5.3,10.7-3.3,16.3H54.3
		V97.7h141.1L195.4,152L195.4,152z M54.3,260.5v-10.9h141.1v10.9H54.3z M233.3,303.9c3,0,5.4,2.4,5.4,5.4s-2.4,5.4-5.4,5.4
		s-5.4-2.4-5.4-5.4S230.3,303.9,233.3,303.9z M206.2,16.4c0-3,2.4-5.4,5.4-5.4s5.4,2.4,5.4,5.4V304h-5.4c-3,0-5.4-2.4-5.4-5.4V16.4z
		 M157.4,59.8c0-3,2.4-5.4,5.4-5.4h10.9c3,0,5.4,2.4,5.4,5.4v5.4h-21.7L157.4,59.8L157.4,59.8z M195.4,76v10.9H54.3V76H195.4z
		 M32.6,16.4c0-3,2.4-5.4,5.4-5.4s5.4,2.4,5.4,5.4v282.1c0,3-2.4,5.4-5.4,5.4h-5.4V16.4z M16.3,314.8c-3,0-5.4-2.4-5.4-5.4
		s2.4-5.4,5.4-5.4s5.4,2.4,5.4,5.4S19.3,314.8,16.3,314.8z"/>
</g>
</svg>
