<?xml version="1.0" encoding="utf-8"?>
<!-- Generator: Adobe Illustrator 21.1.0, SVG Export Plug-In . SVG Version: 6.00 Build 0)  -->
<svg version="1.1" id="Слой_1" xmlns="http://www.w3.org/2000/svg" xmlns:xlink="http://www.w3.org/1999/xlink" x="0px" y="0px"
	 viewBox="0 0 325 187.2" style="enable-background:new 0 0 325 187.2;" xml:space="preserve">
<style type="text/css">
	.st0{display:none;}
	.st1{display:inline;fill:#9AC6E5;}
	.st2{display:inline;fill:#333333;}
	.st3{fill:#333333;}
	.st4{fill:#9AC6E5;}
</style>
<g id="Слой_1_1_" class="st0">
	<rect x="10" y="7.8" class="st1" width="305" height="15"/>
	<path class="st2" d="M309.3-0.2H15.7C7.1-0.2,0,6.9,0,15.5c0,8.7,7.1,15.7,15.7,15.7h293.5c8.7,0,15.7-7.1,15.7-15.7
		C325,6.9,317.9-0.2,309.3-0.2z M309.3,20.8H15.7c-2.9,0-5.2-2.4-5.2-5.2s2.3-5.2,5.2-5.2h293.5c2.9,0,5.2,2.4,5.2,5.2
		S312.2,20.8,309.3,20.8z"/>
	<path class="st2" d="M162.5,167.5c-37.6,0-68.1,30.6-68.1,68.1c0,37.6,30.6,68.1,68.1,68.1c37.6,0,68.1-30.6,68.1-68.1
		S200.1,167.5,162.5,167.5z M219.9,240.9c-1.1,12-5.8,22.9-13.1,31.6l-10.9-10.9l-7.4,7.4l10.9,10.9c-10,8.3-22.9,13.4-36.9,13.4
		s-26.9-5-36.9-13.4l10.9-10.9l-7.4-7.4l-10.9,10.9c-7.3-8.7-12-19.7-13.1-31.6h15.5v-10.5h-15.5c1.1-12,5.8-22.9,13.1-31.6
		l10.9,10.9l7.4-7.4l-10.9-10.9c8.7-7.3,19.7-12,31.6-13.1v15.5h10.5v-15.5c12,1.1,22.9,5.8,31.6,13.1l-10.9,10.9l7.4,7.4l10.9-10.9
		c7.3,8.7,12,19.7,13.1,31.6h-15.5v10.5H219.9z"/>
	<path class="st2" d="M174.2,213.1c-1.5-5.2-6.3-8.8-11.7-8.8s-10.2,3.6-11.7,8.8l-8.5,29.8c-0.5,1.7-0.7,3.5-0.7,5.2
		c0,10.5,8.5,19,19,19h3.9c10.5,0,19-8.5,19-19c0-1.8-0.2-3.5-0.7-5.2L174.2,213.1z M164.4,256.7h-3.9c-4.7,0-8.6-3.8-8.6-8.6
		c0-0.8,0.1-1.6,0.3-2.3l8.5-29.8c0.2-0.7,0.9-1.2,1.6-1.2c0.8,0,1.4,0.5,1.6,1.2l8.5,29.8c0.2,0.8,0.3,1.6,0.3,2.3
		C173,252.8,169.1,256.7,164.4,256.7z"/>
	<path class="st2" d="M291.5,236.3c-3.8-38.4-30-71.5-66.5-84.2l-0.8-0.3H100.8l-0.8,0.3c-36.6,12.7-62.7,45.7-66.5,84.2l-7.2,71.8
		c-0.1,0.5-0.1,1-0.1,1.6c0,8.4,6.8,15.2,15.2,15.2h242.1c8.4,0,15.2-6.8,15.2-15.2c0-0.5,0-1-0.1-1.5L291.5,236.3z M283.6,314.3
		H41.4c-2.6,0-4.7-2.1-4.7-5.2l7.2-71.8c3.4-34.1,26.4-63.5,58.7-75h119.8c32.3,11.5,55.3,40.9,58.7,75l7.2,71.8v0.5
		C288.3,312.2,286.2,314.3,283.6,314.3z"/>
	<path class="st2" d="M304,47c0,37.6-30.6,68.1-68.1,68.1h-26.2h-10.5h-73.4h-10.5H89.1C51.5,115.1,21,84.6,21,47v-5.2H10.5V47
		c0,43.4,35.3,78.6,78.6,78.6h26.2v15.7h10.5v-15.7h10.5v15.7h10.5v-15.7h31.5v15.7h10.5v-15.7h10.5v15.7h10.5v-15.7H236
		c43.4,0,78.6-35.3,78.6-78.6v-5.2H304V47z"/>
	<path class="st2" d="M41.9,41.7H31.5v10.5H42L41.9,41.7L41.9,41.7z"/>
	<path class="st2" d="M146.8,41.7H52.4v10.5h94.4V41.7z"/>
</g>
<g id="Слой_2">
	<path class="st3" d="M36.4,75.9c-2.8,0-5.1-2.3-5.1-5.1c0-5.6-4.5-10.1-10.1-10.1s-10.1,4.5-10.1,10.1c0,2.8-2.3,5.1-5.1,5.1
		s-5-2.2-5-5c0-11.2,9.1-20.3,20.3-20.3s20.3,9.1,20.3,20.3C41.5,73.7,39.2,75.9,36.4,75.9z"/>
	<path class="st3" d="M21.3,167C10.1,167,1,157.9,1,146.8c0-2.8,2.3-5.1,5.1-5.1s5.1,2.3,5.1,5.1c0,5.6,4.5,10.1,10.1,10.1
		c2.8,0,5.1,2.3,5.1,5.1C26.3,164.7,24.1,167,21.3,167z"/>
	<path class="st3" d="M6.1,151.8c-2.8,0-5.1-2.3-5.1-5.1V70.9c0-2.8,2.3-5.1,5.1-5.1s5.1,2.3,5.1,5.1v75.9
		C11.1,149.6,8.9,151.8,6.1,151.8z"/>
	<path class="st3" d="M319.9,75.9c-2.8,0-5.1-2.3-5.1-5.1c0-5.6-4.5-10.1-10.1-10.1s-10.1,4.5-10.1,10.1c0,2.8-2.3,5.1-5.1,5.1
		s-5.1-2.3-5.1-5.1c0-11.2,9.1-20.3,20.3-20.3S325,59.7,325,70.9C325,73.7,322.7,75.9,319.9,75.9z"/>
	<path class="st3" d="M304.8,167c-2.8,0-5.1-2.3-5.1-5.1s2.3-5.1,5.1-5.1c5.6,0,10.1-4.5,10.1-10.1c0-2.8,2.3-5.1,5.1-5.1
		s5.1,2.3,5.1,5.1C325,157.9,315.9,167,304.8,167z"/>
	<path class="st3" d="M319.9,151.8c-2.8,0-5.1-2.3-5.1-5.1V70.9c0-2.8,2.3-5.1,5.1-5.1s5.1,2.3,5.1,5.1v75.9
		C325,149.6,322.7,151.8,319.9,151.8z"/>
	<path class="st3" d="M304.8,167H21.3c-2.8,0-5.1-2.3-5.1-5.1s2.3-5.1,5.1-5.1h283.5c2.8,0,5.1,2.3,5.1,5.1
		C309.8,164.7,307.6,167,304.8,167z"/>
	<path class="st3" d="M289.6,187.3c-2.8,0-5.1-2.3-5.1-5.1V70.9c0-2.8,2.3-5.1,5.1-5.1s5.1,2.3,5.1,5.1v111.4
		C294.6,185,292.4,187.3,289.6,187.3z"/>
	<path class="st3" d="M36.4,187.3c-2.8,0-5.1-2.3-5.1-5.1V70.9c0-2.8,2.3-5.1,5.1-5.1s5.1,2.3,5.1,5.1v111.4
		C41.5,185,39.2,187.3,36.4,187.3z"/>
	<path class="st3" d="M36.4,121.4c-2.8,0-5.1-2.3-5.1-5.1c0-11.2,9.1-20.3,20.3-20.3c2.8,0,5.1,2.3,5.1,5.1c0,2.8-2.3,5.1-5.1,5.1
		c-5.6,0-10.1,4.5-10.1,10.1C41.5,119.2,39.2,121.4,36.4,121.4z"/>
	<path class="st3" d="M21.3,25.3c-2.8,0-5.1-2.3-5.1-5.1C16.2,9.1,25.3,0,36.4,0c2.8,0,5.1,2.3,5.1,5.1s-2.3,5.1-5.1,5.1
		c-5.6,0-10.1,4.5-10.1,10.1C26.3,23.1,24.1,25.3,21.3,25.3z"/>
	<path class="st3" d="M304.8,25.3c-2.8,0-5.1-2.3-5.1-5.1c0-5.6-4.5-10.1-10.1-10.1c-2.8,0-5.1-2.3-5.1-5.1s2.3-5.1,5.1-5.1
		c11.2,0,20.3,9.1,20.3,20.3C309.8,23.1,307.6,25.3,304.8,25.3z"/>
	<path class="st3" d="M163,25.3c-2.8,0-5.1-2.3-5.1-5.1C157.9,9.1,167,0,178.2,0c2.8,0,5.1,2.3,5.1,5.1s-2.3,5.1-5.1,5.1
		c-5.6,0-10.1,4.5-10.1,10.1C168.1,23.1,165.8,25.3,163,25.3z"/>
	<path class="st3" d="M163,25.3c-2.8,0-5.1-2.3-5.1-5.1c0-5.6-4.5-10.1-10.1-10.1c-2.8,0-5.1-2.3-5.1-5.1s2.3-5,5.1-5
		c11.2,0,20.3,9.1,20.3,20.3C168.1,23.1,165.8,25.3,163,25.3z"/>
	<path class="st3" d="M289.6,121.4c-2.8,0-5.1-2.3-5.1-5.1c0-5.6-4.5-10.1-10.1-10.1c-2.8,0-5.1-2.3-5.1-5.1c0-2.8,2.3-5.1,5.1-5.1
		c11.2,0,20.3,9.1,20.3,20.3C294.6,119.2,292.4,121.4,289.6,121.4z"/>
	<path class="st3" d="M274.4,106.3H51.6c-2.8,0-5.1-2.3-5.1-5.1c0-2.8,2.3-5.1,5.1-5.1h222.8c2.8,0,5.1,2.3,5.1,5.1
		S277.2,106.3,274.4,106.3z"/>
	<path class="st3" d="M289.6,141.7H36.4c-2.8,0-5.1-2.3-5.1-5.1s2.3-5.1,5.1-5.1h253.1c2.8,0,5.1,2.3,5.1,5.1
		S292.4,141.7,289.6,141.7z"/>
	<path class="st3" d="M21.3,60.7c-2.8,0-5.1-2.3-5.1-5.1V20.3c0-2.8,2.3-5.1,5.1-5.1s5.1,2.3,5.1,5.1v35.4
		C26.3,58.5,24.1,60.7,21.3,60.7z"/>
	<path class="st3" d="M304.8,60.7c-2.8,0-5.1-2.3-5.1-5.1V20.2c0-2.8,2.3-5.1,5.1-5.1c2.8,0,5.1,2.3,5.1,5.1v35.4
		C309.8,58.5,307.5,60.7,304.8,60.7z"/>
	<path class="st3" d="M147.7,10.1H36.4c-2.8,0-5.1-2.3-5.1-5.1s2.3-5,5.1-5h111.3c2.8,0,5.1,2.3,5.1,5.1S150.5,10.1,147.7,10.1z"/>
	<path class="st3" d="M289.6,10.1H178.1c-2.8,0-5.1-2.3-5.1-5.1s2.3-5.1,5.1-5.1h111.5c2.8,0,5.1,2.3,5.1,5.1S292.4,10.1,289.6,10.1
		z"/>
	<path class="st3" d="M163,106.3c-2.8,0-5.1-2.3-5.1-5.1V20.3c0-2.8,2.3-5.1,5.1-5.1s5.1,2.3,5.1,5.1v80.9
		C168.1,104,165.8,106.3,163,106.3z"/>
	<path class="st3" d="M264.2,187.3c-2.8,0-5.1-2.3-5.1-5.1v-20.3c0-2.8,2.3-5.1,5.1-5.1c2.8,0,5.1,2.3,5.1,5.1v20.3
		C269.3,185,267,187.3,264.2,187.3z"/>
	<path class="st3" d="M289.6,187.3h-25.3c-2.8,0-5.1-2.3-5.1-5.1s2.3-5.1,5.1-5.1h25.3c2.8,0,5.1,2.3,5.1,5.1
		C294.6,185,292.4,187.3,289.6,187.3z"/>
	<path class="st3" d="M61.8,187.3c-2.8,0-5.1-2.3-5.1-5.1v-20.3c0-2.8,2.3-5.1,5.1-5.1s5.1,2.3,5.1,5.1v20.3
		C66.8,185,64.6,187.3,61.8,187.3z"/>
	<path class="st3" d="M61.8,187.3H36.4c-2.8,0-5.1-2.3-5.1-5.1s2.3-5.1,5.1-5.1h25.3c2.8,0,5.1,2.3,5.1,5.1S64.6,187.3,61.8,187.3z"
		/>
	<g>
		<g>
			<g>
				<path class="st4" d="M140.9,22H115c-3.5,0-6.3,2.8-6.3,6.3s2.8,6.3,6.3,6.3h25.9c3.5,0,6.3-2.8,6.3-6.3S144.3,22,140.9,22z"/>
			</g>
		</g>
	</g>
	<g>
		<g>
			<g>
				<path class="st4" d="M210.5,22.6h-25.9c-3.5,0-6.3,2.8-6.3,6.3s2.8,6.3,6.3,6.3h25.9c3.5,0,6.3-2.8,6.3-6.3S214,22.6,210.5,22.6
					z"/>
			</g>
		</g>
	</g>
</g>
</svg>
