<?xml version="1.0" encoding="utf-8"?>
<!-- Generator: Adobe Illustrator 21.1.0, SVG Export Plug-In . SVG Version: 6.00 Build 0)  -->
<svg version="1.1" xmlns="http://www.w3.org/2000/svg" xmlns:xlink="http://www.w3.org/1999/xlink" x="0px" y="0px"
	 viewBox="0 0 325 289" style="enable-background:new 0 0 325 289;" xml:space="preserve">
<style type="text/css">
	.st0{display:none;}
	.st1{display:inline;fill:#9AC6E5;}
	.st2{display:inline;fill:#333333;}
	.st3{fill:#9AC6E5;}
	.st4{fill:#333333;}
</style>
<g id="Слой_1" class="st0">
	<rect x="10" y="8" class="st1" width="305" height="15"/>
	<path class="st2" d="M309.3,0H15.7C7.1,0,0,7.1,0,15.7c0,8.7,7.1,15.7,15.7,15.7h293.5c8.7,0,15.7-7.1,15.7-15.7
		C325,7.1,317.9,0,309.3,0z M309.3,21H15.7c-2.9,0-5.2-2.4-5.2-5.2s2.3-5.2,5.2-5.2h293.5c2.9,0,5.2,2.4,5.2,5.2S312.2,21,309.3,21z
		"/>
	<path class="st2" d="M162.5,167.7c-37.6,0-68.1,30.6-68.1,68.1c0,37.6,30.6,68.1,68.1,68.1c37.6,0,68.1-30.6,68.1-68.1
		S200.1,167.7,162.5,167.7z M219.9,241.1c-1.1,12-5.8,22.9-13.1,31.6l-10.9-10.9l-7.4,7.4l10.9,10.9c-10,8.3-22.9,13.4-36.9,13.4
		s-26.9-5-36.9-13.4l10.9-10.9l-7.4-7.4l-10.9,10.9c-7.3-8.7-12-19.7-13.1-31.6h15.5v-10.5h-15.5c1.1-12,5.8-22.9,13.1-31.6
		l10.9,10.9l7.4-7.4l-10.9-10.9c8.7-7.3,19.7-12,31.6-13.1V194h10.5v-15.5c12,1.1,22.9,5.8,31.6,13.1l-10.9,10.9l7.4,7.4l10.9-10.9
		c7.3,8.7,12,19.7,13.1,31.6h-15.5v10.5H219.9z"/>
	<path class="st2" d="M174.2,213.3c-1.5-5.2-6.3-8.8-11.7-8.8s-10.2,3.6-11.7,8.8l-8.5,29.8c-0.5,1.7-0.7,3.5-0.7,5.2
		c0,10.5,8.5,19,19,19h3.9c10.5,0,19-8.5,19-19c0-1.8-0.2-3.5-0.7-5.2L174.2,213.3z M164.4,256.9h-3.9c-4.7,0-8.6-3.8-8.6-8.6
		c0-0.8,0.1-1.6,0.3-2.3l8.5-29.8c0.2-0.7,0.9-1.2,1.6-1.2c0.8,0,1.4,0.5,1.6,1.2l8.5,29.8c0.2,0.8,0.3,1.6,0.3,2.3
		C173,253,169.1,256.9,164.4,256.9z"/>
	<path class="st2" d="M291.5,236.5c-3.8-38.4-30-71.5-66.5-84.2l-0.8-0.3H100.8l-0.8,0.3C63.4,165,37.3,198,33.5,236.5l-7.2,71.8
		c-0.1,0.5-0.1,1-0.1,1.6c0,8.4,6.8,15.2,15.2,15.2h242.1c8.4,0,15.2-6.8,15.2-15.2c0-0.5,0-1-0.1-1.5L291.5,236.5z M283.6,314.5
		H41.4c-2.6,0-4.7-2.1-4.7-5.2l7.2-71.8c3.4-34.1,26.4-63.5,58.7-75h119.8c32.3,11.5,55.3,40.9,58.7,75l7.2,71.8v0.5
		C288.3,312.4,286.2,314.5,283.6,314.5z"/>
	<path class="st2" d="M304,47.2c0,37.6-30.6,68.1-68.1,68.1h-26.2h-10.5h-73.4h-10.5H89.1C51.5,115.3,21,84.8,21,47.2V42H10.5v5.2
		c0,43.4,35.3,78.6,78.6,78.6h26.2v15.7h10.5v-15.7h10.5v15.7h10.5v-15.7h31.5v15.7h10.5v-15.7h10.5v15.7h10.5v-15.7H236
		c43.4,0,78.6-35.3,78.6-78.6V42H304V47.2z"/>
	<path class="st2" d="M41.9,41.9H31.5v10.5H42L41.9,41.9L41.9,41.9z"/>
	<path class="st2" d="M146.8,41.9H52.4v10.5h94.4V41.9z"/>
</g>
<g id="Слой_2">
	<rect x="159.3" y="174.6" class="st3" width="56.5" height="66.7"/>
	<path class="st4" d="M140.6,127H198c2.8,0,5.1-2.3,5.1-5.1V96.5c0-2.8-2.3-5.1-5.1-5.1H5.1c-2.8,0-5.1,2.3-5.1,5.1v25.4
		c0,2.8,2.3,5.1,5.1,5.1h126.3v-10.2H10.2v-15.2H193v15.2h-52.4V127z"/>
	<path class="st4" d="M45.7,142.2H20.3c-2.8,0-5.1-2.3-5.1-5.1v-15.3c0-2.8,2.3-5.1,5.1-5.1s5.1,2.3,5.1,5.1V132h15.2v-10.2
		c0-2.8,2.3-5.1,5.1-5.1s5.1,2.3,5.1,5.1v15.3C50.8,139.9,48.5,142.2,45.7,142.2z"/>
	<path class="st4" d="M182.8,142.2h-25.4c-2.8,0-5.1-2.3-5.1-5.1v-15.3c0-2.8,2.3-5.1,5.1-5.1s5.1,2.3,5.1,5.1V132h15.2v-10.2
		c0-2.8,2.3-5.1,5.1-5.1s5.1,2.3,5.1,5.1v15.3C187.9,139.9,185.6,142.2,182.8,142.2z"/>
	<path class="st4" d="M30.5,101.6c-2.8,0-5.1-2.3-5.1-5.1V5.1c0-2.8,2.3-5.1,5.1-5.1s5.1,2.3,5.1,5.1v91.5
		C35.5,99.3,33.3,101.6,30.5,101.6z"/>
	<path class="st4" d="M71.1,10.2H30.5c-2.8,0-5.1-2.3-5.1-5.1S27.7,0,30.5,0h40.6c2.8,0,5.1,2.3,5.1,5.1S74,10.2,71.1,10.2z"/>
	<path class="st4" d="M71.1,101.6c-2.8,0-5.1-2.3-5.1-5.1V5.1C66,2.3,68.3,0,71.1,0s5.1,2.3,5.1,5.1v91.5
		C76.2,99.3,74,101.6,71.1,101.6z"/>
	<path class="st4" d="M50.8,76.2c-2.8,0-5.1-2.3-5.1-5.1V30.5c0-2.8,2.3-5.1,5.1-5.1s5.1,2.3,5.1,5.1v40.6
		C55.9,73.9,53.6,76.2,50.8,76.2z"/>
	<path class="st4" d="M91.4,101.6c-2.8,0-5.1-2.3-5.1-5.1V50.8c0-2.8,2.3-5.1,5.1-5.1s5.1,2.3,5.1,5.1v45.8
		C96.5,99.3,94.2,101.6,91.4,101.6z"/>
	<path class="st4" d="M172.7,86.3H91.4c-2.8,0-5.1-2.3-5.1-5.1c0-2.8,2.3-5.1,5.1-5.1h81.3c2.8,0,5.1,2.3,5.1,5.1
		C177.7,84,175.4,86.3,172.7,86.3z"/>
	<path class="st4" d="M172.7,71.1H91.4c-2.8,0-5.1-2.3-5.1-5.1s2.3-5.1,5.1-5.1h81.3c2.8,0,5.1,2.3,5.1,5.1S175.4,71.1,172.7,71.1z"
		/>
	<path class="st4" d="M172.7,55.9H91.4c-2.8,0-5.1-2.3-5.1-5.1s2.3-5.1,5.1-5.1h81.3c2.8,0,5.1,2.3,5.1,5.1S175.4,55.9,172.7,55.9z"
		/>
	<path class="st4" d="M172.7,101.6c-2.8,0-5.1-2.3-5.1-5.1V50.8c0-2.8,2.3-5.1,5.1-5.1s5.1,2.3,5.1,5.1v45.7
		C177.7,99.3,175.4,101.6,172.7,101.6z"/>
	<path class="st4" d="M319.9,274.2H127c-2.8,0-5.1-2.3-5.1-5.1v-25.4c0-2.8,2.3-5.1,5.1-5.1h193c2.8,0,5.1,2.3,5.1,5.1v25.4
		C325,272,322.7,274.2,319.9,274.2z M132,264.1h182.8v-15.2H132V264.1z"/>
	<path class="st4" d="M304.7,289.5h-25.4c-2.8,0-5.1-2.3-5.1-5.1v-15.3c0-2.8,2.3-5.1,5.1-5.1s5.1,2.3,5.1,5.1v10.2h15.2v-10.2
		c0-2.8,2.3-5.1,5.1-5.1s5.1,2.3,5.1,5.1v15.3C309.8,287.2,307.5,289.5,304.7,289.5z"/>
	<path class="st4" d="M167.6,289.5h-25.4c-2.8,0-5.1-2.3-5.1-5.1v-15.3c0-2.8,2.3-5.1,5.1-5.1s5.1,2.3,5.1,5.1v10.2h15.2v-10.2
		c0-2.8,2.3-5.1,5.1-5.1s5.1,2.3,5.1,5.1v15.3C172.7,287.2,170.4,289.5,167.6,289.5z"/>
	<path class="st4" d="M218.3,248.8c-2.8,0-5.1-2.3-5.1-5.1v-71.1c0-2.8,2.3-5.1,5.1-5.1c2.8,0,5.1,2.3,5.1,5.1v71.1
		C223.4,246.6,221.1,248.8,218.3,248.8z"/>
	<path class="st4" d="M218.3,177.7h-30.5c-2.8,0-5.1-2.3-5.1-5.1s2.3-5.1,5.1-5.1h30.5c2.8,0,5.1,2.3,5.1,5.1
		S221.1,177.7,218.3,177.7z"/>
	<path class="st4" d="M187.8,248.8c-2.8,0-5.1-2.3-5.1-5.1v-71.1c0-2.8,2.3-5.1,5.1-5.1c2.8,0,5.1,2.3,5.1,5.1v71.1
		C192.8,246.6,190.6,248.8,187.8,248.8z"/>
	<path class="st4" d="M203.1,228.5c-2.8,0-5.1-2.3-5.1-5.1V193c0-2.8,2.3-5.1,5.1-5.1c2.8,0,5.1,2.3,5.1,5.1v30.5
		C208.1,226.2,205.9,228.5,203.1,228.5z"/>
	<path class="st4" d="M188,177.7h-30.5c-2.8,0-5.1-2.3-5.1-5.1s2.3-5.1,5.1-5.1H188c2.8,0,5.1,2.3,5.1,5.1S190.7,177.7,188,177.7z"
		/>
	<path class="st4" d="M157.4,248.8c-2.8,0-5.1-2.3-5.1-5.1v-71.1c0-2.8,2.3-5.1,5.1-5.1s5.1,2.3,5.1,5.1v71.1
		C162.5,246.6,160.3,248.8,157.4,248.8z"/>
	<path class="st4" d="M172.7,228.5c-2.8,0-5.1-2.3-5.1-5.1V193c0-2.8,2.3-5.1,5.1-5.1c2.8,0,5.1,2.3,5.1,5.1v30.5
		C177.8,226.2,175.5,228.5,172.7,228.5z"/>
	<path class="st4" d="M290,248.8c-0.2,0-0.4,0-0.6-0.1c-2.8-0.4-4.8-2.9-4.4-5.7l4.6-35.5c0.4-2.8,2.9-4.7,5.7-4.4
		c2.8,0.4,4.8,2.9,4.4,5.7l-4.6,35.5C294.7,247,292.5,248.8,290,248.8z"/>
	<path class="st4" d="M248.1,248.8c-2.5,0-4.7-1.8-5-4.4l-4.6-35.5c-0.4-2.8,1.6-5.3,4.4-5.7c2.9-0.3,5.3,1.6,5.7,4.4l4.6,35.5
		c0.4,2.8-1.6,5.3-4.4,5.7C248.6,248.8,248.4,248.8,248.1,248.8z"/>
	<path class="st4" d="M294.5,213.3h-50.8c-2.8,0-5.1-2.3-5.1-5.1s2.3-5.1,5.1-5.1h50.8c2.8,0,5.1,2.3,5.1,5.1
		S297.3,213.3,294.5,213.3z"/>
	<path class="st4" d="M269.1,213.3c-2.8,0-5.1-2.3-5.1-5.1v-30.5c0-2.8,2.3-5.1,5.1-5.1s5.1,2.3,5.1,5.1v30.5
		C274.2,211,271.9,213.3,269.1,213.3z"/>
	<path class="st4" d="M269.1,182.8c-3.2,0-6.2-1-8.8-2.8c-3.1,0.3-6.3-0.4-9-2c-2.8-1.6-4.9-3.9-6.2-6.8c-2.9-1.3-5.2-3.4-6.8-6.2
		c-1.6-2.7-2.2-5.8-2-9c-1.8-2.5-2.8-5.6-2.8-8.8c0-3.2,1-6.2,2.8-8.8c-0.3-3.1,0.4-6.2,2-9c1.6-2.8,3.9-4.9,6.8-6.2
		c1.3-2.9,3.4-5.2,6.2-6.8c2.7-1.6,5.8-2.2,9-2c5.1-3.6,12.4-3.6,17.6,0c3.1-0.3,6.3,0.4,9,2c2.8,1.6,4.9,3.9,6.2,6.8
		c2.9,1.3,5.2,3.4,6.8,6.2c1.6,2.7,2.3,5.8,2,9c1.8,2.5,2.8,5.6,2.8,8.8s-1,6.2-2.8,8.8c0.3,3.1-0.4,6.2-2,9s-3.9,4.9-6.8,6.2
		c-1.3,2.9-3.4,5.2-6.2,6.8c-2.7,1.6-5.9,2.2-9,2C275.4,181.9,272.4,182.8,269.1,182.8z M261.8,169.5c1.4,0,2.7,0.6,3.7,1.6
		c2,2,5.4,2,7.3,0c1.3-1.4,3.2-1.9,5.1-1.4c1.3,0.4,2.7,0.3,3.9-0.4c1.2-0.7,2-1.8,2.4-3.2c0.4-1.8,1.9-3.3,3.7-3.7
		c1.4-0.3,2.5-1.1,3.2-2.3c0.7-1.2,0.9-2.6,0.4-3.9c-0.5-1.8,0-3.8,1.4-5.1c1-1,1.6-2.3,1.6-3.6c0-1.3-0.6-2.7-1.6-3.7
		c-1.4-1.3-1.9-3.2-1.3-5.1c0.4-1.3,0.3-2.7-0.4-3.9s-1.8-2-3.2-2.4c-1.8-0.4-3.3-1.9-3.7-3.7c-0.3-1.4-1.2-2.5-2.3-3.2
		c-1.2-0.7-2.6-0.8-4-0.4c-1.8,0.5-3.7,0-5.1-1.4c-2-2-5.3-2-7.3,0c-1.3,1.4-3.3,1.9-5.1,1.3c-1.3-0.4-2.8-0.3-3.9,0.4
		c-1.2,0.7-2,1.8-2.4,3.2c-0.4,1.8-1.9,3.3-3.7,3.7c-1.4,0.3-2.5,1.2-3.2,2.4c-0.7,1.2-0.9,2.6-0.4,3.9c0.5,1.8,0,3.7-1.3,5.1
		c-1,1-1.6,2.3-1.6,3.7s0.6,2.7,1.6,3.7c1.4,1.3,1.9,3.3,1.4,5.1c-0.4,1.3-0.3,2.7,0.4,3.9c0.7,1.2,1.8,2,3.2,2.4
		c1.8,0.4,3.3,1.9,3.7,3.7c0.3,1.4,1.1,2.5,2.3,3.2c1.2,0.7,2.6,0.9,4,0.4C260.9,169.6,261.3,169.5,261.8,169.5z"/>
	<path class="st4" d="M269.1,162.5c-8.4,0-15.2-6.9-15.2-15.2s6.9-15.2,15.2-15.2s15.2,6.9,15.2,15.2S277.5,162.5,269.1,162.5z
		 M269.1,142.2c-2.8,0-5.1,2.3-5.1,5.1s2.3,5.1,5.1,5.1s5.1-2.3,5.1-5.1S271.9,142.2,269.1,142.2z"/>
</g>
</svg>
