<?xml version="1.0" encoding="utf-8"?>
<!-- Generator: Adobe Illustrator 21.1.0, SVG Export Plug-In . SVG Version: 6.00 Build 0)  -->
<svg version="1.1" xmlns="http://www.w3.org/2000/svg" xmlns:xlink="http://www.w3.org/1999/xlink" x="0px" y="0px"
	 viewBox="0 0 324.1 181.2" style="enable-background:new 0 0 324.1 181.2;" xml:space="preserve">
<style type="text/css">
	.st0{display:none;}
	.st1{display:inline;fill:#9AC6E5;}
	.st2{display:inline;fill:#333333;}
	.st3{fill:#9AC6E5;}
	.st4{fill:#333333;}
</style>
<g id="Слой_1" class="st0">
	<rect x="9.1" y="-135.6" class="st1" width="305" height="15"/>
	<path class="st2" d="M308.4-143.6H14.8c-8.6,0-15.7,7.1-15.7,15.7c0,8.7,7.1,15.7,15.7,15.7h293.5c8.7,0,15.7-7.1,15.7-15.7
		C324.1-136.5,317-143.6,308.4-143.6z M308.4-122.6H14.8c-2.9,0-5.2-2.4-5.2-5.2c0-2.8,2.3-5.2,5.2-5.2h293.5c2.9,0,5.2,2.4,5.2,5.2
		C313.5-125,311.3-122.6,308.4-122.6z"/>
	<path class="st2" d="M161.6,24.1c-37.6,0-68.1,30.6-68.1,68.1c0,37.6,30.6,68.1,68.1,68.1c37.6,0,68.1-30.6,68.1-68.1
		S199.2,24.1,161.6,24.1z M219,97.5c-1.1,12-5.8,22.9-13.1,31.6L195,118.2l-7.4,7.4l10.9,10.9c-10,8.3-22.9,13.4-36.9,13.4
		s-26.9-5-36.9-13.4l10.9-10.9l-7.4-7.4l-10.9,10.9c-7.3-8.7-12-19.7-13.1-31.6h15.5V87h-15.5c1.1-12,5.8-22.9,13.1-31.6l10.9,10.9
		l7.4-7.4L124.7,48c8.7-7.3,19.7-12,31.6-13.1v15.5h10.5V34.9c12,1.1,22.9,5.8,31.6,13.1l-10.9,10.9l7.4,7.4l10.9-10.9
		c7.3,8.7,12,19.7,13.1,31.6h-15.5v10.5H219z"/>
	<path class="st2" d="M173.3,69.7c-1.5-5.2-6.3-8.8-11.7-8.8s-10.2,3.6-11.7,8.8l-8.5,29.8c-0.5,1.7-0.7,3.5-0.7,5.2
		c0,10.5,8.5,19,19,19h3.9c10.5,0,19-8.5,19-19c0-1.8-0.2-3.5-0.7-5.2L173.3,69.7z M163.5,113.3h-3.9c-4.7,0-8.6-3.8-8.6-8.6
		c0-0.8,0.1-1.6,0.3-2.3l8.5-29.8c0.2-0.7,0.9-1.2,1.6-1.2c0.8,0,1.4,0.5,1.6,1.2l8.5,29.8c0.2,0.8,0.3,1.6,0.3,2.3
		C172.1,109.4,168.2,113.3,163.5,113.3z"/>
	<path class="st2" d="M290.6,92.9c-3.8-38.4-30-71.5-66.5-84.2l-0.8-0.3H99.9l-0.8,0.3C62.5,21.4,36.4,54.4,32.6,92.9l-7.2,71.8
		c-0.1,0.5-0.1,1-0.1,1.6c0,8.4,6.8,15.2,15.2,15.2h242.1c8.4,0,15.2-6.8,15.2-15.2c0-0.5,0-1-0.1-1.5L290.6,92.9z M282.7,170.9
		H40.5c-2.6,0-4.7-2.1-4.7-5.2L43,93.9c3.4-34.1,26.4-63.5,58.7-75h119.8c32.3,11.5,55.3,40.9,58.7,75l7.2,71.8v0.5
		C287.4,168.8,285.3,170.9,282.7,170.9z"/>
	<path class="st2" d="M303.1-96.4c0,37.6-30.6,68.1-68.1,68.1h-26.2h-10.5h-73.4h-10.5H88.2c-37.6,0-68.1-30.5-68.1-68.1v-5.2H9.6
		v5.2c0,43.4,35.3,78.6,78.6,78.6h26.2v15.7h10.5v-15.7h10.5v15.7h10.5v-15.7h31.5v15.7h10.5v-15.7h10.5v15.7h10.5v-15.7h26.2
		c43.4,0,78.6-35.3,78.6-78.6v-5.2h-10.6V-96.4z"/>
	<path class="st2" d="M41-101.7H30.6v10.5h10.5L41-101.7L41-101.7z"/>
	<path class="st2" d="M145.9-101.7H51.5v10.5h94.4V-101.7z"/>
</g>
<g id="Слой_2">
	<path class="st3" d="M52.5,70.3h81.7c14,0,25.3,11.3,25.3,25.3v9.5h-107V70.3z"/>
	<path class="st3" d="M271.6,72.8h-81.7c-14,0-25.3,11.3-25.3,25.3v9.5h107V72.8z"/>
	<path class="st4" d="M308.1,49.6h-6.5V25.6C301.6,11.5,290.1,0,276,0h-93c-8.6,0-16.3,4.3-20.9,10.8C157.3,4.3,149.7,0,141.1,0
		H82.7c-2.6,0-4.7,2.2-4.7,4.7s2.2,4.7,4.7,4.7h58.5c8.9,0,16.1,7.3,16.1,16.1v47.5c-0.1-0.1-0.2-0.2-0.3-0.3
		c-5.6-5.3-13.2-8.3-21-8.3H56.9c-0.4-6.3-4.7-12-10.8-14.1c-1.7-0.6-3.5-0.9-5.3-0.9h-9V25.6c0-8.9,7.3-16.1,16.2-16.1h15.6
		c2.6,0,4.7-2.2,4.7-4.7S66.3,0,63.7,0H48.1C33.9,0,22.4,11.5,22.4,25.6v23.9H16c-8.9,0-16.1,7.2-16.1,16.1v49.6
		c0,18.4,15,33.4,33.4,33.4h2.4l-5.2,14c-3.3,8.8,3.5,18.5,12.9,18.5h7.7c4.3,0,8.4-2,11-5.4l20.5-27h159.1l20.5,27
		c2.6,3.4,6.6,5.4,11,5.4h7.7c9.4,0,16.1-9.7,12.9-18.5l-5.2-14h2.4c18.4,0,33.4-15,33.4-33.4V65.7
		C324.2,56.8,316.9,49.6,308.1,49.6z M166.8,25.6c0-8.9,7.3-16.1,16.1-16.1h93c8.9,0,16.1,7.3,16.1,16.1v23.9h-8.9
		c-6.3,0-12.3,4.1-14.8,9.9c-0.7,1.6-1.1,3.4-1.2,5.1h-79.1c-7.9,0-15.6,3.2-21.3,8.5V25.6z M56.9,74.1H136
		c11.7,0,21.3,9.6,21.3,21.3v6.8H56.9V74.1z M54.4,170.1c-0.8,1.1-2.1,1.7-3.4,1.7c0,0-7.6,0-7.7,0c-2.9,0-5-3-4-5.7l6.5-17.3h24.7
		L54.4,170.1z M280.7,171.8H273c-1.3,0-2.6-0.6-3.4-1.7l-16.1-21.3h24.7c0,0,6.4,17.2,6.5,17.3C285.6,168.8,283.6,171.8,280.7,171.8
		z M290.7,139.3H33.3c-13.2,0-23.9-10.8-23.9-24V65.7c0-3.6,3-6.6,6.6-6.6h24.9c3.6,0,6.6,3,6.6,6.6v41.2c0,2.6,2.2,4.7,4.7,4.7
		h174.4c2.6,0,4.7-2.2,4.7-4.7s-2.2-4.7-4.7-4.7h-59.8v-6.8c0-11.7,9.6-21.3,21.3-21.3h79.1v28h-21.5c-2.6,0-4.7,2.2-4.7,4.7
		c0,2.6,2.2,4.7,4.7,4.7h26.2c2.6,0,4.7-2.2,4.7-4.7V65.6c0-3.6,3-6.6,6.6-6.6h24.9c3.6,0,6.6,3,6.6,6.6v49.7l0,0
		C314.7,128.5,303.9,139.3,290.7,139.3z"/>
</g>
</svg>
