<?xml version="1.0" encoding="utf-8"?>
<!-- Generator: Adobe Illustrator 21.1.0, SVG Export Plug-In . SVG Version: 6.00 Build 0)  -->
<svg version="1.1" id="Слой_1" xmlns="http://www.w3.org/2000/svg" xmlns:xlink="http://www.w3.org/1999/xlink" x="0px" y="0px"
	 viewBox="0 0 240 480" style="enable-background:new 0 0 240 480;" xml:space="preserve">
<style type="text/css">
	.st0{fill:#9AC6E5;}
	.st1{fill:#333333;}
</style>
<path class="st0" d="M74.5,8.5l-34.5,93h158.5l-31-93H74.5z"/>
<path class="st1" d="M216,208h-64v-8c0-13.3-10.7-24-24-24v-64h40v14.1l-8,16c-3.8,7.5-1.8,16.7,4.8,21.9c6.6,5.3,15.9,5.3,22.4,0
	c6.5-5.3,8.5-14.4,4.8-21.9l-8-16V112h16c2.6,0,5-1.2,6.5-3.3c1.5-2.1,1.9-4.8,1.1-7.2l-28.4-85.1C175.9,6.6,166.8,0,156.5,0H83.5
	C73.2,0,64.1,6.6,60.8,16.4l-28.4,85.1c-0.8,2.4-0.4,5.1,1.1,7.2c1.5,2.1,3.9,3.3,6.5,3.3h72v64c-13.3,0-24,10.7-24,24v8H24
	c-13.3,0-24,10.7-24,24v240c0,4.4,3.6,8,8,8h32c4.4,0,8-3.6,8-8v-24h144v24c0,4.4,3.6,8,8,8h32c4.4,0,8-3.6,8-8V232
	C240,218.7,229.3,208,216,208z M177.6,151.1c-0.9,0.8-2.3,0.8-3.2,0c-0.4-0.6-0.4-1.3-0.1-1.8l1.7-3.4l1.7,3.4
	C178,149.8,178,150.6,177.6,151.1z M75.9,21.5c1.1-3.3,4.1-5.5,7.6-5.5h72.9c3.4,0,6.5,2.2,7.6,5.5L188.9,96H51.1L75.9,21.5z
	 M16,320h208v80H16V320z M104,200c0-4.4,3.6-8,8-8h16c4.4,0,8,3.6,8,8v8h-32V200z M16,232c0-4.4,3.6-8,8-8h192c4.4,0,8,3.6,8,8v72
	H16V232z M224,464h-16v-24c0-4.4-3.6-8-8-8H40c-4.4,0-8,3.6-8,8v24H16v-48h208V464z"/>
<path class="st1" d="M128,240h-16c-4.4,0-8,3.6-8,8s3.6,8,8,8h16c4.4,0,8-3.6,8-8S132.4,240,128,240z"/>
<path class="st1" d="M128,336h-16c-4.4,0-8,3.6-8,8s3.6,8,8,8h16c4.4,0,8-3.6,8-8S132.4,336,128,336z"/>
</svg>
