<svg id="Слой_1" data-name="Слой 1" xmlns="http://www.w3.org/2000/svg" viewBox="0 0 500 500"><defs><style>.cls-1{fill:none;}.cls-1,.cls-2,.cls-3{stroke:#201600;stroke-linejoin:round;stroke-width:15px;}.cls-2{fill:#fff;}.cls-3{fill:#8cc3e5;}.cls-4{fill:#201600;}</style></defs><polygon class="cls-1" points="92.94 72.63 92.94 166.12 92.94 259.61 92.94 398.06 247.38 398.06 247.38 259.61 247.38 166.12 247.38 72.63 92.94 72.63"/><polygon class="cls-2" points="92.94 398.06 92.94 405.23 92.94 412.4 92.94 423.02 401.83 423.02 401.83 412.4 401.83 405.23 401.83 398.06 92.94 398.06"/><polygon class="cls-2" points="92.94 47.66 92.94 54.83 92.94 62 92.94 72.63 401.83 72.63 401.83 62 401.83 54.83 401.83 47.66 92.94 47.66"/><polygon class="cls-3" points="137.51 108.63 137.51 181.44 137.51 254.24 137.51 362.05 202.81 362.05 202.81 254.24 202.81 181.44 202.81 108.63 137.51 108.63"/><polygon class="cls-1" points="401.83 72.63 401.83 166.12 401.83 259.61 401.83 398.06 247.38 398.06 247.38 259.61 247.38 166.12 247.38 72.63 401.83 72.63"/><polygon class="cls-3" points="357.25 108.63 357.25 181.44 357.25 254.24 357.25 362.05 291.96 362.05 291.96 254.24 291.96 181.44 291.96 108.63 357.25 108.63"/><rect class="cls-4" x="219.76" y="180.21" width="11.67" height="103.4" rx="5.84"/><rect class="cls-4" x="263.83" y="180.21" width="11.67" height="103.4" rx="5.84"/></svg>