<?xml version="1.0" encoding="utf-8"?>
<!-- Generator: Adobe Illustrator 21.1.0, SVG Export Plug-In . SVG Version: 6.00 Build 0)  -->
<svg version="1.1" id="Слой_1" xmlns="http://www.w3.org/2000/svg" xmlns:xlink="http://www.w3.org/1999/xlink" x="0px" y="0px"
	 viewBox="0 0 286.5 325" style="enable-background:new 0 0 286.5 325;" xml:space="preserve">
<style type="text/css">
	.st0{display:none;}
	.st1{display:inline;fill:#9AC6E5;}
	.st2{display:inline;fill:#333333;}
	.st3{fill:#333333;}
	.st4{fill:#9AC6E5;}
</style>
<g id="Слой_1_1_" class="st0">
	<rect x="10" y="8" class="st1" width="305" height="15"/>
	<path class="st2" d="M309.3,0H15.7C7.1,0,0,7.1,0,15.7c0,8.7,7.1,15.7,15.7,15.7h293.5c8.7,0,15.7-7.1,15.7-15.7
		C325,7.1,317.9,0,309.3,0z M309.3,21H15.7c-2.9,0-5.2-2.4-5.2-5.2s2.3-5.2,5.2-5.2h293.5c2.9,0,5.2,2.4,5.2,5.2S312.2,21,309.3,21z
		"/>
	<path class="st2" d="M162.5,167.7c-37.6,0-68.1,30.6-68.1,68.1c0,37.6,30.6,68.1,68.1,68.1c37.6,0,68.1-30.6,68.1-68.1
		S200.1,167.7,162.5,167.7z M219.9,241.1c-1.1,12-5.8,22.9-13.1,31.6l-10.9-10.9l-7.4,7.4l10.9,10.9c-10,8.3-22.9,13.4-36.9,13.4
		s-26.9-5-36.9-13.4l10.9-10.9l-7.4-7.4l-10.9,10.9c-7.3-8.7-12-19.7-13.1-31.6h15.5v-10.5h-15.5c1.1-12,5.8-22.9,13.1-31.6
		l10.9,10.9l7.4-7.4l-10.9-10.9c8.7-7.3,19.7-12,31.6-13.1V194h10.5v-15.5c12,1.1,22.9,5.8,31.6,13.1l-10.9,10.9l7.4,7.4l10.9-10.9
		c7.3,8.7,12,19.7,13.1,31.6h-15.5v10.5H219.9z"/>
	<path class="st2" d="M174.2,213.3c-1.5-5.2-6.3-8.8-11.7-8.8s-10.2,3.6-11.7,8.8l-8.5,29.8c-0.5,1.7-0.7,3.5-0.7,5.2
		c0,10.5,8.5,19,19,19h3.9c10.5,0,19-8.5,19-19c0-1.8-0.2-3.5-0.7-5.2L174.2,213.3z M164.4,256.9h-3.9c-4.7,0-8.6-3.8-8.6-8.6
		c0-0.8,0.1-1.6,0.3-2.3l8.5-29.8c0.2-0.7,0.9-1.2,1.6-1.2c0.8,0,1.4,0.5,1.6,1.2l8.5,29.8c0.2,0.8,0.3,1.6,0.3,2.3
		C173,253,169.1,256.9,164.4,256.9z"/>
	<path class="st2" d="M291.5,236.5c-3.8-38.4-30-71.5-66.5-84.2l-0.8-0.3H100.8l-0.8,0.3C63.4,165,37.3,198,33.5,236.5l-7.2,71.8
		c-0.1,0.5-0.1,1-0.1,1.6c0,8.4,6.8,15.2,15.2,15.2h242.1c8.4,0,15.2-6.8,15.2-15.2c0-0.5,0-1-0.1-1.5L291.5,236.5z M283.6,314.5
		H41.4c-2.6,0-4.7-2.1-4.7-5.2l7.2-71.8c3.4-34.1,26.4-63.5,58.7-75h119.8c32.3,11.5,55.3,40.9,58.7,75l7.2,71.8v0.5
		C288.3,312.4,286.2,314.5,283.6,314.5z"/>
	<path class="st2" d="M304,47.2c0,37.6-30.6,68.1-68.1,68.1h-26.2h-10.5h-73.4h-10.5H89.1C51.5,115.3,21,84.8,21,47.2V42H10.5v5.2
		c0,43.4,35.3,78.6,78.6,78.6h26.2v15.7h10.5v-15.7h10.5v15.7h10.5v-15.7h31.5v15.7h10.5v-15.7h10.5v15.7h10.5v-15.7H236
		c43.4,0,78.6-35.3,78.6-78.6V42H304V47.2z"/>
	<path class="st2" d="M41.9,41.9H31.5v10.5H42L41.9,41.9L41.9,41.9z"/>
	<path class="st2" d="M146.8,41.9H52.4v10.5h94.4V41.9z"/>
</g>
<g id="Слой_2">
	<g>
		<path class="st3" d="M281.6,36c2.6,0,4.8-2.2,4.8-4.8V11.4c0-6.5-5.3-11.8-11.8-11.8H11.8C5.3-0.4,0,4.9,0,11.4v307.8
			c0,3.5,2.8,6.3,6.3,6.3h13.4c3.2,0,6.2-1.9,7.6-4.8l2.2-4.7h227.8l1.7,4.3c1.3,3.2,4.3,5.3,7.8,5.3h13.1c3.5,0,6.3-2.8,6.3-6.3
			v-268c0-2.6-2.2-4.8-4.8-4.8c-2.6,0-4.8,2.2-4.8,4.8V286h-60V9.1h57.7c1.2,0,2.2,1,2.2,2.2v19.9C276.8,33.9,279,36,281.6,36z
			 M9.6,11.4c0-1.2,1-2.2,2.2-2.2h57.1v261.4c0,2.6,2.2,4.8,4.8,4.8s4.8-2.2,4.8-4.8V9.1h60V286H9.6V11.4z M276.8,315.9h-9.2
			l-1.7-4.3c-1.3-3.2-4.3-5.3-7.8-5.3H28.8c-3.2,0-6.2,1.9-7.6,4.8l-2.2,4.7H9.6v-20.4h267.3L276.8,315.9z M207.3,286H148V9.1h59.3
			V286z"/>
		<path class="st4" d="M55.2,137.5c-2.6,0-4.8,2.2-4.8,4.8v10.5c0,2.6,2.2,4.8,4.8,4.8s4.8-2.2,4.8-4.8v-10.5
			C59.9,139.6,57.8,137.5,55.2,137.5z"/>
		<path class="st4" d="M93.4,137.5c-2.6,0-4.8,2.2-4.8,4.8v10.5c0,2.6,2.2,4.8,4.8,4.8c2.6,0,4.8-2.2,4.8-4.8v-10.5
			C98.2,139.6,96.1,137.5,93.4,137.5z"/>
		<path class="st4" d="M194.2,157.6c2.6,0,4.8-2.2,4.8-4.8v-10.5c0-2.6-2.2-4.8-4.8-4.8s-4.8,2.2-4.8,4.8v10.5
			C189.5,155.5,191.6,157.6,194.2,157.6z"/>
		<path class="st4" d="M224.5,142.3v10.5c0,2.6,2.2,4.8,4.8,4.8s4.8-2.2,4.8-4.8v-10.5c0-2.6-2.2-4.8-4.8-4.8
			C226.6,137.5,224.5,139.6,224.5,142.3z"/>
	</g>
</g>
</svg>
