<?xml version="1.0" encoding="utf-8"?>
<!-- Generator: Adobe Illustrator 21.1.0, SVG Export Plug-In . SVG Version: 6.00 Build 0)  -->
<svg version="1.1" id="Слой_1" xmlns="http://www.w3.org/2000/svg" xmlns:xlink="http://www.w3.org/1999/xlink" x="0px" y="0px"
	 viewBox="0 0 325 323.3" style="enable-background:new 0 0 325 323.3;" xml:space="preserve">
<style type="text/css">
	.st0{display:none;}
	.st1{display:inline;fill:#9AC6E5;}
	.st2{display:inline;fill:#333333;}
	.st3{fill:#333333;}
	.st4{fill:#6FBEDD;}
	.st5{fill:#9AC6E5;}
</style>
<g id="Слой_1_1_" class="st0">
	<rect x="10" y="6.3" class="st1" width="305" height="15"/>
	<path class="st2" d="M309.3-1.7H15.7C7.1-1.7,0,5.4,0,14c0,8.7,7.1,15.7,15.7,15.7h293.5c8.7,0,15.7-7.1,15.7-15.7
		C325,5.4,317.9-1.7,309.3-1.7z M309.3,19.3H15.7c-2.9,0-5.2-2.4-5.2-5.2s2.3-5.2,5.2-5.2h293.5c2.9,0,5.2,2.4,5.2,5.2
		S312.2,19.3,309.3,19.3z"/>
	<path class="st2" d="M162.5,166c-37.6,0-68.1,30.6-68.1,68.1c0,37.6,30.6,68.1,68.1,68.1c37.6,0,68.1-30.6,68.1-68.1
		S200.1,166,162.5,166z M219.9,239.4c-1.1,12-5.8,22.9-13.1,31.6l-10.9-10.9l-7.4,7.4l10.9,10.9c-10,8.3-22.9,13.4-36.9,13.4
		s-26.9-5-36.9-13.4l10.9-10.9l-7.4-7.4L118.2,271c-7.3-8.7-12-19.7-13.1-31.6h15.5v-10.5h-15.5c1.1-12,5.8-22.9,13.1-31.6
		l10.9,10.9l7.4-7.4l-10.9-10.9c8.7-7.3,19.7-12,31.6-13.1v15.5h10.5v-15.5c12,1.1,22.9,5.8,31.6,13.1l-10.9,10.9l7.4,7.4l10.9-10.9
		c7.3,8.7,12,19.7,13.1,31.6h-15.5v10.5H219.9z"/>
	<path class="st2" d="M174.2,211.6c-1.5-5.2-6.3-8.8-11.7-8.8s-10.2,3.6-11.7,8.8l-8.5,29.8c-0.5,1.7-0.7,3.5-0.7,5.2
		c0,10.5,8.5,19,19,19h3.9c10.5,0,19-8.5,19-19c0-1.8-0.2-3.5-0.7-5.2L174.2,211.6z M164.4,255.2h-3.9c-4.7,0-8.6-3.8-8.6-8.6
		c0-0.8,0.1-1.6,0.3-2.3l8.5-29.8c0.2-0.7,0.9-1.2,1.6-1.2c0.8,0,1.4,0.5,1.6,1.2l8.5,29.8c0.2,0.8,0.3,1.6,0.3,2.3
		C173,251.3,169.1,255.2,164.4,255.2z"/>
	<path class="st2" d="M291.5,234.8c-3.8-38.4-30-71.5-66.5-84.2l-0.8-0.3H100.8l-0.8,0.3c-36.6,12.7-62.7,45.7-66.5,84.2l-7.2,71.8
		c-0.1,0.5-0.1,1-0.1,1.6c0,8.4,6.8,15.2,15.2,15.2h242.1c8.4,0,15.2-6.8,15.2-15.2c0-0.5,0-1-0.1-1.5L291.5,234.8z M283.6,312.8
		H41.4c-2.6,0-4.7-2.1-4.7-5.2l7.2-71.8c3.4-34.1,26.4-63.5,58.7-75h119.8c32.3,11.5,55.3,40.9,58.7,75l7.2,71.8v0.5
		C288.3,310.7,286.2,312.8,283.6,312.8z"/>
	<path class="st2" d="M304,45.5c0,37.6-30.6,68.1-68.1,68.1h-26.2h-10.5h-73.4h-10.5H89.1C51.5,113.6,21,83.1,21,45.5v-5.2H10.5v5.2
		c0,43.4,35.3,78.6,78.6,78.6h26.2v15.7h10.5v-15.7h10.5v15.7h10.5v-15.7h31.5v15.7h10.5v-15.7h10.5v15.7h10.5v-15.7H236
		c43.4,0,78.6-35.3,78.6-78.6v-5.2H304V45.5z"/>
	<path class="st2" d="M41.9,40.2H31.5v10.5H42L41.9,40.2L41.9,40.2z"/>
	<path class="st2" d="M146.8,40.2H52.4v10.5h94.4V40.2z"/>
</g>
<g id="Слой_2">
	<path class="st3" d="M308.8-0.7H16.3C7.3-0.7,0,6.6,0,15.6v292.5c0,9,7.3,16.3,16.3,16.3h292.5c9,0,16.3-7.3,16.3-16.3V15.6
		C325,6.6,317.7-0.7,308.8-0.7z M146.3,129.3c3,0,5.4-2.4,5.4-5.4V31.8h21.6v92.1c0,3,2.4,5.4,5.4,5.4s5.4-2.4,5.4-5.4V31.8h21.6
		V151h-86.6V31.8h21.6v92.1C140.9,126.9,143.3,129.3,146.3,129.3z M119.1,161.8h86.6v43.4h-86.6V161.8z M119.1,216h86.6v43.4h-86.6
		V216z M205.9,10.2V21h-86.7V10.2H205.9z M10.9,308.1V15.6c0-3,2.4-5.4,5.4-5.4h92.1v303.4H16.3C13.3,313.5,10.9,311.1,10.9,308.1z
		 M119.1,313.5v-43.4h86.6v43.4H119.1L119.1,313.5z M314.1,308.1c0,3-2.4,5.4-5.4,5.4h-92.1V10.2h92.1c3,0,5.4,2.4,5.4,5.4V308.1z"
		/>
	<path class="st4" d="M167.9,172.7H157c-3,0-5.4,2.4-5.4,5.4s2.4,5.4,5.4,5.4h10.9c3,0,5.4-2.4,5.4-5.4
		C173.4,175.1,170.9,172.7,167.9,172.7z"/>
	<path class="st5" d="M167.9,226.8H157c-3,0-5.4,2.4-5.4,5.4s2.4,5.4,5.4,5.4h10.9c3,0,5.4-2.4,5.4-5.4
		C173.4,229.2,170.9,226.8,167.9,226.8z"/>
	<path class="st5" d="M167.9,281H157c-3,0-5.4,2.4-5.4,5.4s2.4,5.4,5.4,5.4h10.9c3,0,5.4-2.4,5.4-5.4
		C173.4,283.5,170.9,281,167.9,281z"/>
	<path class="st5" d="M27.1,48.1c1.5,0,2.8-0.6,3.8-1.6l16.3-16.3c2-2.1,2-5.5-0.1-7.6s-5.5-2.1-7.6-0.1L23.2,38.8
		c-1.5,1.5-2,3.9-1.1,5.9C23,46.8,24.9,48.1,27.1,48.1z"/>
	<path class="st5" d="M79.7,22.6c-1-1-2.4-1.6-3.8-1.6c-1.5,0-2.8,0.6-3.8,1.6L23.3,71.3c-1.4,1.3-2,3.4-1.5,5.3s2,3.4,3.9,3.9
		s3.9-0.1,5.3-1.5l48.8-48.8c1-1,1.6-2.4,1.6-3.8C81.3,25,80.7,23.6,79.7,22.6z"/>
	<path class="st5" d="M88.2,277.2L72,293.4c-1.4,1.3-2,3.4-1.5,5.3s2,3.4,3.9,3.9s3.9-0.1,5.3-1.5L96,284.8c2-2.1,2-5.5-0.1-7.6
		S90.4,275.1,88.2,277.2z"/>
	<path class="st5" d="M95.9,244.7c-1-1-2.4-1.6-3.8-1.6s-2.8,0.6-3.8,1.6l-48.8,48.7c-1.4,1.3-2,3.4-1.5,5.3s2,3.4,3.9,3.9
		s3.9-0.1,5.3-1.5L96,252.4c1-1,1.6-2.4,1.6-3.8C97.5,247.1,96.9,245.7,95.9,244.7z"/>
	<path class="st5" d="M232.9,48.1c1.5,0,2.8-0.6,3.8-1.6L253,30.2c1.4-1.3,2-3.4,1.5-5.3s-2-3.4-3.9-3.9s-3.9,0.1-5.3,1.5L229,38.8
		c-1.5,1.5-2,3.9-1.1,5.9C228.8,46.8,230.7,48.1,232.9,48.1z"/>
	<path class="st5" d="M285.5,22.6c-1-1-2.4-1.6-3.8-1.6c-1.5,0-2.8,0.6-3.8,1.6l-48.8,48.8c-1.4,1.3-2,3.4-1.5,5.3s2,3.4,3.9,3.9
		s3.9-0.1,5.3-1.5l48.8-48.8c1-1,1.6-2.4,1.6-3.8C287.1,25,286.5,23.6,285.5,22.6z"/>
	<path class="st5" d="M294.1,277.2l-16.3,16.3c-1.4,1.3-2,3.4-1.5,5.3s2,3.4,3.9,3.9s3.9-0.1,5.3-1.5l16.3-16.3c2-2.1,2-5.5-0.1-7.6
		S296.2,275.1,294.1,277.2z"/>
	<path class="st5" d="M294.1,244.7l-48.8,48.7c-1.4,1.3-2,3.4-1.5,5.3s2,3.4,3.9,3.9s3.9-0.1,5.3-1.5l48.8-48.8c2-2.1,2-5.5-0.1-7.6
		C299.6,242.6,296.2,242.6,294.1,244.7z"/>
</g>
</svg>
