<?xml version="1.0" encoding="utf-8"?>
<!-- Generator: Adobe Illustrator 21.1.0, SVG Export Plug-In . SVG Version: 6.00 Build 0)  -->
<svg version="1.1" id="Слой_1" xmlns="http://www.w3.org/2000/svg" xmlns:xlink="http://www.w3.org/1999/xlink" x="0px" y="0px"
	 viewBox="0 0 480 480" style="enable-background:new 0 0 480 480;" xml:space="preserve">
<style type="text/css">
	.st0{fill:#9AC6E5;}
	.st1{fill:#333333;}
</style>
<rect x="155" y="379" class="st0" width="315" height="45"/>
<rect x="11" y="299" class="st0" width="104" height="26"/>
<path class="st1" d="M120,288h-16v-24c0-2.1-0.8-4.2-2.3-5.7S98.1,256,96,256H72v-40h32c1.2,0,2.4-0.3,3.5-0.8
	c1.1-0.5,2-1.3,2.8-2.3c0.7-1,1.3-2.1,1.5-3.3c0.3-1.2,0.2-2.4-0.1-3.6l-16-64c-0.4-1.7-1.4-3.3-2.8-4.4c-1.4-1.1-3.1-1.7-4.9-1.7
	H40c-1.8,0-3.5,0.6-4.9,1.7c-1.4,1.1-2.4,2.6-2.8,4.4l-16,64c-0.3,1.2-0.3,2.4-0.1,3.6c0.3,1.2,0.8,2.3,1.5,3.3
	c0.7,1,1.7,1.7,2.8,2.3c1.1,0.5,2.3,0.8,3.5,0.8h32v40H32c-2.1,0-4.2,0.8-5.7,2.3c-1.5,1.5-2.3,3.5-2.3,5.7v24H8
	c-2.1,0-4.2,0.8-5.7,2.3C0.8,291.8,0,293.9,0,296v32c0,2.1,0.8,4.2,2.3,5.7c1.5,1.5,3.5,2.3,5.7,2.3v136c0,2.1,0.8,4.2,2.3,5.7
	c1.5,1.5,3.5,2.3,5.7,2.3h32c2.1,0,4.2-0.8,5.7-2.3c1.5-1.5,2.3-3.5,2.3-5.7v-24h16v24c0,2.1,0.8,4.2,2.3,5.7
	c1.5,1.5,3.5,2.3,5.7,2.3h32c2.1,0,4.2-0.8,5.7-2.3s2.3-3.5,2.3-5.7V336c2.1,0,4.2-0.8,5.7-2.3s2.3-3.5,2.3-5.7v-32
	c0-2.1-0.8-4.2-2.3-5.7S122.1,288,120,288z M46.2,152h35.5l12,48H34.2L46.2,152z M40,272h48v16H40V272z M16,304h96v16H16V304z
	 M24,416h80v16H24V416z M40,464H24v-16h16V464z M88,464v-16h16v16H88z M104,400H24v-64h80V400z"/>
<path class="st1" d="M88,352H72v16h16V352z"/>
<path class="st1" d="M184,112h256c2.1,0,4.2-0.8,5.7-2.3s2.3-3.5,2.3-5.7V8c0-2.1-0.8-4.2-2.3-5.7C444.2,0.8,442.1,0,440,0H184
	c-2.1,0-4.2,0.8-5.7,2.3C176.8,3.8,176,5.9,176,8v96c0,2.1,0.8,4.2,2.3,5.7S181.9,112,184,112z M192,16h240v80H192V16z"/>
<path class="st1" d="M408,32H216c-2.1,0-4.2,0.8-5.7,2.3c-1.5,1.5-2.3,3.5-2.3,5.7v32c0,2.1,0.8,4.2,2.3,5.7
	c1.5,1.5,3.5,2.3,5.7,2.3h192c2.1,0,4.2-0.8,5.7-2.3c1.5-1.5,2.3-3.5,2.3-5.7V40c0-2.1-0.8-4.2-2.3-5.7C412.2,32.8,410.1,32,408,32z
	 M400,64H224V48h176V64z"/>
<path class="st1" d="M464,217v72.5c4.7,1.6,8.7,4.7,11.6,8.7c2.9,4,4.4,8.9,4.4,13.8v160c0,2.1-0.8,4.2-2.3,5.7s-3.5,2.3-5.7,2.3
	h-32c-2.1,0-4.2-0.8-5.7-2.3s-2.3-3.5-2.3-5.7v-40H192v40c0,2.1-0.8,4.2-2.3,5.7s-3.5,2.3-5.7,2.3h-32c-2.1,0-4.2-0.8-5.7-2.3
	s-2.3-3.5-2.3-5.7V312c0-4.9,1.6-9.8,4.4-13.8c2.9-4,6.9-7.1,11.6-8.7V168c0-6.4,2.5-12.5,7-17c4.5-4.5,10.6-7,17-7h256
	c6.4,0,12.5,2.5,17,7c4.5,4.5,7,10.6,7,17v38h-16v-38c0-2.1-0.8-4.2-2.3-5.7s-3.5-2.3-5.7-2.3H184c-2.1,0-4.2,0.8-5.7,2.3
	s-2.3,3.5-2.3,5.7v120h16v-40c0-6.4,2.5-12.5,7-17c4.5-4.5,10.6-7,17-7h64c6.4,0,12.5,2.5,17,7c4.5,4.5,7,10.6,7,17v40h16v-40
	c0-6.4,2.5-12.5,7-17c4.5-4.5,10.6-7,17-7h64c6.4,0,12.5,2.5,17,7c4.5,4.5,7,10.6,7,17v40h16v-71H464z M464,384H160v32h304V384z
	 M336,288h80v-40c0-2.1-0.8-4.2-2.3-5.7s-3.5-2.3-5.7-2.3h-64c-2.1,0-4.2,0.8-5.7,2.3s-2.3,3.5-2.3,5.7V288z M208,288h80v-40
	c0-2.1-0.8-4.2-2.3-5.7s-3.5-2.3-5.7-2.3h-64c-2.1,0-4.2,0.8-5.7,2.3s-2.3,3.5-2.3,5.7V288z M456,304H168c-2.1,0-4.2,0.8-5.7,2.3
	s-2.3,3.5-2.3,5.7v56h304v-56c0-2.1-0.8-4.2-2.3-5.7S458.1,304,456,304z M160,432v32h16v-32H160z M448,432v32h16v-32H448z"/>
</svg>
