<?xml version="1.0" encoding="utf-8"?>
<!-- Generator: Adobe Illustrator 21.1.0, SVG Export Plug-In . SVG Version: 6.00 Build 0)  -->
<svg version="1.1" xmlns="http://www.w3.org/2000/svg" xmlns:xlink="http://www.w3.org/1999/xlink" x="0px" y="0px"
	 viewBox="0 0 322 322.3" style="enable-background:new 0 0 322 322.3;" xml:space="preserve">
<style type="text/css">
	.st0{display:none;}
	.st1{display:inline;fill:#9AC6E5;}
	.st2{display:inline;fill:#333333;}
	.st3{fill:#9AC6E5;}
	.st4{fill:#333333;}
</style>
<g id="Слой_1" class="st0">
	<rect x="7" y="5.3" class="st1" width="305" height="15"/>
	<path class="st2" d="M306.3-2.7H12.7C4.1-2.7-3,4.4-3,13c0,8.7,7.1,15.7,15.7,15.7h293.5c8.7,0,15.7-7.1,15.7-15.7
		C322,4.4,314.9-2.7,306.3-2.7z M306.3,18.3H12.7c-2.9,0-5.2-2.4-5.2-5.2s2.3-5.2,5.2-5.2h293.5c2.9,0,5.2,2.4,5.2,5.2
		S309.2,18.3,306.3,18.3z"/>
	<path class="st2" d="M159.5,165c-37.6,0-68.1,30.6-68.1,68.1c0,37.6,30.6,68.1,68.1,68.1c37.6,0,68.1-30.6,68.1-68.1
		S197.1,165,159.5,165z M216.9,238.4c-1.1,12-5.8,22.9-13.1,31.6l-10.9-10.9l-7.4,7.4l10.9,10.9c-10,8.3-22.9,13.4-36.9,13.4
		s-26.9-5-36.9-13.4l10.9-10.9l-7.4-7.4L115.2,270c-7.3-8.7-12-19.7-13.1-31.6h15.5v-10.5h-15.5c1.1-12,5.8-22.9,13.1-31.6
		l10.9,10.9l7.4-7.4l-10.9-10.9c8.7-7.3,19.7-12,31.6-13.1v15.5h10.5v-15.5c12,1.1,22.9,5.8,31.6,13.1l-10.9,10.9l7.4,7.4l10.9-10.9
		c7.3,8.7,12,19.7,13.1,31.6h-15.5v10.5H216.9z"/>
	<path class="st2" d="M171.2,210.6c-1.5-5.2-6.3-8.8-11.7-8.8s-10.2,3.6-11.7,8.8l-8.5,29.8c-0.5,1.7-0.7,3.5-0.7,5.2
		c0,10.5,8.5,19,19,19h3.9c10.5,0,19-8.5,19-19c0-1.8-0.2-3.5-0.7-5.2L171.2,210.6z M161.4,254.2h-3.9c-4.7,0-8.6-3.8-8.6-8.6
		c0-0.8,0.1-1.6,0.3-2.3l8.5-29.8c0.2-0.7,0.9-1.2,1.6-1.2c0.8,0,1.4,0.5,1.6,1.2l8.5,29.8c0.2,0.8,0.3,1.6,0.3,2.3
		C170,250.3,166.1,254.2,161.4,254.2z"/>
	<path class="st2" d="M288.5,233.8c-3.8-38.4-30-71.5-66.5-84.2l-0.8-0.3H97.8l-0.8,0.3c-36.6,12.7-62.7,45.7-66.5,84.2l-7.2,71.8
		c-0.1,0.5-0.1,1-0.1,1.6c0,8.4,6.8,15.2,15.2,15.2h242.1c8.4,0,15.2-6.8,15.2-15.2c0-0.5,0-1-0.1-1.5L288.5,233.8z M280.6,311.8
		H38.4c-2.6,0-4.7-2.1-4.7-5.2l7.2-71.8c3.4-34.1,26.4-63.5,58.7-75h119.8c32.3,11.5,55.3,40.9,58.7,75l7.2,71.8v0.5
		C285.3,309.7,283.2,311.8,280.6,311.8z"/>
	<path class="st2" d="M301,44.5c0,37.6-30.6,68.1-68.1,68.1h-26.2h-10.5h-73.4h-10.5H86.1C48.5,112.6,18,82.1,18,44.5v-5.2H7.5v5.2
		c0,43.4,35.3,78.6,78.6,78.6h26.2v15.7h10.5v-15.7h10.5v15.7h10.5v-15.7h31.5v15.7h10.5v-15.7h10.5v15.7h10.5v-15.7H233
		c43.4,0,78.6-35.3,78.6-78.6v-5.2H301V44.5z"/>
	<path class="st2" d="M38.9,39.2H28.5v10.5H39L38.9,39.2L38.9,39.2z"/>
	<path class="st2" d="M143.8,39.2H49.4v10.5h94.4V39.2z"/>
</g>
<g id="Слой_2" class="st0">
</g>
<g id="Слой_3">
	<path class="st3" d="M241.4,165.5l6,45h44.7l6.9-45H241.4z"/>
	<path class="st4" d="M139.2,109.6c0,3.5-2.8,6.3-6.3,6.3h16.6v-12.6h-16.6C136.4,103.3,139.2,106.1,139.2,109.6z"/>
	<path class="st4" d="M179.5,109.6c0-3.5,2.8-6.3,6.3-6.3h-25.3v12.6h25.3C182.3,115.9,179.5,113,179.5,109.6z"/>
	<path class="st4" d="M300.3,206.5h15.3c3.5,0,6.3,2.8,6.3,6.3V316c0,3.5-2.8,6.3-6.3,6.3H5.9c-3.5,0-6.3-2.8-6.3-6.3V109.7v-0.1
		V6.3C-0.4,2.8,2.4,0,5.9,0h103.3c3.5,0,6.3,2.8,6.3,6.3v97h17.4c3.5,0,6.3,2.8,6.3,6.3c0,3.5-2.8,6.3-6.3,6.3h-17.4v90.6h90.7
		v-90.6h-17.3h-3c-3.5,0-6.3-2.8-6.3-6.3c0-3.5,2.8-6.3,6.3-6.3h3h23.6c3.5,0,6.3,2.8,6.3,6.3v96.9h21.7l-6.3-40.9
		c-0.1-0.8-0.1-1.6,0.1-2.4c-0.1-0.1-0.1-0.2-0.2-0.3c-0.1-0.2-0.3-0.3-0.3-0.5c-13.3-19.6-14.9-41.6-14.9-42.5
		c-0.1-2.3,0.9-4.4,2.8-5.7c1.9-1.3,4.3-1.4,6.3-0.3c0.7,0.3,13.2,6.8,24.9,18.7c2.3-21.5,11.6-37.7,12.1-38.4
		c1.1-1.9,3.2-3.1,5.4-3.1l0,0c2.2,0,4.3,1.2,5.4,3.1c0.4,0.8,9.9,17.1,12.2,38.8c11.7-12,24.1-18.6,24.8-19c2-1.1,4.5-0.9,6.4,0.3
		c1.9,1.3,3,3.4,2.9,5.7c-0.1,0.9-1.6,22.9-14.9,42.5c-0.1,0.1-0.2,0.3-0.3,0.4c-0.1,0.1-0.1,0.2-0.2,0.3c0.2,0.8,0.3,1.6,0.1,2.4
		L300.3,206.5z M74.9,309.7c0.2,0,0.3-0.1,0.3-0.3v-18.5c0-0.2-0.1-0.3-0.3-0.3h-20H12.5c-0.2,0-0.3,0.1-0.3,0.3v18.5
		c0,0.2,0.1,0.3,0.3,0.3H74.9z M12.2,265.5v12.2c0,0.2,0.1,0.3,0.3,0.3h42.3c0.2,0,0.3-0.1,0.3-0.3v-12.2c0-0.2-0.1-0.3-0.3-0.3
		H12.5C12.3,265.2,12.2,265.3,12.2,265.5z M87.8,309.7h15.1v-90.7H12.2v33.6c0.1,0,0.1,0,0.1,0c0.1,0,0.1,0,0.2,0h42.3
		c7.1,0,12.9,5.8,12.9,12.9v12.2c0,0.1,0,0.2,0,0.3h7.2c7.1,0,12.9,5.8,12.9,12.9v18.5C87.8,309.5,87.8,309.6,87.8,309.7
		C87.8,309.6,87.8,309.7,87.8,309.7z M31.1,167.4h1.3h50.4H84v-17.6H31.1C31.1,149.8,31.1,167.4,31.1,167.4z M76.4,206.5V180H38.7
		v26.4H76.4z M89,206.5h13.9V116H12.2v90.5h13.9V180h-1.3c-3.5,0-6.3-2.8-6.3-6.3v-30.2c0-3.5,2.8-6.3,6.3-6.3h65.5
		c3.5,0,6.3,2.8,6.3,6.3v30.2c0,3.5-2.8,6.3-6.3,6.3H89V206.5z M78.6,88.8c0-6.5-2.4-12.7-6.7-17.6c-6.4-7.2-9.8-16.4-9.8-25.9v-9.4
		H53v9.4c0,9.6-3.5,18.8-9.8,25.9c-4.3,4.8-6.7,11.1-6.7,17.6v14.5h42.2C78.6,103.3,78.6,88.8,78.6,88.8z M91.2,103.3h11.6V12.5
		H12.2v90.7h11.6V88.7c0-9.6,3.5-18.8,9.8-25.9c4.3-4.8,6.7-11.1,6.7-17.6V29.5c0-3.5,2.8-6.3,6.3-6.3h21.8c3.5,0,6.3,2.8,6.3,6.3
		v15.7c0,6.5,2.4,12.7,6.7,17.6c6.4,7.2,9.8,16.4,9.8,25.9V103.3z M148.9,309.7c0.2,0,0.3-0.1,0.3-0.3v-42.3c0-0.2-0.1-0.3-0.3-0.3
		h-12.2c-0.2,0-0.3,0.1-0.3,0.3v42.3c0,0.2,0.1,0.3,0.3,0.3H148.9z M174.1,309.7c0.2,0,0.3-0.1,0.3-0.3v-62.3c0-0.2-0.1-0.3-0.3-0.3
		h-12c-0.2,0-0.3,0.1-0.3,0.3v20v42.3c0,0.2,0.1,0.3,0.3,0.3H174.1z M162.1,234.2h12c2.4,0,4.7,0.7,6.6,1.8c2-1.1,4.2-1.8,6.6-1.8
		h18.5c0.1,0,0.1,0,0.2,0s0.1,0,0.1,0v-15.1h-90.7v90.7h8.4c0-0.1,0-0.2,0-0.3v-42.3c0-7.1,5.8-12.9,12.9-12.9h12.2
		c0.1,0,0.1,0,0.2,0c0.1,0,0.1,0,0.1,0V247C149.2,240,155,234.2,162.1,234.2z M205.8,309.7c0.2,0,0.3-0.1,0.3-0.3v-62.4
		c0-0.1-0.1-0.3-0.3-0.3h-18.5c-0.2,0-0.3,0.1-0.3,0.3v62.3c0,0.2,0.1,0.3,0.3,0.3L205.8,309.7L205.8,309.7z M288.4,152.1
		c-0.2,0.3-0.4,0.6-0.7,0.9c-0.3,1.8-0.5,3.6-0.8,5.4h7.7c0.8-1,1.4-2,2.1-3c5.1-7.6,8.2-15.6,10.1-22.3
		C300.8,137.7,293.8,144.1,288.4,152.1z M275.8,141.8c0-11.3-2.8-21.7-5.5-29.2c-2.7,7.5-5.5,17.9-5.5,29.2c0,5.4,0.6,10.8,1.8,16.5
		h7.3C275.2,152.7,275.8,147.2,275.8,141.8z M275.3,170.9h-9.9h-3.7h-14.1l5.5,35.6h34.5l5.5-35.6H279H275.3z M252.4,151.8
		c-5.5-8-12.5-14.4-18.5-19c1.8,6.7,5,14.9,10.1,22.5c0.7,1,1.4,2,2.1,3h7.7c-0.4-2-0.7-3.9-0.9-5.9
		C252.8,152.2,252.6,152,252.4,151.8z M252.7,309.7h56.7v-90.7h-90.7v28v62.3v0.3h21.4v-42.2h12.6V309.7z"/>
	<rect x="240.1" y="249.3" class="st4" width="12.6" height="12.6"/>
</g>
</svg>
