<svg width="512" height="495" viewBox="0 0 512 495" fill="none" xmlns="http://www.w3.org/2000/svg">
<rect x="170" y="111" width="172" height="17" fill="#82B2D8"/>
<rect x="170" y="213" width="172" height="18" fill="#82B2D8"/>
<path fill-rule="evenodd" clip-rule="evenodd" d="M384 0H503.467L512 0.0010004V8.534V128V247.467V325H494.933V256H469.333H443.733H418.133H392.533V307.2V358.4H494.933V339.5H512V366.934V486.401V494.934H503.467H384H128H8.533H0L0 486.401V366.934V247.467V128.001V8.534L0 0.0010004H8.533H128H136.533V8.534V128V247.467V298.666H206.268C205.321 295.995 204.8 293.124 204.8 290.133C204.8 276.019 216.286 264.533 230.4 264.533H247.466V247.466H162.133H153.6V238.933V102.4V93.867H162.133H349.866H358.399V102.4V238.934V247.467H349.866H264.533V264.534H281.6C295.714 264.534 307.2 276.02 307.2 290.134C307.2 293.125 306.68 295.996 305.732 298.667H375.467V247.467V128V8.533V0H384ZM170.667 145.067H341.334V196.267H170.667V145.067ZM341.333 110.934V128.001H170.667V110.934H341.333ZM170.667 213.334H341.334V230.401H170.667V213.334ZM375.466 477.867H264.533V384H315.733H375.466V477.867ZM307.2 366.934H204.8V349.867H307.2V366.934ZM494.933 238.934H477.866V170.667C477.866 165.948 474.043 162.134 469.333 162.134H443.733H418.133C413.423 162.134 409.6 165.948 409.6 170.667V238.934H392.533V136.534H494.933V238.934ZM426.667 238.934V179.201H435.2V238.934H426.667ZM452.267 179.2H460.8V238.933H452.267V179.2ZM392.533 17.067H494.933V119.467H392.533V17.067ZM221.867 290.134C221.867 285.424 225.698 281.601 230.4 281.601H281.6C286.302 281.601 290.133 285.424 290.133 290.134C290.133 294.844 286.302 298.667 281.6 298.667H230.4C225.698 298.667 221.867 294.844 221.867 290.134ZM230.4 315.734H281.6H375.467V366.934H324.267V349.867C324.267 340.455 316.613 332.8 307.2 332.8H204.8C195.388 332.8 187.733 340.454 187.733 349.867V366.934H136.533V315.734H230.4ZM51.2 324.267H85.333V332.8H51.2V324.267ZM85.333 307.2H51.2V298.667H85.333V307.2ZM51.2 349.867H85.333V358.4H51.2V349.867ZM102.4 341.334V315.734V290.134C102.4 285.415 98.577 281.601 93.867 281.601H42.667C37.957 281.601 34.134 285.415 34.134 290.134V315.734V341.334V358.401H17.067V256.001H119.467V307.201V358.401H102.4V341.334ZM59.733 102.4H76.8V119.467H59.733V102.4ZM51.2 136.534H85.333H119.466V238.934H17.066V136.534H51.2ZM17.067 17.067H119.467V119.467H93.867V102.4C98.577 102.4 102.4 98.586 102.4 93.867C102.4 89.148 98.577 85.334 93.867 85.334H85.334H51.2H42.667C37.957 85.334 34.134 89.148 34.134 93.867C34.134 98.586 37.957 102.4 42.667 102.4V119.467H17.067V17.067ZM17.067 375.467H42.667H93.867H119.467V477.867H17.067V375.467ZM136.533 384H196.266H247.466V477.867H136.533V384ZM494.933 477.867H477.866V409.6C477.866 404.881 474.043 401.067 469.333 401.067C464.623 401.067 460.8 404.881 460.8 409.6V477.867H452.267V409.6C452.267 404.881 448.444 401.067 443.734 401.067C439.024 401.067 435.201 404.881 435.201 409.6V477.867H426.668V409.6C426.668 404.881 422.845 401.067 418.135 401.067C413.425 401.067 409.602 404.881 409.602 409.6V477.867H392.535V375.467H494.935V477.867H494.933Z" fill="#333333"/>
<path d="M221.867 401.067H204.8C200.09 401.067 196.267 404.881 196.267 409.6C196.267 414.319 200.09 418.133 204.8 418.133H213.333V426.666C213.333 431.385 217.156 435.199 221.866 435.199C226.576 435.199 230.399 431.385 230.399 426.666V409.599C230.4 404.881 226.577 401.067 221.867 401.067Z" fill="#82B2D8"/>
<path d="M307.2 401.067H290.133C285.423 401.067 281.6 404.881 281.6 409.6V426.667C281.6 431.386 285.423 435.2 290.133 435.2C294.843 435.2 298.666 431.386 298.666 426.667V418.134H307.199C311.909 418.134 315.732 414.32 315.732 409.601C315.732 404.882 311.91 401.067 307.2 401.067Z" fill="#82B2D8"/>
</svg>
