<?xml version="1.0" encoding="utf-8"?>
<!-- Generator: Adobe Illustrator 21.1.0, SVG Export Plug-In . SVG Version: 6.00 Build 0)  -->
<svg version="1.1" id="Слой_1" xmlns="http://www.w3.org/2000/svg" xmlns:xlink="http://www.w3.org/1999/xlink" x="0px" y="0px"
	 viewBox="0 0 277.8 325" style="enable-background:new 0 0 277.8 325;" xml:space="preserve">
<style type="text/css">
	.st0{display:none;}
	.st1{display:inline;fill:#9AC6E5;}
	.st2{display:inline;fill:#333333;}
	.st3{fill:#333333;}
	.st4{fill:#9AC6E5;}
</style>
<g id="Слой_1_1_" class="st0">
	<rect x="10" y="8" class="st1" width="305" height="15"/>
	<path class="st2" d="M309.3,0H15.7C7.1,0,0,7.1,0,15.7c0,8.7,7.1,15.7,15.7,15.7h293.5c8.7,0,15.7-7.1,15.7-15.7
		C325,7.1,317.9,0,309.3,0z M309.3,21H15.7c-2.9,0-5.2-2.4-5.2-5.2s2.3-5.2,5.2-5.2h293.5c2.9,0,5.2,2.4,5.2,5.2S312.2,21,309.3,21z
		"/>
	<path class="st2" d="M162.5,167.7c-37.6,0-68.1,30.6-68.1,68.1c0,37.6,30.6,68.1,68.1,68.1c37.6,0,68.1-30.6,68.1-68.1
		S200.1,167.7,162.5,167.7z M219.9,241.1c-1.1,12-5.8,22.9-13.1,31.6l-10.9-10.9l-7.4,7.4l10.9,10.9c-10,8.3-22.9,13.4-36.9,13.4
		s-26.9-5-36.9-13.4l10.9-10.9l-7.4-7.4l-10.9,10.9c-7.3-8.7-12-19.7-13.1-31.6h15.5v-10.5h-15.5c1.1-12,5.8-22.9,13.1-31.6
		l10.9,10.9l7.4-7.4l-10.9-10.9c8.7-7.3,19.7-12,31.6-13.1V194h10.5v-15.5c12,1.1,22.9,5.8,31.6,13.1l-10.9,10.9l7.4,7.4l10.9-10.9
		c7.3,8.7,12,19.7,13.1,31.6h-15.5v10.5H219.9z"/>
	<path class="st2" d="M174.2,213.3c-1.5-5.2-6.3-8.8-11.7-8.8s-10.2,3.6-11.7,8.8l-8.5,29.8c-0.5,1.7-0.7,3.5-0.7,5.2
		c0,10.5,8.5,19,19,19h3.9c10.5,0,19-8.5,19-19c0-1.8-0.2-3.5-0.7-5.2L174.2,213.3z M164.4,256.9h-3.9c-4.7,0-8.6-3.8-8.6-8.6
		c0-0.8,0.1-1.6,0.3-2.3l8.5-29.8c0.2-0.7,0.9-1.2,1.6-1.2c0.8,0,1.4,0.5,1.6,1.2l8.5,29.8c0.2,0.8,0.3,1.6,0.3,2.3
		C173,253,169.1,256.9,164.4,256.9z"/>
	<path class="st2" d="M291.5,236.5c-3.8-38.4-30-71.5-66.5-84.2l-0.8-0.3H100.8l-0.8,0.3C63.4,165,37.3,198,33.5,236.5l-7.2,71.8
		c-0.1,0.5-0.1,1-0.1,1.6c0,8.4,6.8,15.2,15.2,15.2h242.1c8.4,0,15.2-6.8,15.2-15.2c0-0.5,0-1-0.1-1.5L291.5,236.5z M283.6,314.5
		H41.4c-2.6,0-4.7-2.1-4.7-5.2l7.2-71.8c3.4-34.1,26.4-63.5,58.7-75h119.8c32.3,11.5,55.3,40.9,58.7,75l7.2,71.8v0.5
		C288.3,312.4,286.2,314.5,283.6,314.5z"/>
	<path class="st2" d="M304,47.2c0,37.6-30.6,68.1-68.1,68.1h-26.2h-10.5h-73.4h-10.5H89.1C51.5,115.3,21,84.8,21,47.2V42H10.5v5.2
		c0,43.4,35.3,78.6,78.6,78.6h26.2v15.7h10.5v-15.7h10.5v15.7h10.5v-15.7h31.5v15.7h10.5v-15.7h10.5v15.7h10.5v-15.7H236
		c43.4,0,78.6-35.3,78.6-78.6V42H304V47.2z"/>
	<path class="st2" d="M41.9,41.9H31.5v10.5H42L41.9,41.9L41.9,41.9z"/>
	<path class="st2" d="M146.8,41.9H52.4v10.5h94.4V41.9z"/>
</g>
<g id="Слой_2">
	<g>
		<g>
			<path class="st3" d="M272.6,0.1H5.2C2.3,0.1,0,2.4,0,5.3V320c0,2.9,2.3,5.2,5.2,5.2h267.3c2.9,0,5.2-2.3,5.2-5.2V5.3
				C277.8,2.4,275.4,0.1,272.6,0.1z M10.4,10.5h72.9v51.9H10.4V10.5z M267.3,273.3h-43.4c-2.9,0-5.2,2.3-5.2,5.2v20.7
				c0,2.9,2.3,5.2,5.2,5.2s5.2-2.3,5.2-5.2v-15.6h38.2v31.1H10.4v-242h256.9V273.3L267.3,273.3z M267.3,62.3H93.7V10.5h173.6V62.3z"
				/>
		</g>
	</g>
	<g>
		<g>
			<path class="st3" d="M223.5,144.2c-0.1-0.2-0.1-0.5-0.3-0.7c-12.3-34.8-45.5-59.9-84.5-59.9c-49.4,0-89.5,40.1-89.5,89.5
				s40.1,89.5,89.5,89.5c39,0,72.2-25,84.5-59.9c0.1-0.2,0.2-0.5,0.3-0.7c3.1-9.1,4.8-18.8,4.8-28.9
				C228.3,163,226.6,153.3,223.5,144.2z M138.8,252.3c-43.7,0-79.2-35.5-79.2-79.2s35.5-79.2,79.2-79.2c32,0,59.6,19.1,72.1,46.5
				h-19.5c-11.3-18.1-31.2-29.3-52.6-29.3c-34.2,0-62,27.8-62,62s27.8,62,62,62c21.5,0,41.3-11.1,52.6-29.3h19.5
				C198.4,233.2,170.8,252.3,138.8,252.3z M183.3,146.9v52.3c-9.3,15.7-26.2,25.5-44.5,25.5c-28.5,0-51.6-23.2-51.6-51.6
				c0-28.5,23.2-51.6,51.6-51.6C157.1,121.5,174.1,131.2,183.3,146.9z M214.8,195.5h-21.1v-44.8h21.1c2.1,7.1,3.2,14.6,3.2,22.4
				C218,180.9,216.9,188.4,214.8,195.5z"/>
		</g>
	</g>
	<g>
		<g>
			<g>
				<path class="st4" d="M192.2,21.7c-8.5,0-15.5,6.9-15.5,15.5s6.9,15.5,15.5,15.5s15.5-6.9,15.5-15.5S200.7,21.7,192.2,21.7z
					 M192.2,42.3c-2.8,0-5.2-2.3-5.2-5.2c0-2.8,2.3-5.2,5.2-5.2c2.8,0,5.2,2.3,5.2,5.2S195,42.3,192.2,42.3z"/>
			</g>
		</g>
	</g>
	<g>
		<g>
			<g>
				<path class="st4" d="M233.5,21.7c-8.5,0-15.5,6.9-15.5,15.5s6.9,15.5,15.5,15.5c8.5,0,15.5-6.9,15.5-15.5S242,21.7,233.5,21.7z
					 M233.5,42.3c-2.8,0-5.2-2.3-5.2-5.2c0-2.8,2.3-5.2,5.2-5.2c2.8,0,5.2,2.3,5.2,5.2S236.3,42.3,233.5,42.3z"/>
			</g>
		</g>
	</g>
	<g>
		<g>
			<g>
				<path class="st4" d="M68.3,21.7H26.9c-2.9,0-5.2,2.3-5.2,5.2s2.3,5.2,5.2,5.2h41.3c2.9,0,5.2-2.3,5.2-5.2S71.1,21.7,68.3,21.7z"
					/>
			</g>
		</g>
	</g>
	<path class="st4" d="M118.6,200.5c3,0,5.4,2.4,5.4,5.4s2.4,5.4,5.4,5.4c3,0,5.4-2.4,5.4-5.4s2.4-5.4,5.4-5.4s5.4-2.4,5.4-5.4
		s-2.4-5.4-5.4-5.4s-5.4-2.4-5.4-5.4s-2.4-5.4-5.4-5.4s-5.4,2.4-5.4,5.4s-2.4,5.4-5.4,5.4s-5.4,2.4-5.4,5.4
		C113.2,198.1,115.6,200.5,118.6,200.5z"/>
</g>
</svg>
