<?xml version="1.0" encoding="utf-8"?>
<!-- Generator: Adobe Illustrator 21.1.0, SVG Export Plug-In . SVG Version: 6.00 Build 0)  -->
<svg version="1.1" id="Слой_1" xmlns="http://www.w3.org/2000/svg" xmlns:xlink="http://www.w3.org/1999/xlink" x="0px" y="0px"
	 viewBox="0 0 325 177.5" style="enable-background:new 0 0 325 177.5;" xml:space="preserve">
<style type="text/css">
	.st0{display:none;}
	.st1{display:inline;fill:#9AC6E5;}
	.st2{display:inline;fill:#333333;}
	.st3{display:inline;}
	.st4{fill:#9AC6E5;}
	.st5{display:inline;fill:#FFFFFF;stroke:#000000;stroke-width:5;stroke-miterlimit:10;}
	.st6{display:inline;fill:none;stroke:#000000;stroke-width:5;stroke-miterlimit:10;}
	.st7{display:inline;fill:#FFFFFF;}
	.st8{fill:#68B9DD;}
	.st9{fill:none;stroke:#353333;stroke-width:5;stroke-miterlimit:10;}
	.st10{fill:none;stroke:#9AC6E5;stroke-width:5;stroke-miterlimit:10;}
	.st11{fill:#333333;}
	.st12{fill:#FFFFFF;stroke:#000000;stroke-width:10;stroke-miterlimit:10;}
	.st13{stroke:#333333;stroke-width:10;stroke-miterlimit:10;}
	.st14{fill:#333333;stroke:#333333;stroke-width:10;stroke-miterlimit:10;}
	.st15{fill:#8BBAF2;stroke:#000000;stroke-width:10;stroke-miterlimit:10;}
	.st16{fill:none;stroke:#333333;stroke-width:10;stroke-miterlimit:10;}
</style>
<g id="Слой_1_1_" class="st0">
	<rect x="10" y="-139.5" class="st1" width="305" height="15"/>
	<path class="st2" d="M309.3-147.5H15.7c-8.6,0-15.7,7.1-15.7,15.7c0,8.7,7.1,15.7,15.7,15.7h293.5c8.7,0,15.7-7.1,15.7-15.7
		C325-140.4,317.9-147.5,309.3-147.5z M309.3-126.5H15.7c-2.9,0-5.2-2.4-5.2-5.2s2.3-5.2,5.2-5.2h293.5c2.9,0,5.2,2.4,5.2,5.2
		S312.2-126.5,309.3-126.5z"/>
	<path class="st2" d="M162.5,20.2c-37.6,0-68.1,30.6-68.1,68.1c0,37.6,30.6,68.1,68.1,68.1c37.6,0,68.1-30.6,68.1-68.1
		S200.1,20.2,162.5,20.2z M219.9,93.6c-1.1,12-5.8,22.9-13.1,31.6l-10.9-10.9l-7.4,7.4l10.9,10.9c-10,8.3-22.9,13.4-36.9,13.4
		s-26.9-5-36.9-13.4l10.9-10.9l-7.4-7.4l-10.9,10.9c-7.3-8.7-12-19.7-13.1-31.6h15.5V83.1h-15.5c1.1-12,5.8-22.9,13.1-31.6
		l10.9,10.9l7.4-7.4l-10.9-10.9c8.7-7.3,19.7-12,31.6-13.1v15.5h10.5V31c12,1.1,22.9,5.8,31.6,13.1L188.4,55l7.4,7.4l10.9-10.9
		c7.3,8.7,12,19.7,13.1,31.6h-15.5v10.5H219.9z"/>
	<path class="st2" d="M174.2,65.8c-1.5-5.2-6.3-8.8-11.7-8.8s-10.2,3.6-11.7,8.8l-8.5,29.8c-0.5,1.7-0.7,3.5-0.7,5.2
		c0,10.5,8.5,19,19,19h3.9c10.5,0,19-8.5,19-19c0-1.8-0.2-3.5-0.7-5.2L174.2,65.8z M164.4,109.4h-3.9c-4.7,0-8.6-3.8-8.6-8.6
		c0-0.8,0.1-1.6,0.3-2.3l8.5-29.8c0.2-0.7,0.9-1.2,1.6-1.2c0.8,0,1.4,0.5,1.6,1.2l8.5,29.8c0.2,0.8,0.3,1.6,0.3,2.3
		C173,105.5,169.1,109.4,164.4,109.4z"/>
	<path class="st2" d="M291.5,89c-3.8-38.4-30-71.5-66.5-84.2l-0.8-0.3H100.8L100,4.8C63.4,17.5,37.3,50.5,33.5,89l-7.2,71.8
		c-0.1,0.5-0.1,1-0.1,1.6c0,8.4,6.8,15.2,15.2,15.2h242.1c8.4,0,15.2-6.8,15.2-15.2c0-0.5,0-1-0.1-1.5L291.5,89z M283.6,167H41.4
		c-2.6,0-4.7-2.1-4.7-5.2L43.9,90c3.4-34.1,26.4-63.5,58.7-75h119.8c32.3,11.5,55.3,40.9,58.7,75l7.2,71.8v0.5
		C288.3,164.9,286.2,167,283.6,167z"/>
	<path class="st2" d="M304-100.3c0,37.6-30.6,68.1-68.1,68.1h-26.2h-10.5h-73.4h-10.5H89.1C51.5-32.2,21-62.7,21-100.3v-5.2H10.5
		v5.2c0,43.4,35.3,78.6,78.6,78.6h26.2V-6h10.5v-15.7h10.5V-6h10.5v-15.7h31.5V-6h10.5v-15.7h10.5V-6h10.5v-15.7H236
		c43.4,0,78.6-35.3,78.6-78.6v-5.2H304V-100.3z"/>
	<path class="st2" d="M41.9-105.6H31.5v10.5H42L41.9-105.6L41.9-105.6z"/>
	<path class="st2" d="M146.8-105.6H52.4v10.5h94.4V-105.6z"/>
</g>
<g id="Слой_2" class="st0">
	<rect x="35.2" y="44.8" class="st1" width="253.3" height="34.2"/>
	<path class="st2" d="M317.4-60.5c-6.6-11.6-27.9-19.3-53.1-19.3c-12.3,0-24.3,1.9-34,5.5c-9.6-3.5-21.5-5.5-34-5.5
		s-24.3,1.9-34,5.5c-9.6-3.5-21.5-5.5-34-5.5s-24.3,1.9-34,5.5c-9.4-3.6-21.4-5.5-33.7-5.5c-25.2,0-46.5,7.7-53.1,19.3
		c-1.4,2.4-2.2,5.1-2.2,7.7v84.6c0,8.7,7.4,15.8,16.5,15.8h7.3v23.8c0,8.7,7.4,15.8,16.5,15.8h13.9V98c0,4,3.4,7.3,7.6,7.3h29.7
		c4.1,0,7.6-3.2,7.6-7.3V87.2h115.8V98c0,4,3.4,7.3,7.6,7.3h29.7c4.1,0,7.6-3.2,7.6-7.3V87.2H279c9.1,0,16.5-7.1,16.5-15.8V47.6h7.3
		c9.1,0,16.5-7.1,16.5-15.8v-84.6C319.6-55.4,318.9-58.1,317.4-60.5z M95.4,96.3H68.8v-9.1h26.5L95.4,96.3L95.4,96.3z M256.2,96.3
		h-26.5v-9.1h26.5V96.3z M286.6,71.4c0,3.8-3.2,6.8-7.3,6.8H45.8c-4.1,0-7.3-3.1-7.3-6.8V47.6h248.1V71.4z M310.4,32
		c0,3.8-3.2,6.8-7.3,6.8H21.9c-4.1,0-7.3-3.1-7.3-6.8v-63.2h78.8c2.5,0,4.6-2,4.6-4.5s-2.1-4.5-4.6-4.5H14.6v-12.5
		c0-1.1,0.3-2.3,0.9-3.3c0,0,0-0.1,0.1-0.1c4.1-7.1,21.2-14.7,45.1-14.7c12,0,23.4,1.9,32.2,5.5c1.2,0.4,2.4,0.4,3.5,0
		c8.7-3.5,20.2-5.5,32.2-5.5s23.4,1.9,32.2,5.5c1.2,0.4,2.4,0.4,3.5,0c8.7-3.5,20.2-5.5,32.2-5.5s23.4,1.9,32.2,5.5
		c1.2,0.4,2.4,0.4,3.5,0c8.7-3.5,20.2-5.5,32.2-5.5c23.9,0,41,7.5,45.1,14.7c0,0,0,0.1,0.1,0.1c0.6,1.1,0.9,2.1,0.9,3.3v12.5H111.7
		c-2.5,0-4.6,2-4.6,4.5s2.1,4.5,4.6,4.5h198.7V32z"/>
	<path class="st2" d="M83.2-5c-1.8-1.8-4.7-1.8-6.5-0.1l-3.2,3l-3.2-3C68.6-6.9,65.7-6.8,64-5c-1.8,1.8-1.7,4.6,0.1,6.3l3,2.8
		l-3,2.8c-1.8,1.8-1.9,4.6-0.1,6.3c0.9,0.9,2.1,1.3,3.3,1.3c1.2,0,2.3-0.4,3.2-1.2l3.2-3l3.2,3c0.9,0.9,2.1,1.2,3.2,1.2
		c1.2,0,2.4-0.4,3.3-1.3c1.8-1.8,1.7-4.6-0.1-6.3l-3-2.8l3-2.8C85-0.4,85-3.3,83.2-5z"/>
	<path class="st2" d="M241.8,13.3c0.9,0.9,2.1,1.3,3.3,1.3s2.3-0.4,3.2-1.2l3.2-3l3.2,3c0.9,0.9,2.1,1.2,3.2,1.2
		c1.2,0,2.4-0.4,3.3-1.3c1.8-1.8,1.7-4.6-0.1-6.3l-3-2.8l3-2.8c1.8-1.8,1.9-4.6,0.1-6.3c-1.8-1.8-4.7-1.8-6.5-0.1l-3.2,3l-3.2-3
		c-1.8-1.8-4.8-1.7-6.5,0.1c-1.8,1.8-1.7,4.6,0.1,6.3l3,2.8l-3,2.8C240.1,8.6,240,11.4,241.8,13.3z"/>
	<path class="st2" d="M152.8,13.3c0.9,0.9,2.1,1.3,3.3,1.3s2.3-0.4,3.2-1.2l3.2-3l3.2,3c0.9,0.9,2.1,1.2,3.2,1.2s2.4-0.4,3.3-1.3
		c1.8-1.8,1.7-4.6-0.1-6.3l-3-2.8l3-2.8c1.8-1.8,1.9-4.6,0.1-6.3s-4.7-1.8-6.5-0.1l-3.2,3l-3.2-3c-1.8-1.8-4.8-1.7-6.5,0.1
		c-1.8,1.8-1.7,4.6,0.1,6.3l3,2.8l-3,2.8C151.1,8.6,151.1,11.4,152.8,13.3z"/>
</g>
<g id="Слой_3" class="st0">
	<g class="st3">
		<g>
			<path d="M226,114.8l-8.3-18.7c-4-9-6-18.6-6-28.4c0-2.9-2.4-5.3-5.3-5.3h-95.8c-2.9,0-5.3,2.4-5.3,5.3v3.5
				c0,10.8-2.6,21.7-7.5,31.3l-5.3,10.7c-5.6,11.2-8.5,23.6-8.5,36.1v19.4c0,2.9,2.4,5.3,5.3,5.3h138.3c2.9,0,5.3-2.4,5.3-5.3v-21.2
				C232.9,136.2,230.5,125.2,226,114.8z M222.2,163.4H94.6l0,0v-14.1c0-10.8,2.6-21.6,7.4-31.3l5.3-10.6c5.4-10.6,8.3-22.4,8.6-34.3
				h85.3c0.6,9.5,2.9,18.6,6.8,27.4l8.3,18.7c4,9,6,18.6,6,28.4L222.2,163.4L222.2,163.4z"/>
		</g>
	</g>
	<g class="st3">
		<g>
			<path d="M231.6-95.3c-1-1.1-2.5-1.8-4-1.8H73.4c-1.9,0-3.7,1.1-4.7,2.8s-0.8,3.8,0.2,5.5L89.5-58l15.8,126.4
				c0.3,2.7,2.6,4.7,5.3,4.7h95.7c2.7,0,4.9-2,5.3-4.6L232.9-91C233-92.6,232.6-94.1,231.6-95.3z M201.6,62.4h-86.3L99.9-60.5
				c-0.1-0.8-0.4-1.6-0.9-2.3L83.3-86.4h138.2L201.6,62.4z"/>
		</g>
	</g>
	<g class="st3">
		<g>
			<path d="M201-123.7h-85.1c-17.6,0-31.9,14.3-31.9,31.9c0,2.9,2.4,5.3,5.3,5.3h138.3c2.9,0,5.3-2.4,5.3-5.3
				C232.9-109.4,218.5-123.7,201-123.7z M95.3-97.1c2.4-9.2,10.7-16,20.6-16H201c9.9,0,18.3,6.8,20.6,16H95.3z"/>
		</g>
	</g>
	<g class="st3">
		<g>
			<path d="M179.7-144.9h-42.6c-2.9,0-5.3,2.4-5.3,5.3v21.2c0,2.9,2.4,5.3,5.3,5.3h42.6c2.9,0,5.3-2.4,5.3-5.3v-21.2
				C185-142.6,182.7-144.9,179.7-144.9z M174.4-123.7h-31.9v-10.6h31.9V-123.7z"/>
		</g>
	</g>
	<g class="st3">
		<g>
			<path d="M270.1-75.8h-42.6v10.7h42.6c2.9,0,5.3,2.4,5.3,5.3v87.4c0.1,2.5-1.7,4.7-4.1,5.3l-60.9,13.8l2.4,10.3l60.9-13.8
				c7.4-1.7,12.5-8.4,12.3-15.8v-87.2C286-68.7,278.9-75.8,270.1-75.8z"/>
		</g>
	</g>
	<g class="st3">
		<g>
			<path d="M259.5-54.5h-37.2v10.7h31.9v59.6l-43.7,9.7l2.3,10.4l47.9-10.7c2.4-0.6,4.2-2.7,4.2-5.2v-69.2
				C264.8-52.2,262.4-54.5,259.5-54.5z"/>
		</g>
	</g>
	<g class="st3">
		<g>
			<g>
				
					<rect x="129.2" y="-65.2" transform="matrix(0.9989 -4.759365e-02 4.759365e-02 0.9989 0.5952 6.3935)" class="st4" width="10.7" height="111.8"/>
			</g>
		</g>
	</g>
	<g class="st3">
		<g>
			<g>
				
					<rect x="126.5" y="-14.7" transform="matrix(4.779181e-02 -0.9989 0.9989 4.779181e-02 183.0122 173.21)" class="st4" width="111.8" height="10.7"/>
			</g>
		</g>
	</g>
	<g class="st3">
		<g>
			<g>
				<path class="st4" d="M158.4,94.3c-14.6,0-26.6,11.9-26.6,26.6s11.9,26.6,26.6,26.6c14.6,0,26.6-11.9,26.6-26.6
					S173.1,94.3,158.4,94.3z M158.4,136.9c-8.8,0-16-7.2-16-16s7.2-16,16-16s16,7.2,16,16S167.2,136.9,158.4,136.9z"/>
			</g>
		</g>
	</g>
</g>
<g id="Слой_4" class="st0">
	<g id="Слой_2_1_" class="st3">
		<g>
			<path class="st4" d="M172.5,112.4h-14.3c-3.4,0-6.2-2.8-6.2-6.2V-65c0-3.4,2.8-6.2,6.2-6.2h14.3c3.4,0,6.2,2.8,6.2,6.2v171.2
				C178.7,109.6,175.9,112.4,172.5,112.4z"/>
			<path class="st4" d="M193-106h-55.2c-3.4,0-6.2-2.8-6.2-6.2v-3.7c0-3.4,2.8-6.2,6.2-6.2H193c3.4,0,6.2,2.8,6.2,6.2v3.7
				C199.2-108.8,196.4-106,193-106z"/>
		</g>
	</g>
	<g id="Слой_1_2_" class="st3">
		<g id="outline">
			<path d="M243.7,80c-1.2-53.5-3.8-107.7-7.8-160.9l-9.9,0.7c4,53,6.6,107,7.8,160.3L243.7,80z"/>
			<path d="M309-8.9v-79.7c0-2.7-2.2-5-5-5h-49.3c-0.1-1.7-0.2-3.3-0.4-5V-99c-0.2-2.4-2-4.3-4.4-4.5c-15-1.7-30.1-2.9-45.2-3.7
				v-16.1c0-2.7-2.2-5-5-5h-69.5c-2.7,0-5,2.2-5,5v15.8c-18.4,0.8-36.9,2.1-55.2,4.2c-2.4,0.4-4.2,2.5-4.4,5c-0.1,1.7-0.2,3.3-0.4,5
				H31.1c-2.7,0-5,2.2-5,5c0,0.2,0,0.4,0.1,0.6C29.5-61,39.9-35.5,56.1-13.8l3.8,5c-2.7,51.4-4,101.6-4,153.5c0,2.7,2.2,5,5,5h5
				v14.9c0,2.7,2.2,5,5,5h178.7c2.7,0,5-2.2,5-5v-14.9h5c2.7,0,5-2.2,5-5c0-19.2-0.2-38.1-0.6-57l8.9-8.9C296,55.7,309.1,24,309-8.9
				z M257-63.8h22.2v52.2c0,19.3-5.8,38.2-16.7,54.1C261.4,7.5,259.6-27.6,257-63.8z M135.3-118.4h59.6v10.8
				c-19.9-0.9-39.7-1-59.6-0.4L135.3-118.4L135.3-118.4z M129.9-97.8c0.1,0,0.2,0.1,0.4,0.1s0.3-0.1,0.5-0.1
				c22.8-0.8,45.5-0.7,68.3,0.4c0.2,0.1,0.4,0.1,0.7,0.1c0.1,0,0.3-0.1,0.4-0.1c14.9,0.7,29.7,1.9,44.5,3.5
				c6.5,81.1,9.5,155.6,9.6,233.7H65.8C65.9,61.8,69-12.6,75.4-94C93.5-96,111.7-97.2,129.9-97.8z M36.8-83.6h27.9
				c-1.5,20-2.9,39.7-3.9,59.1C48.5-42.2,40.3-62.4,36.8-83.6z M244.5,159.6H75.7v-9.9h168.8V159.6z M263.5,74
				c-0.1-5.3-0.2-10.5-0.4-15.8c16.8-19.4,26.1-44.1,26.1-69.7v-57.2c0-2.7-2.2-5-5-5h-27.9c-0.2-3.3-0.5-6.6-0.7-9.9h43.6v74.8
				c0.1,30.3-12,59.4-33.4,80.7L263.5,74z"/>
			<path d="M165.1,119.9c11,0,19.9-8.9,19.9-19.9V-58.8c0-11-8.9-19.9-19.9-19.9s-19.9,8.9-19.9,19.9V100
				C145.2,111,154.1,119.9,165.1,119.9z M155.1-58.8c0-5.5,4.5-9.9,9.9-9.9c5.5,0,9.9,4.5,9.9,9.9V100c0,5.5-4.5,9.9-9.9,9.9
				c-5.5,0-9.9-4.5-9.9-9.9V-58.8z"/>
		</g>
	</g>
	<circle class="st1" cx="238.5" cy="93.6" r="5.2"/>
</g>
<g id="Слой_5" class="st0">
	<path class="st5" d="M269.4,48.3h-87.9c-13.7,0-24.9-11.2-24.9-24.9V-7.5c0-13.7,11.2-24.9,24.9-24.9h87.9
		c13.7,0,24.9,11.2,24.9,24.9v31C294.3,37.1,283.1,48.3,269.4,48.3z"/>
	<path class="st5" d="M139.2,107.8V43.3c0-8.4,6.9-15.3,15.3-15.3h142c8.4,0,15.3,6.9,15.3,15.3v64.5
		C311.7,116.1,139.2,116.1,139.2,107.8z"/>
	<polygon class="st5" points="159.8,121.2 139.3,121.2 139.3,111 166.5,111 	"/>
	<polygon class="st5" points="291.1,121.2 311.7,121.2 311.7,111 284.4,111 	"/>
	<rect x="136.5" y="105.5" class="st5" width="177.5" height="7"/>
	<line class="st6" x1="139.2" y1="48.3" x2="311.7" y2="48.3"/>
	<path class="st7" d="M46.6-105.8l-17,45.7h77.9l-15.2-45.7H46.6z"/>
	<path class="st5" d="M116.2-7.7H84.7v-3.9c0-6.5-5.3-11.8-11.8-11.8v-31.5h19.7v6.9l-3.9,7.9c-1.8,3.7-0.9,8.2,2.3,10.8
		c3.2,2.6,7.8,2.6,11,0s4.2-7.1,2.3-10.8l-3.9-7.9v-6.9h7.9c1.3,0,2.5-0.6,3.2-1.6s0.9-2.3,0.5-3.5l-14-41.8
		c-1.6-4.8-6.1-8.1-11.2-8.1H50.9c-5.1,0-9.6,3.3-11.2,8.1L25.7-60c-0.4,1.2-0.2,2.5,0.5,3.5s1.9,1.6,3.2,1.6h35.4v31.4
		c-6.5,0-11.8,5.3-11.8,11.8v3.9H21.5C15-7.8,9.7-2.5,9.7,4v118c0,2.2,1.8,3.9,3.9,3.9h15.7c2.2,0,3.9-1.8,3.9-3.9v-11.8H104V122
		c0,2.2,1.8,3.9,3.9,3.9h15.7c2.2,0,3.9-1.8,3.9-3.9V4C128-2.4,122.7-7.7,116.2-7.7z M97.3-35.7c-0.4,0.4-1.1,0.4-1.6,0
		c-0.2-0.3-0.2-0.6,0-0.9l0.8-1.7l0.8,1.7C97.5-36.3,97.5-36,97.3-35.7z M17.9,47.3h102.3v39.3H17.9V47.3z M61.1-11.7
		c0-2.2,1.8-3.9,3.9-3.9h7.9c2.2,0,3.9,1.8,3.9,3.9v3.9H61.1V-11.7L61.1-11.7z M17.9,4.1c0-2.2,1.8-3.9,3.9-3.9h94.4
		c2.2,0,3.9,1.8,3.9,3.9v35.4H17.9V4.1z"/>
	<path class="st1" d="M72.9,8H65c-2.2,0-3.9,1.8-3.9,3.9c0,2.2,1.8,3.9,3.9,3.9h7.9c2.2,0,3.9-1.8,3.9-3.9C76.9,9.8,75.1,8,72.9,8z"
		/>
	<path class="st1" d="M72.9,55.2H65c-2.2,0-3.9,1.8-3.9,3.9S62.9,63,65,63h7.9c2.2,0,3.9-1.8,3.9-3.9S75.1,55.2,72.9,55.2z"/>
	<g class="st3">
		<g>
			<path d="M241.1,15.6c-0.6-1.1-1.6-1.8-2.8-2.1c-0.3-0.1-0.6-0.1-0.9-0.1c0-0.4,0.1-0.8,0.1-1.3s0-1.1-0.1-1.6
				c2.2-0.3,3.8-2.1,3.8-4.2c0-2.4-2-4.3-4.4-4.3c-0.2,0-0.5,0-0.7,0.1c0.5-1.2,0.8-2.5,0.8-3.9c0-0.9-0.1-1.8-0.3-2.7
				c1.8-0.7,2.9-2.4,2.9-4.4c0-2.6-2.2-4.8-4.9-4.8c-1.7,0-3.2,0.8-4.1,2.1c-1.4-0.6-3-1-4.6-1s-3.2,0.3-4.6,1
				c-0.9-1.3-2.4-2.1-4.1-2.1c-2.7,0-4.9,2.1-4.9,4.8c0,1.9,1.2,3.6,2.9,4.4c-0.2,0.9-0.3,1.8-0.3,2.6c0,1.4,0.3,2.7,0.8,3.9
				c-0.2,0-0.5-0.1-0.7-0.1c-2.5,0-4.4,1.9-4.4,4.3c0,2.2,1.7,4,3.8,4.2c-0.1,0.5-0.1,1.1-0.1,1.6c0,0.4,0,0.9,0.1,1.3h-0.1
				c-0.4,0-0.8,0-1.2,0.1c-1.2,0.3-2.1,1-2.8,2.1c-1.1,1.9-1,4.7-0.5,6.7c0.6,2.3,2.8,3.9,5.3,3.9c0.1,0,0.2,0,0.3,0l0,0l0,0l0,0
				c2-0.1,3.8-1.3,4.7-3.1c1.8,1.1,3.7,1.7,5.8,1.7c2,0,3.9-0.5,5.6-1.5c0,0.1,0.1,0.1,0.1,0.2c0.7,1.3,1.9,2.2,3.4,2.6
				c0.5,0.1,0.9,0.2,1.4,0.2c2.5,0,4.7-1.6,5.3-3.9C242.2,20.3,242.2,17.5,241.1,15.6z M213.7-8.9c0-1.8,1.5-3.2,3.4-3.2
				c1.3,0,2.5,0.7,3.1,1.9c0.1,0.2,0.3,0.3,0.5,0.4s0.4,0,0.6,0c1.4-0.7,3-1.1,4.6-1.1s3.2,0.4,4.6,1.1c0.2,0.1,0.4,0.1,0.6,0
				c0.2-0.1,0.4-0.2,0.5-0.4c0.5-1.2,1.8-1.9,3.1-1.9c1.9,0,3.4,1.4,3.4,3.2c0,1.2-0.8,2.4-1.9,2.9c-0.2-0.4-0.4-0.8-0.6-1.2
				c-0.2-0.4-0.7-0.5-1.1-0.3c-0.4,0.2-0.5,0.7-0.3,1.1c0.3,0.5,0.6,1.1,0.8,1.7l0,0c0.3,0.9,0.5,1.9,0.5,2.8c0,4.7-3.8,8.7-8.7,9
				V1.3c1.1-0.4,1.9-1.6,1.9-2.6c0-0.6-0.3-1.9-2.7-1.9s-2.7,1.3-2.7,1.9c0,1,0.8,2.2,1.9,2.6v5.8c-4.9-0.4-8.7-4.3-8.7-9
				c0-1,0.2-2,0.5-2.9c0.1-0.2,0.1-0.4-0.1-0.6c-0.1-0.2-0.3-0.3-0.5-0.4C214.8-6.2,213.7-7.5,213.7-8.9z M225.8,13.1
				c-0.4,0-0.8,0.3-0.8,0.8v2.4c-2.6-0.4-4.7-2.7-4.7-5.4c0-1.1,0.3-2.2,1-3.1c1.4,0.6,2.9,0.9,4.5,0.9s3.1-0.3,4.5-0.9
				c0.6,0.9,1,2,1,3.1c0,2.7-2,5-4.7,5.4v-2.4C226.6,13.5,226.2,13.1,225.8,13.1z M224.7-1.3c0-0.1,0-0.1,0.1-0.2s0.4-0.2,1-0.2
				s0.9,0.1,1,0.2s0.1,0.1,0.1,0.2c0,0.4-0.5,1.2-1.1,1.2C225.2-0.1,224.7-0.8,224.7-1.3z M218.4,22.7c-0.5,0.9-1.4,1.6-2.4,1.8
				c-0.3,0.1-0.5,0.1-0.8,0.1l0,0c-0.1,0-0.2,0-0.3,0c-1.8,0-3.4-1.2-3.8-2.8c-0.4-1.6-0.5-4,0.3-5.5c0.4-0.7,1-1.2,1.8-1.4
				c0.3-0.1,0.5-0.1,0.8-0.1s0.5,0,0.8,0.1l0,0c2,0.6,3.5,3.2,3.9,4.9C219.1,20.9,218.9,21.9,218.4,22.7z M230.9,19.5
				c-0.2,0.8-0.2,1.6-0.1,2.3c-1.5,1-3.3,1.5-5,1.5c-1.9,0-3.8-0.6-5.4-1.7c0.1-0.7,0-1.4-0.1-2.1c-0.6-2-2.2-4.9-4.5-5.8
				c-0.1-0.5-0.1-1.1-0.1-1.6c0-0.7,0.1-1.5,0.2-2.2c0-0.2,0-0.5-0.2-0.7s-0.4-0.3-0.6-0.3c-0.1,0-0.1,0-0.2,0
				c-1.6,0-2.9-1.2-2.9-2.7s1.3-2.7,2.9-2.7c0.8,0,1.5,0.3,2,0.8c0.8,1.1,1.9,2.1,3.1,2.8c-0.7,1.1-1.1,2.5-1.1,3.8c0,3.9,3.1,7,7,7
				s7-3.1,7-7c0-1.4-0.4-2.7-1.1-3.8c1.2-0.7,2.3-1.7,3.1-2.8c0.5-0.5,1.3-0.8,2-0.8c1.6,0,2.9,1.2,2.9,2.7s-1.3,2.7-2.9,2.7
				c-0.1,0-0.1,0-0.2,0c-0.2,0-0.5,0.1-0.6,0.3c-0.2,0.2-0.2,0.4-0.2,0.7c0.1,0.7,0.2,1.5,0.2,2.2c0,0.5,0,1-0.1,1.4
				C233.3,14.3,231.5,17.3,230.9,19.5z M240.1,21.8c-0.5,1.6-2,2.8-3.8,2.8c-0.3,0-0.7,0-1-0.1c-1.1-0.3-1.9-0.9-2.4-1.8
				s-0.6-1.8-0.4-2.8c0.5-1.8,2.1-4.6,4.3-5l0,0c0.1,0,0.3,0,0.5,0c0.3,0,0.5,0,0.8,0.1c0.8,0.2,1.4,0.7,1.8,1.4
				C240.6,17.9,240.6,20.3,240.1,21.8z"/>
		</g>
	</g>
	<g class="st3">
		<g>
			<path class="st8" d="M231.7-6.9c-0.7,0-1.3,0.6-1.3,1.3s0.6,1.3,1.3,1.3s1.3-0.6,1.3-1.3S232.4-6.9,231.7-6.9z"/>
		</g>
	</g>
	<g class="st3">
		<g>
			<path class="st8" d="M221.9-6.9c-0.7,0-1.3,0.6-1.3,1.3s0.6,1.3,1.3,1.3s1.3-0.6,1.3-1.3S222.6-6.9,221.9-6.9z"/>
		</g>
	</g>
	<g class="st3">
		<g>
			<path d="M234.8-11.3L234.8-11.3c-0.3-0.3-0.8-0.3-1.1,0s-0.3,0.8,0,1.1l0,0c0.2,0.2,0.4,0.2,0.5,0.2c0.2,0,0.4-0.1,0.6-0.2
				C235.1-10.5,235.1-11,234.8-11.3z"/>
		</g>
	</g>
	<g class="st3">
		<g>
			<path class="st8" d="M226.8,8.9c-0.4,0-0.8,0.3-0.8,0.8l0,0c0,0.4,0.3,0.8,0.8,0.8c0.4,0,0.8-0.3,0.8-0.8l0,0
				C227.6,9.2,227.2,8.9,226.8,8.9z"/>
		</g>
	</g>
</g>
<g id="Слой_6" class="st0">
	<rect x="56.7" y="26.5" class="st1" width="101.6" height="40.3"/>
	<rect x="162.7" y="26.5" class="st1" width="106" height="40.3"/>
	<path class="st2" d="M123.9-19.7v-7.9c0-2.5-2.1-4.6-4.6-4.6s-4.6,2.1-4.6,4.6v7.9c0,2.5,2.1,4.6,4.6,4.6S123.9-17.1,123.9-19.7z
		 M203.1-19.9c0-2.5,2-4.6,4.6-4.6s4.6,2,4.6,4.6s2.1,4.6,4.6,4.6s4.6-2.1,4.6-4.6c0-7.6-6.2-13.9-13.9-13.9s-13.9,6.2-13.9,13.9
		c0,2.5,2.1,4.6,4.6,4.6S203.1-17.4,203.1-19.9z M275.3-28.6c-3.3-21.3-21.8-37.9-44.4-37.9H99.5c-2.5,0-4.6,2.1-4.6,4.6
		s2.1,4.6,4.6,4.6h131.3c18.3,0,33.3,13.7,35.5,31.4C252.6-19.6,243-5.6,243,10.5v8.2h-61.7c-7.7,0-14.5,3.7-18.8,9.4
		c-4.3-5.7-11.1-9.4-18.8-9.4H82.2v-8.2c0-16.1-9.6-30-23.2-36.3c1.6-12.3,9.5-23.2,20.9-28.3c2.4-1.1,3.4-3.8,2.4-6.1
		c-1.1-2.4-3.8-3.4-6.1-2.4c-13.8,6.2-23.6,19.2-26,34C26.5-32.9,4-14.9,4,9.9c0,14.6,8.1,27.8,20.8,34.6v29.4
		c0,16.1,12.6,29.3,28.5,30.2v8.9c0,6.2,5,11.2,11.2,11.2h20.8c6.2,0,11.2-5,11.2-11.2v-8.8h132.3v8.8c0,6.2,5,11.2,11.2,11.2h20.8
		c6.2,0,11.2-5,11.2-11.2v-8.9c3.8-0.2,7.5-1.1,11-2.8c2.4-1.1,3.3-3.8,2.2-6.2c-1.1-2.4-3.8-3.3-6.2-2.2c-2.8,1.3-5.8,1.9-8.9,1.9
		h-215c-11.6,0-21-9.4-21-21V41.5c0-1.9-1.1-3.5-2.8-4.3c-10.9-4.7-18-15.5-18-27.4c0-16.6,13.6-30.1,30.4-29.8
		C59.8-19.8,73-6.1,73,10.4v8.2h-0.4C59.7,18.5,49.1,29,49.1,42v15.6c0,8.7,7.1,15.8,15.8,15.8h86.6c4.3,0,8.3-1.7,11.2-4.6
		c2.9,2.9,6.8,4.6,11.2,4.6h86.6c8.7,0,15.8-7.1,15.8-15.8V42c0-12.9-10.5-23.4-23.4-23.4h-0.4v-8.2c0-16.5,13.1-30.1,29.3-30.4
		C298.3-20.3,312-6.9,312,9.8c0,11.9-7.1,22.6-18,27.4c-1.7,0.7-2.8,2.4-2.8,4.3c-0.2,32.7,0.4,33.1-0.6,37.4
		c-0.7,2.9,1.5,5.8,4.5,5.8c2.1,0,4-1.4,4.5-3.5c1.5-6,0.6-7.9,0.9-36.7c12.7-6.8,20.8-20,20.8-34.6C321.3-14.8,298.9-33,275.3-28.6
		z M238.1,104.2h24.7v8.8c0,1.1-0.9,1.9-1.9,1.9H240c-1.1,0-1.9-0.9-1.9-1.9V104.2L238.1,104.2z M62.6,104.2h24.7v8.8
		c0,1.1-0.9,1.9-1.9,1.9H64.5c-1.1,0-1.9-0.9-1.9-1.9V104.2L62.6,104.2z M158,57.6c0,3.6-2.9,6.5-6.5,6.5H64.9
		c-3.6,0-6.5-2.9-6.5-6.5V42c0-7.8,6.3-14.1,14.1-14.1h71.4c7.8,0,14.1,6.3,14.1,14.1V57.6L158,57.6z M252.8,27.9
		c7.8,0,14.1,6.3,14.1,14.1v15.6c0,3.6-2.9,6.5-6.5,6.5h-86.6c-3.6,0-6.5-2.9-6.5-6.5V42c0-7.8,6.3-14.1,14.1-14.1H252.8z
		 M162.7-9.9c5.8,0,11.2-2.5,14.9-6.8c1.7-1.9,1.5-4.9-0.4-6.6s-4.9-1.5-6.6,0.4c-2,2.3-4.9,3.7-7.9,3.7s-5.9-1.3-7.9-3.7
		c-1.7-1.9-4.6-2.1-6.6-0.4c-1.9,1.7-2.1,4.6-0.4,6.6C151.4-12.3,156.9-9.9,162.7-9.9z"/>
</g>
<g id="Слой_7" class="st0">
	<rect x="77.4" y="120.8" class="st1" width="19.7" height="47.1"/>
	<rect x="251.1" y="121.6" class="st1" width="19.7" height="47.1"/>
	<path class="st2" d="M254-68.6c-2.7-14.9-15.8-26.2-31.6-26.2h-3.9c0.3-2.1,0.4-4.3,0.4-6.4c0-24.7-20.2-44.9-44.9-44.9
		s-44.9,20.1-44.9,44.9c0,2.1,0.2,4.3,0.4,6.4h-3.9c-15.7,0-28.8,11.3-31.6,26.2c-14.7,2.9-26,16-26,31.6v207.1
		c0,3.5,2.9,6.4,6.4,6.4h25.7c3.5,0,6.4-2.9,6.4-6.4v-46.6h135.2v46.6c0,3.5,2.9,6.4,6.4,6.4h25.7c3.5,0,6.4-2.9,6.4-6.4V-37
		C280.2-52.6,268.9-65.7,254-68.6z M174.1-133.3c5.8,0,11.3,1.5,16,4.3c-3.5,5.2-9.5,8.6-16,8.6s-12.5-3.3-16-8.6
		C162.8-131.7,168.3-133.3,174.1-133.3z M148.4-120.4c6,8,15.4,12.8,25.7,12.8s19.7-4.9,25.7-12.8c4,5.4,6.4,12.1,6.4,19.3
		c0,17.7-14.4,32.1-32.1,32.1S142-83.5,142-101.2C142-108.4,144.4-115,148.4-120.4z M106.5-62.7c0-10.6,8.6-19.3,19.3-19.3h7.8
		c7.2,15.1,22.7,25.7,40.6,25.7s33.4-10.5,40.6-25.7h7.8c10.6,0,19.3,8.6,19.3,19.3v44.9H219v-2.1c0-13-10.5-23.5-23.5-23.5h-42.8
		c-13,0-23.5,10.5-23.5,23.5v2.1h-22.7V-62.7z M206.2-19.9v2.1H142v-2.1c0-5.9,4.8-10.7,10.7-10.7h42.8
		C201.4-30.6,206.2-25.8,206.2-19.9z M80.8-37c0-8.4,5.4-15.5,12.8-18.1v38c-4.7,0.9-9.1,3-12.8,5.8V-37z M93.7,163.7H80.8v-40.2
		h12.8L93.7,163.7L93.7,163.7z M267.4,163.7h-12.8v-40.2h12.8V163.7z M267.4,110.6H80.8V52.9c0-10.6,8.6-19.3,19.3-19.3h148
		c10.6,0,19.3,8.6,19.3,19.3V110.6z M267.4,27.2c-5.4-4-12.1-6.4-19.3-6.4h-148c-7.2,0-13.9,2.4-19.3,6.4V14.4
		c0-10.6,8.6-19.3,19.3-19.3h148c10.6,0,19.3,8.6,19.3,19.3V27.2z M267.4-11.3c-3.8-2.8-8.1-4.8-12.8-5.8v-38.1
		c7.4,2.7,12.8,9.8,12.8,18.1V-11.3z"/>
	<g id="Слой_1_3_" class="st3">
		<g id="oven-food-cooking">
			<path d="M136.6-9.5H-85.7C-92.4-9.5-98-3.9-98,2.8V221c0,2.3,1.9,4.1,4.1,4.1h8.2v8.2c0,2.3,1.9,4.1,4.1,4.1h32.9
				c2.3,0,4.1-1.9,4.1-4.1v-8.2h140v8.2c0,2.3,1.9,4.1,4.1,4.1h32.9c2.3,0,4.1-1.9,4.1-4.1v-8.2h8.2c2.3,0,4.1-1.9,4.1-4.1V2.8
				C149-3.9,143.4-9.5,136.6-9.5z M-52.7,229.3h-24.7v-4.1h24.7V229.3z M128.4,229.3h-24.7v-4.1h24.7V229.3z M140.8,216.9H-89.8V44
				h230.5v172.9H140.8z M140.8,35.8H-89.8v-33c0-2.3,1.9-4.1,4.1-4.1h222.3c2.3,0,4.1,1.9,4.1,4.1L140.8,35.8L140.8,35.8z"/>
			<path d="M124.3,56.4H-73.3c-2.3,0-4.1,1.9-4.1,4.1v140c0,2.3,1.9,4.1,4.1,4.1h197.6c2.3,0,4.1-1.9,4.1-4.1v-140
				C128.4,58.2,126.6,56.4,124.3,56.4z M120.2,196.3H-69.2V64.6h189.4V196.3z"/>
			<path d="M107.8,163.4H95.2c-1.3-14.7-7.2-28.6-16.9-39.6l6.7-11.6c6.7,1.2,13.2-3.2,14.4-9.9c0.2-0.8,0.2-1.5,0.2-2.3
				c-0.1-6.8-5.7-12.4-12.5-12.3c-0.8,0-1.6,0.1-2.4,0.3c-0.9-2.9-2.9-5.3-5.5-6.8c-5.9-3.4-13.5-1.4-16.9,4.5
				c-1.6,2.8-2.1,6.2-1.2,9.4c0.5,1.8,1.3,3.4,2.6,4.8l-4.8,8.2c-33.9-18.4-76.4-5.9-94.8,28c-4.6,8.4-7.4,17.7-8.2,27.3h-12.7
				c-2.3,0-4.1,1.9-4.1,4.1v8.2c0,6.8,5.6,12.4,12.4,12.4H99.6c6.8,0,12.3-5.6,12.3-12.4v-8.2C111.9,165.3,110.1,163.4,107.8,163.4z
				 M72.9,97.8c-0.3-1.1-1-2-2-2.5s-1.6-1.4-2-2.5c-0.6-2.2,0.7-4.4,2.9-5c2.2-0.6,4.4,0.7,5,2.9c0.3,1.1,0.1,2.2-0.4,3.1
				c-1.1,2-0.5,4.5,1.5,5.7c2,1.1,4.5,0.5,5.7-1.5l0,0c1.1-2,3.5-2.6,5.5-1.6c0.1,0.1,0.1,0.1,0.2,0.1c2,1.1,2.7,3.6,1.6,5.6
				s-3.6,2.7-5.6,1.6c-0.1-0.1-0.1-0.1-0.2-0.1c-2-1.1-4.5-0.5-5.7,1.5l-7.2,12.6c-0.5-0.4-0.9-0.7-1.4-1.1c-1-0.9-2-1.6-3-2.4
				c-0.7-0.5-1.3-1.1-2.1-1.6l6.6-11.4C73,100.1,73.2,98.9,72.9,97.8z M25.5,107.8c16.9,0,33.1,6.9,44.8,19.2h0.1
				c9.4,9.9,15.3,22.7,16.6,36.3H-15.4c1.1-11.5,7-22,16.3-28.9l-4.9-6.6c-11.3,8.4-18.5,21.4-19.6,35.5h-12.2
				C-32.8,131.9-6.2,107.8,25.5,107.8z M103.7,175.8c0,2.3-1.9,4.1-4.1,4.1H-48.6c-2.3,0-4.1-1.9-4.1-4.1v-4.1h156.4V175.8z"/>
		</g>
	</g>
	<circle class="st1" cx="-69.2" cy="15.2" r="9.9"/>
	<circle class="st1" cx="-43.5" cy="15.2" r="9.9"/>
	<circle class="st1" cx="-17.7" cy="15.2" r="9.9"/>
</g>
<g id="Слой_8" class="st0">
	<g id="Слой_1_4_" class="st3">
		<g id="oven-food-cooking_1_">
			<path d="M299.6-137.4H25.4c-8.4,0-15.2,6.9-15.2,15.2V147c0,2.8,2.3,5.1,5.1,5.1h10.2v10.2c0,2.8,2.3,5.1,5.1,5.1h40.6
				c2.8,0,5.1-2.3,5.1-5.1v-10.2H249v10.2c0,2.8,2.3,5.1,5.1,5.1h40.6c2.8,0,5.1-2.3,5.1-5.1v-10.2H310c2.8,0,5.1-2.3,5.1-5.1
				v-269.2C314.9-130.5,308-137.4,299.6-137.4z M66,157.2H35.5v-5.1H66V157.2z M289.5,157.2H259v-5.1h30.5V157.2z M304.7,142H20.3
				V-71.3h284.4L304.7,142L304.7,142z M304.7-81.5H20.3v-40.6c0-2.8,2.3-5.1,5.1-5.1h274.3c2.8,0,5.1,2.3,5.1,5.1L304.7-81.5
				L304.7-81.5z"/>
			<path d="M284.4-56.1H40.6c-2.8,0-5.1,2.3-5.1,5.1v172.7c0,2.8,2.3,5.1,5.1,5.1h243.8c2.8,0,5.1-2.3,5.1-5.1V-51
				C289.5-53.8,287.2-56.1,284.4-56.1z M279.3,116.6H45.7V-45.9h233.6L279.3,116.6L279.3,116.6z"/>
			<path d="M264.1,75.9h-15.6c-1.6-18.1-8.9-35.2-20.8-48.9l8.3-14.3c8.3,1.5,16.3-3.9,17.8-12.2c0.2-1,0.3-1.8,0.3-2.8
				c-0.1-8.4-7-15.3-15.4-15.2c-1,0-2,0.1-2.9,0.3c-1.1-3.6-3.6-6.5-6.8-8.4c-7.3-4.2-16.6-1.7-20.9,5.5c-2,3.5-2.5,7.6-1.5,11.6
				c0.6,2.2,1.7,4.3,3.2,6l-5.9,10.2c-42-22.7-94.4-7.2-117.1,34.6c-5.7,10.4-9.1,21.8-10.2,33.6H60.9c-2.8,0-5.1,2.3-5.1,5.1v10.2
				c0,8.4,6.9,15.2,15.2,15.2h182.8c8.4,0,15.2-6.9,15.2-15.2V81C269.2,78.2,266.9,75.9,264.1,75.9z M221-4.9
				c-0.4-1.3-1.2-2.4-2.4-3.1c-1.2-0.6-2-1.8-2.4-3.1c-0.7-2.7,0.9-5.5,3.6-6.2c2.7-0.7,5.5,0.9,6.2,3.6c0.3,1.3,0.1,2.7-0.5,3.9
				c-1.4,2.4-0.6,5.6,1.9,7c2.4,1.4,5.6,0.6,7-1.9l0,0c1.3-2.4,4.3-3.2,6.7-2c0.1,0.1,0.1,0.1,0.2,0.1c2.4,1.3,3.3,4.4,2,6.9
				c-1.3,2.4-4.4,3.3-6.9,2c-0.1-0.1-0.1-0.1-0.2-0.1c-2.4-1.4-5.5-0.6-7,1.9l-8.9,15.5c-0.6-0.5-1.1-0.9-1.7-1.4
				c-1.2-1.1-2.5-2-3.7-3c-0.9-0.6-1.7-1.4-2.5-2l8.1-14.1C221.1-2.2,221.3-3.6,221-4.9z M162.5,7.4c20.9,0,40.9,8.6,55.2,23.7h0.1
				c11.6,12.3,18.9,28.1,20.4,44.8H112c1.3-14.2,8.6-27.1,20.1-35.6l-6.1-8.1c-14,10.4-22.8,26.3-24.1,43.7H86.8
				C90.6,37,123.4,7.4,162.5,7.4z M259,91.2c0,2.8-2.3,5.1-5.1,5.1H71.1c-2.8,0-5.1-2.3-5.1-5.1v-5.1h193V91.2z"/>
		</g>
	</g>
	<circle class="st1" cx="45.7" cy="-106.9" r="12.2"/>
	<circle class="st1" cx="77.4" cy="-106.9" r="12.2"/>
	<circle class="st1" cx="109.2" cy="-106.9" r="12.2"/>
</g>
<g id="Слой_9" class="st0">
	<path class="st3" d="M248.5-145.6H97.9c-13.9,0-25.1,11.2-25.1,25.1v245.8c0,13.9,11.2,25.1,25.1,25.1h6.3v6.3
		c0,10.3,8.5,18.8,18.8,18.8h6.3c6.9,0,12.5-5.6,12.5-12.5v-12.5h62.7V163c0,6.9,5.6,12.5,12.5,12.5h6.3c10.3,0,18.8-8.5,18.8-18.8
		v-6.3h6.3c13.9,0,25.1-11.2,25.1-25.1v-245.8C273.5-134.3,262.3-145.6,248.5-145.6z M129.3,163H123c-3.4,0-6.3-2.8-6.3-6.3v-6.3
		h12.5V163H129.3z M229.6,156.7c0,3.4-2.8,6.3-6.3,6.3H217v-12.5h12.5v6.2H229.6z M261,125.4c0,6.9-5.6,12.5-12.5,12.5H97.9
		c-6.9,0-12.5-5.6-12.5-12.5V-25.1H261V125.4z M261-37.7H85.4v-82.8c0-6.9,5.6-12.5,12.5-12.5h150.5c6.9,0,12.5,5.6,12.5,12.5v82.8
		H261z"/>
	<path class="st1" d="M153.5-50.2h-43.9c-6.9,0-12.5-5.6-12.5-12.5V-69c0-10.3,8.5-18.8,18.8-18.8h31.4c10.3,0,18.8,8.5,18.8,18.8
		v6.3C166.1-55.9,160.4-50.2,153.5-50.2z M115.9-75.3c-3.4,0-6.3,2.8-6.3,6.3v6.3h43.9V-69c0-3.4-2.8-6.3-6.3-6.3H115.9z"/>
	<path class="st1" d="M147.2,25h-31.4C105.5,25,97,16.5,97,6.2v-6.3c0-6.9,5.6-12.5,12.5-12.5h43.9c6.9,0,12.5,5.6,12.5,12.5v6.3
		C166.1,16.6,157.6,25,147.2,25z M109.6-0.1v6.3c0,3.4,2.8,6.3,6.3,6.3h31.4c3.4,0,6.3-2.8,6.3-6.3v-6.3
		C153.6-0.1,109.6-0.1,109.6-0.1z"/>
	<path class="st1" d="M241.2,125.4c-3.4,0-6.3-2.8-6.3-6.3V68.9c0-3.4,2.8-6.3,6.3-6.3s6.3,2.8,6.3,6.3v50.2
		C247.5,122.6,244.6,125.4,241.2,125.4z"/>
	<path class="st1" d="M241.2,50.1c-3.4,0-6.3-2.8-6.3-6.3c0-3.4,2.8-6.3,6.3-6.3l0,0c3.4,0,6.3,2.8,6.3,6.3S244.6,50.1,241.2,50.1z"
		/>
</g>
<g id="Слой_10" class="st0">
	<g id="Page-1" class="st3">
		<g id="_x30_11---Slide-Tower" transform="translate(-1)">
			<path id="Shape" class="st4" d="M55.6,120.8c-16.7-7.3-16.2-13.6-16.2-15.7c0-3.1-2.1-5.2-4.7-5.7c-2.6-0.5-5.2,2.1-5.7,4.7
				c-0.5,3.7-1.6,15.7,21.9,26.1c2.6,1,5.7,0,6.8-2.6C58.7,124.9,58.2,122.3,55.6,120.8z"/>
			<path id="Shape_1_" d="M295.1,175.6h15.7c5.7,0,10.4-4.7,10.4-10.4V-64.5c0-5.7-4.7-10.4-10.4-10.4h-15.7
				c-5.7,0-10.4,4.7-10.4,10.4v38.1l-62.6-35.5v-2.6h10.4c5.7,0,10.4-4.7,10.4-10.4v-15.7c0-5.7-4.7-10.4-10.4-10.4h-19.8
				l-77.2-35.5c-2.6-1-5.7-1-8.9,0L48.8-101H29c-5.7,0-10.4,4.7-10.4,10.4v15.7c0,5.7,4.7,10.4,10.4,10.4h10.4v32.4
				C20.1-23.8,9.7-11.8,8.1,2.8c-1,13.6,3.7,31.8,31.3,45.4V67C20.1,75.9,9.7,87.4,8.1,102.5c-1,13.6,3.7,31.8,31.3,45.9v16.7
				c0,5.7,4.7,10.4,10.4,10.4h15.7c5.7,0,10.4-4.7,10.4-10.4v-4.7c34.4,7.8,92.9,10.4,144.5,14.6c4.2,0,11,0.5,12,0.5
				c8.9,0,15.7-7.3,15.7-15.7c0-7.8-6.3-14.6-14.1-15.7l-5.7-0.5l56.4-32.4v53.7C284.7,170.9,289.4,175.6,295.1,175.6z M222.1,69.6
				l25,14.6l-25,14.6V69.6z M258.1,78l-36-20.4V33.1L279.5,66L258.1,78z M284.7,57.1l-25.6-14.6l25.6-14.6V57.1z M284.7,15.9
				l-36,20.4l-21.4-12l57.4-32.9V15.9z M222.1,15.3v-28.7l25,14.6L222.1,15.3z M222.1,110.8l62.6-35.5v24.5l-62.6,35.5V110.8z
				 M295.1-64.5h15.7v229.6h-15.7V-64.5z M279.5-17.5l-21.4,12l-36-20.4v-24.5L279.5-17.5z M211.6,142.7l-15.7-1V-64.5h15.7
				C211.6-64,211.6,67.5,211.6,142.7z M159.5,138.5c1.6-15.1-9.9-28.2-24.5-30.3l0,0c-8.3-0.5-15.7-1-21.9-2.1
				c27.1-2.6,57.9-8.9,73.1-27.7V140L159.5,138.5z M133.4,118.7c4.7,0,8.9,2.1,11.5,5.7c3.1,3.7,4.7,8.3,4.2,13l-31.3-2.6
				C118.2,126.5,125,119.2,133.4,118.7z M49.9,52.4c5.2,2.1,10.4,3.7,15.7,4.7V91c-15.1-9.4-15.7-19.3-15.7-19.8
				C49.9,71.2,49.9,52.4,49.9,52.4z M185.6-64.5v15.1c-16.7-0.5-66.8-2.1-109.6,6.3v-21.4H185.6z M76-1.4v-30.8
				c41.7-8.3,93.4-6.8,109.6-6.3v26.1c-18.8-0.5-79.3-1-105.9,12.5C78.6-0.3,77.5-0.8,76-1.4L76-1.4z M185.6-1.9v28.2
				c-5.7-5.7-12.5-9.9-19.8-12.5c-20.9-7.3-41.2-3.1-68.9-8.9C125-2.9,170.4-2.4,185.6-1.9L185.6-1.9z M130.8-127.1l56.9,26.1H73.9
				L130.8-127.1z M29-90.6h204v15.7H29V-90.6z M65.5-64.5v57.4c-0.5,0-0.5-0.5-1-0.5c-6.8-4.7-14.6-12.5-14.6-20.9v-36H65.5z
				 M18.6,3.9c1-9.9,8.3-18.3,21.9-25C44.1-11.8,50.4-4,58.2,1.3c20.4,14,46,16.7,70,17.7c11.5,0,23,1.6,33.4,4.7
				c11,4.2,23,13,23,26.1c0.5,41.2-57.4,47-108,47.5c-0.5,0-0.5,0-1-0.5V59.7c6.8,1.6,13.6,2.6,20.9,3.7l0,0c12,1.6,24,2.6,36,2.6
				c3.1,0,5.2-2.1,5.2-5.2s-2.1-5.2-5.2-5.2c-11.5,0-23.5-1-35-2.6l0,0c-17.7-2.1-35-6.3-51.1-13C26.4,31,17.5,19,18.6,3.9z
				 M65.5,165.1H49.9v-12.5c5.2,2.1,10.4,3.7,15.7,5.2L65.5,165.1L65.5,165.1z M237.7,159.9c0,1.6-0.5,3.1-1.6,4.2s-2.6,1-4.2,1
				c-3.7,0-7.3-0.5-11-0.5c-92.4-7.3-138.3-8.3-174.3-24.5c-20.4-9.4-29.7-21.4-28.2-36.5c1-9.9,8.3-18.8,22.4-25.6
				c2.6,6.8,8.9,18.3,27.7,27.1c14.6,6.3,30.3,10.4,45.9,12c-4.2,4.7-6.8,10.4-7.3,16.7c0,2.6,0.5,5.7,2.6,7.8s4.2,3.7,7.3,3.7
				l115.8,9.4C235.7,154.7,237.7,157.3,237.7,159.9z"/>
			<path id="Shape_2_" class="st4" d="M53,31c2.6,0,4.7-1.6,5.2-4.2s-0.5-4.7-3.1-5.7C38.9,13.8,39.4,7.5,39.4,6
				c0-2.1-0.5-3.7-2.1-4.7s-3.7-1-5.2-0.5C30.5,1.3,29.5,3.4,29,5c-0.5,6.8,1,16.7,21.9,25.6C52,31,52.5,31,53,31z"/>
		</g>
	</g>
</g>
<g id="Слой_11" class="st0">
	<path class="st1" d="M102.6-61.4l5.5,24.4h105.1l1.8,73.3h27.6v-78.8l-18.9-18.9H102.6z"/>
	<path class="st2" d="M162.5,135.5c-3.4,0-6.2,2.8-6.2,6.2s2.8,6.2,6.2,6.2c3.5,0,6.2-2.9,6.2-6.2
		C168.6,138.3,165.9,135.5,162.5,135.5z"/>
	<path class="st2" d="M32.5,99.4c-8.7-5.5-20.2-2.9-25.6,5.7c-5.5,8.7-2.9,20.2,5.7,25.6c43.7,27.8,98.3,43.8,149.8,43.8
		s106.2-15.9,149.9-43.8c8.7-5.5,11.2-17,5.7-25.6c-5.5-8.7-17-11.2-25.6-5.7c-5.8,3.7-11.9,7.2-18.2,10.4L251,43.2h23
		c3.4,0,6.2-2.8,6.2-6.2c0-17-13.9-31-31-31h-0.6v-43.3c0-17-13.9-31-31.1-31H104.7l-15.2-52c-3.8-13.2-16-22.3-29.7-22.3H38.6
		c-1.9,0-3.8,0.9-5,2.5s-1.6,3.6-1,5.4l47,164.4c1.3,4.4,4.1,8.1,7.7,10.5L61.1,115C51.1,110.4,41.6,105.1,32.5,99.4z M299,109.8
		c2.9-1.8,6.7-1,8.6,1.9c1.8,2.9,1,6.7-1.9,8.6c-41.7,26.5-94,41.8-143.2,41.8S61,146.9,19.3,120.3c-2.9-1.8-3.8-5.7-1.9-8.6
		c1.8-2.9,5.7-3.7,8.6-1.9c32.3,20.5,72.9,35.1,111.2,39.1c3.4,0.4,6.5-2.1,6.8-5.5c0.4-3.4-2.1-6.5-5.5-6.8
		c-13.9-1.5-28.3-4.4-42.4-8.6L126,43.2h85.3l28.7,81.3c-17.7,6.2-35.9,10.3-53.4,12.1c-3.4,0.4-5.9,3.4-5.5,6.8
		c0.4,3.4,3.4,5.9,6.8,5.5C225.6,145,266.1,130.7,299,109.8z M209.5,6.1h-83.2l-10.9-37.2h94L209.5,6.1L209.5,6.1z M263,115.2
		c-3.8,1.8-7.6,3.3-11.4,4.9l-27.2-76.9h13.5L263,115.2z M249.2,18.5c8.1,0,14.9,5.2,17.5,12.3h-18.2V18.5H249.2z M217.5-55.8
		c10.3,0,18.6,8.3,18.6,18.6c0,6.6,0,61.4,0,68.1h-14.3c0-6.7,0-61.5,0-68.1c0-3.4-2.8-6.2-6.2-6.2H111.9l-3.6-12.3L217.5-55.8
		L217.5-55.8z M46.8-130.2h13c8.2,0,15.6,5.5,17.9,13.4C79-112.4,114.1,8.1,115.8,14c0.7,2.7,3.2,4.4,5.9,4.4h87.8v12.3h-112
		c-2.8,0-5.2-1.8-6-4.5L46.8-130.2z M99.5,43.3h13.3l-28.6,81c-3.9-1.4-7.7-2.9-11.6-4.3L99.5,43.3z"/>
	<circle class="st1" cx="163.2" cy="142.4" r="7.7"/>
</g>
<g id="Слой_12" class="st0">
	<rect x="90.2" y="25" class="st1" width="145.3" height="56"/>
	<path class="st2" d="M310.2,129.4L292.7-92.8c-0.6-8-4-15.4-9.5-20.9c-5.8-5.9-13.6-9.1-21.9-9.1H141.2c-3.5,0-6.3,2.8-6.3,6.3
		s2.8,6.3,6.3,6.3h120.1c5,0,9.4,1.9,13,5.4c3.4,3.4,5.5,8,5.8,13l17.4,220.6h-12.6L267.6-90.9c-0.1-1.5-0.6-3-1.4-4.1
		c-1.2-1.7-3.1-2.7-5.2-2.7H65.3c-2.1,0-4,1-5.2,2.7c-0.8,1.1-1.3,2.6-1.4,4.1L41.4,128.8H28.8L46.2-91.9c0.4-5,2.5-9.6,5.8-13
		c3.6-3.5,8.1-5.4,13-5.4h19.5c3.5,0,6.3-2.8,6.3-6.3s-2.8-6.3-6.3-6.3H65.1c-8.2,0-16,3.2-21.9,9.1c-5.5,5.5-8.9,13-9.5,20.9
		L16.1,129.4c-8.1,2.2-14,9.6-14,18.2v6.3c0,6.9,5.7,12.6,12.6,12.6h37.7c6.9,0,12.6-5.7,12.6-12.6v-6.3c0-7.7-4.6-14.3-11.2-17.2
		l17-215.5h35.7V15.6h-6.3c-10.4,0-18.9,8.5-18.9,18.9v44c-6.9,0-12.6,5.7-12.6,12.6v12.6c0,6.9,5.7,12.6,12.6,12.6h163.5
		c6.9,0,12.6-5.7,12.6-12.6V91c0-6.9-5.7-12.6-12.6-12.6v-44c0-10.4-8.5-18.9-18.9-18.9h-6.3V-85.1h35.7l17,215.5
		c-6.6,3-11.2,9.6-11.2,17.2v6.3c0,6.9,5.7,12.6,12.6,12.6h37.7c6.9,0,12.6-5.7,12.6-12.6v-6.3C324.2,139,318.3,131.6,310.2,129.4z
		 M14.7,153.9v-6.3c0-3.5,2.8-6.3,6.3-6.3h25.2c3.5,0,6.3,2.8,6.3,6.3v6.3H14.7z M244.9,103.6H81.4V91h163.5V103.6z M232.4,34.4v44
		H94v-44c0-3.5,2.8-6.3,6.3-6.3h125.8C229.5,28.1,232.4,31,232.4,34.4z M207.2,15.6h-88.1V-85.1h88.1V15.6z M273.9,153.9v-6.3
		c0-3.5,2.8-6.3,6.3-6.3h25.2c3.5,0,6.3,2.8,6.3,6.3v6.3H273.9z"/>
	<path class="st2" d="M112.9-110.2c3.5,0,6.3-2.8,6.3-6.3s-2.8-6.3-6.3-6.3l0,0c-3.5,0-6.3,2.8-6.3,6.3S109.4-110.2,112.9-110.2z"/>
	<rect x="23.7" y="118.9" class="st1" width="285.9" height="18.7"/>
	<rect x="24.6" y="-139.4" class="st1" width="286.7" height="16.2"/>
	<path class="st2" d="M314.4-115c3,0,5.4-2.4,5.4-5.4V-142c0-3-2.4-5.4-5.4-5.4H22c-2.9,0-5.4,2.4-5.4,5.4v21.7c0,3,2.4,5.4,5.4,5.4
		h5.4v227.4H22c-3,0-5.4,2.4-5.4,5.4v21.7c0,3,2.4,5.4,5.4,5.4h16.2v27c0,3,2.4,5.4,5.4,5.4H60c2.4,0,4.4-1.5,5.1-3.7l9.6-28.9
		h187.1l9.6,28.7c0.7,2.2,2.8,3.7,5.1,3.7h16.2c3,0,5.4-2.4,5.4-5.4v-27h16.2c3,0,5.4-2.4,5.4-5.4v-21.7c0-3-2.4-5.4-5.4-5.4H309
		V-115H314.4z M27.5-136.7H309v10.8h-5.4H32.9h-5.4L27.5-136.7L27.5-136.7z M56.1,166.5h-6.9v-21.7h14.1L56.1,166.5z M287.4,166.5
		h-6.9l-7.2-21.7h14.1V166.5z M309,134.1h-16.2h-27h-195H43.7H27.5v-10.8h5.4h270.7h5.4V134.1L309,134.1z M298.2,112.4H38.3V-115
		h259.9L298.2,112.4L298.2,112.4z"/>
	<path class="st2" d="M54.5-44.6h227.4c3,0,5.4-2.4,5.4-5.4v-48.7c0-3-2.4-5.4-5.4-5.4H54.5c-3,0-5.4,2.4-5.4,5.4V-50
		C49.2-47,51.6-44.6,54.5-44.6z M60-93.3h216.6v37.9H60V-93.3z"/>
	<path class="st2" d="M54.5,31.2h227.4c3,0,5.4-2.4,5.4-5.4v-54.2c0-3-2.4-5.4-5.4-5.4H54.5c-3,0-5.4,2.4-5.4,5.4v54.2
		C49.2,28.7,51.6,31.2,54.5,31.2z M60-23h216.6v43.3H60V-23z"/>
	<path class="st2" d="M54.5,101.6h227.4c3,0,5.4-2.4,5.4-5.4V47.4c0-3-2.4-5.4-5.4-5.4H54.5c-3,0-5.4,2.4-5.4,5.4v48.7
		C49.2,99.1,51.6,101.6,54.5,101.6z M60,52.8h216.6v37.9H60V52.8z"/>
	<path class="st2" d="M189.9-82.5h-43.3c-3,0-5.4,2.4-5.4,5.4s2.4,5.4,5.4,5.4h16.2v5.4c0,3,2.4,5.4,5.4,5.4s5.4-2.4,5.4-5.4v-5.4
		H190c3,0,5.4-2.4,5.4-5.4C195.3-80.1,192.9-82.5,189.9-82.5z"/>
	<path class="st2" d="M189.9-12.1h-43.3c-3,0-5.4,2.4-5.4,5.4s2.4,5.4,5.4,5.4h16.2v5.4c0,3,2.4,5.4,5.4,5.4s5.4-2.4,5.4-5.4v-5.5
		H190c3,0,5.4-2.4,5.4-5.4C195.3-9.7,192.9-12.1,189.9-12.1z"/>
	<path class="st2" d="M189.9,63.6h-43.3c-3,0-5.4,2.4-5.4,5.4s2.4,5.4,5.4,5.4h16.2V80c0,3,2.4,5.4,5.4,5.4s5.4-2.4,5.4-5.4v-5.4
		H190c3,0,5.4-2.4,5.4-5.4C195.3,66.1,192.9,63.6,189.9,63.6z"/>
</g>
<g id="Слой_13" class="st0">
	<rect x="18" y="118.9" class="st1" width="285.9" height="18.7"/>
	<rect x="18.8" y="-139.4" class="st1" width="286.7" height="16.2"/>
	<path class="st2" d="M308.7-115c3,0,5.4-2.4,5.4-5.4V-142c0-3-2.4-5.4-5.4-5.4H16.3c-2.9,0-5.4,2.4-5.4,5.4v21.7
		c0,3,2.4,5.4,5.4,5.4h5.4v227.4h-5.5c-3,0-5.4,2.4-5.4,5.4v21.7c0,3,2.4,5.4,5.4,5.4h16.2v27c0,3,2.4,5.4,5.4,5.4H54
		c2.4,0,4.4-1.5,5.1-3.7l9.6-28.9h187.1l9.6,28.7c0.7,2.2,2.8,3.7,5.1,3.7H287c3,0,5.4-2.4,5.4-5.4v-27h16.2c3,0,5.4-2.4,5.4-5.4
		v-21.7c0-3-2.4-5.4-5.4-5.4h-5.4V-115H308.7z M21.8-136.7h281.6v10.8H298H27.2h-5.4L21.8-136.7L21.8-136.7z M50.3,166.5h-6.9v-21.7
		h14.1L50.3,166.5z M281.6,166.5h-6.9l-7.2-21.7h14.1V166.5z M303.3,134.1h-16.2h-27h-195H38H21.8v-10.8h5.4h270.7h5.4L303.3,134.1
		L303.3,134.1z M292.4,112.4H32.6V-115h259.9v227.4H292.4z"/>
	<path class="st2" d="M48.8-44.6h227.4c3,0,5.4-2.4,5.4-5.4v-48.7c0-3-2.4-5.4-5.4-5.4H48.8c-3,0-5.4,2.4-5.4,5.4V-50
		C43.4-47,45.9-44.6,48.8-44.6z M54.2-93.3h216.6v37.9H54.2V-93.3z"/>
	<path class="st2" d="M48.8,31.2h227.4c3,0,5.4-2.4,5.4-5.4v-54.2c0-3-2.4-5.4-5.4-5.4H48.8c-3,0-5.4,2.4-5.4,5.4v54.2
		C43.4,28.7,45.9,31.2,48.8,31.2z M54.2-23h216.6v43.3H54.2V-23z"/>
	<path class="st2" d="M48.8,101.6h227.4c3,0,5.4-2.4,5.4-5.4V47.4c0-3-2.4-5.4-5.4-5.4H48.8c-3,0-5.4,2.4-5.4,5.4v48.7
		C43.4,99.1,45.9,101.6,48.8,101.6z M54.2,52.8h216.6v37.9H54.2V52.8z"/>
	<path class="st2" d="M184.2-82.5h-43.3c-3,0-5.4,2.4-5.4,5.4s2.4,5.4,5.4,5.4h16.2v5.4c0,3,2.4,5.4,5.4,5.4s5.4-2.4,5.4-5.4v-5.4
		h16.2c3,0,5.4-2.4,5.4-5.4C189.6-80.1,187.2-82.5,184.2-82.5z"/>
	<path class="st2" d="M184.2-12.1h-43.3c-3,0-5.4,2.4-5.4,5.4s2.4,5.4,5.4,5.4h16.2v5.4c0,3,2.4,5.4,5.4,5.4s5.4-2.4,5.4-5.4v-5.5
		h16.2c3,0,5.4-2.4,5.4-5.4C189.6-9.7,187.2-12.1,184.2-12.1z"/>
	<path class="st2" d="M184.2,63.6h-43.3c-3,0-5.4,2.4-5.4,5.4s2.4,5.4,5.4,5.4h16.2V80c0,3,2.4,5.4,5.4,5.4S168,83,168,80v-5.4h16.2
		c3,0,5.4-2.4,5.4-5.4C189.6,66.1,187.2,63.6,184.2,63.6z"/>
</g>
<g id="Слой_14" class="st0">
	<g id="Слой_2_2_" class="st3">
		<polygon class="st9" points="292.6,177.5 282.2,177.5 282.2,105.2 303.2,105.2 		"/>
		<polygon class="st9" points="31.8,177.5 42.2,177.5 42.2,105.2 21.2,105.2 		"/>
	</g>
	<g id="Слой_3_1_" class="st3">
		<path class="st9" d="M288,58.3H184.2c-1.8,0-3.3-1.5-3.3-3.3V35.2c0-1.8,1.5-3.3,3.3-3.3H288c1.8,0,3.3,1.5,3.3,3.3V55
			C291.3,56.8,289.8,58.3,288,58.3z"/>
		<path class="st9" d="M274.7,30.2H171c-1.8,0-3.3-1.5-3.3-3.3V7c0-1.8,1.5-3.3,3.3-3.3h103.8c1.8,0,3.3,1.5,3.3,3.3v19.9
			C278.1,28.7,276.6,30.2,274.7,30.2z"/>
		<path class="st9" d="M304.5,3.7H200.8c-1.8,0-3.3-1.5-3.3-3.3v-19.9c0-1.8,1.5-3.3,3.3-3.3h103.8c1.8,0,3.3,1.5,3.3,3.3V0.4
			C307.8,2.2,306.4,3.7,304.5,3.7z"/>
		<path class="st10" d="M91.2,53.9h-25c-4.6,0-8.3-3.8-8.3-8.3V30.7c0-4.6,3.8-8.3,8.3-8.3h25c4.6,0,8.3,3.8,8.3,8.3v14.9
			C99.5,50.2,95.7,53.9,91.2,53.9z"/>
		<path class="st10" d="M100.5,47.7V28.5c7.6,0,13.7,4.3,13.7,9.6l0,0C114.2,43.4,108.1,47.7,100.5,47.7z"/>
		<path class="st10" d="M80.6,13.5c1-4.1,1.2-7.9-0.7-9.3c-2.2-1.3-6,1.3-6.5,0.7c-0.8-1.2,10.3-7.6,9.1-11.6c-0.5-2-3.8-2.8-7-3.1"
			/>
	</g>
	<g id="Слой_1_5_" class="st3">
		<path class="st11" d="M49-90.8c-1.3,1.8-2.6,3.8-4,5.6"/>
		<path class="st11" d="M126.6-201.5c-1.8,2.5-3.5,5-5.3,7.6"/>
		<path class="st9" d="M308,103H18.9c-8.8,0-16.1-7.1-16.1-16V77c0-8.7,7.1-16,16.1-16H308c8.8,0,16.1,7.3,16.1,16.1V87
			C323.9,95.7,316.8,103,308,103z"/>
	</g>
</g>
<g id="Слой_15">
	<g>
		<path class="st12" d="M22.8,39.7c-9.2,0-16.6-7.4-16.6-16.6S13.6,6.5,22.8,6.5h279.5c9.2,0,16.6,7.4,16.6,16.6
			s-7.4,16.6-16.6,16.6H22.8z"/>
		<path class="st13" d="M302.2,8c8.3,0,15.1,6.8,15.1,15.1s-6.8,15.1-15.1,15.1H22.8c-8.3,0-15.1-6.8-15.1-15.1S14.4,8,22.8,8H302.2
			 M302.2,4.9H22.8c-10,0-18.1,8.2-18.1,18.1s8.2,18.1,18.1,18.1h279.5c10,0,18.1-8.2,18.1-18.1S312.2,4.9,302.2,4.9L302.2,4.9z"/>
	</g>
	<g>
		<rect x="132" y="40.3" class="st12" width="48.9" height="130.7"/>
		<path class="st13" d="M179.4,41.8v127.6h-46V41.8H179.4 M182.5,38.8h-52v133.7h52V38.8L182.5,38.8z"/>
	</g>
	<g>
		<rect x="29.3" y="40.3" class="st12" width="14.4" height="130.7"/>
		<path class="st14" d="M42.3,41.8v127.6H30.9V41.8H42.3 M45.3,38.8H27.9v133.7h17.4V38.8L45.3,38.8z"/>
	</g>
	<g>
		<rect x="279.8" y="40.3" class="st12" width="14.4" height="130.7"/>
		<path class="st13" d="M292.6,41.8v127.6h-11.4V41.8H292.6 M295.6,38.8h-17.4v133.7h17.4V38.8L295.6,38.8z"/>
	</g>
	<g>
		<rect x="29.3" y="40.3" class="st15" width="264.8" height="22.4"/>
		<path class="st14" d="M292.6,41.8v19.4H30.8V41.8H292.6 M295.6,38.8H27.8v25.4h267.8L295.6,38.8L295.6,38.8z"/>
	</g>
	<line class="st16" x1="130.7" y1="38.8" x2="130.7" y2="6.8"/>
	<line class="st16" x1="182.8" y1="38.8" x2="182.8" y2="6.8"/>
</g>
</svg>
