<?xml version="1.0" encoding="utf-8"?>
<!-- Generator: Adobe Illustrator 21.1.0, SVG Export Plug-In . SVG Version: 6.00 Build 0)  -->
<svg version="1.1" xmlns="http://www.w3.org/2000/svg" xmlns:xlink="http://www.w3.org/1999/xlink" x="0px" y="0px"
	 viewBox="0 0 258.8 325" style="enable-background:new 0 0 258.8 325;" xml:space="preserve">
<style type="text/css">
	.st0{display:none;}
	.st1{display:inline;fill:#9AC6E5;}
	.st2{display:inline;fill:#333333;}
	.st3{fill:#9AC6E5;}
	.st4{fill:#333333;stroke:#333333;stroke-width:3;}
</style>
<g id="Слой_1" class="st0">
	<rect x="10" y="8" class="st1" width="305" height="15"/>
	<path class="st2" d="M309.3,0H15.7C7.1,0,0,7.1,0,15.7c0,8.7,7.1,15.7,15.7,15.7h293.5c8.7,0,15.7-7.1,15.7-15.7
		C325,7.1,317.9,0,309.3,0z M309.3,21H15.7c-2.9,0-5.2-2.4-5.2-5.2s2.3-5.2,5.2-5.2h293.5c2.9,0,5.2,2.4,5.2,5.2S312.2,21,309.3,21z
		"/>
	<path class="st2" d="M162.5,167.7c-37.6,0-68.1,30.6-68.1,68.1c0,37.6,30.6,68.1,68.1,68.1c37.6,0,68.1-30.6,68.1-68.1
		S200.1,167.7,162.5,167.7z M219.9,241.1c-1.1,12-5.8,22.9-13.1,31.6l-10.9-10.9l-7.4,7.4l10.9,10.9c-10,8.3-22.9,13.4-36.9,13.4
		s-26.9-5-36.9-13.4l10.9-10.9l-7.4-7.4l-10.9,10.9c-7.3-8.7-12-19.7-13.1-31.6h15.5v-10.5h-15.5c1.1-12,5.8-22.9,13.1-31.6
		l10.9,10.9l7.4-7.4l-10.9-10.9c8.7-7.3,19.7-12,31.6-13.1V194h10.5v-15.5c12,1.1,22.9,5.8,31.6,13.1l-10.9,10.9l7.4,7.4l10.9-10.9
		c7.3,8.7,12,19.7,13.1,31.6h-15.5v10.5H219.9z"/>
	<path class="st2" d="M174.2,213.3c-1.5-5.2-6.3-8.8-11.7-8.8s-10.2,3.6-11.7,8.8l-8.5,29.8c-0.5,1.7-0.7,3.5-0.7,5.2
		c0,10.5,8.5,19,19,19h3.9c10.5,0,19-8.5,19-19c0-1.8-0.2-3.5-0.7-5.2L174.2,213.3z M164.4,256.9h-3.9c-4.7,0-8.6-3.8-8.6-8.6
		c0-0.8,0.1-1.6,0.3-2.3l8.5-29.8c0.2-0.7,0.9-1.2,1.6-1.2c0.8,0,1.4,0.5,1.6,1.2l8.5,29.8c0.2,0.8,0.3,1.6,0.3,2.3
		C173,253,169.1,256.9,164.4,256.9z"/>
	<path class="st2" d="M291.5,236.5c-3.8-38.4-30-71.5-66.5-84.2l-0.8-0.3H100.8l-0.8,0.3C63.4,165,37.3,198,33.5,236.5l-7.2,71.8
		c-0.1,0.5-0.1,1-0.1,1.6c0,8.4,6.8,15.2,15.2,15.2h242.1c8.4,0,15.2-6.8,15.2-15.2c0-0.5,0-1-0.1-1.5L291.5,236.5z M283.6,314.5
		H41.4c-2.6,0-4.7-2.1-4.7-5.2l7.2-71.8c3.4-34.1,26.4-63.5,58.7-75h119.8c32.3,11.5,55.3,40.9,58.7,75l7.2,71.8v0.5
		C288.3,312.4,286.2,314.5,283.6,314.5z"/>
	<path class="st2" d="M304,47.2c0,37.6-30.6,68.1-68.1,68.1h-26.2h-10.5h-73.4h-10.5H89.1C51.5,115.3,21,84.8,21,47.2V42H10.5v5.2
		c0,43.4,35.3,78.6,78.6,78.6h26.2v15.7h10.5v-15.7h10.5v15.7h10.5v-15.7h31.5v15.7h10.5v-15.7h10.5v15.7h10.5v-15.7H236
		c43.4,0,78.6-35.3,78.6-78.6V42H304V47.2z"/>
	<path class="st2" d="M41.9,41.9H31.5v10.5H42L41.9,41.9L41.9,41.9z"/>
	<path class="st2" d="M146.8,41.9H52.4v10.5h94.4V41.9z"/>
</g>
<g id="Слой_2">
	<path class="st3" d="M8.6,165.4c0.9,10.3,9.5,30.8,36.4,30.5c26.9-0.3,122-0.2,166.2,0c13.5,0.8,39.4-4.4,35.6-31.7H8.6V165.4z"/>
	<path class="st4" d="M220.1,200.3c9.9,0,19.3-4,26.3-10.9c7-7,10.9-16.5,10.9-26.3c0-1.5-0.6-2.8-1.7-3.9c-1-1-2.5-1.7-3.9-1.7
		h-40.6v-44.2c6.9-1.7,10.8-2.9,11.3-3.2c1.1-0.4,2.1-1,2.8-2c0.7-0.9,1-2.1,1-3.2V29.7c0-7.4-3-14.6-8.2-19.9
		c-5.2-5.2-12.3-8.2-19.8-8.2H60.5c-7.4,0-14.6,3-19.9,8.2c-5.2,5.2-8.2,12.4-8.2,19.9v75.2c0,1.2,0.4,2.3,1,3.2
		c0.6,0.9,1.7,1.7,2.8,2c0.5,0.2,4.5,1.4,11.3,3.2v44.2H7.1c-1.5,0-2.8,0.6-3.9,1.7c-1,1-1.7,2.5-1.7,3.9c0,9.9,4,19.3,10.9,26.3
		s16.5,10.9,26.3,10.9h0.2v11.3l-19.2,106c-0.2,0.8-0.1,1.6,0.1,2.4c0.2,0.8,0.6,1.5,1.1,2.1s1.2,1.1,1.9,1.5
		c0.7,0.3,1.5,0.6,2.4,0.6h13.3c1.3,0,2.5-0.4,3.4-1.2c0.9-0.8,1.7-1.8,2-3.1l24.3-102.3h122.4l24.4,102.3c0.3,1.2,0.9,2.3,2,3.1
		c0.9,0.8,2.2,1.2,3.4,1.2h13.3c0.8,0,1.6-0.2,2.4-0.6c0.7-0.3,1.4-0.9,1.9-1.5c0.6-0.6,0.9-1.3,1.1-2.1c0.2-0.8,0.2-1.6,0.1-2.4
		l-19.2-106v-11.3L220.1,200.3L220.1,200.3z M200,157.6h-6.6v-40.4c2.3-0.4,4.5-0.9,6.6-1.3V157.6z M76.4,157.6v-38.6
		c17.6,2.6,35.2,3.9,52.9,3.9s35.4-1.3,52.9-4v38.6L76.4,157.6z M43.5,29.7c0-4.5,1.8-8.8,5-12c3.2-3.2,7.5-5,12-5h137.7
		c4.5,0,8.8,1.8,12,5c3.2,3.2,5,7.5,5,12v71.1c-28,7.4-56.9,11.1-85.9,11c-29,0.1-57.8-3.6-85.9-11C43.5,100.8,43.5,29.7,43.5,29.7z
		 M58.7,115.8c2.1,0.4,4.3,0.9,6.6,1.3v40.5h-6.6V115.8z M13.1,168.6h232.4c-1.3,5.9-4.5,11.1-9.2,14.8c-4.7,3.7-10.4,5.8-16.4,5.8
		H38.7c-5.9,0-11.7-2.1-16.4-5.8C17.7,179.6,14.5,174.5,13.1,168.6z M34,313h-2.3l17.3-95.4h7.7L34,313z M224.7,313l-22.7-95.4h7.7
		l17.3,95.4H224.7z M208.7,206.5H50v-6.3h158.7V206.5z"/>
</g>
</svg>
