<?xml version="1.0" encoding="utf-8"?>
<!-- Generator: Adobe Illustrator 21.1.0, SVG Export Plug-In . SVG Version: 6.00 Build 0)  -->
<svg version="1.1" id="Слой_1" xmlns="http://www.w3.org/2000/svg" xmlns:xlink="http://www.w3.org/1999/xlink" x="0px" y="0px"
	 viewBox="0 0 310 325" style="enable-background:new 0 0 310 325;" xml:space="preserve">
<style type="text/css">
	.st0{display:none;}
	.st1{display:inline;fill:#9AC6E5;}
	.st2{display:inline;fill:#333333;}
	.st3{fill:#9AC6E5;}
	.st4{fill:#333333;}
</style>
<g id="Слой_1_1_" class="st0">
	<rect x="3.7" y="8" class="st1" width="305" height="15"/>
	<path class="st2" d="M303,0H9.4C0.8,0-6.3,7.1-6.3,15.7c0,8.7,7.1,15.7,15.7,15.7h293.5c8.7,0,15.7-7.1,15.7-15.7
		C318.7,7.1,311.6,0,303,0z M303,21H9.4c-2.9,0-5.2-2.4-5.2-5.2s2.3-5.2,5.2-5.2h293.5c2.9,0,5.2,2.4,5.2,5.2S305.9,21,303,21z"/>
	<path class="st2" d="M156.2,167.7c-37.6,0-68.1,30.6-68.1,68.1c0,37.6,30.6,68.1,68.1,68.1c37.6,0,68.1-30.6,68.1-68.1
		S193.8,167.7,156.2,167.7z M213.6,241.1c-1.1,12-5.8,22.9-13.1,31.6l-10.9-10.9l-7.4,7.4l10.9,10.9c-10,8.3-22.9,13.4-36.9,13.4
		s-26.9-5-36.9-13.4l10.9-10.9l-7.4-7.4l-10.9,10.9c-7.3-8.7-12-19.7-13.1-31.6h15.5v-10.5H98.8c1.1-12,5.8-22.9,13.1-31.6
		l10.9,10.9l7.4-7.4l-10.9-10.9c8.7-7.3,19.7-12,31.6-13.1V194h10.5v-15.5c12,1.1,22.9,5.8,31.6,13.1l-10.9,10.9l7.4,7.4l10.9-10.9
		c7.3,8.7,12,19.7,13.1,31.6H198v10.5H213.6z"/>
	<path class="st2" d="M167.9,213.3c-1.5-5.2-6.3-8.8-11.7-8.8s-10.2,3.6-11.7,8.8l-8.5,29.8c-0.5,1.7-0.7,3.5-0.7,5.2
		c0,10.5,8.5,19,19,19h3.9c10.5,0,19-8.5,19-19c0-1.8-0.2-3.5-0.7-5.2L167.9,213.3z M158.1,256.9h-3.9c-4.7,0-8.6-3.8-8.6-8.6
		c0-0.8,0.1-1.6,0.3-2.3l8.5-29.8c0.2-0.7,0.9-1.2,1.6-1.2c0.8,0,1.4,0.5,1.6,1.2l8.5,29.8c0.2,0.8,0.3,1.6,0.3,2.3
		C166.7,253,162.8,256.9,158.1,256.9z"/>
	<path class="st2" d="M285.2,236.5c-3.8-38.4-30-71.5-66.5-84.2l-0.8-0.3H94.5l-0.8,0.3C57.1,165,31,198,27.2,236.5L20,308.3
		c-0.1,0.5-0.1,1-0.1,1.6c0,8.4,6.8,15.2,15.2,15.2h242.1c8.4,0,15.2-6.8,15.2-15.2c0-0.5,0-1-0.1-1.5L285.2,236.5z M277.3,314.5
		H35.1c-2.6,0-4.7-2.1-4.7-5.2l7.2-71.8c3.4-34.1,26.4-63.5,58.7-75h119.8c32.3,11.5,55.3,40.9,58.7,75l7.2,71.8v0.5
		C282,312.4,279.9,314.5,277.3,314.5z"/>
	<path class="st2" d="M297.7,47.2c0,37.6-30.6,68.1-68.1,68.1h-26.2h-10.5h-73.4H109H82.8c-37.6,0-68.1-30.5-68.1-68.1V42H4.2v5.2
		c0,43.4,35.3,78.6,78.6,78.6H109v15.7h10.5v-15.7H130v15.7h10.5v-15.7H172v15.7h10.5v-15.7H193v15.7h10.5v-15.7h26.2
		c43.4,0,78.6-35.3,78.6-78.6V42h-10.6L297.7,47.2L297.7,47.2z"/>
	<path class="st2" d="M35.6,41.9H25.2v10.5h10.5L35.6,41.9L35.6,41.9z"/>
	<path class="st2" d="M140.5,41.9H46.1v10.5h94.4V41.9z"/>
</g>
<g id="Слой_2">
	<g>
		<g>
			<g>
				<path class="st3" d="M269.9,171.7c-2.9,0-4.8,1.9-4.8,4.8v17.6c0,2.9,1.9,4.8,4.8,4.8s4.8-1.9,4.8-4.8v-17.6
					C274.7,173.5,272.7,171.7,269.9,171.7z"/>
			</g>
		</g>
	</g>
	<g>
		<g>
			<g>
				<path class="st3" d="M269.9,215.2c-7.7,0-13.8,6.3-13.8,13.8c0,7.7,6.3,13.8,13.8,13.8c7.6,0,13.8-6.3,13.8-13.8
					C283.8,221.3,277.6,215.2,269.9,215.2z M269.9,233.3c-2.4,0-4.3-1.9-4.3-4.3s1.9-4.3,4.3-4.3s4.3,1.9,4.3,4.3
					S272.3,233.3,269.9,233.3z"/>
			</g>
		</g>
	</g>
	<g>
		<g>
			<path class="st4" d="M231.2,89.9H77.7c-43,0-78,34.9-78,78v135.7c0,2.9,1.9,4.8,4.8,4.8h17.2v3.4c0,8.1,5.2,14.4,12.4,14.4h40.6
				c6.7,0,12.4-6.7,12.4-14.4v-3.4h127.2v3.4c0,8.1,5.2,14.4,12.4,14.4h40.6c6.7,0,12.4-6.7,12.4-14.4v-3.4h24.8
				c2.9,0,4.8-1.9,4.8-4.8V167.8C309.1,125.3,274.2,89.9,231.2,89.9z M74.9,316.5H34.3c-0.9,0-2.9-1.9-2.9-4.8v-3.4h45.9v3.4h0.5
				C77.7,314.6,76.3,316.5,74.9,316.5z M267,316.5h-40.6c-0.9,0-2.9-1.9-2.9-4.8v-3.4h45.9v3.4h0.5
				C269.9,314.6,268.4,316.5,267,316.5z M299.5,298.8H9.4v-131c0-37.7,30.6-68.3,68.3-68.3h153.5c37.7,0,68.3,30.6,68.3,68.3V298.8z
				"/>
		</g>
	</g>
	<g>
		<g>
			<g>
				<path class="st3" d="M230.7,113.3H78.3c-2.9,0-4.8,1.9-4.8,4.8v15.8c0,2.9,1.9,4.8,4.8,4.8h152c2.9,0,4.8-1.9,4.8-4.8v-15.8
					C235.5,115.7,233.1,113.3,230.7,113.3z M83,129.1v-6.3h142.5v6.3H83z"/>
			</g>
		</g>
	</g>
	<g>
		<g>
			<g>
				<path class="st3" d="M103.6,41.1c11,0,20.1-9.1,20.1-20.1s-9.1-20-20.1-20c-2.9,0-4.8,1.9-4.8,4.8s1.9,4.8,4.8,4.8
					c5.7,0,10.5,4.8,10.5,10.5s-4.8,10.5-10.5,10.5c-11,0-20.1,9.1-20.1,20.1s9.1,20.1,20.1,20.1c2.9,0,4.8-1.9,4.8-4.8
					s-1.9-4.8-4.8-4.8c-5.7,0-10.5-4.8-10.5-10.5S97.9,41.1,103.6,41.1z"/>
			</g>
		</g>
	</g>
	<g>
		<g>
			<g>
				<path class="st3" d="M157.1,41.1c11,0,20.1-9.1,20.1-20.1s-9.1-20-20.1-20c-2.9,0-4.8,1.9-4.8,4.8s1.9,4.8,4.8,4.8
					c5.7,0,10.5,4.8,10.5,10.5s-4.8,10.5-10.5,10.5c-11,0-20.1,9.1-20.1,20.1s9.1,20.1,20.1,20.1c2.9,0,4.8-1.9,4.8-4.8
					s-1.9-4.8-4.8-4.8c-5.7,0-10.5-4.8-10.5-10.5S151.4,41.1,157.1,41.1z"/>
			</g>
		</g>
	</g>
	<g>
		<g>
			<g>
				<path class="st3" d="M210.7,41.1c11,0,20.1-9.1,20.1-20.1s-9.1-20-20.1-20c-2.9,0-4.8,1.9-4.8,4.8s1.9,4.8,4.8,4.8
					c5.7,0,10.5,4.8,10.5,10.5s-4.8,10.5-10.5,10.5c-11,0-20.1,9.1-20.1,20.1s9.1,20.1,20.1,20.1c2.9,0,4.8-1.9,4.8-4.8
					s-1.9-4.8-4.8-4.8c-5.7,0-10.5-4.8-10.5-10.5S204.9,41.1,210.7,41.1z"/>
			</g>
		</g>
	</g>
</g>
</svg>
