<svg id="Слой_1" data-name="Слой 1" xmlns="http://www.w3.org/2000/svg" viewBox="0 0 500 500"><defs><style>.cls-1,.cls-2,.cls-5{fill:none;}.cls-1,.cls-2{stroke:#8cc3e5;stroke-linecap:round;stroke-width:15.73px;}.cls-1,.cls-2,.cls-3,.cls-4,.cls-5{stroke-linejoin:round;}.cls-2{stroke-dasharray:31.02 31.02;}.cls-3{fill:#fff;}.cls-3,.cls-4,.cls-5{stroke:#000;stroke-width:16px;}.cls-4{fill:#8cc3e5;}</style></defs><path class="cls-1" d="M157.7,75.66q7.43,0,14.75.39"/><path class="cls-2" d="M203.26,79.48c127.55,21.66,224.68,132.69,224.68,266.41A272.52,272.52,0,0,1,425,385.73"/><path class="cls-1" d="M422.31,401q-1.5,7.25-3.39,14.34"/><rect class="cls-3" x="194.33" y="118.31" width="104.53" height="343.52" transform="translate(429.91 -43.61) rotate(69.15)"/><rect class="cls-4" x="236.23" y="147.19" width="42.72" height="343.52" transform="translate(463.99 -35.28) rotate(69.15)"/><rect x="406.68" y="283.37" width="16.6" height="42.74" rx="8.3" transform="translate(-81.28 167.64) rotate(-20.85)"/><rect x="152.62" y="380.12" width="16.6" height="42.74" rx="8.3" transform="matrix(0.93, -0.36, 0.36, 0.93, -132.35, 83.56)"/><line class="cls-5" x1="425.71" y1="277.79" x2="153.32" y2="381.52"/><path class="cls-3" d="M334.47,133.79H348.7a0,0,0,0,1,0,0v93.69a0,0,0,0,1,0,0H334.47a28.19,28.19,0,0,1-28.19-28.19V162A28.19,28.19,0,0,1,334.47,133.79Z" transform="translate(379.75 -189.7) rotate(69.15)"/><rect class="cls-4" x="59.6" y="71.82" width="104.53" height="343.52"/><rect x="164.13" y="163.21" width="16.6" height="42.74" rx="8.3"/><line class="cls-5" x1="164.13" y1="71.82" x2="164.13" y2="363.29"/><rect class="cls-3" x="59.6" y="334.18" width="104.53" height="81.16"/><line class="cls-5" x1="143.36" y1="415.34" x2="469.99" y2="415.34"/></svg>