<?xml version="1.0" encoding="utf-8"?>
<!-- Generator: Adobe Illustrator 21.1.0, SVG Export Plug-In . SVG Version: 6.00 Build 0)  -->
<svg version="1.1" id="Слой_1" xmlns="http://www.w3.org/2000/svg" xmlns:xlink="http://www.w3.org/1999/xlink" x="0px" y="0px"
	 viewBox="0 0 416 481" style="enable-background:new 0 0 416 481;" xml:space="preserve">
<style type="text/css">
	.st0{fill:#9AC6E5;}
	.st1{fill:#333333;}
</style>
<rect x="27" y="235" class="st0" width="361" height="27"/>
<path class="st1" d="M352,40c-28.6,0-72.3-21.2-76.1-23C255.2,5.4,231.8-0.5,208,0c-23.8-0.5-47.2,5.3-67.9,17
	c-3.7,1.8-47.5,23-76.1,23c-2.1,0-4.2,0.8-5.7,2.3C56.8,43.9,56,45.9,56,48v144H8c-2.1,0-4.2,0.8-5.7,2.3C0.8,195.9,0,197.9,0,200
	v32c0,2.1,0.8,4.2,2.3,5.7c1.5,1.5,3.5,2.3,5.7,2.3h8v232c0,2.1,0.8,4.2,2.3,5.7c1.5,1.5,3.5,2.3,5.7,2.3h16c1.8,0,3.6-0.6,5.1-1.8
	c1.4-1.2,2.4-2.8,2.8-4.6L62.6,400H168c2.1,0,4.2-0.8,5.7-2.3c1.5-1.5,2.3-3.5,2.3-5.7V272h64v120c0,2.1,0.8,4.2,2.3,5.7
	c1.5,1.5,3.5,2.3,5.7,2.3h105.4l14.7,73.6c0.4,1.8,1.4,3.4,2.8,4.6c1.4,1.2,3.2,1.8,5.1,1.8h16c2.1,0,4.2-0.8,5.7-2.3
	c1.5-1.5,2.3-3.5,2.3-5.7V240h8c2.1,0,4.2-0.8,5.7-2.3c1.5-1.5,2.3-3.5,2.3-5.7v-32c0-2.1-0.8-4.2-2.3-5.7c-1.5-1.5-3.5-2.3-5.7-2.3
	h-48V48c0-2.1-0.8-4.2-2.3-5.7C356.2,40.9,354.1,40,352,40z M280,36.5c20.3,9.4,41.9,15.8,64,19.1V192h-64V36.5z M152,28.7
	c17.4-8.6,36.6-12.9,56-12.6c19.4-0.2,38.6,4.1,56,12.6V192H152V28.7z M72,55.6c22.1-3.3,43.7-9.7,64-19.1V192H72V55.6z M48,391.2
	L33.4,464H32V272h16V391.2z M160,384H64v-48h96V384z M160,320H64v-48h96V320z M352,384h-96v-48h96V384z M352,320h-96v-48h96V320z
	 M384,464h-1.4L368,391.2V272h16V464z M384,256H32v-16h352V256z M400,208v16H16v-16H400z"/>
<path class="st1" d="M162.3,106.4l40-40l11.3,11.3l-40,40L162.3,106.4z"/>
<path class="st1" d="M194.3,114.4l48-48l11.3,11.3l-48,48L194.3,114.4z"/>
<path class="st1" d="M88,288h48v16H88V288z"/>
<path class="st1" d="M88,352h48v16H88V352z"/>
<path class="st1" d="M280,288h48v16h-48V288z"/>
<path class="st1" d="M280,352h48v16h-48V352z"/>
<path class="st1" d="M93.5,72.4c-1.6,0.5-3,1.5-4,2.9c-1,1.4-1.5,3-1.5,4.7v56h16V85.8l18.5-6.2l-5.1-15.2L93.5,72.4z"/>
<path class="st1" d="M312,160h-16v16h24c2.1,0,4.2-0.8,5.7-2.3s2.3-3.5,2.3-5.7v-40h-16V160z"/>
<path class="st1" d="M88,152h16v16H88V152z"/>
</svg>
