<svg width="512" height="427" viewBox="0 0 512 427" fill="none" xmlns="http://www.w3.org/2000/svg">
<rect x="312" y="338" width="118" height="43" fill="#82B2D8"/>
<path fill-rule="evenodd" clip-rule="evenodd" d="M238.933 273.066H42.6668H34.1338V281.599V383.999V392.532H42.6668H76.7998H119.467H153.6H179.2H204.8H238.933H247.466V383.999V281.599V273.066H238.933ZM85.3328 366.933V375.466H110.933V366.933H85.3328ZM162.134 375.466H170.667V349.866H162.134V375.466ZM187.733 341.333V375.466H196.266V315.733H187.733V341.333ZM213.333 375.466H230.4V290.133H51.1998V375.465H68.2668V358.398C68.2668 353.679 72.0808 349.865 76.7998 349.865H119.467C124.186 349.865 128 353.679 128 358.398V375.465H145.067V341.332C145.067 336.613 148.881 332.799 153.6 332.799H170.667V307.199C170.667 302.48 174.481 298.666 179.2 298.666H204.8C209.519 298.666 213.333 302.48 213.333 307.199V375.466Z" fill="#333333"/>
<path fill-rule="evenodd" clip-rule="evenodd" d="M264.533 281.6V384V392.533H273.066H307.2H435.2H469.333H477.866V384V281.6V273.067L469.333 273.067H273.067L264.533 273.067V281.6ZM315.733 341.333V375.466H426.666V341.333H315.733ZM460.8 290.133H281.6V375.466H298.667V332.799V324.266H307.2H435.2H443.733V332.799V375.466H460.8V290.133Z" fill="#333333"/>
<path fill-rule="evenodd" clip-rule="evenodd" d="M281.6 238.933H503.467H511.999V247.466V418.133V426.666H503.466H8.533H0V418.133V373.5H17.067V409.6H494.933L494.934 256H273.067H238.934H17.067V358.5H0V247.466V238.933H8.533H230.4V221.866H42.667H34.134V213.333V8.533V0H42.667H469.333H477.866V8.533V213.333V221.866H469.333H281.6V238.933ZM51.2 17.066H460.8V204.799H273.067H238.934H51.2V17.066ZM247.467 221.866H264.534V238.933H247.467V221.866Z" fill="#333333"/>
<path d="M156.1 36.6329L70.7674 121.966C67.4304 125.303 67.4304 130.696 70.7674 134.032C72.4314 135.696 74.6164 136.532 76.8004 136.532C78.9854 136.532 81.1694 135.696 82.8334 134.032L168.166 48.6989C171.502 45.3619 171.502 39.9689 168.166 36.6329C164.83 33.2969 159.437 33.2969 156.1 36.6329Z" fill="#82B2D8"/>
<path d="M76.8004 93.8659C78.9854 93.8659 81.1694 93.0299 82.8334 91.3659L125.5 48.6989C128.836 45.3619 128.836 39.9689 125.5 36.6329C122.163 33.2969 116.77 33.2969 113.434 36.6329L70.7674 79.2999C67.4304 82.6369 67.4304 88.0299 70.7674 91.3659C72.4314 93.0299 74.6154 93.8659 76.8004 93.8659Z" fill="#82B2D8"/>
<path d="M147.567 87.8331L121.967 113.433C118.631 116.769 118.631 122.163 121.967 125.499C123.631 127.163 125.816 127.999 128 127.999C130.184 127.999 132.369 127.163 134.033 125.499L159.633 99.899C162.97 96.562 162.97 91.1691 159.633 87.8331C156.297 84.4971 150.904 84.4971 147.567 87.8331Z" fill="#82B2D8"/>
<path d="M110.933 128C106.214 128 102.4 131.814 102.4 136.533C102.4 141.252 106.214 145.066 110.933 145.066C115.652 145.066 119.466 141.252 119.466 136.533C119.466 131.814 115.652 128 110.933 128Z" fill="#82B2D8"/>
</svg>
