<?xml version="1.0" encoding="utf-8"?>
<!-- Generator: Adobe Illustrator 21.1.0, SVG Export Plug-In . SVG Version: 6.00 Build 0)  -->
<svg version="1.1" xmlns="http://www.w3.org/2000/svg" xmlns:xlink="http://www.w3.org/1999/xlink" x="0px" y="0px"
	 viewBox="0 0 211 325" style="enable-background:new 0 0 211 325;" xml:space="preserve">
<style type="text/css">
	.st0{display:none;}
	.st1{display:inline;fill:#9AC6E5;}
	.st2{display:inline;fill:#333333;}
	.st3{fill:#9AC6E5;}
	.st4{fill:#333333;}
</style>
<g id="Слой_1" class="st0">
	<rect x="-104" y="8" class="st1" width="305" height="15"/>
	<path class="st2" d="M195.3,0H-98.3c-8.6,0-15.7,7.1-15.7,15.7c0,8.7,7.1,15.7,15.7,15.7h293.5c8.7,0,15.7-7.1,15.7-15.7
		C211,7.1,203.9,0,195.3,0z M195.3,21H-98.3c-2.9,0-5.2-2.4-5.2-5.2s2.3-5.2,5.2-5.2h293.5c2.9,0,5.2,2.4,5.2,5.2S198.2,21,195.3,21
		z"/>
	<path class="st2" d="M48.5,167.7c-37.6,0-68.1,30.6-68.1,68.1c0,37.6,30.6,68.1,68.1,68.1c37.6,0,68.1-30.6,68.1-68.1
		S86.1,167.7,48.5,167.7z M105.9,241.1c-1.1,12-5.8,22.9-13.1,31.6l-10.9-10.9l-7.4,7.4l10.9,10.9c-10,8.3-22.9,13.4-36.9,13.4
		s-26.9-5-36.9-13.4l10.9-10.9l-7.4-7.4L4.2,272.7c-7.3-8.7-12-19.7-13.1-31.6H6.6v-10.5H-8.9c1.1-12,5.8-22.9,13.1-31.6l10.9,10.9
		l7.4-7.4l-10.9-10.9c8.7-7.3,19.7-12,31.6-13.1V194h10.5v-15.5c12,1.1,22.9,5.8,31.6,13.1l-10.9,10.9l7.4,7.4L92.7,199
		c7.3,8.7,12,19.7,13.1,31.6H90.3v10.5H105.9z"/>
	<path class="st2" d="M60.2,213.3c-1.5-5.2-6.3-8.8-11.7-8.8s-10.2,3.6-11.7,8.8l-8.5,29.8c-0.5,1.7-0.7,3.5-0.7,5.2
		c0,10.5,8.5,19,19,19h3.9c10.5,0,19-8.5,19-19c0-1.8-0.2-3.5-0.7-5.2L60.2,213.3z M50.4,256.9h-3.9c-4.7,0-8.6-3.8-8.6-8.6
		c0-0.8,0.1-1.6,0.3-2.3l8.5-29.8c0.2-0.7,0.9-1.2,1.6-1.2c0.8,0,1.4,0.5,1.6,1.2l8.5,29.8c0.2,0.8,0.3,1.6,0.3,2.3
		C59,253,55.1,256.9,50.4,256.9z"/>
	<path class="st2" d="M177.5,236.5c-3.8-38.4-30-71.5-66.5-84.2l-0.8-0.3H-13.2l-0.8,0.3C-50.6,165-76.7,198-80.5,236.5l-7.2,71.8
		c-0.1,0.5-0.1,1-0.1,1.6c0,8.4,6.8,15.2,15.2,15.2h242.1c8.4,0,15.2-6.8,15.2-15.2c0-0.5,0-1-0.1-1.5L177.5,236.5z M169.6,314.5
		H-72.6c-2.6,0-4.7-2.1-4.7-5.2l7.2-71.8c3.4-34.1,26.4-63.5,58.7-75h119.8c32.3,11.5,55.3,40.9,58.7,75l7.2,71.8v0.5
		C174.3,312.4,172.2,314.5,169.6,314.5z"/>
	<path class="st2" d="M190,47.2c0,37.6-30.6,68.1-68.1,68.1H95.7H85.2H11.8H1.3h-26.2c-37.6,0-68.1-30.5-68.1-68.1V42h-10.5v5.2
		c0,43.4,35.3,78.6,78.6,78.6H1.3v15.7h10.5v-15.7h10.5v15.7h10.5v-15.7h31.5v15.7h10.5v-15.7h10.5v15.7h10.5v-15.7H122
		c43.4,0,78.6-35.3,78.6-78.6V42H190V47.2z"/>
	<path class="st2" d="M-72.1,41.9h-10.4v10.5H-72L-72.1,41.9L-72.1,41.9z"/>
	<path class="st2" d="M32.8,41.9h-94.4v10.5h94.4V41.9z"/>
</g>
<g id="Слой_2">
	<rect x="50.2" y="300" class="st3" width="96.1" height="15.9"/>
	<path class="st4" d="M38.1,83.2c0-10.5-8.5-19.1-19.1-19.1S0,72.6,0,83.2c0,8.3,5.3,15.4,12.7,18v20.1c0,10.5,8.5,19.1,19.1,19.1
		H80v123.2c-7.4,2.6-12.7,9.7-12.7,18v6.4h-6.4c-10.5,0-19.1,8.5-19.1,19.1v12.7c0,3.5,2.9,6.4,6.4,6.4H150c3.5,0,6.4-2.9,6.4-6.4
		V307c0-10.5-8.5-19.1-19.1-19.1h-6.4v-6.4c0-8.3-5.3-15.4-12.7-18v-59.6h35.6c10.5,0,19.1-8.5,19.1-19.1v-20.1
		c7.4-2.6,12.7-9.7,12.7-18c0-10.5-8.5-19.1-19.1-19.1s-19.1,8.5-19.1,19.1c0,8.3,5.3,15.4,12.7,18v20.1c0,3.5-2.9,6.4-6.4,6.4
		h-35.6V89.5h61.1c10.5,0,19.1-8.5,19.1-19.1V50.2c7.4-2.6,12.7-9.7,12.7-18c0-10.5-8.5-19.1-19.1-19.1c-10.5,0-19.1,8.5-19.1,19.1
		c0,8.3,5.3,15.4,12.7,18v20.1c0,3.5-2.9,6.4-6.4,6.4h-61.1v-34c4-4.6,6.4-10.6,6.4-16.8c0-14-11.4-25.5-25.5-25.5
		C85.1,0.5,73.7,11.9,73.7,26c0,6.2,2.2,12.2,6.4,16.8v84.9H31.8c-3.5,0-6.4-2.9-6.4-6.4v-20.1C32.8,98.5,38.1,91.4,38.1,83.2z
		 M166.5,140.4c3.5,0,6.4,2.9,6.4,6.4s-2.9,6.4-6.4,6.4c-3.5,0-6.4-2.9-6.4-6.4C160.2,143.2,163,140.4,166.5,140.4z M192,26
		c3.5,0,6.4,2.9,6.4,6.4c0,3.5-2.9,6.4-6.4,6.4c-3.5,0-6.4-2.9-6.4-6.4C185.7,28.8,188.5,26,192,26z M99.2,51.4
		c2.2,0,4.3-0.3,6.4-0.8v211.9H92.9V50.6C94.9,51.1,97,51.4,99.2,51.4z M143.7,307v6.4h-89V307c0-3.5,2.9-6.4,6.4-6.4h76.3
		C140.8,300.6,143.7,303.5,143.7,307z M80.1,287.9v-6.4c0-3.5,2.9-6.4,6.4-6.4h25.5c3.5,0,6.4,2.9,6.4,6.4v6.4H80.1z M99.2,13.2
		c7,0,12.7,5.7,12.7,12.7s-5.7,12.7-12.7,12.7c-7,0-12.7-5.8-12.7-12.7C86.5,18.9,92.2,13.2,99.2,13.2z M19,76.8
		c3.5,0,6.4,2.9,6.4,6.4s-2.9,6.4-6.4,6.4s-6.4-2.9-6.4-6.4S15.5,76.8,19,76.8z"/>
</g>
</svg>
