<?xml version="1.0" encoding="utf-8"?>
<!-- Generator: Adobe Illustrator 21.1.0, SVG Export Plug-In . SVG Version: 6.00 Build 0)  -->
<svg version="1.1" id="Слой_1" xmlns="http://www.w3.org/2000/svg" xmlns:xlink="http://www.w3.org/1999/xlink" x="0px" y="0px"
	 viewBox="0 0 309.7 325" style="enable-background:new 0 0 309.7 325;" xml:space="preserve">
<style type="text/css">
	.st0{display:none;}
	.st1{display:inline;fill:#9AC6E5;}
	.st2{display:inline;fill:#333333;}
	.st3{fill:#9AC6E5;}
	.st4{fill:#333333;}
</style>
<g id="Слой_1_1_" class="st0">
	<rect x="10" y="8" class="st1" width="305" height="15"/>
	<path class="st2" d="M309.3,0H15.7C7.1,0,0,7.1,0,15.7c0,8.7,7.1,15.7,15.7,15.7h293.5c8.7,0,15.7-7.1,15.7-15.7
		C325,7.1,317.9,0,309.3,0z M309.3,21H15.7c-2.9,0-5.2-2.4-5.2-5.2s2.3-5.2,5.2-5.2h293.5c2.9,0,5.2,2.4,5.2,5.2S312.2,21,309.3,21z
		"/>
	<path class="st2" d="M162.5,167.7c-37.6,0-68.1,30.6-68.1,68.1c0,37.6,30.6,68.1,68.1,68.1c37.6,0,68.1-30.6,68.1-68.1
		S200.1,167.7,162.5,167.7z M219.9,241.1c-1.1,12-5.8,22.9-13.1,31.6l-10.9-10.9l-7.4,7.4l10.9,10.9c-10,8.3-22.9,13.4-36.9,13.4
		s-26.9-5-36.9-13.4l10.9-10.9l-7.4-7.4l-10.9,10.9c-7.3-8.7-12-19.7-13.1-31.6h15.5v-10.5h-15.5c1.1-12,5.8-22.9,13.1-31.6
		l10.9,10.9l7.4-7.4l-10.9-10.9c8.7-7.3,19.7-12,31.6-13.1V194h10.5v-15.5c12,1.1,22.9,5.8,31.6,13.1l-10.9,10.9l7.4,7.4l10.9-10.9
		c7.3,8.7,12,19.7,13.1,31.6h-15.5v10.5H219.9z"/>
	<path class="st2" d="M174.2,213.3c-1.5-5.2-6.3-8.8-11.7-8.8s-10.2,3.6-11.7,8.8l-8.5,29.8c-0.5,1.7-0.7,3.5-0.7,5.2
		c0,10.5,8.5,19,19,19h3.9c10.5,0,19-8.5,19-19c0-1.8-0.2-3.5-0.7-5.2L174.2,213.3z M164.4,256.9h-3.9c-4.7,0-8.6-3.8-8.6-8.6
		c0-0.8,0.1-1.6,0.3-2.3l8.5-29.8c0.2-0.7,0.9-1.2,1.6-1.2c0.8,0,1.4,0.5,1.6,1.2l8.5,29.8c0.2,0.8,0.3,1.6,0.3,2.3
		C173,253,169.1,256.9,164.4,256.9z"/>
	<path class="st2" d="M291.5,236.5c-3.8-38.4-30-71.5-66.5-84.2l-0.8-0.3H100.8l-0.8,0.3C63.4,165,37.3,198,33.5,236.5l-7.2,71.8
		c-0.1,0.5-0.1,1-0.1,1.6c0,8.4,6.8,15.2,15.2,15.2h242.1c8.4,0,15.2-6.8,15.2-15.2c0-0.5,0-1-0.1-1.5L291.5,236.5z M283.6,314.5
		H41.4c-2.6,0-4.7-2.1-4.7-5.2l7.2-71.8c3.4-34.1,26.4-63.5,58.7-75h119.8c32.3,11.5,55.3,40.9,58.7,75l7.2,71.8v0.5
		C288.3,312.4,286.2,314.5,283.6,314.5z"/>
	<path class="st2" d="M304,47.2c0,37.6-30.6,68.1-68.1,68.1h-26.2h-10.5h-73.4h-10.5H89.1C51.5,115.3,21,84.8,21,47.2V42H10.5v5.2
		c0,43.4,35.3,78.6,78.6,78.6h26.2v15.7h10.5v-15.7h10.5v15.7h10.5v-15.7h31.5v15.7h10.5v-15.7h10.5v15.7h10.5v-15.7H236
		c43.4,0,78.6-35.3,78.6-78.6V42H304V47.2z"/>
	<path class="st2" d="M41.9,41.9H31.5v10.5H42L41.9,41.9L41.9,41.9z"/>
	<path class="st2" d="M146.8,41.9H52.4v10.5h94.4V41.9z"/>
</g>
<g id="Слой_2">
	<path class="st3" d="M129.3,196.9H98.5c-1.5,0-2.8-1.1-3.1-2.5l-6.5-31.3c-1-4.5-4.9-7.8-9.6-7.8h-6.5c-2.6,0-4.8,2.2-4.8,4.8
		s2.2,4.8,4.8,4.8h6.5c0.1,0,0.3,0.1,0.3,0.2l6.5,31.3c1.2,5.8,6.4,10.1,12.4,10.1h30.8c5.3,0,10-3.3,11.9-8.2l2.3-6
		c0.1-0.1,0.1-0.2,0.1-0.3l4.6-12.1c0-0.1,0.1-0.1,0.1-0.2l3.2-8.3c0.9-2.4,0.6-5.1-0.9-7.3s-3.9-3.4-6.5-3.4h-43.5
		c-2.6,0-4.8,2.2-4.8,4.8s2.2,4.8,4.8,4.8h41.2l-1.2,3.2h-15.8c-2.6,0-4.8,2.2-4.8,4.8s2.2,4.8,4.8,4.8H137l-1.1,2.9h-19.2
		c-2.6,0-4.8,2.2-4.8,4.8s2.2,4.8,4.8,4.8h15.6C131.6,196.3,130.5,196.9,129.3,196.9z"/>
	<path class="st3" d="M99.8,230.3c5.8,0,10.5-4.7,10.5-10.5s-4.7-10.5-10.5-10.5s-10.5,4.7-10.5,10.5S94,230.3,99.8,230.3z
		 M99.8,218.9c0.5,0,1,0.4,1,1c0,0.5-0.4,1-1,1s-1-0.4-1-1C98.8,219.4,99.2,218.9,99.8,218.9z"/>
	<path class="st3" d="M116.8,219.9c0,5.8,4.7,10.5,10.5,10.5s10.5-4.7,10.5-10.5s-4.7-10.5-10.5-10.5S116.8,214.1,116.8,219.9z
		 M128.2,219.9c0,0.5-0.4,1-1,1s-1-0.4-1-1c0-0.5,0.4-1,1-1S128.2,219.4,128.2,219.9z"/>
	<path class="st4" d="M5.8,121.3c2.6,0,4.8-2.2,4.8-4.8V64.9c0-4,3.3-7.3,7.3-7.3H62v14.7c-8.6,2.2-15,10-15,19.2
		c0,10.9,8.9,19.8,19.8,19.8s19.8-8.9,19.8-19.8c0-9.3-6.4-17.1-15-19.2V57.7h77v14.7c-8.6,2.2-15,10-15,19.2
		c0,10.9,8.9,19.8,19.8,19.8s19.8-8.9,19.8-19.8c0-9.3-6.4-17.1-15-19.2V57.7h44.1c4,0,7.3,3.3,7.3,7.3v135.8c0,2.6,2.2,4.8,4.8,4.8
		s4.8-2.2,4.8-4.8V64.9c0-9.3-7.5-16.8-16.8-16.8h-44.1C157.9,21.8,136.4,0.3,110,0.3S62.1,21.7,61.9,48.1H17.8
		C8.5,48.1,1,55.7,1,64.9v51.6C1,119.2,3.2,121.3,5.8,121.3z M77,91.6c0,5.6-4.6,10.3-10.3,10.3s-10.3-4.6-10.3-10.3
		c0-3.9,2.2-7.4,5.5-9.1v6.7c0,2.6,2.2,4.8,4.8,4.8s4.8-2.2,4.8-4.8v-6.7C74.7,84.2,77,87.7,77,91.6z M163.5,91.6
		c0,5.6-4.6,10.3-10.3,10.3c-5.6,0-10.3-4.6-10.3-10.3c0-3.9,2.2-7.4,5.5-9.1v6.7c0,2.6,2.2,4.8,4.8,4.8s4.8-2.2,4.8-4.8v-6.7
		C161.3,84.2,163.5,87.7,163.5,91.6z M110,9.8c21.2,0,38.4,17.2,38.6,38.3H71.5C71.6,27,88.8,9.8,110,9.8z"/>
	<path class="st3" d="M196.1,265.6c8.6,0,15.5-7,15.5-15.5c0-8.6-7-15.5-15.5-15.5s-15.5,7-15.5,15.5
		C180.5,258.7,187.5,265.6,196.1,265.6z M196.1,244.1c3.3,0,6,2.7,6,6s-2.7,6-6,6s-6-2.7-6-6C190,246.8,192.8,244.1,196.1,244.1z"/>
	<path class="st3" d="M234,274.5c-8.6,0-15.5,7-15.5,15.5s7,15.5,15.5,15.5s15.5-7,15.5-15.5S242.5,274.5,234,274.5z M234,296
		c-3.3,0-6-2.7-6-6s2.7-6,6-6s6,2.7,6,6S237.3,296,234,296z"/>
	<path class="st3" d="M245,240.1c-1.8-1.8-4.9-1.8-6.7,0l-53.2,53.2c-1.8,1.8-1.8,4.9,0,6.7c1,1,2.2,1.4,3.4,1.4s2.4-0.4,3.4-1.4
		l53.2-53.2C246.8,244.9,246.8,241.9,245,240.1z"/>
	<path class="st4" d="M307.5,253c2-1.5,3.3-3.9,3.3-6.3v-21.4c0-5.6-4.6-10.1-10.1-10.1H178c2.3-7.1,3.5-14.6,3.5-22.2
		c0-39.4-32.1-71.6-71.6-71.6c-39.4,0-71.5,32.1-71.5,71.6c0,17.4,6.3,34.1,17.7,47.1C67.4,253,83,261.5,99.9,263.8
		c0.3,0.1,0.4,0.1,0.7,0.1c2.3,0,4.4-1.7,4.7-4.1c0.4-2.6-1.5-5-4.1-5.4c-14.6-2.1-28.2-9.4-38-20.6c-9.8-11.2-15.3-25.7-15.3-40.8
		c0-34.2,27.8-62.1,62.1-62.1s62.1,27.8,62.1,62.1c0,7.7-1.4,15.2-4.1,22.2h-14.2c-5.6,0-10.1,4.6-10.1,10.1V245
		c-7.5,4.9-16.1,8.1-24.9,9.3c-2.6,0.4-4.4,2.8-4.1,5.4c0.3,2.3,2.3,4.1,4.7,4.1c0.2,0,0.4,0,0.7-0.1c9.8-1.4,19.3-4.9,27.8-10.1
		c5,3.9,7.9,10,7.9,16.4c0,6.7-3.3,13.1-8.8,17.1c-2,1.5-3.3,3.9-3.3,6.3v5.5H17.8c-4,0-7.3-3.3-7.3-7.3V135.5
		c0-2.6-2.2-4.8-4.8-4.8S1,132.9,1,135.5v156.1c0,9.3,7.5,16.8,16.8,16.8h125.9v6.5c0,5.6,4.6,10.1,10.1,10.1h146.9
		c5.6,0,10.1-4.6,10.1-10.1v-21.4c0-2.5-1.2-4.9-3.3-6.3c-5.5-3.9-8.8-10.3-8.8-17.1S302,256.9,307.5,253z M301.3,245.7
		c-7.5,5.8-12,14.8-12,24.3s4.5,18.5,12,24.3v20.5c0,0.3-0.3,0.6-0.6,0.6H153.8c-0.3,0-0.6-0.3-0.6-0.6v-20.6
		c7.5-5.8,12-14.8,12-24.3s-4.5-18.5-12-24.3V225c0-0.3,0.3-0.6,0.6-0.6h146.9c0.3,0,0.6,0.3,0.6,0.6L301.3,245.7L301.3,245.7z"/>
	<path class="st4" d="M271.8,231.2c-2.6,0-4.8,2.2-4.8,4.8v4.2c0,2.6,2.2,4.8,4.8,4.8c2.6,0,4.8-2.2,4.8-4.8V236
		C276.6,233.3,274.5,231.2,271.8,231.2z"/>
	<path class="st4" d="M271.8,252.5c-2.6,0-4.8,2.2-4.8,4.8v4.2c0,2.6,2.2,4.8,4.8,4.8c2.6,0,4.8-2.2,4.8-4.8v-4.2
		C276.6,254.6,274.5,252.5,271.8,252.5z"/>
	<path class="st4" d="M271.8,273.8c-2.6,0-4.8,2.2-4.8,4.8v4.2c0,2.6,2.2,4.8,4.8,4.8c2.6,0,4.8-2.2,4.8-4.8v-4.2
		C276.6,276,274.5,273.8,271.8,273.8z"/>
	<path class="st4" d="M271.8,295.1c-2.6,0-4.8,2.2-4.8,4.8v4.2c0,2.6,2.2,4.8,4.8,4.8c2.6,0,4.8-2.2,4.8-4.8v-4.2
		C276.6,297.3,274.5,295.1,271.8,295.1z"/>
</g>
</svg>
