<?xml version="1.0" encoding="utf-8"?>
<!-- Generator: Adobe Illustrator 21.1.0, SVG Export Plug-In . SVG Version: 6.00 Build 0)  -->
<svg version="1.1" id="Слой_1" xmlns="http://www.w3.org/2000/svg" xmlns:xlink="http://www.w3.org/1999/xlink" x="0px" y="0px"
	 viewBox="0 0 495 359" style="enable-background:new 0 0 495 359;" xml:space="preserve">
<style type="text/css">
	.st0{fill:#9AC6E5;}
	.st1{fill:#333333;}
</style>
<rect x="450" y="51" class="st0" width="36" height="121"/>
<rect x="50" y="311" class="st0" width="121" height="36"/>
<path class="st1" d="M471,23.5v8c0,3-0.6,5.9-1.6,8.5h2.1c13,0,23.5,10.5,23.5,23.5v96c0,13-10.5,23.5-23.5,23.5h-8H183v144.5v8
	c0,13-10.5,23.5-23.5,23.5h-96c-13,0-23.5-10.5-23.5-23.5v-8c0-0.7,0-1.4,0.1-2.1c-2.7,1.1-5.6,1.6-8.6,1.6h-8
	C10.5,327,0,316.5,0,303.5v-248C0,24.9,24.9,0,55.5,0h392C460.5,0,471,10.5,471,23.5z M39,92.4l41,41v-18.8l-41-41V92.4z M55,192
	h16.5c0,0,0,0,0,0c13,0,23.5,10.5,23.5,23.5c0,0,0,0,0,0v40c0,0,0,0,0,0v16c0,13-10.5,23.5-23.5,23.5H55v8.5c0,0.7,0,1.4-0.1,2.1
	c2.7-1.1,5.6-1.6,8.6-1.6h96c3,0,5.9,0.6,8.5,1.6V183H55V192z M39,236.4l37.8,37.8c0.7,0.7,1.2,1.5,1.6,2.3c1-1.4,1.6-3.1,1.6-5
	v-12.9l-41-41V236.4z M61.4,280L39,257.6v13.9c0,4.7,3.8,8.5,8.5,8.5H61.4z M80,218.6L68.4,207H49.6L80,237.4V218.6z M402.6,80h4.9
	c3.8,0,6.9-2.4,8.1-5.8L380.4,39h-18.8L402.6,80z M431,71.5C431,71.5,431,71.5,431,71.5c0,13-10.5,23.5-23.5,23.5h-8c0,0,0,0,0,0
	h-40c0,0,0,0,0,0h-8c-13,0-23.5-10.5-23.5-23.5V55h-9v113h122.6c-1-2.6-1.6-5.5-1.6-8.5v-96c0-3,0.6-5.9,1.6-8.5H431V71.5z M304,168
	V55h-9v16.5c0,0,0,0,0,0c0,13-10.5,23.5-23.5,23.5h-8c0,0,0,0,0,0h-40c0,0,0,0,0,0h-8c-13,0-23.5-10.5-23.5-23.5V55h-9v113H304z
	 M266.6,80h4.9c3.8,0,6.9-2.4,8.1-5.8L244.4,39h-18.8L266.6,80z M168,168V55h-9v0.5c0,0,0,0,0,0v16c0,13-10.5,23.5-23.5,23.5h-32
	c0,0,0,0,0,0H95v16.5c0,0,0,0,0,0v24c0,13-10.5,23.5-23.5,23.5H55v9H168z M105.6,39l35.2,35.2c0.7,0.7,1.2,1.5,1.6,2.3
	c1-1.4,1.6-3.1,1.6-5V58.6L124.4,39H105.6z M106.6,80h18.8l-41-41H65.6L106.6,80z M39,132.4L50.6,144h18.8L39,113.6V132.4z
	 M39.3,52.7L80,93.4v-5.9c0-3.5,2.4-6.4,5.6-7.3L50.2,44.8c-1.1-1.1-1.8-2.6-2.1-4C43.5,43.1,40.2,47.4,39.3,52.7z M207,47.5v12.9
	L226.6,80h18.8l-35.2-35.2c-0.7-0.7-1.2-1.5-1.6-2.3C207.6,43.9,207,45.6,207,47.5z M265.6,39L280,53.4v-5.9c0-4.7-3.8-8.5-8.5-8.5
	H265.6z M343,47.5v12.9L362.6,80h18.8l-35.2-35.2c-0.7-0.7-1.2-1.5-1.6-2.3C343.6,43.9,343,45.6,343,47.5z M401.6,39L416,53.4v-5.9
	c0-4.7-3.8-8.5-8.5-8.5H401.6z M480,159.5v-96c0-4.7-3.8-8.5-8.5-8.5h-8c-4.7,0-8.5,3.8-8.5,8.5v96c0,4.7,3.8,8.5,8.5,8.5h8
	C476.2,168,480,164.2,480,159.5z M55,335.5c0,4.7,3.8,8.5,8.5,8.5h96c4.7,0,8.5-3.8,8.5-8.5v-8c0-4.7-3.8-8.5-8.5-8.5h-96
	c-4.7,0-8.5,3.8-8.5,8.5V335.5z M55.5,15C33.2,15,15,33.2,15,55.5v248c0,4.7,3.8,8.5,8.5,8.5h8c4.7,0,8.5-3.8,8.5-8.5v-9.7
	c-9.3-3.1-16-11.9-16-22.3v-56c0-10.3,6.7-19.1,16-22.3v-35.5c-9.3-3.1-16-11.9-16-22.3v-80C24,38.1,38.1,24,55.5,24h80
	c10.3,0,19.1,6.7,22.3,16h35.5c3.1-9.3,11.9-16,22.3-16h56c10.3,0,19.1,6.7,22.3,16h35.5c3.1-9.3,11.9-16,22.3-16h56
	c10.3,0,19.1,6.7,22.3,16h17.7c4.7,0,8.5-3.8,8.5-8.5v-8c0-4.7-3.8-8.5-8.5-8.5L55.5,15L55.5,15z"/>
</svg>
