<svg id="Слой_1" data-name="Слой 1" xmlns="http://www.w3.org/2000/svg" viewBox="0 0 500 500"><defs><style>.cls-1{fill:none;stroke-width:16px;}.cls-1,.cls-2{stroke:#000;stroke-linejoin:round;}.cls-2,.cls-3{fill:#8cc3e5;}.cls-2{stroke-width:14px;}</style></defs><path class="cls-1" d="M401.83,208.07a154.45,154.45,0,1,1-308.89,0Z"/><rect class="cls-1" x="169.87" y="178.15" width="27.92" height="27.92"/><rect class="cls-1" x="302.74" y="178.15" width="27.92" height="27.92"/><path class="cls-1" d="M236.76,98.14h26.56a10,10,0,0,1,10,10v93.38a4.6,4.6,0,0,1-4.6,4.6H231.4a4.6,4.6,0,0,1-4.6-4.6V108.09A10,10,0,0,1,236.76,98.14Z"/><rect class="cls-2" x="226.8" y="122.26" width="46.47" height="83.81"/><path class="cls-3" d="M255.58,339.48c-2.05,0-3.45,0-4.84,0-5.19-.18-8.54-3.23-8.61-7.81s3.2-7.64,8.33-8.18c8-.85,16.11-1.17,23.9-2.9,31-6.87,54.86-24.08,72-50.74.75-1.17,1.43-2.39,2.28-3.49,3-3.8,7.44-4.76,11-2.42a7.74,7.74,0,0,1,2.32,11c-4.27,6.62-8.54,13.34-13.71,19.25C323.61,322.4,292.36,337.34,255.58,339.48Z"/><path class="cls-3" d="M366.71,257.28c-6.43-.14-10.35-4.46-9.46-9.13a84.18,84.18,0,0,1,3.62-12.91,7.58,7.58,0,0,1,9.31-4.93,7.67,7.67,0,0,1,5.77,9.21c-.85,4.22-1.71,8.6-3.6,12.4C371.09,254.46,368,256.1,366.71,257.28Z"/></svg>