<svg id="Слой_1" data-name="Слой 1" xmlns="http://www.w3.org/2000/svg" viewBox="0 0 500 500"><defs><style>.cls-1,.cls-3,.cls-6{fill:#fff;}.cls-1{stroke:#201600;stroke-linejoin:round;stroke-width:15px;}.cls-2{fill:#8cc3e5;}.cls-3{opacity:0.61;}.cls-4{fill:#201600;}.cls-5{opacity:0.5;}</style></defs><polygon class="cls-1" points="86.8 75 86.8 168.77 86.8 262.55 86.8 401.4 413.2 401.4 413.2 262.55 413.2 168.77 413.2 75 86.8 75"/><rect class="cls-2" x="125" y="113.2" width="250" height="250"/><polygon class="cls-3" points="359.11 129.09 359.11 162.35 174.14 347.31 140.89 347.31 140.89 313.9 325.69 129.09 359.11 129.09"/><path class="cls-4" d="M375,370.7H125a7.5,7.5,0,0,1-7.5-7.5v-250a7.5,7.5,0,0,1,7.5-7.5H375a7.5,7.5,0,0,1,7.5,7.5v250A7.5,7.5,0,0,1,375,370.7Zm-242.5-15h235v-235h-235Z"/><rect class="cls-4" x="387.42" y="205.04" width="11.67" height="66.14" rx="5.84"/><g class="cls-5"><path class="cls-6" d="M177.6,133.81c.17.81.25,1.53.38,2.3l.22,2.16c.13,1.42.18,2.75.18,4,0,.32-.27.38-.49.48s-.35.29-.52.44l-1,1-1.93,1.93-7.73,7.73L159,161.59l-3.87,3.86a60.22,60.22,0,0,1-8.46-.73,60.22,60.22,0,0,1-.73-8.46l3.87-3.87,7.72-7.72,7.73-7.73,1.93-1.93,1-1a2.06,2.06,0,0,0,.45-.52c.1-.22.15-.48.47-.49,1.29,0,2.62.05,4.05.18l2.15.22C176.07,133.56,176.79,133.64,177.6,133.81Z"/><path class="cls-6" d="M215.55,129.44c-.59,2.46-1.27,4.84-2.05,7.11s-1.59,4.51-2.46,6.69a3.07,3.07,0,0,1-1.16,1.13,12.39,12.39,0,0,0-1.18,1.11l-2.29,2.28-4.57,4.58-18.31,18.31L165.23,189l-9.16,9.15a115.22,115.22,0,0,1-13.74,4.56,115.37,115.37,0,0,1,4.55-13.75l9.15-9.15,18.31-18.31,18.3-18.3,4.58-4.58,2.29-2.29a12.28,12.28,0,0,0,1.11-1.17,2.93,2.93,0,0,1,1.13-1.16c2.18-.88,4.39-1.71,6.69-2.47S213.08,130,215.55,129.44Z"/></g><g class="cls-5"><path class="cls-6" d="M354.3,310.5c.17.82.25,1.54.37,2.31l.22,2.15c.14,1.42.18,2.76.19,4.05,0,.32-.28.37-.5.47s-.34.3-.52.45l-1,1-1.93,1.93-7.73,7.72-7.73,7.73-3.86,3.86a58.52,58.52,0,0,1-8.46-.73,58.52,58.52,0,0,1-.73-8.46l3.86-3.86,7.73-7.73,7.72-7.73,1.94-1.93,1-1c.15-.18.35-.3.45-.52s.16-.49.47-.5c1.29,0,2.63,0,4,.19l2.15.22C352.76,310.26,353.48,310.33,354.3,310.5Z"/><path class="cls-6" d="M358.67,272.56c-.59,2.46-1.27,4.84-2.05,7.11s-1.59,4.51-2.46,6.69a3,3,0,0,1-1.16,1.13,12.39,12.39,0,0,0-1.18,1.11l-2.29,2.29L345,295.46l-18.31,18.31-18.3,18.3-9.15,9.15a116,116,0,0,1-13.75,4.56A115.37,115.37,0,0,1,290,332l9.16-9.15,18.3-18.31,18.31-18.3,4.57-4.58,2.29-2.29a12.28,12.28,0,0,0,1.11-1.17,2.93,2.93,0,0,1,1.13-1.16c2.18-.88,4.4-1.71,6.69-2.47S356.2,273.15,358.67,272.56Z"/></g></svg>