<?xml version="1.0" encoding="utf-8"?>
<!-- Generator: Adobe Illustrator 21.1.0, SVG Export Plug-In . SVG Version: 6.00 Build 0)  -->
<svg version="1.1" xmlns="http://www.w3.org/2000/svg" xmlns:xlink="http://www.w3.org/1999/xlink" x="0px" y="0px"
	 viewBox="0 0 180 325" style="enable-background:new 0 0 180 325;" xml:space="preserve">
<style type="text/css">
	.st0{display:none;}
	.st1{display:inline;fill:#9AC6E5;}
	.st2{display:inline;fill:#333333;}
	.st3{fill:#333333;}
	.st4{fill:#9AC6E5;}
</style>
<g id="Слой_1" class="st0">
	<rect x="-89.7" y="8" class="st1" width="305" height="15"/>
	<path class="st2" d="M209.6,0H-84c-8.6,0-15.7,7.1-15.7,15.7c0,8.7,7.1,15.7,15.7,15.7h293.5c8.7,0,15.7-7.1,15.7-15.7
		C225.3,7.1,218.2,0,209.6,0z M209.6,21H-84c-2.9,0-5.2-2.4-5.2-5.2s2.3-5.2,5.2-5.2h293.5c2.9,0,5.2,2.4,5.2,5.2S212.5,21,209.6,21
		z"/>
	<path class="st2" d="M62.8,167.7c-37.6,0-68.1,30.6-68.1,68.1c0,37.6,30.6,68.1,68.1,68.1c37.6,0,68.1-30.6,68.1-68.1
		S100.4,167.7,62.8,167.7z M120.2,241.1c-1.1,12-5.8,22.9-13.1,31.6l-10.9-10.9l-7.4,7.4l10.9,10.9c-10,8.3-22.9,13.4-36.9,13.4
		s-26.9-5-36.9-13.4l10.9-10.9l-7.4-7.4l-10.9,10.9c-7.3-8.7-12-19.7-13.1-31.6h15.5v-10.5H5.4c1.1-12,5.8-22.9,13.1-31.6l10.9,10.9
		l7.4-7.4l-10.9-10.9c8.7-7.3,19.7-12,31.6-13.1V194H68v-15.5c12,1.1,22.9,5.8,31.6,13.1l-10.9,10.9l7.4,7.4L107,199
		c7.3,8.7,12,19.7,13.1,31.6h-15.5v10.5H120.2z"/>
	<path class="st2" d="M74.5,213.3c-1.5-5.2-6.3-8.8-11.7-8.8s-10.2,3.6-11.7,8.8l-8.5,29.8c-0.5,1.7-0.7,3.5-0.7,5.2
		c0,10.5,8.5,19,19,19h3.9c10.5,0,19-8.5,19-19c0-1.8-0.2-3.5-0.7-5.2L74.5,213.3z M64.7,256.9h-3.9c-4.7,0-8.6-3.8-8.6-8.6
		c0-0.8,0.1-1.6,0.3-2.3l8.5-29.8c0.2-0.7,0.9-1.2,1.6-1.2c0.8,0,1.4,0.5,1.6,1.2l8.5,29.8c0.2,0.8,0.3,1.6,0.3,2.3
		C73.3,253,69.4,256.9,64.7,256.9z"/>
	<path class="st2" d="M191.8,236.5c-3.8-38.4-30-71.5-66.5-84.2l-0.8-0.3H1.1l-0.8,0.3C-36.3,165-62.4,198-66.2,236.5l-7.2,71.8
		c-0.1,0.5-0.1,1-0.1,1.6c0,8.4,6.8,15.2,15.2,15.2h242.1c8.4,0,15.2-6.8,15.2-15.2c0-0.5,0-1-0.1-1.5L191.8,236.5z M183.9,314.5
		H-58.3c-2.6,0-4.7-2.1-4.7-5.2l7.2-71.8c3.4-34.1,26.4-63.5,58.7-75h119.8c32.3,11.5,55.3,40.9,58.7,75l7.2,71.8v0.5
		C188.6,312.4,186.5,314.5,183.9,314.5z"/>
	<path class="st2" d="M204.3,47.2c0,37.6-30.6,68.1-68.1,68.1H110H99.5H26.1H15.6h-26.2c-37.6,0-68.1-30.5-68.1-68.1V42h-10.5v5.2
		c0,43.4,35.3,78.6,78.6,78.6h26.2v15.7h10.5v-15.7h10.5v15.7h10.5v-15.7h31.5v15.7h10.5v-15.7h10.5v15.7h10.5v-15.7h26.2
		c43.4,0,78.6-35.3,78.6-78.6V42h-10.6V47.2z"/>
	<path class="st2" d="M-57.8,41.9h-10.4v10.5h10.5L-57.8,41.9L-57.8,41.9z"/>
	<path class="st2" d="M47.1,41.9h-94.4v10.5h94.4V41.9z"/>
</g>
<g id="Слой_2">
	<g id="Слой_1_1_">
		<path class="st3" d="M149,21.4H77.7c-3.2,0-5.8,2.6-5.8,5.8s2.6,5.8,5.8,5.8h69.2v94.4L88.4,52.1c-1.9-2.5-5.6-3-8.1-1
			c-2.5,1.9-3,5.6-1,8.1l65.9,85c0.5,0.6,1,1.1,1.6,1.4v56.8l-31.3-40.2c-1.9-2.5-5.6-3-8.1-1c-2.5,1.9-3,5.6-1,8.1l38.8,50
			c0.5,0.6,1,1.1,1.6,1.4v71h-22.5c-3.2,0-5.8,2.6-5.8,5.8c0,3.2,2.6,5.8,5.8,5.8h24.6c5.2,0,9.4-4.2,9.4-9.6V30.9
			C158.5,25.7,154.2,21.4,149,21.4z"/>
		<path class="st3" d="M177.9,363.5c0.1,0.2,0.2,0.3,0.3,0.5c0.7,0,1.4,0,2.1,0v-0.9C179.6,363.2,178.7,363.4,177.9,363.5z"/>
		<path class="st3" d="M12.8,325.6h8.4h11.6h114.1h19.9c0.7,0,13.5-0.1,13.5-0.1v-312c0.1-7.4-6-13.5-13.4-13.5h-154
			C5.4,0-0.7,6.1-0.7,13.5v312.3C-0.7,325.8,12.1,325.6,12.8,325.6z M10.9,13.5c0-1.1,0.8-1.9,1.9-1.9h154c1.1,0,1.9,0.8,1.9,1.9
			v298.6c0,1.1-0.8,1.9-1.9,1.9h-154c-1.1,0-1.9-0.8-1.9-1.9V13.5z"/>
		<path class="st3" d="M103.2,291.6H32.8v-94.4l58.5,75.2c1.2,1.5,2.8,2.2,4.5,2.2c1.2,0,2.5-0.4,3.5-1.2c2.5-1.9,3-5.6,1-8.1
			l-65.9-85c-0.5-0.6-1-1.1-1.6-1.4v-56.8L64,162.5c1.2,1.5,2.8,2.2,4.5,2.2c1.2,0,2.5-0.4,3.5-1.2c2.5-1.9,3-5.6,1-8.1l-38.8-50
			c-0.5-0.6-1-1.1-1.6-1.4V33h22.7c3.2,0,5.8-2.6,5.8-5.8s-2.6-5.8-5.8-5.8H30.7c-5.2,0-9.4,4.2-9.4,9.6v262.6
			c0,5.2,4.2,9.6,9.4,9.6h72.6c3.2,0,5.8-2.6,5.8-5.8C109,294.2,106.4,291.6,103.2,291.6z"/>
	</g>
	<g id="Слой_2_1_">
		<g>
			<path class="st4" d="M135.4,286.5L135.4,286.5c-1.5,1-3.6,0.5-4.6-1L118.9,267c-1-1.5-0.5-3.6,1-4.6l0,0c1.5-1,3.6-0.5,4.6,1
				l11.9,18.6C137.4,283.4,137,285.5,135.4,286.5z"/>
			<path class="st4" d="M59.2,66.8L59.2,66.8c-1.5,1-3.6,0.5-4.6-1L42.6,47.2c-1-1.5-0.5-3.6,1-4.6l0,0c1.5-1,3.6-0.5,4.6,1
				l11.9,18.6C61.2,63.7,60.7,65.8,59.2,66.8z"/>
			<path class="st4" d="M59.2,284L59.2,284c-1.5,1-3.6,0.5-4.6-1l-11.9-18.6c-1-1.5-0.5-3.6,1-4.6l0,0c1.5-1,3.6-0.5,4.6,1
				l11.9,18.6C61.2,280.9,60.7,283,59.2,284z"/>
			<path class="st4" d="M138.8,66.8L138.8,66.8c-1.5,1-3.6,0.5-4.6-1l-11.9-18.6c-1-1.5-0.5-3.6,1-4.6l0,0c1.5-1,3.6-0.5,4.6,1
				l11.9,18.6C140.7,63.7,140.4,65.8,138.8,66.8z"/>
			<path class="st4" d="M97.6,140.2L97.6,140.2c-1.5,1-3.6,0.5-4.6-1l-12-18.6c-1-1.5-0.5-3.6,1-4.6l0,0c1.5-1,3.6-0.5,4.6,1
				l11.9,18.6C99.6,137.1,99.2,139.2,97.6,140.2z"/>
			<path class="st4" d="M97.6,218.5L97.6,218.5c-1.5,1-3.6,0.5-4.6-1l-12-18.6c-1-1.5-0.5-3.6,1-4.6l0,0c1.5-1,3.6-0.5,4.6,1
				l11.9,18.6C99.6,215.4,99.2,217.5,97.6,218.5z"/>
		</g>
	</g>
</g>
</svg>
