<svg width="40" height="40" viewBox="0 0 40 40" fill="none" xmlns="http://www.w3.org/2000/svg">
<path fill-rule="evenodd" clip-rule="evenodd" d="M26.1785 13.8214C26.8294 14.4723 26.8294 15.5276 26.1785 16.1785L16.1785 26.1785C15.5277 26.8293 14.4724 26.8293 13.8215 26.1785C13.1706 25.5276 13.1706 24.4723 13.8215 23.8214L23.8215 13.8214C24.4724 13.1706 25.5277 13.1706 26.1785 13.8214Z" fill="#222222"/>
<path fill-rule="evenodd" clip-rule="evenodd" d="M15.8333 16.6666C16.2936 16.6666 16.6667 16.2935 16.6667 15.8333C16.6667 15.3731 16.2936 15 15.8333 15C15.3731 15 15 15.3731 15 15.8333C15 16.2935 15.3731 16.6666 15.8333 16.6666ZM13.3333 15.8333C13.3333 14.4526 14.4526 13.3333 15.8333 13.3333C17.2141 13.3333 18.3333 14.4526 18.3333 15.8333C18.3333 17.214 17.2141 18.3333 15.8333 18.3333C14.4526 18.3333 13.3333 17.214 13.3333 15.8333Z" fill="#222222"/>
<path fill-rule="evenodd" clip-rule="evenodd" d="M24.1667 25C24.6269 25 25 24.6269 25 24.1666C25 23.7064 24.6269 23.3333 24.1667 23.3333C23.7064 23.3333 23.3333 23.7064 23.3333 24.1666C23.3333 24.6269 23.7064 25 24.1667 25ZM21.6667 24.1666C21.6667 22.7859 22.786 21.6666 24.1667 21.6666C25.5474 21.6666 26.6667 22.7859 26.6667 24.1666C26.6667 25.5473 25.5474 26.6666 24.1667 26.6666C22.786 26.6666 21.6667 25.5473 21.6667 24.1666Z" fill="#222222"/>
<path fill-rule="evenodd" clip-rule="evenodd" d="M20.0167 6.68538C19.7531 6.68538 19.4921 6.73749 19.2487 6.8387C19.0053 6.93991 18.7844 7.08824 18.5985 7.27515L18.5952 7.27847L17.4285 8.44513L17.4252 8.44844C16.4266 9.44141 15.0759 9.99915 13.6676 9.99995L12 9.99995C11.4696 9.99995 10.9609 10.2107 10.5858 10.5857C10.2107 10.9608 10 11.4695 10 12V13.6666C9.99921 15.0749 9.44147 16.4266 8.4485 17.4251L8.4452 17.4285L7.27853 18.5951L7.27521 18.5984C7.0883 18.7843 6.93998 19.0053 6.83876 19.2487C6.73755 19.492 6.68545 19.753 6.68545 20.0166C6.68545 20.2802 6.73755 20.5412 6.83876 20.7846C6.93998 21.028 7.0883 21.2489 7.27521 21.4348L7.27853 21.4381L8.4485 22.6081C9.44147 23.6067 9.99921 24.9574 10 26.3657L10 28.0333C10 28.5637 10.2107 29.0724 10.5858 29.4475C10.9609 29.8226 11.4696 30.0333 12 30.0333H13.6667C15.0749 30.0341 16.4266 30.5918 17.4252 31.5848L17.4285 31.5881L18.5985 32.7581C18.7844 32.945 19.0053 33.0933 19.2487 33.1945C19.4921 33.2958 19.7531 33.3479 20.0167 33.3479C20.2803 33.3479 20.5413 33.2958 20.7846 33.1945C21.028 33.0933 21.249 32.945 21.4349 32.7581L21.4382 32.7548L22.6048 31.5881L22.6082 31.5848C23.6067 30.5918 24.9575 30.0341 26.3657 30.0333H28.0333C28.5638 30.0333 29.0725 29.8226 29.4476 29.4475C29.8226 29.0724 30.0333 28.5637 30.0333 28.0333V26.3666C30.0342 24.9584 30.5919 23.6067 31.5849 22.6081L31.5882 22.6048L32.7548 21.4381L32.7582 21.4348C32.9451 21.2489 33.0934 21.028 33.1946 20.7846C33.2958 20.5412 33.3479 20.2802 33.3479 20.0166C33.3479 19.753 33.2958 19.492 33.1946 19.2487C33.0934 19.0053 32.9451 18.7843 32.7582 18.5984L32.7548 18.5951L31.5882 17.4285L31.5849 17.4251C30.5919 16.4266 30.0342 15.0758 30.0333 13.6676V12C30.0333 11.4695 29.8226 10.9608 29.4476 10.5857C29.0725 10.2107 28.5638 9.99995 28.0333 9.99995H26.3667C24.9584 9.99915 23.6067 9.44141 22.6082 8.44844L22.6048 8.44513L21.4382 7.27847L21.4349 7.27515C21.249 7.08824 21.028 6.93992 20.7846 6.8387C20.5413 6.73749 20.2803 6.68538 20.0167 6.68538ZM17.9688 3.7609C18.6178 3.491 19.3138 3.35205 20.0167 3.35205C20.7196 3.35205 21.4156 3.491 22.0646 3.7609C22.7128 4.03048 23.3015 4.4254 23.7967 4.92299L23.7985 4.92476L24.9585 6.0848L24.96 6.08624C25.3342 6.4576 25.8399 6.6662 26.3672 6.66662H28.0333C29.4478 6.66662 30.8044 7.22852 31.8046 8.22872C32.8048 9.22891 33.3667 10.5855 33.3667 12V13.6657C33.367 14.1932 33.5757 14.6993 33.9474 15.0736L35.1085 16.2348L35.1104 16.2367C35.608 16.7319 36.0028 17.3205 36.2724 17.9687C36.5423 18.6177 36.6813 19.3137 36.6813 20.0166C36.6813 20.7195 36.5423 21.4155 36.2724 22.0645C36.0029 22.7126 35.6081 23.3011 35.1108 23.7962L35.1085 23.7984L33.9485 24.9585L33.9471 24.9599C33.5756 25.3342 33.367 25.8402 33.3667 26.3676V28.0333C33.3667 29.4478 32.8048 30.8043 31.8046 31.8045C30.8044 32.8047 29.4478 33.3666 28.0333 33.3666H26.3676C25.8402 33.3669 25.3343 33.5755 24.96 33.947L24.9585 33.9484L23.7985 35.1085L23.7963 35.1107C23.3011 35.6081 22.7126 36.0028 22.0646 36.2723C21.4156 36.5422 20.7196 36.6812 20.0167 36.6812C19.3138 36.6812 18.6178 36.5422 17.9688 36.2723C17.3206 36.0028 16.732 35.6079 16.2367 35.1103L16.2349 35.1085L15.0748 33.9484C14.7005 33.5768 14.1933 33.3669 13.6657 33.3666H12C10.5855 33.3666 9.22897 32.8047 8.22878 31.8045C7.22859 30.8043 6.66668 29.4478 6.66668 28.0333V26.3671C6.66627 25.8399 6.45766 25.3341 6.0863 24.9599L6.08486 24.9585L4.92482 23.7984L4.92305 23.7967C4.42546 23.3014 4.03054 22.7128 3.76096 22.0645C3.49106 21.4155 3.35211 20.7195 3.35211 20.0166C3.35211 19.3137 3.49106 18.6177 3.76096 17.9687C4.03051 17.3205 4.42537 16.732 4.92288 16.2367L4.92482 16.2348L6.08486 15.0748L6.0863 15.0733C6.45766 14.6991 6.66627 14.1934 6.66668 13.6661V12C6.66668 10.5855 7.22859 9.22891 8.22878 8.22872C9.22897 7.22853 10.5855 6.66662 12 6.66662H13.6662C14.1934 6.6662 14.6992 6.4576 15.0734 6.08624L15.0748 6.0848L16.2349 4.92476L16.2368 4.92282C16.732 4.42531 17.3206 4.03045 17.9688 3.7609Z" fill="#222222"/>
</svg>
