<svg width="328" height="106" viewBox="0 0 328 106" fill="none" xmlns="http://www.w3.org/2000/svg">
<g clip-path="url(#clip0_2529_1981)">
<rect x="3.03418" y="12.0801" width="79.84" height="79.84" rx="39.92" fill="#F7F7F7"/>
<path d="M42.9299 12.0801C20.895 12.0801 3.03418 29.941 3.03418 51.9758C3.03418 63.8668 8.22742 74.496 16.4298 81.8248L23.6615 37.5609C23.9527 35.7166 24.7778 34.212 26.0883 32.9987C27.3987 31.8338 29.0004 31.2029 30.8447 31.2029C32.4949 31.2029 33.9024 31.6882 35.0672 32.7075C36.2321 33.7267 37.0086 35.0371 37.4455 36.6388L42.8328 59.4016H43.0755L48.4144 36.6388C48.8026 35.0371 49.5792 33.7267 50.7926 32.7075C52.0059 31.6882 53.4135 31.1543 55.0636 31.1543C56.908 31.1543 58.5096 31.7368 59.8201 32.9501C61.1305 34.115 61.9556 35.6681 62.2468 37.5124L66.712 65.1773C66.9547 66.5363 67.0518 67.5555 67.0518 68.2835C67.0518 71.2442 65.6443 72.7002 62.8778 72.7002C61.2761 72.7002 60.0628 72.0692 59.3347 70.8073C58.8008 69.9822 58.4126 68.6718 58.1214 66.7789L54.6268 44.5985H54.4812L49.2395 65.1773C48.7056 67.2643 48.0746 68.7689 47.3466 69.691C46.3274 70.9529 44.8228 71.6324 42.9784 71.6324C41.0856 71.6324 39.6295 71.0015 38.6103 69.691C37.8823 68.8174 37.2999 67.3128 36.7174 65.1773L31.4271 44.6956H31.3301L24.8749 84.7854C24.7293 85.7561 24.5352 86.6297 24.341 87.3092C29.9225 90.2698 36.2321 91.92 42.9784 91.92C65.0133 91.92 82.8742 74.0592 82.8742 52.0243C82.8742 29.941 64.9648 12.0801 42.9299 12.0801Z" fill="#82B1D8"/>
<path d="M97.874 61.6105V42.7781C97.874 38.2642 99.3787 35.9829 102.437 35.9829C104.427 35.9829 105.931 36.9537 107.048 38.9437C108.795 36.9537 111.27 35.9829 114.522 35.9829C118.599 35.9829 121.706 37.3905 123.841 40.2542C126.414 37.3905 129.569 35.9829 133.306 35.9829C140.393 35.9829 143.887 40.06 143.887 48.1657V61.6105C143.887 66.173 142.334 68.4543 139.228 68.4543C136.218 68.4543 134.665 66.173 134.665 61.6105V51.0294C134.665 46.3699 133.209 44.0401 130.297 44.0401C127.093 44.0401 125.54 46.3213 125.54 50.9324V61.6591C125.54 66.2216 123.987 68.5028 120.929 68.5028C117.871 68.5028 116.318 66.2216 116.318 61.6591V51.0294C116.318 46.3699 114.862 44.0401 111.998 44.0401C108.795 44.0401 107.145 46.3213 107.145 50.9324V61.6591C107.145 66.2216 105.64 68.5028 102.582 68.5028C99.4757 68.4543 97.874 66.2216 97.874 61.6105Z" fill="#FAFAFA"/>
<path d="M158.011 54.8153C158.205 56.6112 158.933 58.0187 160.292 58.9895C161.603 59.9602 163.205 60.4456 165.098 60.4456C166.699 60.4456 168.592 59.9117 170.825 58.8924C173.058 57.8731 174.465 57.3392 174.999 57.3392C177.475 57.3392 178.688 58.5527 178.688 60.9795C178.688 61.9017 178.348 62.8239 177.669 63.7461C176.455 65.4449 174.465 66.7554 171.747 67.6291C169.466 68.4057 167.088 68.794 164.612 68.794C160.001 68.794 156.118 67.1923 153.012 64.0374C149.906 60.8339 148.401 56.9024 148.401 52.2428C148.401 47.6318 149.857 43.6518 152.818 40.3512C155.779 37.0507 159.564 35.449 164.127 35.449C166.408 35.449 168.495 35.8858 170.34 36.7109C173.009 37.9244 175.193 39.7688 176.892 42.1956C178.591 44.6225 179.416 47.292 179.416 50.1557C179.416 51.7089 178.834 52.8738 177.717 53.6989C176.747 54.427 175.485 54.8153 173.883 54.8153H158.011ZM157.914 48.6511H170.243C170.146 47.0494 169.515 45.6903 168.35 44.671C167.233 43.6518 165.826 43.1178 164.224 43.1178C162.574 43.1178 161.166 43.6518 160.05 44.671C158.933 45.6418 158.205 47.0008 157.914 48.6511Z" fill="#FAFAFA"/>
<path d="M193.152 46.7096L201.064 38.4583C202.666 36.7595 204.267 35.8858 205.869 35.8858C206.888 35.8858 207.811 36.2256 208.587 36.9051C209.364 37.5846 209.752 38.4583 209.752 39.4776C209.752 41.0308 208.976 42.5354 207.374 43.9915L201.064 49.8645L209.801 60.1544C211.014 61.6105 211.645 63.1637 211.645 64.7654C211.645 65.8818 211.208 66.804 210.286 67.4835C209.364 68.163 208.393 68.5028 207.277 68.5028C205.432 68.5028 203.831 67.5806 202.423 65.6876L193.104 53.1165V61.6105C193.104 66.173 191.551 68.4543 188.396 68.4543C185.192 68.4543 183.639 66.173 183.639 61.6105V29.4789C183.639 24.9164 185.241 22.6352 188.396 22.6352C191.551 22.6352 193.104 24.9164 193.104 29.4789V46.7096H193.152Z" fill="#FAFAFA"/>
<path d="M212.567 52.1945C212.567 47.4379 214.024 43.4578 216.984 40.2544C219.945 37.0509 223.731 35.4006 228.439 35.4006C233.196 35.4006 237.03 37.0024 239.894 40.2058C242.806 43.4093 244.262 47.3894 244.262 52.1945C244.262 56.9511 242.855 60.8826 239.991 64.0861C237.03 67.3381 233.196 68.9398 228.488 68.9398C223.828 68.9398 219.994 67.2895 216.984 64.0376C214.024 60.8341 212.567 56.9026 212.567 52.1945ZM222.275 52.146C222.275 54.2816 222.76 56.0775 223.779 57.5336C224.896 59.2324 226.449 60.106 228.488 60.106C230.526 60.106 232.128 59.2809 233.244 57.5336C234.215 56.126 234.7 54.3301 234.7 52.146C234.7 50.0589 234.215 48.263 233.196 46.8069C232.079 45.1081 230.526 44.2344 228.488 44.2344C226.449 44.2344 224.847 45.0595 223.731 46.7098C222.76 48.2144 222.275 50.0103 222.275 52.146Z" fill="#FAFAFA"/>
<path d="M247.271 63.0667C247.271 61.5621 247.805 60.2516 248.825 59.1838C249.844 58.1159 251.154 57.582 252.659 57.582C254.212 57.582 255.474 58.1159 256.494 59.1352C257.513 60.203 258.047 61.465 258.047 63.0182C258.047 64.5228 257.513 65.8333 256.494 66.8526C255.474 67.9204 254.164 68.4058 252.659 68.4058C251.154 68.4058 249.892 67.8719 248.825 66.8526C247.805 65.8819 247.271 64.5714 247.271 63.0667Z" fill="#FAFAFA"/>
<path d="M271.88 38.07H272.122C274.112 36.2741 276.588 35.3519 279.5 35.3519C283.868 35.3519 287.411 37.0993 290.081 40.6425C292.605 43.8945 293.867 47.7289 293.867 52.2429C293.867 55.4948 293.09 58.4556 291.537 61.1252C289.935 63.8918 287.751 65.9789 284.936 67.3864C283.189 68.2116 281.393 68.6484 279.5 68.6484C276.248 68.6484 273.724 67.5806 271.928 65.445C270.715 67.4835 269.259 68.5028 267.463 68.5028C264.308 68.5028 262.706 66.2215 262.706 61.6591V29.4789C262.706 24.9164 264.308 22.6352 267.463 22.6352C270.423 22.6352 271.928 24.9164 271.928 29.4789V38.07H271.88ZM271.88 52.3399C271.88 54.427 272.365 56.1744 273.384 57.5334C274.501 59.0866 276.102 59.8632 278.092 59.8632C280.131 59.8632 281.684 59.0381 282.849 57.3878C283.82 55.9802 284.305 54.1843 284.305 52.0487C284.305 49.8645 283.82 48.0687 282.849 46.6125C281.733 44.9137 280.131 44.0401 278.092 44.0401C276.054 44.0401 274.452 44.8167 273.336 46.4184C272.365 47.826 271.88 49.5733 271.88 51.7089V52.3399Z" fill="#FAFAFA"/>
<path d="M319.786 35.9829C322.892 35.9829 324.397 37.4876 324.397 40.4483C324.397 41.4191 324.154 42.4869 323.62 43.7003L309.302 77.5792C308.234 80.1032 306.826 81.3651 305.176 81.3651C303.769 81.3651 302.652 80.9768 301.827 80.1517C300.953 79.3266 300.565 78.2588 300.565 76.8512C300.565 75.929 300.808 74.8612 301.342 73.6963L305.176 65.2993L295.76 43.2149C295.42 42.3898 295.226 41.5161 295.226 40.5939C295.226 39.2834 295.663 38.1671 296.537 37.2934C297.41 36.4197 298.478 35.9829 299.789 35.9829C301.148 35.9829 302.215 36.4197 302.992 37.2934C303.477 37.8273 303.963 38.8951 304.545 40.4969L309.884 54.6212L315.709 39.6717C316.68 37.1963 318.039 35.9829 319.786 35.9829Z" fill="#FAFAFA"/>
</g>
<defs>
<clipPath id="clip0_2529_1981">
<rect width="328" height="106" fill="white"/>
</clipPath>
</defs>
</svg>
