<svg width="120" height="120" viewBox="0 0 120 120" fill="none" xmlns="http://www.w3.org/2000/svg">
<path d="M112.8 33.6002C112.438 33.3215 112.019 33.1273 111.573 33.0318C111.126 32.9363 110.664 32.9419 110.22 33.0482L98.712 36.0002C94.464 35.7602 80.916 30.5522 73.2 27.2402L73.044 27.1802C62.796 23.4962 53.928 24.3242 46.512 29.5802C36.648 26.2082 24.012 33.3242 20.112 35.7602L9.74403 33.0962C9.301 32.9803 8.83727 32.9678 8.38865 33.0597C7.94004 33.1515 7.51853 33.3453 7.15669 33.6259C6.79485 33.9066 6.50236 34.2666 6.30181 34.6783C6.10125 35.09 5.998 35.5422 6.00003 36.0002V78.0002C6.00003 78.7958 6.3161 79.5589 6.87871 80.1215C7.44132 80.6841 8.20438 81.0002 9.00003 81.0002H15.372L42.648 102.504C43.6949 103.511 44.97 104.25 46.3644 104.657C47.7588 105.064 49.2311 105.128 50.6554 104.843C52.0798 104.557 53.4139 103.932 54.5438 103.019C55.6737 102.106 56.5659 100.933 57.144 99.6002C58.5034 100.379 60.0414 100.792 61.608 100.8C63.3665 100.801 65.0867 100.286 66.5561 99.3204C68.0255 98.3543 69.1797 96.9789 69.876 95.3642C71.2329 96.1491 72.7725 96.563 74.34 96.5642C76.0965 96.5626 77.8141 96.047 79.2811 95.0811C80.7481 94.1151 81.9005 92.741 82.596 91.1282C83.9814 91.9148 85.5511 92.3185 87.1441 92.298C88.737 92.2774 90.2958 91.8332 91.6604 91.011C93.0249 90.1889 94.1461 89.0184 94.9087 87.6197C95.6714 86.221 96.048 84.6445 96 83.0522L102.42 81.0002H111C111.796 81.0002 112.559 80.6841 113.121 80.1215C113.684 79.5589 114 78.7958 114 78.0002V36.0002C114.002 35.5341 113.894 35.0741 113.686 34.6572C113.477 34.2404 113.174 33.8783 112.8 33.6002ZM12 39.8402L17.364 41.2202L15.216 61.2002L13.728 75.0002H12V39.8402ZM89.184 85.3922C88.6137 85.9421 87.8523 86.2494 87.06 86.2494C86.2678 86.2494 85.5063 85.9421 84.936 85.3922L80.7 81.1562L63.732 64.1762C63.1619 63.6636 62.4173 63.3887 61.6509 63.4079C60.8845 63.4272 60.1545 63.7391 59.6109 64.2797C59.0672 64.8202 58.7512 65.5484 58.7276 66.3147C58.704 67.081 58.9747 67.8272 59.484 68.4002L76.464 85.4042C77.0098 85.9707 77.3111 86.729 77.3032 87.5156C77.2952 88.3022 76.9787 89.0542 76.4216 89.6097C75.8646 90.1651 75.1117 90.4796 74.3251 90.4853C73.5384 90.491 72.781 90.1875 72.216 89.6402L67.968 85.3922L55.2 72.6602C54.9211 72.3812 54.59 72.16 54.2255 72.009C53.8611 71.8581 53.4705 71.7804 53.076 71.7804C52.6816 71.7804 52.291 71.8581 51.9265 72.009C51.5621 72.16 51.231 72.3812 50.952 72.6602C50.6731 72.9391 50.4518 73.2702 50.3009 73.6347C50.1499 73.9991 50.0722 74.3897 50.0722 74.7842C50.0722 75.1786 50.1499 75.5692 50.3009 75.9337C50.4518 76.2981 50.6731 76.6292 50.952 76.9082L63.732 89.6402C64.0181 89.9173 64.2462 90.2487 64.4029 90.6149C64.5596 90.9811 64.6418 91.3749 64.6446 91.7732C64.6475 92.1715 64.5711 92.5665 64.4197 92.9349C64.2683 93.3034 64.0451 93.638 63.763 93.9193C63.481 94.2005 63.1457 94.4228 62.7768 94.5731C62.4079 94.7235 62.0128 94.7988 61.6145 94.7948C61.2162 94.7908 60.8226 94.7075 60.4569 94.5498C60.0911 94.392 59.7604 94.1631 59.484 93.8762L46.8 81.1562C46.5224 80.8771 46.1923 80.6557 45.8289 80.5047C45.4654 80.3536 45.0756 80.2758 44.682 80.2758C44.2884 80.2758 43.8987 80.3536 43.5352 80.5047C43.1717 80.6557 42.8417 80.8771 42.564 81.1562C42.2844 81.4318 42.0628 81.7608 41.9123 82.1235C41.7618 82.4863 41.6856 82.8755 41.688 83.2682C41.6867 83.6625 41.7634 84.0532 41.9137 84.4177C42.0641 84.7823 42.2851 85.1134 42.564 85.3922L51.048 93.8762C51.6093 94.4405 51.9244 95.2042 51.9244 96.0002C51.9244 96.7962 51.6093 97.5598 51.048 98.1242C50.4749 98.6686 49.7145 98.9722 48.924 98.9722C48.1335 98.9722 47.3732 98.6686 46.8 98.1242C46.7178 98.038 46.6296 97.9578 46.536 97.8842L19.572 76.6682L22.584 48.8402L23.46 40.7282C27.276 38.3282 34.728 34.6202 40.908 34.7282C39.0714 36.8488 37.4288 39.1299 36 41.5442C34.6765 43.7994 34.2551 46.4718 34.8205 49.0249C35.3859 51.5779 36.8961 53.8226 39.048 55.3082C43.296 58.2122 51.048 60.9122 60.648 52.6202L89.184 81.1442C89.7424 81.7101 90.0555 82.4731 90.0555 83.2682C90.0555 84.0632 89.7424 84.8263 89.184 85.3922ZM93.9 77.4362C93.7538 77.2517 93.5976 77.0754 93.432 76.9082L64.872 48.3482C66.072 46.9802 67.272 45.4562 68.472 43.7282C68.7448 43.4117 68.9484 43.0417 69.0699 42.642C69.1914 42.2422 69.2281 41.8215 69.1776 41.4068C69.127 40.992 68.9904 40.5924 68.7765 40.2336C68.5626 39.8747 68.2761 39.5644 67.9353 39.3227C67.5945 39.081 67.207 38.9131 66.7976 38.8298C66.3882 38.7465 65.9659 38.7497 65.5578 38.839C65.1496 38.9284 64.7647 39.1021 64.4276 39.3489C64.0904 39.5956 63.8086 39.9101 63.6 40.2722C58.272 47.8202 50.304 55.6922 42.48 50.3522C41.5916 49.7194 40.9746 48.7749 40.7522 47.7071C40.5297 46.6394 40.7182 45.527 41.28 44.5922C43.2248 41.1177 45.7678 38.0141 48.792 35.4242C48.8893 35.3548 48.9815 35.2786 49.068 35.1962C55.068 30.3962 62.268 29.6642 71.004 32.7962C73.272 33.7562 88.38 40.1522 96.3 41.6762L98.94 75.8642L93.9 77.4362ZM108 75.0002H104.784L102.18 41.2922L108 39.8402V75.0002Z" fill="#FFE600"/>
</svg>
