<svg width="730" height="184" viewBox="0 0 730 184" fill="none" xmlns="http://www.w3.org/2000/svg">
<path d="M116.2 10C70.8 10 34 46.8 34 92.2C34 116.7 44.7 138.6 61.6 153.7L76.5 62.5C77.1 58.7 78.8 55.6 81.5 53.1C84.2 50.7 87.5 49.4 91.3 49.4C94.7 49.4 97.6 50.4 100 52.5C102.4 54.6 104 57.3 104.9 60.6L116 107.5H116.5L127.5 60.6C128.3 57.3 129.9 54.6 132.4 52.5C134.9 50.4 137.8 49.3 141.2 49.3C145 49.3 148.3 50.5 151 53C153.7 55.4 155.4 58.6 156 62.4L165.2 119.4C165.7 122.2 165.9 124.3 165.9 125.8C165.9 131.9 163 134.9 157.3 134.9C154 134.9 151.5 133.6 150 131C148.9 129.3 148.1 126.6 147.5 122.7L140.3 77H140L129.2 119.4C128.1 123.7 126.8 126.8 125.3 128.7C123.2 131.3 120.1 132.7 116.3 132.7C112.4 132.7 109.4 131.4 107.3 128.7C105.8 126.9 104.6 123.8 103.4 119.4L92.5 77.2H92.3L79 159.8C78.7 161.8 78.3 163.6 77.9 165C89.4 171.1 102.4 174.5 116.3 174.5C161.7 174.5 198.5 137.7 198.5 92.3C198.5 46.8 161.6 10 116.2 10Z" fill="#82B1D8"/>
<path d="M230 112.3V73.5C230 64.2 233.1 59.5 239.4 59.5C243.5 59.5 246.6 61.5 248.9 65.6C252.5 61.5 257.6 59.5 264.3 59.5C272.7 59.5 279.1 62.4 283.5 68.3C288.8 62.4 295.3 59.5 303 59.5C317.6 59.5 324.8 67.9 324.8 84.6V112.3C324.8 121.7 321.6 126.4 315.2 126.4C309 126.4 305.8 121.7 305.8 112.3V90.5C305.8 80.9 302.8 76.1 296.8 76.1C290.2 76.1 287 80.8 287 90.3V112.4C287 121.8 283.8 126.5 277.5 126.5C271.2 126.5 268 121.8 268 112.4V90.5C268 80.9 265 76.1 259.1 76.1C252.5 76.1 249.1 80.8 249.1 90.3V112.4C249.1 121.8 246 126.5 239.7 126.5C233.3 126.4 230 121.8 230 112.3Z" fill="black"/>
<path d="M353.9 98.3C354.3 102 355.8 104.9 358.6 106.9C361.3 108.9 364.6 109.9 368.5 109.9C371.8 109.9 375.7 108.8 380.3 106.7C384.9 104.6 387.8 103.5 388.9 103.5C394 103.5 396.5 106 396.5 111C396.5 112.9 395.8 114.8 394.4 116.7C391.9 120.2 387.8 122.9 382.2 124.7C377.5 126.3 372.6 127.1 367.5 127.1C358 127.1 350 123.8 343.6 117.3C337.2 110.7 334.1 102.6 334.1 93C334.1 83.5 337.1 75.3 343.2 68.5C349.3 61.7 357.1 58.4 366.5 58.4C371.2 58.4 375.5 59.3 379.3 61C384.8 63.5 389.3 67.3 392.8 72.3C396.3 77.3 398 82.8 398 88.7C398 91.9 396.8 94.3 394.5 96C392.5 97.5 389.9 98.3 386.6 98.3H353.9ZM353.7 85.6H379.1C378.9 82.3 377.6 79.5 375.2 77.4C372.9 75.3 370 74.2 366.7 74.2C363.3 74.2 360.4 75.3 358.1 77.4C355.8 79.4 354.3 82.2 353.7 85.6Z" fill="black"/>
<path d="M426.3 81.6L442.6 64.6C445.9 61.1 449.2 59.3 452.5 59.3C454.6 59.3 456.5 60 458.1 61.4C459.7 62.8 460.5 64.6 460.5 66.7C460.5 69.9 458.9 73 455.6 76L442.6 88.1L460.6 109.3C463.1 112.3 464.4 115.5 464.4 118.8C464.4 121.1 463.5 123 461.6 124.4C459.7 125.8 457.7 126.5 455.4 126.5C451.6 126.5 448.3 124.6 445.4 120.7L426.2 94.8V112.3C426.2 121.7 423 126.4 416.5 126.4C409.9 126.4 406.7 121.7 406.7 112.3V46.1C406.7 36.7 410 32 416.5 32C423 32 426.2 36.7 426.2 46.1V81.6H426.3Z" fill="black"/>
<path d="M466.3 92.9001C466.3 83.1001 469.3 74.9 475.4 68.3C481.5 61.7 489.3 58.3 499 58.3C508.8 58.3 516.7 61.6 522.6 68.2C528.6 74.8 531.6 83.0001 531.6 92.9001C531.6 102.7 528.7 110.8 522.8 117.4C516.7 124.1 508.8 127.4 499.1 127.4C489.5 127.4 481.6 124 475.4 117.3C469.3 110.7 466.3 102.6 466.3 92.9001ZM486.3 92.8C486.3 97.2 487.3 100.9 489.4 103.9C491.7 107.4 494.9 109.2 499.1 109.2C503.3 109.2 506.6 107.5 508.9 103.9C510.9 101 511.9 97.3 511.9 92.8C511.9 88.5 510.9 84.8 508.8 81.8C506.5 78.3 503.3 76.5 499.1 76.5C494.9 76.5 491.6 78.2 489.3 81.6C487.3 84.7 486.3 88.4 486.3 92.8Z" fill="black"/>
<path d="M537.8 115.3C537.8 112.2 538.9 109.5 541 107.3C543.1 105.1 545.8 104 548.9 104C552.1 104 554.7 105.1 556.8 107.2C558.9 109.4 560 112 560 115.2C560 118.3 558.9 121 556.8 123.1C554.7 125.3 552 126.3 548.9 126.3C545.8 126.3 543.2 125.2 541 123.1C538.9 121.1 537.8 118.4 537.8 115.3Z" fill="black"/>
<path d="M588.5 63.8H589C593.1 60.1 598.2 58.2 604.2 58.2C613.2 58.2 620.5 61.8 626 69.1C631.2 75.8 633.8 83.7 633.8 93C633.8 99.7 632.2 105.8 629 111.3C625.7 117 621.2 121.3 615.4 124.2C611.8 125.9 608.1 126.8 604.2 126.8C597.5 126.8 592.3 124.6 588.6 120.2C586.1 124.4 583.1 126.5 579.4 126.5C572.9 126.5 569.6 121.8 569.6 112.4V46.1C569.6 36.7 572.9 32 579.4 32C585.5 32 588.6 36.7 588.6 46.1V63.8H588.5ZM588.5 93.2C588.5 97.5 589.5 101.1 591.6 103.9C593.9 107.1 597.2 108.7 601.3 108.7C605.5 108.7 608.7 107 611.1 103.6C613.1 100.7 614.1 97 614.1 92.6C614.1 88.1 613.1 84.4 611.1 81.4C608.8 77.9 605.5 76.1 601.3 76.1C597.1 76.1 593.8 77.7 591.5 81C589.5 83.9 588.5 87.5 588.5 91.9V93.2Z" fill="black"/>
<path d="M687.2 59.5C693.6 59.5 696.7 62.6 696.7 68.7C696.7 70.7 696.2 72.9 695.1 75.4L665.6 145.2C663.4 150.4 660.5 153 657.1 153C654.2 153 651.9 152.2 650.2 150.5C648.4 148.8 647.6 146.6 647.6 143.7C647.6 141.8 648.1 139.6 649.2 137.2L657.1 119.9L637.7 74.4C637 72.7 636.6 70.9 636.6 69C636.6 66.3 637.5 64 639.3 62.2C641.1 60.4 643.3 59.5 646 59.5C648.8 59.5 651 60.4 652.6 62.2C653.6 63.3 654.6 65.5 655.8 68.8L666.8 97.9L678.8 67.1C680.8 62 683.6 59.5 687.2 59.5Z" fill="black"/>
</svg>
