<svg width="120" height="120" viewBox="0 0 120 120" fill="none" xmlns="http://www.w3.org/2000/svg">
<g clip-path="url(#clip0_148_2005)">
<path d="M92 50.8C90.4 51.2 89.6 53.2 90.4 54.8C92.4 59.6 93.2 64.8 93.2 70C93.2 94 73.6001 113.2 50 113.2C26.4 113.2 6.80005 94 6.80005 70C6.80005 46 26 26.8 50 26.8C54.4001 26.8 59.2 27.6 63.6 28.8C65.2001 29.2 66.8 28.4 67.2 26.8C67.6 25.2 66.8 23.6 65.2 23.2C60.4 21.6 55.2001 20.8 50 20.8C22.8 20.8 0.800049 42.8 0.800049 70C0.800049 97.2 22.8 119.2 50 119.2C77.2001 119.2 99.2 97.2 99.2 70C99.2 64 98 58 96 52.4C95.6 51.2 93.6 50.4 92 50.8ZM50 60C51.6 60 53.2001 58.8 53.2001 56.8C53.2001 54.8 52 53.6 50 53.6C41.2001 53.6 34 60.8 34 69.6C34 78.4 41.2001 85.6 50 85.6C58.8 85.6 66 78.4 66 69.6C66 68 64.8 66.4 62.8 66.4C60.8 66.4 60 68.4 60 70C60 75.6 55.6 80 50 80C44.4001 80 40 75.6 40 70C40 64.4 44.4001 60 50 60ZM64.8 44.4C65.6001 42.8 64.8 41.2 63.2001 40.4C59.2001 38.4 54.4001 37.6 50 37.6C32 37.6 17.2001 52 17.2001 70C17.2001 88 32 102.8 50 102.8C68 102.8 82.8 88 82.8 70C82.8 65.2 82 60.8 80 56.8C79.2 55.2 77.6 54.4 76 55.2C74.4 56 74 57.6 74.4 59.2C76 62.8 76.8 66.4 76.8 70C76.8 84.8 64.8 96.8 50 96.8C35.2001 96.8 23.2001 84.8 23.2001 70C23.2001 55.2 35.2001 43.2 50 43.2C54 43.2 57.6 44 60.8 45.6C62.4 46.4 64 45.6 64.8 44.4ZM119.2 24.4C118.8 23.2 118 22.4 116.8 22.4L100.4 19.6L97.6 3.19999C97.6 1.99999 96.8 1.19999 95.6 0.799988C94.4 0.399988 93.2001 0.799988 92.4 1.59999L72.8 21.2C72 22 71.6 22.8 72 24L75.2 40.8L50 66H49.6C47.2 66 45.2001 68 45.2001 70.4C45.2001 72.8 47.2 74.8 49.6 74.8C52 74.8 54 72.8 54 70.4L79.6 44.8L96 48H96.4C97.2001 48 98 47.6 98.4 47.2L118 27.6C119.2 26.8 119.6 25.6 119.2 24.4ZM78.4 24L92.8 9.59999L94.8 20.8L80.8 34.8L78.4 24ZM96 41.6L85.2 39.6L99.2 25.6L110 27.6L96 41.6Z" fill="#FFE600"/>
</g>
<defs>
<clipPath id="clip0_148_2005">
<rect width="120" height="120" fill="white"/>
</clipPath>
</defs>
</svg>
