<svg width="120" height="120" viewBox="0 0 120 120" fill="none" xmlns="http://www.w3.org/2000/svg">
<path d="M89.7504 108.534H29.7504C24.7776 108.534 20.0084 106.558 16.4921 103.042C12.9758 99.5256 11.0004 94.7565 11.0004 89.7837V37.2837C11.0004 36.2891 11.3955 35.3353 12.0987 34.632C12.802 33.9288 13.7558 33.5337 14.7504 33.5337H89.7504C94.7232 33.5337 99.4923 35.5091 103.009 39.0254C106.525 42.5417 108.5 47.3109 108.5 52.2837V89.7837C108.5 94.7565 106.525 99.5256 103.009 103.042C99.4923 106.558 94.7232 108.534 89.7504 108.534ZM18.5004 41.0337V89.7837C18.5004 92.7674 19.6856 95.6289 21.7954 97.7386C23.9052 99.8484 26.7667 101.034 29.7504 101.034H89.7504C92.7341 101.034 95.5955 99.8484 97.7053 97.7386C99.8151 95.6289 101 92.7674 101 89.7837V52.2837C101 49.3 99.8151 46.4385 97.7053 44.3287C95.5955 42.219 92.7341 41.0337 89.7504 41.0337H18.5004Z" fill="#FFE600"/>
<path d="M97.2504 41.0337C96.2559 41.0337 95.302 40.6387 94.5988 39.9354C93.8955 39.2321 93.5004 38.2783 93.5004 37.2837V26.9712C93.5723 25.6576 93.3465 24.3447 92.8401 23.1304C92.3336 21.9162 91.5594 20.832 90.5754 19.9588C89.6912 19.2963 88.6677 18.844 87.5826 18.6361C86.4976 18.4282 85.3794 18.4701 84.3129 18.7587L21.4254 33.0462C20.5795 33.2368 19.8257 33.7145 19.2924 34.3983C18.7591 35.082 18.4792 35.9294 18.5004 36.7962C18.5004 37.7908 18.1053 38.7446 17.4021 39.4479C16.6988 40.1512 15.745 40.5462 14.7504 40.5462C13.7559 40.5462 12.802 40.1512 12.0988 39.4479C11.3955 38.7446 11.0004 37.7908 11.0004 36.7962C10.9784 34.2327 11.8326 31.7386 13.4216 29.7268C15.0106 27.715 17.239 26.3062 19.7379 25.7338L82.6629 11.4462C84.827 10.899 87.0877 10.8545 89.2718 11.316C91.4558 11.7775 93.5052 12.7328 95.2629 14.1087C97.1215 15.6862 98.602 17.6609 99.5951 19.8872C100.588 22.1135 101.068 24.5345 101 26.9712V37.2837C101 38.2783 100.605 39.2321 99.9021 39.9354C99.1988 40.6387 98.245 41.0337 97.2504 41.0337Z" fill="#FFE600"/>
<path d="M104.75 86.0337H78.5004C74.5221 86.0337 70.7068 84.4533 67.8938 81.6403C65.0807 78.8272 63.5004 75.0119 63.5004 71.0337C63.5004 67.0554 65.0807 63.2401 67.8938 60.4271C70.7068 57.614 74.5221 56.0337 78.5004 56.0337H104.75C105.745 56.0337 106.699 56.4288 107.402 57.132C108.105 57.8353 108.5 58.7891 108.5 59.7837V82.2837C108.5 83.2783 108.105 84.2321 107.402 84.9353C106.699 85.6386 105.745 86.0337 104.75 86.0337ZM78.5004 63.5337C76.5112 63.5337 74.6036 64.3239 73.1971 65.7304C71.7905 67.1369 71.0004 69.0446 71.0004 71.0337C71.0004 73.0228 71.7905 74.9305 73.1971 76.337C74.6036 77.7435 76.5112 78.5337 78.5004 78.5337H101V63.5337H78.5004Z" fill="#FFE600"/>
</svg>
