<svg width="44" height="44" viewBox="0 0 44 44" fill="none" xmlns="http://www.w3.org/2000/svg">
<path d="M30.6316 26.4508H16.6746L17.3754 25.0234L29.0191 25.0023C29.4129 25.0023 29.7504 24.7211 29.8207 24.332L31.4332 15.3062C31.4754 15.0695 31.4121 14.8258 31.2574 14.6406C31.181 14.5495 31.0856 14.4761 30.978 14.4255C30.8703 14.3749 30.7529 14.3484 30.634 14.3477L15.8215 14.2984L15.6949 13.7031C15.6152 13.3234 15.273 13.0469 14.884 13.0469H11.2629C11.0435 13.0469 10.833 13.134 10.6779 13.2892C10.5227 13.4444 10.4355 13.6548 10.4355 13.8742C10.4355 14.0936 10.5227 14.3041 10.6779 14.4592C10.833 14.6144 11.0435 14.7016 11.2629 14.7016H14.2137L14.7668 17.3312L16.1285 23.9242L14.3754 26.7859C14.2843 26.9088 14.2295 27.0547 14.2171 27.2071C14.2047 27.3596 14.2351 27.5124 14.3051 27.6484C14.4457 27.9273 14.7293 28.1031 15.0434 28.1031H16.5152C16.2014 28.5199 16.032 29.0275 16.0324 29.5492C16.0324 30.8758 17.1105 31.9539 18.4371 31.9539C19.7637 31.9539 20.8418 30.8758 20.8418 29.5492C20.8418 29.0266 20.6684 28.518 20.359 28.1031H24.1348C23.821 28.5199 23.6515 29.0275 23.6519 29.5492C23.6519 30.8758 24.7301 31.9539 26.0566 31.9539C27.3832 31.9539 28.4613 30.8758 28.4613 29.5492C28.4613 29.0266 28.2879 28.518 27.9785 28.1031H30.634C31.0887 28.1031 31.4613 27.7328 31.4613 27.2758C31.46 27.0566 31.372 26.8468 31.2165 26.6923C31.0611 26.5377 30.8508 26.4509 30.6316 26.4508ZM16.166 15.9297L29.6613 15.9742L28.3394 23.3758L17.7387 23.3945L16.166 15.9297ZM18.4371 30.2898C18.0293 30.2898 17.6965 29.957 17.6965 29.5492C17.6965 29.1414 18.0293 28.8086 18.4371 28.8086C18.8449 28.8086 19.1777 29.1414 19.1777 29.5492C19.1777 29.7456 19.0997 29.934 18.9608 30.0729C18.8219 30.2118 18.6335 30.2898 18.4371 30.2898ZM26.0566 30.2898C25.6488 30.2898 25.316 29.957 25.316 29.5492C25.316 29.1414 25.6488 28.8086 26.0566 28.8086C26.4645 28.8086 26.7973 29.1414 26.7973 29.5492C26.7973 29.7456 26.7192 29.934 26.5803 30.0729C26.4414 30.2118 26.2531 30.2898 26.0566 30.2898Z" fill="#FFE600"/>
</svg>
